<?xml version="1.0" encoding="utf-8"?>
<!-- Generator: Adobe Illustrator 18.0.0, SVG Export Plug-In . SVG Version: 6.00 Build 0)  -->
<!DOCTYPE svg PUBLIC "-//W3C//DTD SVG 1.1//EN" "http://www.w3.org/Graphics/SVG/1.1/DTD/svg11.dtd">
<svg version="1.1" id="Layer_1" xmlns="http://www.w3.org/2000/svg" xmlns:xlink="http://www.w3.org/1999/xlink" x="0px" y="0px"
	 viewBox="0 0 1080 1080" enable-background="new 0 0 1080 1080" xml:space="preserve">
<g>
	<g>
		<linearGradient id="SVGID_1_" gradientUnits="userSpaceOnUse" x1="472.1377" y1="745.184" x2="602.3125" y2="745.184">
			<stop  offset="0" style="stop-color:#42ABC2"/>
			<stop  offset="1" style="stop-color:#0B0E1B"/>
		</linearGradient>
		<path fill-rule="evenodd" clip-rule="evenodd" fill="url(#SVGID_1_)" d="M524.5,761.4c7.1,2.7,13.8,6.6,18.5,12.6
			c1.2,1.9,2.3,3.6,3.4,5.3c9.9-2.8,8-13.8,13.5-17.5c3.5-2.4,9.8-1.2,11.5,2.9c1.7,4.2-0.4,9.1-3.6,12c-4.5,4.1-11,6.5-18.1,7.4
			l0.1,0.1c1.4,1.9,2.7,3.6,4,5.1c7.3,8.9,12.3,13.7,19.3,16.1c0.1,0,0.2,0.1,0.4,0.1c0.3,0,1-0.5,1-0.5
			c7.2-5.6,13.9-12.9,19.3-21.9c23.4-38.3-3.3-98.1-54.1-98.1c-33.1,0-60.8,23.3-67.5,54.5c8.2,8.7,18.7,14.5,30.3,16.5
			c2.1,0.4,4.2,0.8,6.3,1.2c0.4-1.1,1-2.2,1.7-3.3c2.1-3.1,5.7-5.9,8.8-7.9c5.6-3.6,8-1.7,1.5-6.1c-15.1-10.1-11.3-30.7,15.9-33.7
			c8.5-0.9,20.9-0.4,28,5c10.9,8.2-1.4,19.3-8.2,11.9c-3-3.3-6.2-16-20.3-12c-9.1,2.6-12.5,13.1-9.6,21.5c3.8,11.1,15.4,8.5,24.2,8
			c8.4-0.5,7.6,6,1,5.8c-5.4-0.1-9.3-1.7-14.9-0.6C528.3,747.3,524.6,753.7,524.5,761.4z"/>
		<linearGradient id="SVGID_2_" gradientUnits="userSpaceOnUse" x1="524.0225" y1="729.1271" x2="567.8134" y2="798.7573">
			<stop  offset="0" style="stop-color:#73BA24"/>
			<stop  offset="1" style="stop-color:#136227"/>
		</linearGradient>
		<path fill-rule="evenodd" clip-rule="evenodd" fill="url(#SVGID_2_)" d="M523.7,807.2c7.2,6.5,15.3,12,25.7,15.2
			c33.6-4.7,59.4-33.6,59.4-68.4c0-20.5-8.9-38.9-23-51.5c35.5,42.9,17.9,86.8-12.4,105.8c0,0,0,0,0-0.1c-7-2.3-13.3-6.7-20.6-15.6
			c-1.3-1.6-2.6-3.3-4-5.1c-2.2-3-4.4-6.4-6.9-10.2c-7.2-9.3-18.8-13.4-29.9-16c-3.6-0.8-7.1-1.5-10.7-2.1
			c-11.6-2-21.8-7.6-29.9-16.3c-0.6,3.6-0.9,7.3-0.9,11.1c0,38.2,30.9,69.1,69.1,69.1c1.7,0,3.4-0.1,5.1-0.2
			c-9.6-4-17.7-9.3-24.3-15.8c-6.3-6.5-11.6-13.6-16.3-20.9C510.1,794.1,516.6,801.1,523.7,807.2z"/>
	</g>
</g>
<g>
	<g>
		<path fill="#52A83D" d="M483.1,541.4l0,0.8l0,1.1l-0.1,0.7l-0.3,1l-0.2,0.7l-0.3,0.7l-0.3,0.7l-0.3,0.7l-0.3,0.7l-0.5,1l-0.4,0.6
			l-0.6,0.7l-0.4,0.5l-0.7,0.7l-1,1l-0.6,0.5l-0.8,0.7l-0.6,0.4l-0.9,0.5l-0.6,0.3l-1,0.4l-0.7,0.2l-0.7,0.2l-0.7,0.1l-2.7,0.4
			l-0.7,0l-1,0.1h-0.7l-1.4,0l-1.1-0.1h-0.7l-1.4,0.1l-1.1,0l-0.8,0l-0.7,0h-3.1l-0.7,0l-1.9-0.2l-0.4-0.2l-0.2-0.2l-0.1-0.5l0-0.7
			l0-0.4l0.1-1.3v-0.6l0-1v-0.7l0-0.7v-0.7l0-2.3v-0.7l-0.1-2.3l0-0.7l0-1l0.1-0.7l0-0.8v-0.7l-0.1-1.1l0-0.8v-0.4l0-0.8l0.2-2.3
			v-0.7l0-2.3v-0.7l-0.1-2.3V527l0-0.7l0.1-0.7l0.1-0.5l0.2-0.3l0.5-0.1l0.8-0.1l0.7-0.1l0.7,0l3.9,0h0.7l2.1,0.1l0.4,0h0.8l1.9-0.1
			l0.7,0h0.7l1.1,0.1l1.4,0.1l0.7,0.1l1.1,0.2l0.7,0.1l0.7,0.2l1.6,0.6l0.7,0.3l0.7,0.4l0.6,0.4l1.5,1l0.6,0.5l0.5,0.4l1,0.9
			l0.4,0.4l0.4,0.5l0.3,0.6l0.5,1l0.3,0.7l0.2,0.7l0.3,0.7l0.2,0.7l0.2,0.7l0.2,1l0.1,0.7l0.1,0.7l0.1,0.7l0,1.1l0,0.7L483.1,541.4z
			 M473,545.2l0.3-0.7l0.3-0.8l0.2-0.7l0.2-1l0-0.6l0-1v-1.4l0-0.7l-0.1-1l-0.2-0.7l-0.1-0.3l-0.4-0.7l-0.7-0.9l-0.2-0.2l-0.4-0.5
			l-0.5-0.5l-0.5-0.4l-1-0.6l-0.6-0.3l-0.6-0.1l-0.7-0.1l-1.1,0l-0.8,0H465l-1,0l-0.7,0l-1,0.1l-0.5,0.1l-0.2,0.2l-0.1,0.5l0,0.4
			l0,0.7l0.1,1.3l0,0.7l0.1,1l0.1,0.7l0,0.7v0.7l0,1v2.1l0,0.7l0,0.7l-0.1,1v0.6l0,1l0,0.7l0.1,1.1l0.2,0.5l0.3,0.2l0.5,0l4.1-0.3
			l1,0l0.7-0.1l0.8-0.2l0.7-0.3l0.7-0.3l0.6-0.4l0.8-0.7l0.4-0.5L473,545.2z"/>
		<path fill="#52A83D" d="M513.1,552.4l0,0.7l-0.2,2.4l0,0.4l-0.2,0.3l-0.2,0.2l-5.8,0.2h-0.7l-2.3-0.2l-0.7,0l-2.3,0.2l-0.7,0h-3
			l-2.3-0.2h-0.7l-3.8,0.2l-1.5-0.1l-0.5-0.1l-0.3-0.2l-0.1-0.3l-0.1-0.5l-0.1-1l0-0.7l0-0.7v-0.7l0.2-2.3v-0.7l0-2.3l0-0.7
			l-0.1-2.3l0-0.7l0.1-2.4v-3.8l0.2-2.3l0-0.7l-0.1-2.3l0-0.7v-1.1l0.1-1.3v-0.7l0.1-2.3l0-0.6l0.1-0.4l0.2-0.2l0.4,0l0.6-0.1
			l2.9,0.2l2.7,0h0.7l2.6,0.2h0.7l2.6-0.2h0.7l6,0.1l0.8,0l1.5-0.1h1.1l0.6,0.1l0.3,0.2l0.1,0.3l0.1,0.6v1.2l-0.1,1.1v0.8l0,1.1
			l0,0.7l0,0.7l-0.1,0.5l-0.2,0.3l-0.2,0.2l-0.5,0.1h-0.4l-0.7,0l-4.1-0.1h-0.7l-2.2,0.1h-0.7l-2.3-0.1l-2-0.1h-0.7l-0.4,0l-0.4,0.1
			l-0.2,0.2l0,0.3l-0.1,0.5l-0.1,1.1v0.7l0,0.7l0,0.5l0.1,0.3l0.2,0.2l0.5,0.1l1.4,0.1l1.4-0.1h4.2l4.9-0.3l1.4,0.1l0.5,0.1l0.3,0.2
			l0.1,0.3l0,0.5l0.1,0.8l0,0.8v1.5l0.1,1l-0.1,1.3l-0.1,0.5l-0.2,0.3l-0.3,0.2l-0.4,0.1h-0.9l-2-0.2l-0.7,0l-3.5,0.2l-2.8-0.1h-0.7
			l-1.8-0.1l-0.8,0l-0.5,0l-0.2,0.1l-0.1,0.3l0,0.7l-0.1,1.1l0,0.7v1l0,0.4l0.1,0.3l0.2,0.2l0.5,0l2.4,0.1h0.7l2.4-0.2l3.1,0.2h0.7
			l3.1-0.2h0.7l0.7,0l1.6,0.2l0.3,0.1l0.2,0.3l0,0.5L513.1,552.4z"/>
		<path fill="#52A83D" d="M560.5,554.4l0,0.7v0.4l-0.1,0.5l-0.3,0.3l-0.3,0.1l-0.4,0.1h-0.4l-0.6,0l-4.9-0.3h-3.3l-4,0.3l-2.6-0.2
			h-3.3l-2,0.1h-0.7l-0.6,0l-0.5-0.1l-0.3-0.2L536,556l-0.1-0.5v-0.7l0.2-1.7l0-0.7l-0.2-2.3v-0.7l0.1-2.3v-0.7l0.1-5.4v-0.7
			l-0.2-5.4v-0.7l0-2.3v-3.7l-0.1-1.3v-0.7l0-0.4l0.1-0.6l0.2-0.3l0.3-0.1l0.5-0.1h0.4l0.7,0l2.2,0.1h0.7l3.1,0h0.4l0.3,0.2l0.2,0.3
			v3.8l0.1,2.6v0.7l-0.1,2.6v0.7l0.1,2.6v0.7l0.1,2.6v0.7l-0.3,5.8l0,0.4l0,0.2l0.1,0.2l0.2,0.2l0.5,0.1l1.5,0.1l1.3-0.1h0.7
			l6.4-0.1l0.7,0l1.5-0.2l0.7,0h0.7l0.5,0.1l0.3,0.3l0.1,0.3l0,0.5l0,2.5l0,0.7L560.5,554.4z"/>
		<path fill="#52A83D" d="M596.6,540.2l0,0.7l-0.1,1l-0.1,0.7l-0.3,1.3l-0.1,1l-0.1,0.7l-0.1,0.7l-0.2,0.7l-0.4,0.9l-0.3,0.6l-1.2,2
			l-0.4,0.6l-0.4,0.6l-0.4,0.5l-0.7,0.8l-0.5,0.4l-0.6,0.4l-0.5,0.4l-0.8,0.5l-0.6,0.4l-0.7,0.4l-0.6,0.3l-0.9,0.4l-0.7,0.2
			l-1.4,0.4l-0.8,0.2l-0.7,0.2l-0.8,0.2l-0.7,0.1l-0.8,0h-2.4l-1.5-0.1l-1.5-0.2l-0.6-0.1l-0.7-0.2l-2.4-0.8l-0.7-0.2l-0.8-0.3
			l-1.4-0.6l-0.7-0.4l-0.7-0.4l-0.6-0.4l-0.6-0.5l-0.5-0.6l-0.5-0.6l-1.2-1.2l-0.4-0.5l-0.4-0.6l-0.4-0.6l-0.4-0.9l-0.7-2l-0.3-0.9
			l-0.1-0.7l-0.1-0.7l-0.1-0.7l-0.1-1l0-0.7l0-0.7v-0.8l0-0.7l0-0.8l0.1-0.8l0.1-0.8l0.2-0.7l0.2-0.8l0.2-0.7l0.3-0.7l0.3-1l0.3-0.7
			l0.2-0.4l0.4-0.7l0.6-1l0.4-0.6l0.2-0.4l0.5-0.5l0.7-0.6l0.6-0.4l0.6-0.4l1.3-0.9l0.6-0.4l0.6-0.4l0.6-0.3l0.9-0.4l0.6-0.2
			l0.7-0.2l0.7-0.2l1.7-0.3l0.7-0.1l2.2-0.3l1.4-0.1l1.3,0.1l1.1,0l0.8,0.1l0.7,0.1l0.7,0.2l0.8,0.1l0.7,0.2l0.7,0.2l0.7,0.2
			l0.9,0.4l0.6,0.3l1.5,0.8l0.6,0.4l0.6,0.4l0.7,0.7l0.5,0.4l0.5,0.5l0.4,0.5l0.6,0.8l0.4,0.6l0.3,0.6l0.4,0.6l0.5,0.9l0.4,0.6
			l0.3,0.7l0.2,0.6l0.2,1l0.3,1.3l0.1,0.8l0.1,0.7L596.6,540.2z M585.9,546l0.4-0.6l0.4-1l0.3-0.7l0.2-1l0.1-0.7l0.1-1.1v-0.8l0-0.7
			l0-0.7l-0.3-1.3l-0.2-0.6l-0.5-1l-0.4-0.6l-0.6-0.8l-0.4-0.5l-0.7-0.7l-0.5-0.4l-1.1-0.7L582,532l-0.7-0.2l-0.7-0.1l-1.4-0.1
			l-0.7,0l-1,0l-0.7,0.1l-1.1,0.3l-0.7,0.3l-1,0.5l-0.6,0.4l-0.7,0.6l-0.5,0.5l-0.5,0.7l-0.4,0.6l-0.1,0.3l-0.4,0.9l-0.2,0.7
			l-0.1,0.3l-0.1,0.6l-0.1,0.6l0,0.6l0,0.7v0.7l0,0.7l0.1,0.7l0,0.4l0.2,0.7l0.1,0.3l0.2,0.6l0.2,0.4l0.4,0.6l0.2,0.4l0.5,0.6
			l0.3,0.3l0.5,0.5l0.9,0.7l0.6,0.4l0.7,0.4l0.7,0.3l0.9,0.3l0.7,0.1l1.1,0.1l0.7,0l1.1-0.1l0.7-0.1l1-0.2l0.6-0.3l1-0.6l0.5-0.4
			l0.7-0.7l0.4-0.5L585.9,546z"/>
		<path fill="#52A83D" d="M626.8,546.6l0,0.7l-0.1,0.7l-0.1,0.7l-0.2,1l-0.2,0.6l-0.4,0.9l-0.3,0.6l-0.5,0.8l-0.4,0.5l-0.5,0.5
			l-0.5,0.5l-0.9,0.6l-0.6,0.4l-0.7,0.4l-0.6,0.3l-1,0.4l-1.3,0.4l-0.7,0.1l-1.1,0.2l-0.7,0.1l-1,0.1l-0.6,0l-1,0l-2.1,0.1h-1
			l-0.6,0l-1-0.1l-0.7-0.1l-0.7-0.1l-0.7-0.2l-1-0.3l-0.6-0.3l-0.7-0.3l-0.6-0.3l-0.6-0.4l-1.4-1l-0.5-0.4l-0.8-0.6l-0.5-0.4
			l-0.5-0.5l-0.4-0.4l0-0.3l0.2-0.4l0.2-0.2l0.4-0.5l1.2-1.1l0.4-0.5l0.7-1.1l0.4-0.5l0.4-0.5l0.5-0.3l0.5,0.1l0.5,0.4l1.4,1
			l0.7,0.4l0.6,0.3l1,0.5l0.7,0.2l0.7,0.2l0.7,0.1l1,0l0.7,0l2.8-0.2l0.7-0.1l0.4-0.1l0.7-0.3l0.6-0.4l0.4-0.4l0.2-0.3l0.3-0.7
			l0-0.8l-0.1-0.4l-0.4-0.6l-0.2-0.3l-0.6-0.4l-0.4-0.1l-0.7-0.3l-0.8-0.2l-0.7-0.1l-4.2-0.4l-1.3-0.3l-0.7-0.2l-1-0.4l-0.7-0.2
			l-0.7-0.3l-1.5-0.7l-0.6-0.4l-0.7-0.4l-0.6-0.4l-0.8-0.6l-0.4-0.6l-0.4-0.7l-0.3-0.7l-0.3-0.9l-0.1-0.7l-0.1-1l-0.1-1.4l0-0.7
			l0.1-1.1l0.1-0.7l0.2-0.6l0.2-0.7l0.4-1l0.3-0.6l0.4-0.5l0.4-0.5l0.7-0.7l0.6-0.4l0.6-0.4l0.6-0.3l0.8-0.5l1.3-0.5l0.7-0.2l1-0.2
			l0.7-0.1l1.3-0.2l1-0.2l0.7-0.1l0.7,0h0.7l1.3,0.1l0.7,0.1l0.3,0.1l0.7,0.1l1.5,0.3l0.7,0.2l0.7,0.2l0.7,0.2l0.7,0.3l0.7,0.3
			l0.7,0.3l0.8,0.5l0.6,0.3l0.6,0.4l0.4,0.4v0.4l-0.3,0.5l-0.5,0.9l-0.4,0.5l-1.7,2.2l-0.5,0.6l-0.5,0.4l-0.4,0.1l-0.3,0l-0.4-0.2
			l-0.7-0.4l-0.7-0.3l-0.3-0.1l-0.7-0.2l-0.4-0.1l-0.7-0.2l-1-0.2l-0.7,0l-1.1-0.1h-1.1l-0.8,0l-0.7,0.1l-0.7,0.2l-0.3,0.1l-0.5,0.4
			l-0.2,0.3l-0.3,0.6l-0.1,0.7l0.1,0.6l0.4,0.6l0.5,0.4l0.5,0.3l0.3,0.1l0.7,0.1l1.1,0.1l1.5,0.1l0.7,0.1l1.5,0.4l1.4,0.4l1,0.2
			l0.7,0.2l1.2,0.4l0.9,0.4l0.6,0.3l0.6,0.4l0.6,0.4l1.3,1.1l0.5,0.5l0.4,0.5l0.5,0.8l0.4,0.6l0.3,0.7l0.2,0.7l0.2,1l0.1,0.7
			L626.8,546.6z"/>
	</g>
	<g>
		<path fill="#52A83D" d="M417.8,487.2l0.3,1.3l-0.6,1l-1,0.5l-1.2,0.2h-1.3l-2.1-0.2l-1.4-0.1h-4.2l-5.7,0.4l-1.2-0.4l-0.6-0.7
			l-0.5-1l-2.9-7.8l-0.6-0.9l-0.8-0.2l-1.1-0.1l-5.5-0.4h-1.5l-6.9-0.2l-5.5-0.1h-1.4l-1.4,0.1h-4.3l-1.2,0.2l-0.7,0.5l-0.6,1.1
			l-2.1,6.3l-0.6,1.5l-1,1.2l-1.4,0.6l-1.5-0.1l-5.4-0.3h-1.5l-5.7,0.4l-1.2,0.1l-1.1-0.6l-0.7-1l0.1-1.2l0.2-0.7l0.6-1.5l1.3-2.9
			l0.6-1.4l2.3-5.2l0.6-1.3l2.4-5.2l0.6-1.4l2.1-5l0.6-1.4l2.5-5.2l0.6-1.3l3.3-7.6l2.6-5.5l0.6-1.5l2-4.2l0.6-1.5l1.8-4.3l0.6-1.4
			l1.7-3.8l0.5-1l0.9-0.6l1.4-0.3l4.3-0.2h7.2l4.3,0.1l1.6,0.3l1,0.7l0.5,1.2l1.3,3.6l0.6,1.4l2.3,4.3l0.6,1.3l2,4.5l0.6,1.3
			l1.7,4.7l0.6,1.3l2,4.4l0.6,1.3l2,4.5l0.6,1.3l1.8,4.6l0.6,1.3l2.9,5.7l2.2,4.3l0.6,1.3l2.5,5.8L417.8,487.2z M386.9,461.1
			l-0.4-1.2l-2-6.3l-0.5-1.4l-1.8-5.5l-0.5-1.2l-0.9-0.6l-1.2-0.3l-1,0.3l-0.9,0.9l-2.5,6.3l-0.6,1.4l-2.4,6.2l-0.3,1.4l0.3,1.1
			l1,0.5l1.3,0.2h5.8l4.3,0.3l1.2-0.4l0.7-0.7L386.9,461.1z"/>
		<path fill="#52A83D" d="M498.5,481.4l0.1,1.5l0.4,2.9l0.1,1.4l-0.1,0.7l-0.1,1l-0.5,0.7l-0.6,0.5l-1,0.2l-1.4,0.1H494l-3.7-0.3
			l-1.6-0.1h-2.3l-1.7-0.1l-3.4-0.5l-0.6-0.2l-0.4-0.5l-0.1-0.9l-0.1-1.3l-0.1-1.4l0.2-3.1v-8.7l-0.3-5.8V466l0.4-5.7v-7.2l-0.2-1.1
			l-0.6-0.4H479l-0.6,0.8l-0.9,1.3l-3.9,4.4l-5.6,6.8l-3.7,4.6l-0.8,0.7l-0.6,0.3H462l-1-0.2l-1.1-0.3l-1-0.7l-4.6-5.5l-3.4-4.5
			l-0.9-1.1l-4.8-5.4l-1.2-1.2l-0.6,0.2l-0.2,1l-0.3,5.8v1.5l0.4,5.8v1.5l0.2,5.8v1.5l-0.1,5.7v1.4l0.1,2.8l-0.1,1.5l-0.1,1.6
			l-0.2,1.2l-0.4,0.6l-0.6,0.2l-2.4,0.3l-1.5,0.1l-3.6-0.3l-1.5,0.1l-4.4,0.4h-2.1l-1.1-0.2l-0.6-0.6l-0.2-0.6l-0.2-0.9v-2.1
			l0.2-2.9v-14.2l-0.2-4.9v-1.5l0.1-4.9l-0.1-1.5l-0.3-5v-1.5l0.3-4.9l0.1-1.5l-0.4-4.9l0.1-1.5l0.4-4.9v-1.5l-0.4-3.4v-1.5l0.2-1.2
			l0.4-0.6l0.6-0.5l0.7-0.2l1.2-0.1l1.6,0.2l2,0.5h1.5l2.9-0.3l1.6-0.2l1.4-0.1l3.5,0.1h1.2l1,0.5l0.9,1l3.2,3.6l0.9,1.2l2.7,3.8
			l0.9,1.2l3.1,3.6l0.9,1.3l2.9,3.6l0.9,1l0.8,0.5h0.9l0.8-0.5l0.8-0.9l2.8-3.7l0.9-1.3l3-3.6l0.9-1.2l3.2-3.6l0.9-1.2l2.4-3l0.7-1
			l0.7-0.7l0.9-0.5l1.2,0.1l4.9,0.3l4.3,0.1h1.5l2.8-0.2l1.6,0.1l1.1,0.2l0.6,0.2l0.6,0.5l0.2,0.7l-0.1,1.1l-0.4,4.2l-0.1,1.5
			l0.2,4.9v1.5l-0.1,4.9v1.5l0.1,4.9v1.5l0.4,5v1.5l-0.4,4.9v1.5l0.3,4.9v1.5l-0.4,4.9v1.5L498.5,481.4z"/>
		<path fill="#52A83D" d="M527.5,475.1v1.5l-0.4,5v1.5l-0.1,5.1v1l-0.3,0.5l-0.7,0.3l-1.3,0.1l-4.7-0.1h-5.7l-4.6-0.4l-0.6-0.2
			l-0.3-0.3v-0.9l-0.2-2.3v-1.5l-0.1-1.4v-1.4l-0.3-5l0.1-1.5l0.3-5l0.1-1.5l-0.3-5.1V462l-0.1-5v-8l-0.1-5.1v-1.5l0.1-5v-8
			l-0.2-5.1l0.3-1l0.6-0.4l0.9-0.1h0.7l1.4-0.1l2.2,0.1h1.5l4.3-0.2h5.7l1,0.2l0.2,0.6l0.1,1l0.2,2.4l0.1,1.5v9.1l0.1,5v1.5
			l-0.1,5.1v1.5l0.1,5v1.5l-0.2,5v8L527.5,475.1z"/>
		<path fill="#52A83D" d="M599.5,451.9l0.1,1.6l-0.4,6v8.7L599,472v5.5l-0.1,1l-0.6,0.9l-0.7,1.2l-0.8,1.2l-1.6,1.6l-1.1,1l-0.6,0.6
			l-1.2,0.8l-0.6,0.4l-1.2,0.7l-1.8,0.9l-1.4,0.6l-1.3,0.5l-2.1,0.6l-1.4,0.4l-1.5,0.3l-1.4,0.3l-2.1,0.3l-1.3,0.2l-1.4,0.3
			l-3.7,0.5l-1.4,0.1l-2.9-0.2l-2.1-0.2l-1.5-0.2l-1.5-0.3l-1.4-0.4l-3.2-0.9l-1.4-0.4l-1.4-0.5l-1.8-0.6l-1.2-0.6l-1.9-1l-1.1-0.8
			l-1.2-0.8l-1.1-0.9l-1.1-0.8l-1-0.9l-1.5-1.5l-0.9-1.1l-1-1.4l-0.8-1.3l-2.3-4.2l-0.6-1.5l-0.6-1.4l-0.5-1.5l-0.5-1.6l-0.3-1.5
			l-0.3-1.6l-0.2-1.5l-0.4-2l-0.2-1.5l-0.1-1.4v-1.4l0.3-4.2l0.2-0.7l0.3-1.6l0.4-1.6l0.5-1.5l0.5-1.6l0.5-1.5l0.5-1.4l0.6-1.5
			l0.6-1.6l0.6-1.3l1.2-1.7l0.8-1.1l1-1.2l1-1.1l1.1-1l2.4-2l1.2-0.9l1.1-0.8l1.1-0.7l3.1-1.8l1.4-0.8l1.6-0.6l1.6-0.5l1.5-0.4
			l3.4-0.6l2.7-0.4l1.4-0.3l1.4-0.2l2.1-0.2l1.5-0.1l2,0.2l1.4,0.1l2.1,0.3l1.3,0.3l2,0.4l1.4,0.4l2,0.6l1.4,0.5l3.3,1.7l1.4,0.8
			l1.2,0.8l0.5,0.3l1,0.6l1,0.7l0.5,0.5l1,0.7l0.6,0.5l0.6,0.6v0.6l-0.3,0.6l-0.6,0.8l-0.8,1.2l-0.9,1l-2.6,2.6l-1.7,1.5l-1.1,0.9
			l-1,0.7l-0.7,0.6l-0.6,0.4l-0.7,0.1l-1-0.6l-1.2-0.8l-1.2-0.7l-1.3-0.7l-1.5-0.6l-1.5-0.6l-1.6-0.4l-1.6-0.3l-4.3-0.3H569
			l-1.5,0.1l-2.4,0.2l-1.5,0.4l-2.8,1.3l-1.2,0.8l-1.2,0.9l-1,1l-0.9,1.2l-0.8,1.2l-0.7,1.3l-0.6,1.4l-0.5,1.5l-0.4,1.4l-0.6,2.8
			l-0.3,1.5l-0.1,1.6v1.6l0.2,2.2l0.3,1.5l0.5,2.1l0.5,1.5l0.9,2.2l0.6,1.3l1.1,1.7l0.9,1.1l1.7,1.6l1.2,0.9l1.8,1l1.4,0.6l2.8,0.6
			l1.6,0.2l1.6,0.1h1.5l1.5-0.2l1.4-0.3l5-1.2l1.5-0.6l1.4-0.6l0.9-0.6l0.3-0.6v-1l0.1-0.8v-1.4l-0.2-2.8v-1.6l-0.4-0.6l-1-0.2h-2.2
			l-1.5,0.1l-2.1,0.3l-1.5,0.1h-2.1l-1.5-0.1l-3.1-0.6l-0.6-0.2l-0.4-0.5l-0.2-1.1l-0.1-0.7l-0.1-1.5l0.1-2.3l-0.2-2.8l-0.2-1.4
			v-1.9l0.3-1l0.5-0.5l1.1-0.2l2.3-0.3l1.6-0.1h4.3l6-0.3l7.4,0.5h1.5l3.8-0.5l1.5-0.1l0.7,0.1l1.4,0.3l0.6,0.4l0.2,0.6l0.3,1.3
			L599.5,451.9z"/>
		<path fill="#52A83D" d="M678.3,455.7l-0.1,1.5l-0.2,2.1l-0.2,1.4l-0.6,2.8l-0.2,2.1l-0.2,1.4l-0.3,1.5l-0.4,1.4l-0.9,1.9l-0.6,1.3
			l-2.5,4.2l-0.8,1.2l-0.9,1.2l-0.9,1l-1.5,1.6l-1,0.9l-1.2,0.9l-1.1,0.8L663,486l-1.2,0.7l-1.4,0.7l-1.3,0.6l-1.8,0.7l-1.4,0.4
			l-3,0.9l-1.6,0.5l-1.5,0.4l-1.6,0.4l-1.6,0.3l-1.6,0.1h-5l-3.1-0.2l-3.1-0.4l-1.3-0.3l-1.4-0.4l-5-1.7l-1.5-0.5l-1.6-0.6l-3-1.3
			l-1.4-0.7l-1.4-0.8l-1.2-0.9l-1.2-1l-1.1-1.2l-1-1.2l-2.5-2.5l-0.9-1.1l-0.9-1.2l-0.7-1.2l-0.7-1.8l-1.4-4.2l-0.6-1.9l-0.3-1.4
			l-0.3-1.5l-0.3-1.4l-0.3-2l-0.1-1.4l-0.1-1.6v-1.6l0.1-1.6l0.1-1.7l0.2-1.6l0.3-1.6l0.4-1.6l0.5-1.6l0.5-1.4l0.6-1.5l0.6-2.1
			l0.6-1.5l0.4-0.8l0.7-1.4l1.3-2l0.9-1.3l0.5-0.7l1.1-1.1l1.6-1.3l1.2-0.9l1.2-0.8l2.8-1.8l1.2-0.7l1.3-0.7l1.3-0.6l1.9-0.8
			l1.3-0.5l1.4-0.5l1.4-0.4l3.5-0.6l1.4-0.3l4.6-0.6l3-0.2l2.8,0.2l2.2,0.1l1.6,0.2l1.6,0.3l1.6,0.4l1.6,0.3l1.5,0.4l1.4,0.4
			l1.4,0.5l1.9,0.7l1.3,0.6l3.1,1.8l1.2,0.8l1.2,0.9l1.6,1.5l1,0.9l1,1l0.8,1.1l1.3,1.8l0.7,1.2l0.6,1.2l0.7,1.2l1,1.8l0.7,1.2
			l0.6,1.4l0.5,1.3l0.5,2.1l0.6,2.8l0.2,1.6l0.3,1.6L678.3,455.7z M655.7,467.7l0.8-1.3l0.9-2l0.6-1.4l0.5-2.1l0.2-1.4l0.2-2.2v-1.6
			l-0.1-1.6l-0.1-1.5l-0.6-2.8l-0.4-1.3l-1-2l-0.7-1.2l-1.3-1.7l-0.9-1l-1.4-1.5l-1-0.8l-2.4-1.4l-1.3-0.6l-1.5-0.5l-1.5-0.3l-3-0.2
			l-1.4,0.1l-2,0.1l-1.4,0.3l-2.4,0.6l-1.5,0.6l-2.1,1.1l-1.3,0.8l-1.5,1.3l-1,1.1l-1,1.4l-0.7,1.2l-0.3,0.6l-0.8,1.9l-0.5,1.4
			l-0.3,0.6l-0.3,1.3l-0.2,1.3l-0.1,1.3l-0.1,1.4v1.4l0.1,1.5l0.3,1.5l0.1,0.8l0.4,1.4l0.2,0.6l0.5,1.3l0.4,0.7l0.7,1.3l0.5,0.7
			l1,1.3l0.6,0.6l1.1,1.1l1.8,1.6l1.3,0.8l1.5,0.7l1.4,0.6l1.9,0.6l1.4,0.3l2.3,0.3l1.6,0.1l2.3-0.2l1.5-0.2l2-0.5l1.3-0.6l2-1.3
			l1.1-0.8l1.5-1.5l0.9-1L655.7,467.7z"/>
		<path fill="#52A83D" d="M737.8,469.1l-0.1,1.6l-0.2,1.6l-0.3,1.5l-0.5,2l-0.5,1.3l-0.8,1.8l-0.6,1.2l-1.1,1.7l-0.9,1.1l-1.1,1.1
			l-1.1,1l-1.8,1.2l-1.2,0.8l-1.4,0.7l-1.3,0.6l-2.1,0.7l-2.8,0.9l-1.5,0.3l-2.3,0.4l-1.4,0.2l-2,0.2l-1.3,0.1l-2.1,0.1l-4.4,0.3h-2
			l-1.3-0.1l-2.1-0.2l-1.4-0.2l-1.6-0.3l-1.4-0.5l-2-0.6l-1.3-0.6l-1.4-0.6l-1.3-0.6l-1.2-0.7l-3-2l-1.1-0.9l-1.7-1.3l-1.1-0.9l-1-1
			l-0.7-0.8l-0.1-0.6l0.5-0.8l0.4-0.5l0.9-1l2.6-2.4l0.8-1l1.6-2.4l0.8-1l0.9-1l1-0.6l1,0.2l1,0.7l3,2l1.4,0.7l1.3,0.6l2.1,1
			l1.4,0.5l1.5,0.5l1.5,0.3l2.1,0.1l1.5,0.1l5.8-0.4l1.5-0.2l0.7-0.2l1.4-0.6l1.2-0.7l0.9-0.9l0.5-0.6l0.6-1.4l-0.1-1.6l-0.2-0.7
			l-0.7-1.3l-0.5-0.6l-1.2-0.9l-0.7-0.3l-1.4-0.6l-1.6-0.4l-1.6-0.3l-8.8-0.8l-2.8-0.6l-1.5-0.4l-2-0.7l-1.4-0.5l-1.4-0.6l-3.1-1.6
			l-1.2-0.8l-1.4-0.8l-1.2-0.8l-1.6-1.3l-0.8-1.2l-0.8-1.4l-0.6-1.4l-0.6-1.9l-0.3-1.4l-0.3-2l-0.2-3l0.1-1.5l0.2-2.2l0.3-1.4
			l0.4-1.2l0.5-1.4l0.9-2l0.6-1.3l0.7-1.1l0.9-1l1.5-1.4l1.2-0.9l1.2-0.8l1.3-0.6l1.8-1l2.8-1.1l1.4-0.5l2.1-0.4l1.5-0.3l2.8-0.4
			l2-0.4l1.5-0.2l1.4-0.1h1.5l2.8,0.3l1.4,0.2l0.6,0.2l1.5,0.2l3.1,0.6l1.6,0.4l1.5,0.5l1.6,0.5l1.5,0.6l1.4,0.6l1.4,0.6l1.8,1
			l1.3,0.6l1.2,0.8l0.8,0.8v0.9l-0.6,1l-1,1.8l-0.7,1.1l-3.5,4.6l-1,1.3l-1.1,0.9l-0.7,0.3l-0.6-0.1l-0.9-0.5l-1.4-0.8l-1.4-0.6
			l-0.6-0.3l-1.4-0.5l-0.7-0.2l-1.6-0.4l-2.1-0.5l-1.5-0.1l-2.4-0.2h-2.4l-1.6,0.1l-1.6,0.3l-1.5,0.5l-0.6,0.3l-1.1,0.8l-0.5,0.6
			l-0.6,1.3l-0.2,1.5l0.3,1.2l0.7,1.2l1,0.9l1.1,0.6l0.6,0.3l1.4,0.3l2.3,0.3l3.1,0.2l1.6,0.3l3.1,0.7l3,0.9l2.1,0.5l1.4,0.4
			l2.6,0.9l1.9,0.8l1.3,0.6l1.3,0.7l1.2,0.7l2.7,2.2l1,1.1l0.9,1.1l1.1,1.7l0.7,1.2l0.6,1.4l0.4,1.4l0.4,2l0.2,1.4L737.8,469.1z"/>
	</g>
	<rect x="338.3" y="505.8" fill="#1C4372" width="402.7" height="4"/>
	<rect x="338.3" y="570.6" fill="#1C4372" width="402.7" height="4"/>
	<g>
		<path fill="#52A83D" d="M272.7,653.9l0.3,1.3l-0.6,1l-1,0.5l-1.2,0.2h-1.3l-2.1-0.2l-1.4-0.1h-4.2l-5.7,0.4l-1.2-0.4l-0.6-0.7
			l-0.5-1l-2.9-7.8l-0.6-0.9l-0.8-0.2l-1.1-0.1l-5.5-0.4h-1.5l-6.9-0.2l-5.5-0.1h-1.4l-1.4,0.1h-4.3l-1.2,0.2l-0.7,0.5l-0.6,1.1
			l-2.1,6.3l-0.6,1.5l-1,1.2l-1.4,0.6l-1.5-0.1l-5.4-0.3h-1.5l-5.7,0.4l-1.2,0.1l-1.1-0.6l-0.7-1l0.1-1.2l0.2-0.7l0.6-1.5l1.3-2.9
			l0.6-1.4l2.3-5.2l0.6-1.3l2.4-5.2l0.6-1.4l2.1-5l0.6-1.4l2.5-5.2l0.6-1.3l3.3-7.6l2.6-5.5l0.6-1.5l2-4.2l0.6-1.5l1.8-4.3l0.6-1.4
			l1.7-3.8l0.5-1l0.9-0.6l1.4-0.3l4.3-0.2h7.2l4.3,0.1l1.6,0.3l1,0.7l0.5,1.2l1.3,3.6l0.6,1.4l2.3,4.3l0.6,1.3l2,4.5l0.6,1.3
			l1.7,4.7l0.6,1.3l2,4.4l0.6,1.3l2,4.5l0.6,1.3l1.8,4.6l0.6,1.3l2.9,5.7l2.2,4.3l0.6,1.3l2.5,5.8L272.7,653.9z M241.8,627.8
			l-0.4-1.2l-2-6.3l-0.5-1.4l-1.8-5.5l-0.5-1.2l-0.9-0.6l-1.2-0.3l-1,0.3l-0.9,0.9l-2.5,6.3l-0.6,1.4l-2.4,6.2l-0.3,1.4l0.3,1.1
			l1,0.5l1.3,0.2h5.8l4.3,0.3l1.2-0.4l0.7-0.7L241.8,627.8z"/>
		<path fill="#52A83D" d="M353.4,648l0.1,1.5l0.4,2.9l0.1,1.4l-0.1,0.7l-0.1,1l-0.5,0.7l-0.6,0.5l-1,0.2l-1.4,0.1h-1.5l-3.7-0.3
			l-1.6-0.1h-2.3l-1.7-0.1l-3.4-0.5l-0.6-0.2l-0.4-0.5l-0.1-0.9l-0.1-1.3l-0.1-1.4l0.2-3.1V640l-0.3-5.8v-1.5l0.4-5.7v-7.2l-0.2-1.1
			l-0.6-0.4h-0.6l-0.6,0.8l-0.9,1.3l-3.9,4.4l-5.6,6.8l-3.7,4.6l-0.8,0.7l-0.6,0.3h-0.7l-1-0.2l-1.1-0.3l-1-0.7l-4.6-5.5l-3.4-4.5
			l-0.9-1.1l-4.8-5.4l-1.2-1.2l-0.6,0.2l-0.2,1l-0.3,5.8v1.5l0.4,5.8v1.5l0.2,5.8v1.5l-0.1,5.7v1.4l0.1,2.8l-0.1,1.5l-0.1,1.6
			l-0.2,1.2l-0.4,0.6l-0.6,0.2l-2.4,0.3l-1.5,0.1l-3.6-0.3l-1.5,0.1l-4.4,0.4h-2.1l-1.1-0.2l-0.6-0.6l-0.2-0.6l-0.2-0.9v-2.1
			l0.2-2.9v-14.2l-0.2-4.9v-1.5l0.1-4.9l-0.1-1.5l-0.3-5V616l0.3-4.9l0.1-1.5l-0.4-4.9l0.1-1.5l0.4-4.9v-1.5l-0.4-3.4V592l0.2-1.2
			l0.4-0.6l0.6-0.5l0.7-0.2l1.2-0.1l1.6,0.2l2,0.5h1.5l2.9-0.3l1.6-0.2l1.4-0.1l3.5,0.1h1.2l1,0.5l0.9,1l3.2,3.6l0.9,1.2l2.7,3.8
			l0.9,1.2l3.1,3.6l0.9,1.3l2.9,3.6l0.9,1l0.8,0.5h0.9l0.8-0.5l0.8-0.9l2.8-3.7l0.9-1.3l3-3.6l0.9-1.2l3.2-3.6l0.9-1.2l2.4-3l0.7-1
			l0.7-0.7l0.9-0.5l1.2,0.1l4.9,0.3l4.3,0.1h1.5l2.8-0.2l1.6,0.1l1.1,0.2l0.6,0.2l0.6,0.5l0.2,0.7l-0.1,1.1l-0.4,4.2l-0.1,1.5
			l0.2,4.9v1.5l-0.1,4.9v1.5l0.1,4.9v1.5l0.4,5v1.5l-0.4,4.9v1.5l0.3,4.9v1.5l-0.4,4.9v1.5L353.4,648z"/>
		<path fill="#52A83D" d="M435.8,653.9l0.3,1.3l-0.6,1l-1,0.5l-1.2,0.2h-1.3l-2.1-0.2l-1.4-0.1h-4.2l-5.7,0.4l-1.2-0.4l-0.6-0.7
			l-0.5-1l-2.9-7.8l-0.6-0.9l-0.8-0.2l-1.1-0.1l-5.5-0.4h-1.5l-6.9-0.2l-5.5-0.1h-1.4l-1.4,0.1h-4.3l-1.2,0.2l-0.7,0.5l-0.6,1.1
			l-2.1,6.3l-0.6,1.5l-1,1.2l-1.4,0.6l-1.5-0.1l-5.4-0.3h-1.5l-5.7,0.4l-1.2,0.1l-1.1-0.6l-0.7-1l0.1-1.2l0.2-0.7l0.6-1.5l1.3-2.9
			l0.6-1.4l2.3-5.2l0.6-1.3l2.4-5.2l0.6-1.4l2.1-5l0.6-1.4l2.5-5.2l0.6-1.3l3.3-7.6l2.6-5.5l0.6-1.5l2-4.2l0.6-1.5l1.8-4.3l0.6-1.4
			l1.7-3.8l0.5-1l0.9-0.6l1.4-0.3l4.3-0.2h7.2l4.3,0.1l1.6,0.3l1,0.7l0.5,1.2l1.3,3.6l0.6,1.4l2.3,4.3l0.6,1.3l2,4.5l0.6,1.3
			l1.7,4.7l0.6,1.3l2,4.4l0.6,1.3l2,4.5l0.6,1.3l1.8,4.6l0.6,1.3l2.9,5.7l2.2,4.3l0.6,1.3l2.5,5.8L435.8,653.9z M404.9,627.8
			l-0.4-1.2l-2-6.3l-0.5-1.4l-1.8-5.5l-0.5-1.2l-0.9-0.6l-1.2-0.3l-1,0.3l-0.9,0.9l-2.5,6.3l-0.6,1.4l-2.4,6.2l-0.3,1.4l0.3,1.1
			l1,0.5l1.3,0.2h5.8l4.3,0.3l1.2-0.4l0.7-0.7L404.9,627.8z"/>
		<path fill="#52A83D" d="M505,604.2l-0.1,1.5v13.7l0.3,5.4v1.5l0.2,12.2v1.6l-0.1,0.7l-0.1,1.6l-0.3,4.4l0.1,5.4l-0.1,1.3l-0.4,1.1
			l-0.7,1l-0.9,0.6l-0.8,0.3l-1.3,0.1l-4.7,0.2l-1.5,0.1l-2.3,0.1h-1.5l-1.2-0.3l-1.1-0.5l-1.1-0.8l-0.8-1.2l-1.4-2.7l-0.8-1.2
			l-3.6-4.5l-0.9-1.1l-3.6-4.4l-0.8-1.2l-3.2-4.8l-0.8-1.1l-3.6-4.4l-0.9-1.1l-3.4-4.5l-0.8-0.7l-0.6,0.3l-0.3,1.1l-0.2,4.6v1.5
			l0.1,4.6v1.5l0.1,5.2v1.5l-0.3,5.2l0.1,1.5l0.6,3.7l0.1,1.5l-0.3,1.2l-0.6,0.6l-0.6,0.2l-1.1,0.2l-0.7,0.1l-1.6,0.1l-4.3-0.1h-1.5
			l-3.8,0.2H446l-1.4-0.1l-1-0.2l-0.7-0.5l-0.4-0.6l-0.2-0.9l-0.1-0.6v-1.4l0.2-3.1l0.1-1.5l-0.3-4.9v-1.5l0.2-11.3l0.1-1.5l0.3-4.9
			l0.1-1.5V616l-0.4-4.9v-1.5l0.4-4.9l-0.1-1.5l-0.4-5l-0.1-1.5v-2.1l0.1-1.4l0.2-1.4l0.2-1l0.3-0.6l0.6-0.3l1-0.2l2.8-0.2l2.8,0.2
			h6.9l1.1,0.1l0.5,0.4l0.6,0.8l3.9,4.2l0.9,1.1l3.4,4.4l0.9,1.1l3.4,4.5l0.9,1.1l3.3,4.6l0.8,1.1l3.5,4.4l0.9,1.1l3.3,4.6l0.7,0.6
			l0.7,0.1l0.6-0.5v-1l-0.6-3.9l-0.1-1.5l0.3-4v-1.5l-0.4-5.6v-1.5l0.4-5.6l-0.1-1.5l-0.3-3.4v-2.3l0.3-1.2l0.4-0.7l0.6-0.4l1.1-0.2
			h0.8l1.6-0.1l4.2,0.3h1.5l3.1-0.2l1.4,0.1l2.1,0.1l1,0.2l0.6,0.3l0.6,0.6l0.2,1.3l0.1,0.8l0.1,1.6l-0.2,2.9l-0.2,1.5L505,604.2z"
			/>
		<path fill="#52A83D" d="M568.2,647.8l-0.1,1.5l-0.4,5l-0.1,0.9l-0.4,0.6l-0.5,0.4l-12.1,0.4h-1.5l-4.9-0.4l-1.5,0.1l-4.8,0.4
			l-1.5,0.1h-6.4l-4.8-0.4h-1.5l-8,0.5l-3.1-0.2l-1.1-0.2L515,656l-0.3-0.6l-0.2-1l-0.2-2.1l-0.1-1.5l0.1-1.4v-1.4l0.4-4.9v-1.5
			l0.1-4.9l-0.1-1.5l-0.3-4.9l-0.1-1.5l0.2-5v-7.9l0.4-4.9l-0.1-1.5l-0.3-4.9l-0.1-1.5V601l0.2-2.8v-1.4l0.3-4.8l0.1-1.3l0.3-0.7
			l0.5-0.4l0.7-0.1l1.2-0.2l6,0.4l5.6-0.1h1.5l5.5,0.4h1.5l5.5-0.4h1.5l12.6,0.2l1.6-0.1l3.1-0.3h2.3l1.3,0.3l0.6,0.5l0.2,0.6
			l0.2,1.2v2.5l-0.2,2.3v1.6l0.1,2.3l0.1,1.4l-0.1,1.4l-0.2,1.1l-0.4,0.6l-0.5,0.4l-1.1,0.2h-0.7l-1.5,0.1l-8.7-0.2h-1.5l-4.7,0.2
			h-1.5l-4.8-0.2l-4.2-0.3h-1.4l-0.7,0.1l-0.9,0.2l-0.5,0.5l-0.1,0.6l-0.2,1l-0.2,2.2v1.5l0.1,1.6l0.1,1l0.2,0.6l0.4,0.5l1,0.3
			l3,0.2l3-0.2h8.8l10.4-0.6l2.9,0.2l1,0.2l0.6,0.5l0.3,0.6l0.1,1l0.2,1.6l0.1,1.6v3.1l0.2,2.1l-0.2,2.8l-0.2,1.1l-0.4,0.6l-0.6,0.5
			l-0.9,0.2h-1.9l-4.2-0.5l-1.5-0.1l-7.4,0.5l-5.9-0.2h-1.5l-3.7-0.3l-1.6,0.1l-1.1,0.1l-0.5,0.3l-0.3,0.6l-0.1,1.4L533,635
			l-0.1,1.5v2l0.1,0.9l0.3,0.6l0.4,0.4l1,0.1l5.1,0.2h1.5l5-0.4l6.6,0.4h1.5l6.6-0.4h1.4l1.4,0.1l3.3,0.4l0.6,0.3l0.4,0.6l0.1,1
			L568.2,647.8z"/>
		<path fill="#52A83D" d="M634.3,648l-0.7,0.7l-1.7,1.5l-1.1,0.8l-1.8,1.3l-1.1,0.7l-1.9,1l-1.2,0.6l-2.1,1l-1.4,0.5l-1.6,0.5
			l-1.6,0.3l-2.3,0.5l-3.2,0.4l-1.7,0.1l-2.3,0.2h-4.8l-1.6-0.1l-1.6-0.2l-1.6-0.3l-1.6-0.4l-1.4-0.5l-4.2-1.1l-2-0.7l-1.2-0.6
			l-1.8-1l-1.1-0.8l-1.2-0.8l-1.3-0.8l-2.4-2l-1.1-1.1l-1-1.2l-1-1.4l-0.8-1.3l-0.7-1.3l-0.6-1.3l-0.9-1.9l-1.4-3.9l-0.6-1.8
			l-0.9-2.8l-0.2-1.4l-0.1-2.1l0.1-1.4l0.1-1.5v-1.6l0.2-3.1l0.1-1.5l0.3-1.4l0.4-2l0.4-1.4l0.5-1.4l0.5-1.3l0.6-1.9l0.6-1.3
			l0.6-1.4l0.7-1.4l0.8-1.4l0.8-1.3l0.9-1.2l1-1.3l1.1-1.2l1.1-1l1.2-1l1.1-0.9l3-2l1.2-0.7l1.3-0.7l2.8-1.3l1.6-0.6l1.5-0.5
			l3.1-0.7l1.6-0.3l1.6-0.2l2.9-0.2l2-0.2l1.4,0.1l2,0.1l3.4,0.5l1.3,0.3l2.1,0.4l3.2,0.9l1.3,0.6l2,1.2l1.3,0.7l2.4,1.7l2.9,2
			l1,0.7l0.6,0.5l0.6,0.6l0.2,0.7l-0.1,0.7l-0.6,0.7l-0.8,1l-1,1l-1,0.9l-1,0.8l-1,1l-1.6,1.8l-1,1.1l-0.5,0.5l-0.8,0.7l-0.6,0.3
			l-0.6,0.1l-0.6-0.2l-1-0.6l-1.8-1.3l-1.2-0.6l-2-0.9l-1.3-0.5l-2-0.6l-1.4-0.3l-2.3-0.2h-1.5l-2,0.2l-1.5,0.4l-2,0.6l-1.4,0.6
			L599,607l-1.9,0.9l-1.3,0.9l-0.6,0.6l-1.1,1.2l-0.8,1.3l-0.6,1.2l-0.6,1.3l-0.6,1.4l-0.5,1.5l-0.3,1.6l-0.2,1.4l-0.2,2.8v1.5
			l0.1,2.3l0.1,1.4l0.5,2.1l0.5,1.4l0.6,1.6l0.7,1.4l1.4,2l1,1.1l1.8,1.5l1.2,0.8l1.8,0.9l1.4,0.6l2,0.6l1.5,0.3l2.2,0.1h2.1
			l1.3-0.3l0.7-0.2l1.4-0.5l2.3-0.8l1.5-0.6l1.4-0.6l1.2-0.6l1.8-1.1l1.2-0.9l0.9-0.6l0.6-0.2l0.8,0.2l1,0.6l1,0.9l0.4,0.6l0.9,1
			l1.5,1.8l0.9,1.1l2.5,2.9l0.8,1.1l0.5,0.5l0.5,0.8V648z"/>
		<path fill="#52A83D" d="M692.5,647.8l-0.1,1.5l-0.4,5l-0.1,0.9l-0.4,0.6l-0.5,0.4l-12.1,0.4h-1.5l-4.9-0.4l-1.5,0.1l-4.8,0.4
			l-1.5,0.1h-6.4l-4.8-0.4h-1.5l-8,0.5l-3.1-0.2l-1.1-0.2l-0.6-0.5l-0.3-0.6l-0.2-1l-0.2-2.1l-0.1-1.5l0.1-1.4v-1.4l0.4-4.9v-1.5
			l0.1-4.9l-0.1-1.5l-0.3-4.9l-0.1-1.5l0.2-5v-7.9l0.4-4.9l-0.1-1.5l-0.3-4.9l-0.1-1.5V601l0.2-2.8v-1.4l0.3-4.8l0.1-1.3l0.3-0.7
			l0.5-0.4l0.7-0.1l1.2-0.2l6,0.4l5.6-0.1h1.5l5.5,0.4h1.5l5.5-0.4h1.5l12.6,0.2l1.6-0.1l3.1-0.3h2.3l1.3,0.3l0.6,0.5l0.2,0.6
			l0.2,1.2v2.5l-0.2,2.3v1.6l0.1,2.3l0.1,1.4l-0.1,1.4l-0.2,1.1l-0.4,0.6l-0.5,0.4l-1.1,0.2h-0.7l-1.5,0.1l-8.7-0.2h-1.5l-4.7,0.2
			h-1.5l-4.8-0.2l-4.2-0.3h-1.4l-0.7,0.1l-0.9,0.2l-0.5,0.5l-0.1,0.6l-0.2,1l-0.2,2.2v1.5l0.1,1.6l0.1,1l0.2,0.6l0.4,0.5l1,0.3
			l3,0.2l3-0.2h8.8l10.4-0.6l2.9,0.2l1,0.2l0.6,0.5l0.3,0.6l0.1,1l0.2,1.6l0.1,1.6v3.1l0.2,2.1l-0.2,2.8l-0.2,1.1l-0.4,0.6l-0.6,0.5
			l-0.9,0.2h-1.9l-4.2-0.5l-1.5-0.1l-7.4,0.5l-5.9-0.2h-1.5l-3.7-0.3l-1.6,0.1l-1.1,0.1l-0.5,0.3l-0.3,0.6l-0.1,1.4l-0.3,2.3
			l-0.1,1.5v2l0.1,0.9l0.3,0.6l0.4,0.4l1,0.1l5.1,0.2h1.5l5-0.4l6.6,0.4h1.5l6.6-0.4h1.4l1.4,0.1l3.3,0.4l0.6,0.3l0.4,0.6l0.1,1
			L692.5,647.8z"/>
		<path fill="#52A83D" d="M761.4,656.1l-1.2,0.4h-6.5l-5.1-0.1h-1.5l-4.2,0.2h-1.2l-0.8-0.4l-0.7-0.7l-3-4.2l-0.8-1.1l-3-4l-0.8-1.1
			l-2.6-4.3l-0.8-1.1l-3-4l-0.6-0.7l-0.6-0.3l-1.1-0.1l-3-0.2l-1.2,0.1l-0.7,0.6l-0.3,1.2l-0.2,5.1l0.1,1.5l0.4,5.2l0.1,1.5l0.1,2.2
			v1.5l-0.1,1.5l-0.2,1.1l-0.5,0.5l-1,0.3H716l-4.4-0.3l-4.3,0.3h-1.5l-4.3-0.3l-1.1-0.2l-0.6-0.4l-0.2-0.9l-0.1-1.3l-0.1-1.4
			l0.2-2.4l0.1-1.5l0.4-5v-1.5l-0.3-5l-0.1-1.5l-0.1-4.9v-1.5l0.3-5v-1.5l-0.3-5v-1.5l0.3-5v-1.5l0.2-4.9v-1.5l-0.1-5v-1.5l-0.2-3.1
			l0.1-1.4l0.1-0.6l0.3-1.2l0.6-0.7l1.1-0.3l0.7-0.1l1.4-0.1l4.2,0.2l11,0.4l6.3-0.4h1.5l6.1,0.4h3.5l1.6,0.1l1.4,0.3l1.9,0.6
			l1.4,0.5l1.4,0.6l1.5,0.6l1.4,0.6l1.2,0.7l1.8,1.2l1,0.8l0.9,0.9l0.9,1.1l1.3,1.9l0.8,1.2l1.1,1.8l0.6,1.3l0.6,1.4l0.5,1.5
			l0.3,1.5l0.1,1.5l0.2,2v1.5l-0.1,1.5l-0.2,1.6l-0.3,1.6l-0.4,1.5l-0.6,1.4l-0.6,1.4l-0.8,1.4l-0.8,1.2l-0.8,1.1l-0.8,1l-1.5,1.5
			l-1,0.8l-1.9,1l-1.1,0.6l-1.2,0.6l-1.2,0.3l-0.7,0.3l0.4,0.7l3.3,4.7l0.8,1.1l3.3,4.5l0.9,1.1l3.3,4.6l0.9,1.1l2.9,3.3l0.8,1
			l0.5,1L761.4,656.1z M733.4,620.5l2-0.4l1.2-0.5l1.1-0.6l0.9-1.1l0.6-1.4l0.4-1.5l0.1-1.5l-0.1-1.6l-0.2-1.6l-0.4-1.4l-0.6-1.4
			l-0.8-1.1l-1-0.8l-1.3-0.6l-2-0.5l-1.5-0.2l-4.6-0.1h-1.5l-4.7,0.3l-1.1,0.1l-0.6,0.3l-0.6,0.6l-0.1,1l0.1,2.1l0.2,1.5l0.2,1.6
			l0.1,1.6l-0.2,5.1l0.1,1l0.2,0.6l0.6,0.3l1.1,0.2l4.8,0.4h1.5L733.4,620.5z"/>
		<path fill="#52A83D" d="M819.9,647.8l-0.1,1.5l-0.4,5l-0.1,0.9l-0.4,0.6l-0.5,0.4l-12.1,0.4H805l-4.9-0.4l-1.5,0.1l-4.8,0.4
			l-1.5,0.1h-6.4l-4.8-0.4h-1.5l-8,0.5l-3.1-0.2l-1.1-0.2l-0.6-0.5l-0.3-0.6l-0.2-1l-0.2-2.1l-0.1-1.5l0.1-1.4v-1.4l0.4-4.9v-1.5
			l0.1-4.9l-0.1-1.5l-0.3-4.9l-0.1-1.5l0.2-5v-7.9l0.4-4.9l-0.1-1.5l-0.3-4.9l-0.1-1.5V601l0.2-2.8v-1.4l0.3-4.8l0.1-1.3l0.3-0.7
			l0.5-0.4l0.7-0.1l1.2-0.2l6,0.4l5.6-0.1h1.5l5.5,0.4h1.5l5.5-0.4h1.5l12.6,0.2l1.6-0.1l3.1-0.3h2.3l1.3,0.3l0.6,0.5l0.2,0.6
			l0.2,1.2v2.5l-0.2,2.3v1.6l0.1,2.3l0.1,1.4l-0.1,1.4l-0.2,1.1l-0.4,0.6l-0.5,0.4l-1.1,0.2h-0.7l-1.5,0.1l-8.7-0.2h-1.5l-4.7,0.2
			h-1.5l-4.8-0.2l-4.2-0.3h-1.4l-0.7,0.1l-0.9,0.2l-0.5,0.5l-0.1,0.6l-0.2,1l-0.2,2.2v1.5l0.1,1.6l0.1,1l0.2,0.6l0.4,0.5l1,0.3
			l3,0.2l3-0.2h8.8l10.4-0.6l2.9,0.2l1,0.2l0.6,0.5l0.3,0.6l0.1,1l0.2,1.6l0.1,1.6v3.1l0.2,2.1l-0.2,2.8l-0.2,1.1l-0.4,0.6l-0.6,0.5
			l-0.9,0.2h-1.8l-4.2-0.5l-1.5-0.1l-7.4,0.5l-5.9-0.2h-1.5l-3.7-0.3l-1.6,0.1l-1.1,0.1l-0.5,0.3l-0.3,0.6l-0.1,1.4l-0.3,2.3
			l-0.1,1.5v2l0.1,0.9l0.3,0.6l0.4,0.4l1,0.1l5.1,0.2h1.5l5-0.4l6.6,0.4h1.5l6.6-0.4h1.4l1.4,0.1l3.3,0.4l0.6,0.3l0.4,0.6l0.1,1
			L819.9,647.8z"/>
		<path fill="#52A83D" d="M882.9,635.7l-0.1,1.6l-0.2,1.6l-0.3,1.5l-0.5,2l-0.5,1.3l-0.8,1.9l-0.6,1.2l-1.1,1.7l-0.9,1.1l-1.1,1.1
			l-1.1,1l-1.8,1.2l-1.2,0.8l-1.4,0.7l-1.3,0.6l-2.1,0.7l-2.8,0.9l-1.5,0.3l-2.3,0.4l-1.4,0.2l-2,0.2l-1.3,0.1l-2.1,0.1l-4.4,0.3h-2
			l-1.3-0.1l-2.1-0.2l-1.4-0.2l-1.6-0.3l-1.4-0.5l-2-0.6l-1.3-0.6l-1.4-0.6l-1.3-0.6l-1.2-0.7l-3-2l-1.1-0.9l-1.7-1.3l-1.1-0.9l-1-1
			l-0.7-0.8l-0.1-0.6l0.5-0.8l0.4-0.5l0.9-1l2.6-2.4l0.8-1l1.6-2.4l0.8-1l0.9-1l1-0.6l1,0.2l1,0.7l3,2l1.4,0.7l1.3,0.6l2.1,1
			l1.4,0.5l1.5,0.5l1.5,0.3l2.1,0.1l1.5,0.1l5.8-0.4l1.5-0.2l0.7-0.2l1.4-0.6l1.2-0.7l0.9-0.9l0.5-0.6l0.6-1.4l-0.1-1.6l-0.2-0.7
			l-0.7-1.3l-0.5-0.6l-1.2-0.9l-0.7-0.3l-1.4-0.6l-1.6-0.4l-1.6-0.3l-8.8-0.8l-2.8-0.6l-1.5-0.4l-2-0.7l-1.4-0.5l-1.4-0.6l-3.1-1.6
			l-1.2-0.8l-1.4-0.8l-1.2-0.8l-1.6-1.3l-0.8-1.2l-0.8-1.4l-0.6-1.4l-0.6-1.9l-0.3-1.4l-0.3-2l-0.2-3l0.1-1.5l0.2-2.2l0.3-1.4
			l0.4-1.2l0.5-1.4l0.9-2l0.6-1.3l0.7-1.1l0.9-1l1.5-1.4l1.2-0.9l1.2-0.8l1.3-0.6l1.8-1l2.8-1.1l1.4-0.5l2.1-0.4l1.5-0.3l2.8-0.4
			l2-0.4l1.5-0.2l1.4-0.1h1.5l2.8,0.3l1.4,0.2l0.6,0.2l1.5,0.2l3.1,0.6l1.6,0.4l1.5,0.5l1.6,0.5l1.5,0.6l1.4,0.6l1.4,0.6l1.8,1
			l1.3,0.6l1.2,0.8l0.8,0.8v0.9l-0.6,1l-1,1.9l-0.7,1.1l-3.5,4.6l-1,1.3l-1.1,0.9l-0.7,0.3l-0.6-0.1l-0.9-0.5l-1.4-0.8l-1.4-0.6
			l-0.6-0.3l-1.4-0.5l-0.7-0.2l-1.6-0.4l-2.1-0.5l-1.5-0.1l-2.4-0.2h-2.4l-1.6,0.1l-1.6,0.3l-1.5,0.5l-0.6,0.3l-1.1,0.8l-0.5,0.6
			l-0.6,1.3l-0.2,1.5l0.3,1.2l0.7,1.2l1,0.9l1.1,0.6l0.6,0.3l1.4,0.3l2.3,0.3l3.1,0.2l1.6,0.3l3.1,0.7l3,0.9l2.1,0.5l1.4,0.4
			l2.6,0.9l1.9,0.8l1.3,0.6l1.3,0.7l1.2,0.7l2.7,2.2l1,1.1l0.9,1.1l1.1,1.7l0.7,1.2l0.6,1.4l0.4,1.4l0.4,2l0.2,1.4L882.9,635.7z"/>
	</g>
</g>
<g>
	<path fill="#EF3E00" d="M615.8,299.9c0,41.8-34.2,76-76.1,76c-42,0-76.1-34.2-76.1-76.3c0-41.9,34.3-76,76.1-75.9
		C581.8,223.9,615.8,257.9,615.8,299.9z M560.3,264.9c-0.6-2.9-1.3-5.8-1.9-8.7c-0.6-2.8-1.1-3.2-3.9-3.2c-9.8,0-19.7,0-29.5,0
		c-0.3,0-0.5,0-0.8,0c-1.9,0.1-2.6,0.7-3,2.5c-0.6,2.8-1.3,5.5-1.8,8.3c-0.2,0.9-0.6,1.2-1.4,1.1c-2.5,0-4.9,0-7.4,0
		c-8.7,0.1-15.1,6.6-15.1,15.2c0,13.1,0,26.3,0,39.4c0,0.9,0,1.8,0.2,2.7c1.1,6.9,7.1,12.6,15.7,12.6c18.9-0.1,37.8,0,56.7,0
		c1.2,0,2.5,0,3.7-0.3c7.3-1.5,12.2-7.4,12.3-14.8c0-13.2,0-26.4,0-39.7c0-1-0.1-2.1-0.3-3.1c-1.5-7.1-7.3-11.8-14.6-12
		C566.1,264.9,563.3,264.9,560.3,264.9z"/>
	<path fill="#EF3E00" d="M539.7,329.7c-9.6,0-19.1,0-28.7,0c-5.1,0-8.9-2.8-10.1-7.3c-0.3-1-0.4-2.2-0.4-3.2c0-12.8,0-25.6,0-38.4
		c0-6.6,4.1-10.8,10.9-10.8c17,0,34,0,51,0c2.6,0,5.1,0,7.6,0.1c5,0.4,8.9,4.6,8.9,9.7c0,10.1,0,20.2,0,30.4c0,3.1,0,6.1,0,9.2
		c0,6.2-4.2,10.4-10.4,10.4C558.9,329.7,549.3,329.7,539.7,329.7z M561.1,299.8c0-11.8-9.6-21.5-21.5-21.5
		c-11.8,0-21.5,9.7-21.5,21.5c0,11.8,9.6,21.4,21.5,21.4C551.6,321.3,561.1,311.7,561.1,299.8z"/>
	<path fill="#EF3E00" d="M524.3,264.8c0.4-2.1,0.8-4.1,1.3-6.1c0.1-0.3,0.8-0.6,1.2-0.6c3.5,0,7,0,10.5,0c5.4,0,10.7,0,16.2,0
		c0.5,2.2,1,4.4,1.5,6.8C544.8,264.8,534.6,264.8,524.3,264.8z"/>
	<path fill="#EF3E00" d="M523.3,299.8c0-9.1,7.4-16.4,16.5-16.3c9,0.1,16.3,7.4,16.3,16.4c0,9-7.5,16.5-16.5,16.4
		C530.5,316.2,523.3,308.9,523.3,299.8z"/>
</g>
</svg>
