<?xml version="1.0" encoding="utf-8"?>
<!-- Generator: Adobe Illustrator 18.0.0, SVG Export Plug-In . SVG Version: 6.00 Build 0)  -->
<!DOCTYPE svg PUBLIC "-//W3C//DTD SVG 1.1//EN" "http://www.w3.org/Graphics/SVG/1.1/DTD/svg11.dtd">
<svg version="1.1" id="Layer_1" xmlns="http://www.w3.org/2000/svg" xmlns:xlink="http://www.w3.org/1999/xlink" x="0px" y="0px"
	 viewBox="0 0 566.9 566.9" enable-background="new 0 0 566.9 566.9" xml:space="preserve">
<g>
	<g>
		<g>
			<g>
				<g>
					<path fill="#006725" d="M138.5,97.5l-2.9,15.3c-6.6-2-13.2-3-20-3c-11.2,0-19.8,3.2-26,9.6c-6.2,6.4-9.3,13.9-9.3,22.6
						c0,6.8,2.1,12.1,6.4,16.1c4.3,4,10,6,17.2,6c8.9,0,18.9-3.2,30.1-9.7l-2.5,18.4c-9.8,4.3-19.5,6.5-29.1,6.5
						c-12,0-21.7-3.5-29.1-10.5c-7.4-7-11.1-16.1-11.1-27.4c0-13.8,5-25.1,15-33.8c10-8.8,23-13.2,38.9-13.2
						C123,94.5,130.5,95.5,138.5,97.5z"/>
					<path fill="#006725" d="M218.7,124.1l-1.2,7.9l0.2,0.2c4.9-6,9.4-9.1,13.4-9.1c3.1,0,6.3,2,9.8,6l-7.6,15.2
						c-2.6-3.9-5.2-5.9-7.8-5.9c-2.2,0-4.4,1.1-6.5,3.4c-2.2,2.3-3.3,3.8-3.4,4.6l-4.6,32.7h-16.4l7.8-55.1H218.7z"/>
				</g>
			</g>
			<g>
				<path fill="#6EBB20" d="M400.6,95.7c-1,0.6-2,1.1-2.8,1.7c-0.1,0.1-0.2,0.1-0.3,0.2c-3.9,2.9-5.4,6.3-5.8,9.4
					c-0.1,0.9-0.1,1.8-0.1,2.7c0.2,3.7,1.8,6.5,1.8,6.5c0,0,0.1,0,0.1,0c2.5-0.1,4.8-0.4,7-0.9c0.4-0.1,0.8-0.2,1.3-0.3
					c1.5-0.3,2.8-0.8,4.1-1.3c0.5-0.2,1-0.4,1.5-0.6c16.9-7.3,19.1-25.5,17.2-33.4c0,0,0-0.1,0-0.1C418.4,85.5,415.3,88,400.6,95.7z
					"/>
			</g>
			<g>
				<path fill="#006725" d="M135.4,179.3l15.4-80.1h16.4l-6.3,32.1h0.2c4.7-5.1,10.5-8.4,17.8-8.4c8.6,0,14,5.4,14,14.9
					c0,2.6-0.5,6.8-1,9.9l-6,31.6h-16.4l5.8-30.3c0.5-2.1,0.7-4.5,0.7-6.8c0-3.7-1.5-6.3-5.6-6.3c-5.8,0-11.6,7-13.7,18.1l-4.9,25.3
					H135.4z"/>
			</g>
			<path fill="#006725" d="M314.9,124.2l-0.9,6.3c6.1-4.8,12.3-7.2,18.7-7.2c4.8,0,8.5,1.5,11,4.5c2.6,3,3.8,7.1,3.8,12.5
				c0,1.6-0.1,3.2-0.4,5l-4.7,34.1h-16.4l4.6-32.8c0.2-0.9,0.2-1.9,0.2-2.8c0-5.4-1.7-8.2-5.1-8.2c-3.9,0-8.5,2.8-13.8,8.5l-5,35.4
				h-16.4l7.8-55.1H314.9z"/>
			<g>
				<path fill="#006725" d="M290.5,145.4c0,19.6-13.5,34-32,34c-13.6,0-22.7-8.9-22.7-22.2c0-18.5,12.9-33.8,32-33.8
					C282.1,123.3,290.5,133.1,290.5,145.4z M252.1,156.9c0,6.2,3.1,10.4,8.6,10.4c8.4,0,13.4-12.7,13.4-21.8
					c0-4.9-2.2-10.2-8.4-10.2C256.6,135.3,252.1,148.6,252.1,156.9z"/>
			</g>
			<path fill="#006725" d="M468.8,125.6l-1.7,9.9c-2-1.5-4.3-2.6-7-3.6c-2.6-0.9-5-1.4-7-1.4c-2.3,0-4.1,0.6-5.6,1.8
				c-1.5,1.2-2.3,2.7-2.3,4.5c0,1.1,0.4,2.2,1.3,3.2c0.8,1.1,3.5,3,8,5.7c4.5,2.7,7.5,5.3,9.1,7.9c1.6,2.6,2.3,5.3,2.3,8.1
				c0,5-1.7,9.1-5.2,12.4c-3.4,3.3-8.1,4.9-13.9,4.9c-7.4,0-13.8-1.8-19.2-5.4l1.8-9.8c2.4,1.7,5.1,3.1,8.1,4.2
				c3,1.1,5.6,1.6,7.8,1.6c2.4,0,4.4-0.6,5.9-1.7c1.5-1.1,2.2-2.6,2.2-4.5c0-1.3-0.5-2.6-1.4-3.9c-1-1.3-3.7-3.4-8.2-6.2
				c-4.5-2.8-7.5-5.4-8.9-7.7c-1.4-2.4-2.1-4.8-2.1-7.3c0-4.8,1.9-8.9,5.6-12.1c3.8-3.3,8.5-4.9,14.2-4.9
				C458.4,121.1,463.8,122.6,468.8,125.6z"/>
		</g>
		<g>
			<path fill="#FFFFFF" d="M369.6,210.7l-0.6-1.9l0.7-1.8c0.4-0.2,0.8-0.6,1.2-1.1c0.4-0.4,0.8-0.9,1.2-1.6c0.6-0.8,1.1-1.6,1.6-2.4
				l0.3-0.5c-0.4-1-0.6-2.2-0.7-3.5c-0.2-3.5,1-6.7,3.3-9.1l2.4-2.5l1.5-0.4l1.8,0.5l1.1,1.2l0.7,3.4c0.9,8.4-5.8,16-6.6,16.9
				c-0.7,0.7-1.8,1.8-2.9,2.4l-0.4,0.3c-0.7,0.5-1.7,1.1-3,1.2L369.6,210.7z"/>
			<path fill="#C31C2A" d="M373.4,209.3c0.2-0.1,0.3-0.2,0.5-0.3c1-0.6,2-1.5,2.5-2.1c0.7-0.8,7-7.9,6.2-15.5l-0.7-3.4l-1.8-0.5
				l-2.4,2.5c-2,2.1-3,4.9-2.9,7.9c0.1,1.4,0.4,2.7,0.9,3.7l0,0.1c-0.2,0.4-0.4,0.7-0.7,1.1c-0.5,0.9-1,1.7-1.6,2.5
				c-0.5,0.7-0.9,1.2-1.3,1.7c-0.6,0.6-1,1-1.6,1.4l0.6,1.9C372,210.1,372.7,209.7,373.4,209.3z"/>
			<path fill="#C31C2A" d="M386.6,209.9c1.2-1.4,2.2-3.1,3-5.2c0.3-0.9,0.5-1.8,0.8-2.7c0.2-0.9,0.4-1.7,0.7-2.4l-1.9-0.8
				c-0.4,0.9-0.7,1.8-1,2.6c-0.3,0.9-0.6,1.7-0.9,2.4c-0.8,1.7-1.8,3.1-2.9,4.2c-2.2,2.2-5.6,3.8-9.8,4.7c-2.8,0.6-5.9,0.9-9.4,0.9
				c-0.8,0-1.7,0-2.5,0c-3.9-0.1-7.9-0.5-12.1-1.2c-4.2-0.6-8.3-1.4-12.1-2.2l-0.5-0.1c-3.9-0.8-7.9-1.6-12.2-1.9
				c-0.9-0.1-1.9-0.1-2.9-0.1c-3.6,0-7.2,0.5-10.6,1.4c-0.8,0.2-1.6,0.4-2.5,0.7c0.8-1.7,1.6-3.5,2.4-5.5c1.7-4.1,3-8.1,4-11.2
				c1.3-4.1,2.4-7.8,3.2-11.4c0.5-2.2,0.9-4.1,1.2-5.9l0-0.3c0.3-1.9,0.5-3.9,0.3-6.2l-0.8-7.5l-2-0.1c0,0.2-4.5,17.7-8.9,23.4
				c-4,5.1-12.4,12.4-29.8,17.9c-5.7,1.8-14.9,3.4-27.4,4.7l-0.7,0.1c-3.4,0.4-6.5,0.6-9.5,0.8c-1.5,0.1-3.1,0.1-4.6,0.1
				c-4.7,0-9.6-0.3-14.5-0.9c-5.4-0.7-11.4-1.8-18.9-3.5c-3.6-0.9-6.3-1.8-8.7-3c-2.5-1.2-4.9-2.9-7.2-5.1l-1.5,1.4
				c2.2,2.5,4.7,4.5,7.2,6c2.4,1.4,5.3,2.6,9.1,3.8c3,0.9,5.9,1.7,9.5,2.5c3.2,0.8,6.5,1.4,9.7,2c6.3,1,12.7,1.6,19.2,1.6l0.7,0
				c3.4,0,6.8-0.2,10-0.5c2.4-0.2,4.7-0.5,7-0.8c1-0.1,5.7-0.7,5.7-0.7c5.5-0.7,11.2-1.3,16.9-2.9c5.7-1.6,11.4-4.2,18.1-8.3
				c0.7-0.4,1.3-0.8,2-1.3c0.7-0.5,1.4-1,2.1-1.6c1.2-1,2.4-2.2,3.6-3.5c0.5-0.6,1.1-1.4,1.7-2.2c-8.2,24.8-17.3,31-17.4,31.1l1,1.8
				l10.9-5.7c7.4-3.8,14-5.7,20.2-5.7c0.5,0,1.1,0,1.6,0c3.8,0.1,7.7,0.8,11.9,1.6c3.7,0.6,8,1.4,12.5,1.9c4.6,0.5,8.3,0.7,11.9,0.7
				l0.9,0c5-0.1,9.2-0.6,12.9-1.5C378.8,215.3,383.5,213.5,386.6,209.9z"/>
			<path fill="#C31C2A" d="M417.5,168.2c-2.6,1.2-4.8,2.9-6.2,5c-1.3,1.9-2.1,4.3-2.7,7.3c0,0.2-0.1,0.4-0.1,0.6
				c7-3.3,13-8.7,17.2-15.2C423,166.3,420,167,417.5,168.2z"/>
			<path fill="#C31C2A" d="M420.2,183.8c0.9-0.9,2.4-2.7,2-4.8l-1.9-0.2c-0.4,0.8-1.2,1.5-2.5,2.1c-1.1,0.6-2.4,0.9-3.7,1.3
				c-2.2,0.6-4.6,1-7.4,1.3c0.1-1.1,0.3-2.2,0.4-3.2c0.6-3.2,1.5-5.7,2.9-7.9c1.6-2.4,3.9-4.3,6.8-5.6c3.2-1.5,6.9-2.2,10.1-2.7
				l-0.1-2c-1.3-0.1-2.5-0.2-3.8-0.2c-2.8,0-5.5,0.3-8.1,1c-2.1,0.6-3.9,1.4-5.6,2.4c-1.6,1-3.1,2.3-4.6,3.9
				c-2.2,2.6-3.8,5.8-4.8,9.8c-0.3,1.4-0.6,2.9-0.8,4.6c-0.6,0-1.2,0-1.8-0.1c-2.2-0.1-5.2-0.5-8.1-1.7l-1.2,1.6
				c2.1,2.7,5.8,4.1,8.5,4.7c0.7,0.2,1.4,0.3,2.2,0.4l0,0.5c-0.1,1.5-0.1,3-0.3,4.4c-0.1,0.7-0.1,1.4-0.2,2.1l-0.4,2.3
				c-0.5,2.6-1.1,5.7-2.3,8.5c-1.2,2.8-3,5.1-5.3,7c-1.3,1.1-2.7,1.9-4,2.4c-0.7,0.3-1.5,0.5-2.2,0.5c-0.7,0-1.4-0.2-1.9-0.5
				l-1.3,1.6c0.7,0.8,1.8,1.4,3,1.7c0.5,0.1,1,0.1,1.6,0.1c0.6,0,1.2-0.1,1.9-0.2c2.3-0.4,4.3-1.4,5.8-2.2c1.7-1,3.2-2.1,4.7-3.5
				c1.2-1.2,2.4-2.7,3.5-4.5c2-3.3,3-6.7,3.7-9.7c0.2-0.7,0.3-1.5,0.5-2.2l0-0.2c0.2-0.9,0.3-1.8,0.4-2.6c0.1-1.3,0.2-2.6,0.3-3.9
				l0.1-1.4c0.1,0,0.2,0,0.3,0c3.5-0.3,6.7-1.1,9.5-2.4C417.6,185.8,419,184.9,420.2,183.8z"/>
			<path fill="#C31C2A" d="M496,194.5c-1-1.2-2.5-2.3-4.3-3c-2.5-1-5.4-1.5-9.1-1.5c-0.4,0-0.8,0-1.2,0c-3.2,0.1-6.6,0.6-10,1.5
				c-1.7,0.4-3.3,0.9-4.8,1.6c-1.4,0.6-2.9,1.3-4.4,2c-3.2,1.5-6.1,3.3-8.9,5c-2.4,1.4-4.6,2.8-7,4c-5.6,3-10.9,4.7-16.2,5.2
				c-1.5,0.2-3,0.3-4.3,0.3c-1.5,0-2.8-0.1-4-0.3c-0.7-0.1-1.3-0.3-1.8-0.5c0.5-0.3,0.9-0.6,1.2-0.9c1.1-0.9,2.2-1.9,3.4-3.2
				c1-1.1,2-2.3,2.9-3.6c0.9-1.4,1.6-2.8,2.1-4.2c0.3-0.9,0.5-1.7,0.5-2.5c0-0.2,0-0.5,0-0.8l0-0.3c0-0.1,0-0.2-0.1-0.4
				c-0.1-0.6-0.3-1.2-0.6-1.7c-0.7-1.2-2.3-2.3-3.8-2.5c-0.5-0.1-1-0.1-1.4-0.1c-0.7,0-1.4,0.1-2.2,0.3c-1.8,0.4-3.4,1.1-5.2,2.2
				c-0.8,0.5-1.5,1-2.1,1.5c-0.7,0.5-1.5,1.3-2,1.9c-1.1,1.3-2,2.9-2.5,4.6c-1,3.4-0.8,6.9,0.7,10c0.4,0.9,0.9,1.6,1.5,2.3l0.4,0.4
				l0.4,0.5l0.3,0.3c0.5,0.5,1,0.8,1.4,1.1c1.6,1,3.4,1.6,5.7,2.1c1.8,0.3,3.7,0.5,5.8,0.5c1.5,0,3.1-0.1,4.9-0.3
				c3.4-0.4,6.9-1.1,10.1-2.2c3-1.1,6.1-2.4,9-4.1c2.8-1.6,5.5-3.4,8-5c2.5-1.6,4.8-3.2,7.3-4.6c1.3-0.8,2.6-1.4,3.8-2
				c1.1-0.5,2.4-1,4-1.6c2.9-1,5.8-1.6,8.7-2c1.4-0.2,2.6-0.3,3.8-0.3c1.8,0,3.4,0.2,4.8,0.6c1.4,0.4,2.5,1,3.4,1.8
				c0.8,0.7,1.5,1.7,1.9,3l2-0.4C497.6,197.3,497,195.8,496,194.5z M417.3,206.8c-0.1-0.2-0.2-0.3-0.3-0.5c-0.9-1.7-1.2-3.8-0.6-5.9
				c0.3-1,0.7-1.9,1.3-2.8c0.3-0.4,0.6-0.8,1-1.1c0.4-0.4,0.9-0.8,1.5-1.1c1.1-0.7,2.2-1.3,3.2-1.6c0.4-0.1,0.7-0.2,1-0.2l0.1-0.1
				c0,0,0.1,0.1,0.1,0.3l0.1,0.1l-0.1,0c0,0.1,0,0.2,0,0.3c0,0.4,0,0.9-0.1,1.4c-0.2,1-0.6,2.1-1.2,3.4c-1,2-2.5,4.1-4.6,6.4
				C418.2,206,417.7,206.5,417.3,206.8z"/>
			<path fill="#C31C2A" d="M380.9,183.4c1.5,0,2.8-1.4,2.8-3c0-1.7-1.2-3-2.8-3c-1.5,0-2.8,1.4-2.8,3
				C378.1,182.1,379.3,183.4,380.9,183.4z"/>
			<path fill="#C31C2A" d="M413.7,113.7l-6.7,10.5c8.2,4.2,13.5,12.9,12.9,23c-0.2,3.6-1.2,7.1-2.8,10.2c-6.9-1.9-12.9-2.3-18.4-1.6
				c-8.2-16.2-4.8-41.3-4.8-41.3s0,0-1.1,0.4c-3.5,22.3-1.6,36-0.2,42c-2.9,0.7-5.7,1.5-8.6,2.5c-5.1,1.7-9.5,1.3-12.9,0.3
				c-1.8-3.7-2.7-7.9-2.4-12.4c0.6-10.1,7-18.8,15.7-23l-5.4-10.5c-12.5,6.3-21.5,18.9-22.4,33.5c-1,15.4,7.4,28.6,20.2,34.5
				c-0.1-0.4-0.2-0.8-0.2-1.2c0-2.5,1.9-4.6,4.3-4.6c2.4,0,4.3,2.1,4.3,4.6c0,1.4-0.6,2.7-1.6,3.5c1.1,0.3,2.3,0.5,3.5,0.6
				c0,0,0,0-0.1-0.1l0-1.9l1.2-1.6l1.8-0.5c2.7,1.1,5.5,1.4,7.6,1.6c0.1,0,0.2,0,0.3,0c0.2-1.2,0.4-2.3,0.6-3.4
				c1-4.3,2.7-7.7,5.1-10.5c1.5-1.8,3.2-3.2,4.9-4.2c1.8-1.1,3.8-2,6-2.6c2.7-0.7,5.5-1.1,8.5-1.1c1.3,0,2.6,0.1,3.9,0.2l1,1.1
				c2.1-4.5,3.5-9.3,3.8-14.5C432.8,132.6,425.3,120,413.7,113.7z"/>
		</g>
		<g>
			<path fill="#C31C2A" d="M480.9,197.3c4.5,0,8,3.5,8,7.9c0,4.5-3.5,7.9-8.1,7.9c-4.5,0-8.1-3.5-8.1-7.9
				C472.8,200.8,476.4,197.3,480.9,197.3L480.9,197.3z M480.8,198.8c-3.5,0-6.1,2.8-6.1,6.3c0,3.5,2.6,6.3,6.2,6.3
				c3.5,0.1,6-2.8,6-6.3C487,201.7,484.4,198.8,480.8,198.8L480.8,198.8z M479.6,209.2h-1.8v-7.8c0.7-0.1,1.7-0.3,3-0.3
				c1.5,0,2.2,0.2,2.7,0.6c0.4,0.3,0.8,1,0.8,1.7c0,0.9-0.7,1.6-1.6,1.9v0.1c0.8,0.2,1.2,0.9,1.4,1.9c0.2,1.2,0.4,1.7,0.6,1.9h-2
				c-0.2-0.3-0.4-1-0.6-1.9c-0.1-0.9-0.6-1.3-1.6-1.3h-0.9V209.2z M479.7,204.8h0.9c1,0,1.8-0.3,1.8-1.2c0-0.7-0.5-1.2-1.7-1.2
				c-0.5,0-0.8,0.1-1,0.1V204.8z"/>
		</g>
	</g>
	
		<text transform="matrix(0.583 0 0 0.583 89.9773 266.3715)" fill="#006725" font-family="'HelveticaNeue-Bold'" font-size="45.3009">ANTISENESCENTE AGRÍCOLA </text>
</g>
<g>
	<g>
		<g>
			<linearGradient id="SVGID_1_" gradientUnits="userSpaceOnUse" x1="129.8893" y1="413.2694" x2="240.1656" y2="413.2694">
				<stop  offset="0" style="stop-color:#42ABC2"/>
				<stop  offset="1" style="stop-color:#0B0E1B"/>
			</linearGradient>
			<path fill-rule="evenodd" clip-rule="evenodd" fill="url(#SVGID_1_)" d="M174.3,427c6,2.3,11.7,5.6,15.6,10.7
				c1,1.6,2,3.1,2.9,4.5c8.4-2.4,6.8-11.7,11.5-14.9c3-2,8.3-1,9.8,2.5c1.5,3.6-0.3,7.7-3.1,10.1c-3.8,3.5-9.3,5.5-15.3,6.3l0.1,0.1
				c1.1,1.6,2.3,3,3.4,4.3c6.2,7.6,10.4,11.6,16.3,13.6c0.1,0,0.1,0.1,0.4,0.1c0.3,0,0.8-0.4,0.8-0.4c6.1-4.8,11.7-11,16.3-18.5
				c19.8-32.4-2.8-83.1-45.8-83.1c-28.1,0-51.5,19.8-57.2,46.1c6.9,7.3,15.8,12.3,25.7,14c1.8,0.3,3.5,0.6,5.3,1
				c0.4-0.9,0.8-1.9,1.5-2.8c1.8-2.6,4.8-5,7.5-6.7c4.8-3,6.8-1.4,1.2-5.1c-12.8-8.6-9.6-26,13.5-28.6c7.2-0.8,17.7-0.3,23.7,4.2
				c9.2,6.9-1.2,16.3-6.9,10c-2.5-2.8-5.3-13.6-17.2-10.2c-7.7,2.2-10.6,11.1-8.2,18.3c3.2,9.4,13,7.2,20.5,6.8
				c7.1-0.4,6.4,5.1,0.8,4.9c-4.6-0.1-7.8-1.5-12.6-0.5C177.4,415.1,174.3,420.5,174.3,427z"/>
			<linearGradient id="SVGID_2_" gradientUnits="userSpaceOnUse" x1="173.8429" y1="399.667" x2="210.94" y2="458.6535">
				<stop  offset="0" style="stop-color:#73BA24"/>
				<stop  offset="1" style="stop-color:#136227"/>
			</linearGradient>
			<path fill-rule="evenodd" clip-rule="evenodd" fill="url(#SVGID_2_)" d="M173.6,465.8c6.1,5.5,13,10.2,21.8,12.9
				c28.4-4,50.3-28.4,50.3-58c0-17.3-7.5-32.9-19.5-43.6c30.1,36.4,15.2,73.5-10.5,89.6c0,0,0,0,0,0c-5.9-2-11.3-5.7-17.5-13.2
				c-1.1-1.3-2.2-2.8-3.4-4.3c-1.8-2.5-3.8-5.4-5.8-8.6c-6.1-7.8-15.9-11.4-25.3-13.6c-3-0.7-6-1.3-9-1.8
				c-9.9-1.7-18.4-6.4-25.4-13.8c-0.5,3.1-0.7,6.2-0.7,9.4c0,32.3,26.2,58.5,58.5,58.5c1.5,0,2.9-0.1,4.3-0.2
				c-8.1-3.4-15-7.9-20.6-13.4c-5.4-5.5-9.8-11.5-13.8-17.7C162,454.7,167.5,460.7,173.6,465.8z"/>
		</g>
		<g>
			<g>
				<path fill-rule="evenodd" clip-rule="evenodd" fill="#008837" d="M267.2,449.1v-44.8c0-0.5,0.2-1,0.6-1.4
					c0.4-0.4,0.9-0.6,1.4-0.6h20c3.8,0,6.9,1.2,9.4,3.5c2.4,2.3,3.6,5.3,3.6,9c0,2-0.5,3.9-1.4,5.6c-0.9,1.7-2.2,3.1-3.8,4.3
					c2.6,1.1,4.7,2.8,6.3,5.1c1.6,2.2,2.4,4.7,2.4,7.4c0,3.8-1.5,7.1-4.5,9.8c-3,2.7-6.6,4.1-10.9,4.1h-21.1c-0.5,0-1-0.2-1.4-0.6
					C267.4,450.1,267.2,449.7,267.2,449.1L267.2,449.1z M271.1,447.1h19.2c3.2,0,5.9-1,8.1-2.9c2.2-1.9,3.4-4.3,3.4-7
					c0-2.8-1.1-5.1-3.4-7c-2.2-1.9-5-2.9-8.1-2.9h-19.2V447.1L271.1,447.1z M271.1,423.3h17.4c2.6,0,4.9-0.8,6.8-2.3
					c1.9-1.5,2.9-3.6,2.9-6.2c0-1.9-0.5-3.5-1.4-4.8c-0.9-1.3-2-2.3-3.4-2.9c-1.3-0.6-2.8-0.9-4.4-0.9h-18.1V423.3z"/>
				<path fill="#008837" d="M290.3,451.3h-21.1c-0.6,0-1.2-0.2-1.6-0.6c-0.4-0.4-0.7-1-0.7-1.6v-44.8c0-0.6,0.2-1.1,0.7-1.6
					c0.4-0.4,1-0.6,1.6-0.6h20c3.9,0,7.1,1.2,9.6,3.6c2.5,2.4,3.7,5.4,3.7,9.2c0,2.1-0.5,4-1.4,5.7c-0.8,1.6-2,3-3.5,4.1
					c2.5,1.2,4.5,2.8,6,5c1.6,2.3,2.5,4.8,2.5,7.6c0,3.9-1.6,7.3-4.6,10C298.3,449.9,294.6,451.3,290.3,451.3z M269.2,402.6
					c-0.5,0-0.9,0.2-1.2,0.5c-0.3,0.3-0.5,0.7-0.5,1.2v44.8c0,0.5,0.2,0.9,0.5,1.2c0.3,0.3,0.7,0.5,1.2,0.5h21.1
					c4.1,0,7.7-1.3,10.7-4c2.9-2.6,4.4-5.9,4.4-9.6c0-2.6-0.8-5.1-2.4-7.3c-1.6-2.2-3.7-3.8-6.2-5l-0.4-0.2l0.4-0.3
					c1.6-1.2,2.8-2.5,3.7-4.2c0.9-1.6,1.3-3.5,1.3-5.5c0-3.6-1.2-6.5-3.6-8.8c-2.4-2.3-5.5-3.4-9.2-3.4H269.2z M290.3,447.4h-19.5
					v-20.5h19.5c3.2,0,6,1,8.3,3c2.3,2,3.5,4.4,3.5,7.3s-1.2,5.3-3.5,7.3C296.3,446.4,293.6,447.4,290.3,447.4z M271.4,446.9h18.9
					c3.1,0,5.8-1,7.9-2.9c2.2-1.9,3.3-4.2,3.3-6.8c0-2.7-1.1-4.9-3.3-6.8c-2.2-1.9-4.9-2.8-7.9-2.8h-18.9V446.9z M288.6,423.6h-17.7
					V406h18.3c1.6,0,3.1,0.3,4.5,0.9c1.4,0.6,2.5,1.6,3.5,3c0.9,1.4,1.4,3.1,1.4,5c0,2.7-1,4.9-3,6.4
					C293.6,422.8,291.2,423.6,288.6,423.6z M271.4,423h17.2c2.5,0,4.8-0.7,6.6-2.2c1.9-1.5,2.8-3.5,2.8-6c0-1.8-0.4-3.4-1.3-4.7
					c-0.9-1.3-2-2.2-3.2-2.8c-1.3-0.6-2.7-0.9-4.3-0.9h-17.8V423z"/>
			</g>
			<g>
				<path fill-rule="evenodd" clip-rule="evenodd" fill="#008837" d="M351.8,425.9c0-4.5,1.1-8.7,3.4-12.6c2.2-3.8,5.3-6.9,9.1-9.1
					c3.8-2.2,8-3.4,12.6-3.4s8.7,1.1,12.6,3.4c3.9,2.2,6.9,5.3,9.1,9.1c2.2,3.9,3.4,8,3.4,12.6c0,3.4-0.7,6.6-2,9.7
					c-1.3,3.1-3.1,5.8-5.3,8c-2.2,2.2-4.9,4-8,5.4c-3.1,1.3-6.3,2-9.7,2s-6.6-0.7-9.7-2c-3.1-1.3-5.8-3.1-8-5.4
					c-2.2-2.2-4-4.9-5.3-8C352.5,432.6,351.8,429.3,351.8,425.9L351.8,425.9z M357.5,417.8c-1.1,2.6-1.7,5.3-1.7,8.2
					c0,2.9,0.6,5.6,1.7,8.2c1.1,2.6,2.6,4.8,4.5,6.7c1.9,1.9,4.1,3.4,6.7,4.5c2.6,1.1,5.3,1.7,8.2,1.7s5.6-0.6,8.2-1.7
					c2.6-1.1,4.9-2.6,6.7-4.5c1.9-1.9,3.4-4.1,4.5-6.7c1.1-2.6,1.7-5.3,1.7-8.2c0-2.8-0.6-5.6-1.7-8.2c-1.1-2.6-2.6-4.8-4.5-6.7
					c-1.9-1.9-4.1-3.4-6.7-4.5c-2.6-1.1-5.3-1.7-8.2-1.7s-5.6,0.6-8.2,1.7c-2.6,1.1-4.9,2.6-6.7,4.5
					C360.1,413,358.6,415.2,357.5,417.8z"/>
				<path fill="#008837" d="M376.9,451.3c-3.4,0-6.7-0.7-9.8-2c-3.1-1.3-5.8-3.2-8.1-5.4c-2.3-2.3-4.1-5-5.4-8.1
					c-1.3-3.1-2-6.4-2-9.8c0-4.6,1.1-8.8,3.4-12.7c2.3-3.9,5.4-7,9.2-9.2c3.9-2.3,8.1-3.4,12.7-3.4c4.6,0,8.8,1.1,12.7,3.4
					c3.9,2.2,7,5.3,9.2,9.2c2.3,3.9,3.4,8.2,3.4,12.7c0,3.4-0.7,6.7-2,9.8c-1.3,3.1-3.2,5.8-5.4,8.1c-2.2,2.3-5,4.1-8.1,5.4
					C383.6,450.6,380.3,451.3,376.9,451.3z M376.9,401.1c-4.5,0-8.7,1.1-12.4,3.3c-3.8,2.2-6.8,5.2-9,9c-2.2,3.8-3.3,8-3.3,12.4
					c0,3.3,0.7,6.6,2,9.6c1.3,3,3.1,5.7,5.3,7.9c2.2,2.2,4.9,4,7.9,5.3c3,1.3,6.3,2,9.6,2c3.3,0,6.6-0.7,9.6-2
					c3.1-1.3,5.7-3.1,7.9-5.3c2.2-2.2,4-4.9,5.3-7.9c1.3-3.1,2-6.3,2-9.6c0-4.5-1.1-8.6-3.3-12.4c-2.2-3.8-5.3-6.8-9-9
					C385.5,402.2,381.4,401.1,376.9,401.1z M376.9,447.3c-2.9,0-5.7-0.6-8.3-1.7c-2.6-1.1-4.9-2.6-6.8-4.5c-1.9-1.9-3.4-4.2-4.5-6.8
					c-1.1-2.6-1.7-5.4-1.7-8.3c0-2.9,0.6-5.6,1.7-8.3c1.1-2.6,2.6-4.9,4.5-6.8c1.9-1.9,4.2-3.4,6.8-4.5c2.6-1.1,5.4-1.7,8.3-1.7
					c2.9,0,5.7,0.6,8.3,1.7c2.6,1.1,4.9,2.6,6.8,4.5c1.9,1.9,3.4,4.2,4.5,6.8c1.1,2.6,1.7,5.4,1.7,8.3c0,2.9-0.6,5.7-1.7,8.3
					c-1.1,2.6-2.6,4.9-4.5,6.8c-1.9,1.9-4.2,3.4-6.8,4.5C382.5,446.7,379.8,447.3,376.9,447.3z M376.9,405.2c-2.8,0-5.5,0.6-8.1,1.7
					c-2.6,1.1-4.8,2.6-6.7,4.4c-1.9,1.9-3.3,4.1-4.4,6.6c-1.1,2.6-1.7,5.3-1.7,8.1c0,2.8,0.6,5.5,1.7,8.1c1.1,2.5,2.6,4.8,4.4,6.6
					c1.9,1.9,4.1,3.3,6.7,4.4c2.6,1.1,5.3,1.7,8.1,1.7c2.8,0,5.5-0.6,8.1-1.7c2.6-1.1,4.8-2.6,6.7-4.4c1.9-1.9,3.3-4.1,4.4-6.6
					c1.1-2.6,1.7-5.3,1.7-8.1c0-2.8-0.6-5.5-1.7-8.1c-1.1-2.5-2.6-4.8-4.4-6.6c-1.9-1.9-4.1-3.3-6.7-4.4
					C382.4,405.7,379.7,405.2,376.9,405.2z"/>
			</g>
			<g>
				<path fill-rule="evenodd" clip-rule="evenodd" fill="#008837" d="M422.6,424.8c-2.7-2.6-4.1-5.7-4.1-9.3c0-3.6,1.4-6.7,4.1-9.3
					c2.7-2.6,6-3.9,9.9-3.9h19.4c0.5,0,1,0.2,1.4,0.6c0.4,0.4,0.6,0.8,0.6,1.4c0,0.5-0.2,1-0.6,1.4c-0.4,0.4-0.9,0.6-1.4,0.6h-19.4
					c-2.8,0-5.1,0.9-7.1,2.7c-2,1.8-2.9,4-2.9,6.5c0,2.6,1,4.7,2.9,6.5c2,1.8,4.3,2.7,7.1,2.7h10.1h0.1c3.8,0,7.1,1.4,9.8,3.9
					c2.7,2.6,4.1,5.6,4.1,9.2c0,3.6-1.4,6.7-4.1,9.3c-2.7,2.6-6,3.9-9.9,3.9h-21.1c-0.5,0-1-0.2-1.4-0.6c-0.4-0.4-0.6-0.8-0.6-1.4
					c0-0.5,0.2-1,0.6-1.4c0.4-0.4,0.8-0.6,1.4-0.6h21.1c2.8,0,5.1-0.9,7.1-2.7c2-1.8,2.9-4,2.9-6.5c0-2.5-1-4.7-2.9-6.5
					c-2-1.8-4.3-2.7-7.1-2.7h-10.1C428.6,428.7,425.3,427.4,422.6,424.8z"/>
				<path fill="#078937" d="M442.6,451.3h-21.1c-0.6,0-1.1-0.2-1.6-0.6c-0.4-0.4-0.6-1-0.6-1.6c0-0.6,0.2-1.2,0.6-1.6
					c0.4-0.4,0.9-0.6,1.6-0.6h21.1c2.7,0,5-0.9,6.9-2.6c1.9-1.7,2.9-3.9,2.9-6.3c0-2.5-1-4.6-2.9-6.3c-1.9-1.7-4.2-2.6-6.9-2.6
					h-10.1c-3.9,0-7.3-1.3-10.1-3.9c-2.8-2.6-4.2-5.8-4.2-9.5c0-3.7,1.4-6.9,4.2-9.5c2.8-2.6,6.2-3.9,10.1-3.9h19.4
					c0.6,0,1.2,0.2,1.6,0.6c0.4,0.4,0.7,1,0.7,1.6c0,0.6-0.2,1.2-0.7,1.6c-0.4,0.4-1,0.6-1.6,0.6h-19.4c-2.7,0-5,0.9-6.9,2.6
					c-1.9,1.8-2.9,3.9-2.9,6.4c0,2.5,0.9,4.6,2.9,6.4c1.9,1.8,4.2,2.6,6.9,2.6h10.3c3.9,0,7.2,1.4,10,4c2.7,2.6,4.1,5.8,4.1,9.4
					c0,3.7-1.4,6.9-4.2,9.5C449.9,450,446.5,451.3,442.6,451.3z M421.5,447.4c-0.5,0-0.9,0.2-1.2,0.5c-0.3,0.3-0.5,0.7-0.5,1.2
					c0,0.5,0.2,0.9,0.5,1.2c0.3,0.3,0.7,0.5,1.2,0.5h21.1c3.8,0,7-1.3,9.7-3.8c2.7-2.5,4-5.6,4-9.1c0-3.5-1.3-6.5-4-9
					c-2.6-2.5-5.9-3.8-9.6-3.8h-10.3c-2.8,0-5.3-0.9-7.3-2.8c-2-1.9-3-4.1-3-6.7c0-2.6,1-4.9,3-6.7c2-1.8,4.5-2.8,7.3-2.8h19.4
					c0.5,0,0.9-0.2,1.2-0.5c0.3-0.3,0.5-0.7,0.5-1.2c0-0.5-0.2-0.9-0.5-1.2c-0.3-0.3-0.7-0.5-1.2-0.5h-19.4c-3.8,0-7,1.3-9.7,3.8
					c-2.7,2.5-4,5.6-4,9.1c0,3.5,1.4,6.6,4,9.1c2.7,2.5,5.9,3.8,9.7,3.8h10.1c2.8,0,5.3,0.9,7.3,2.8c2,1.8,3,4.1,3,6.7
					c0,2.6-1,4.9-3,6.7c-2,1.8-4.5,2.8-7.3,2.8H421.5z"/>
			</g>
			<g>
				<g>
					<path fill-rule="evenodd" clip-rule="evenodd" fill="#008837" d="M327,449.1v-44.8c0-0.5,0.2-1,0.6-1.4
						c0.4-0.4,0.8-0.6,1.4-0.6c0.5,0,1,0.2,1.4,0.6c0.4,0.4,0.6,0.8,0.6,1.4v44.8c0,0.5-0.2,1-0.6,1.4c-0.4,0.4-0.8,0.6-1.4,0.6
						c-0.5,0-1-0.2-1.4-0.6C327.2,450.1,327,449.7,327,449.1z"/>
					<path fill="#008837" d="M328.9,451.3c-0.6,0-1.2-0.2-1.6-0.6c-0.4-0.4-0.6-1-0.6-1.6v-44.8c0-0.6,0.2-1.1,0.6-1.6
						c0.4-0.4,1-0.6,1.6-0.6c0.6,0,1.2,0.2,1.6,0.6c0.4,0.4,0.6,1,0.6,1.6v44.8c0,0.6-0.2,1.1-0.6,1.6
						C330.1,451.1,329.6,451.3,328.9,451.3z M328.9,402.6c-0.5,0-0.9,0.2-1.2,0.5c-0.3,0.3-0.5,0.7-0.5,1.2v44.8
						c0,0.5,0.2,0.9,0.5,1.2c0.3,0.3,0.7,0.5,1.2,0.5c0.5,0,0.9-0.2,1.2-0.5c0.3-0.3,0.5-0.7,0.5-1.2v-44.8c0-0.5-0.2-0.9-0.5-1.2
						C329.8,402.7,329.4,402.6,328.9,402.6z"/>
				</g>
				<linearGradient id="SVGID_3_" gradientUnits="userSpaceOnUse" x1="328.2722" y1="392.8963" x2="347.5969" y2="386.0797">
					<stop  offset="0" style="stop-color:#389C2E"/>
					<stop  offset="7.029074e-02" style="stop-color:#43A12C"/>
					<stop  offset="0.2458" style="stop-color:#58AC29"/>
					<stop  offset="0.4403" style="stop-color:#67B426"/>
					<stop  offset="0.6666" style="stop-color:#70B925"/>
					<stop  offset="1" style="stop-color:#73BA24"/>
				</linearGradient>
				<path fill-rule="evenodd" clip-rule="evenodd" fill="url(#SVGID_3_)" d="M335.3,400.4c-2.2,0.6-4.4,0.5-6.6,0.4
					c1.9-5.1,4.8-7.3,8.1-9.8c2-1.5,4.1-3.1,6.2-5.5l0,0c1.1-1.4,1.8-2.9,2.4-4.5c0.5-1.4,0.8-2.8,1.1-4.2c0.5,2.8,0.6,5.6,0,8.5
					c-0.7,3.2-2.1,6.6-4.6,10.1C339.8,398.3,337.5,399.7,335.3,400.4L335.3,400.4z M346.1,376.6c-0.2,0.2-0.4,0.4-0.6,0.5
					c-0.1,0-0.1,0.1-0.2,0.2c0,0-0.1,0.1-0.1,0.1c-0.1,0.1-0.2,0.2-0.3,0.2c-0.1,0.1-0.2,0.2-0.3,0.2c-0.4,0.2-0.7,0.5-1.1,0.7
					c-0.9,0.5-1.7,0.9-2.6,1.3c-0.5,0.2-1,0.4-1.5,0.7c-2.8,1.3-5.8,2.6-8.1,4.7l0,0l-0.1,0.1c-1.9,1.8-3,4-3.5,6.4
					c-0.4,2.4-0.2,5.2,0.6,8.2l0.1,0.3c2-4.9,4.8-7.1,8.1-9.6c1.9-1.5,4-3.1,6.1-5.5c1-1.4,1.8-2.8,2.4-4.4
					C345.5,379.5,345.9,378.1,346.1,376.6z"/>
			</g>
		</g>
	</g>
	<text transform="matrix(1 0 0 1 102.9847 383.768)" fill="#006725"  font-size="29.93">by</text>
</g>
</svg>
