<?xml version="1.0" encoding="utf-8"?>
<!--Generator: Adobe Illustrator 18.0.0, SVG Export Plug-In . SVG Version: 6.00 Build 0)-->
<!DOCTYPE svg PUBLIC "-//W3C//DTD SVG 1.1//EN" "http://www.w3.org/Graphics/SVG/1.1/DTD/svg11.dtd">
<svg version="1.1" id="Layer_1" xmlns="http://www.w3.org/2000/svg" xmlns:xlink="http://www.w3.org/1999/xlink" x="0px" y="0px" viewBox="0 0 566.9 566.9" enable-background="new 0 0 566.9 566.9" xml:space="preserve">
    <g>
        <g>
            <linearGradient id="SVGID_1_" gradientUnits="userSpaceOnUse" x1="53.0712" y1="272.5897" x2="208.8073" y2="272.5897">
                <stop offset="0" style="stop-color:#42abc2"/>
                <stop offset="1" style="stop-color:#0b0e1b"/>
            </linearGradient>
            <path fill-rule="evenodd" clip-rule="evenodd" fill="url(#SVGID_1_)" d="M115.7,291.9c8.5,3.2,16.5,7.9,22.1,15.1
			c1.4,2.2,2.8,4.3,4.1,6.3c11.8-3.4,9.6-16.5,16.2-21c4.2-2.8,11.7-1.4,13.8,3.5c2.1,5.1-0.5,10.9-4.3,14.3
			c-5.4,4.9-13.2,7.8-21.6,8.9l0.1,0.1c1.6,2.2,3.2,4.3,4.7,6.1c8.8,10.7,14.7,16.4,23,19.2c0.1,0,0.2,0.1,0.5,0.1
			c0.4,0,1.2-0.6,1.2-0.6c8.6-6.8,16.6-15.5,23.1-26.2c27.9-45.8-4-117.4-64.7-117.4c-39.6,0-72.8,27.9-80.8,65.1
			c9.8,10.4,22.4,17.4,36.3,19.7c2.5,0.4,5,0.9,7.5,1.4c0.5-1.3,1.2-2.6,2.1-3.9c2.6-3.7,6.8-7,10.6-9.4c6.7-4.3,9.6-2,1.7-7.2
			c-18.1-12.1-13.5-36.7,19.1-40.3c10.2-1.1,25-0.4,33.5,5.9c13.1,9.8-1.7,23.1-9.8,14.2c-3.6-3.9-7.4-19.2-24.2-14.4
			c-10.9,3.1-15,15.7-11.5,25.8c4.5,13.3,18.4,10.2,29,9.6c10-0.6,9.1,7.2,1.1,7c-6.5-0.1-11.1-2.1-17.9-0.8
			C120.2,275.1,115.8,282.8,115.7,291.9z"/>
            <linearGradient id="SVGID_2_" gradientUnits="userSpaceOnUse" x1="115.144" y1="253.3798" x2="167.5338" y2="336.6827">
                <stop offset="0" style="stop-color:#73ba24"/>
                <stop offset="1" style="stop-color:#136227"/>
            </linearGradient>
            <path fill-rule="evenodd" clip-rule="evenodd" fill="url(#SVGID_2_)" d="M114.8,346.8c8.6,7.8,18.3,14.4,30.8,18.2
			c40.1-5.7,71-40.2,71-81.9c0-24.5-10.7-46.5-27.6-61.6c42.4,51.4,21.5,103.8-14.8,126.5c0,0,0,0,0-0.1c-8.4-2.8-15.9-8-24.7-18.6
			c-1.5-1.9-3.1-3.9-4.7-6.1c-2.6-3.6-5.3-7.6-8.2-12.2C128,300,114,295,100.8,291.9c-4.2-1-8.5-1.8-12.7-2.5
			c-13.9-2.4-26-9.1-35.8-19.5c-0.7,4.3-1.1,8.7-1.1,13.3c0,45.7,37,82.7,82.7,82.7c2.1,0,4.1-0.1,6.1-0.2
			c-11.5-4.8-21.2-11.1-29.1-18.9c-7.6-7.8-13.9-16.3-19.5-25.1C98.5,331.1,106.2,339.5,114.8,346.8z"/>
        </g>
        <g>
            <g>
                <path fill-rule="evenodd" clip-rule="evenodd" fill="#008837" d="M247,323.2v-63.3c0-0.8,0.3-1.4,0.8-2c0.5-0.5,1.2-0.8,2-0.8
				H278c5.4,0,9.8,1.6,13.2,4.9c3.4,3.3,5.1,7.5,5.1,12.7c0,2.9-0.6,5.5-1.9,7.9c-1.3,2.4-3.1,4.4-5.3,6.1c3.7,1.6,6.7,4,8.9,7.1
				c2.3,3.2,3.4,6.7,3.4,10.5c0,5.4-2.1,10-6.4,13.9c-4.3,3.8-9.4,5.8-15.4,5.8h-29.9c-0.8,0-1.4-0.3-2-0.8
				C247.3,324.6,247,324,247,323.2L247,323.2z M252.5,320.4h27.1c4.5,0,8.3-1.4,11.5-4.1c3.2-2.7,4.8-6.1,4.8-10
				c0-3.9-1.6-7.2-4.8-10c-3.2-2.7-7-4.1-11.5-4.1h-27.1V320.4L252.5,320.4z M252.5,286.8h24.6c3.7,0,6.9-1.1,9.6-3.2
				c2.7-2.1,4.1-5.1,4.1-8.8c0-2.6-0.6-4.9-1.9-6.8c-1.3-1.9-2.8-3.2-4.7-4c-1.9-0.8-3.9-1.2-6.2-1.2h-25.5V286.8z"/>
                <path fill="#008837" d="M279.7,326.3h-29.9c-0.9,0-1.6-0.3-2.2-0.9c-0.6-0.6-0.9-1.4-0.9-2.2v-63.3c0-0.9,0.3-1.6,0.9-2.2
				c0.6-0.6,1.4-0.9,2.2-0.9H278c5.5,0,10,1.7,13.5,5c3.5,3.3,5.3,7.7,5.3,12.9c0,2.9-0.7,5.6-2,8.1c-1.2,2.2-2.8,4.2-4.9,5.8
				c3.5,1.6,6.3,4,8.5,7c2.3,3.2,3.5,6.8,3.5,10.7c0,5.5-2.2,10.3-6.5,14.2C291,324.4,285.7,326.3,279.7,326.3z M249.8,257.5
				c-0.7,0-1.2,0.2-1.7,0.7c-0.5,0.5-0.7,1-0.7,1.7v63.3c0,0.7,0.2,1.2,0.7,1.7c0.5,0.5,1,0.7,1.7,0.7h29.9c5.9,0,10.9-1.9,15.1-5.7
				c4.2-3.7,6.3-8.3,6.3-13.6c0-3.7-1.1-7.2-3.3-10.3c-2.2-3.1-5.2-5.4-8.8-7l-0.6-0.3l0.5-0.4c2.3-1.6,4-3.6,5.2-5.9
				c1.3-2.3,1.9-4.9,1.9-7.7c0-5-1.7-9.2-5-12.4c-3.3-3.2-7.7-4.8-13-4.8H249.8z M279.7,320.8h-27.5v-28.9h27.5
				c4.5,0,8.5,1.4,11.7,4.2c3.2,2.8,4.9,6.3,4.9,10.2c0,4-1.6,7.4-4.9,10.2C288.1,319.4,284.2,320.8,279.7,320.8z M252.9,320h26.7
				c4.3,0,8.1-1.4,11.2-4c3.1-2.7,4.6-5.9,4.6-9.7c0-3.8-1.5-7-4.6-9.7c-3.1-2.7-6.9-4-11.2-4h-26.7V320z M277.2,287.1h-25v-24.9
				h25.9c2.3,0,4.4,0.4,6.3,1.3c1.9,0.8,3.6,2.2,4.9,4.2c1.3,2,2,4.3,2,7c0,3.8-1.4,6.9-4.2,9.1C284.2,286,280.9,287.1,277.2,287.1z
				 M252.9,286.4h24.3c3.6,0,6.7-1.1,9.4-3.1c2.6-2.1,3.9-4.9,3.9-8.5c0-2.5-0.6-4.7-1.8-6.6c-1.2-1.8-2.8-3.1-4.6-3.9
				c-1.8-0.8-3.8-1.2-6-1.2h-25.1V286.4z"/>
            </g>
            <g>
                <path fill-rule="evenodd" clip-rule="evenodd" fill="#008837" d="M366.5,290.5c0-6.4,1.6-12.3,4.7-17.8
				c3.2-5.4,7.5-9.7,12.9-12.9c5.4-3.2,11.4-4.8,17.8-4.8c6.4,0,12.3,1.6,17.8,4.8c5.4,3.2,9.7,7.5,12.9,12.9
				c3.2,5.4,4.7,11.4,4.7,17.8c0,4.8-0.9,9.4-2.8,13.8c-1.9,4.4-4.4,8.1-7.6,11.3c-3.2,3.2-6.9,5.7-11.3,7.6
				c-4.4,1.9-9,2.8-13.7,2.8c-4.8,0-9.4-0.9-13.7-2.8c-4.4-1.9-8.1-4.4-11.3-7.6c-3.2-3.2-5.7-6.9-7.6-11.3
				C367.4,299.9,366.5,295.3,366.5,290.5L366.5,290.5z M374.5,279c-1.6,3.7-2.4,7.5-2.4,11.5c0,4,0.8,7.9,2.4,11.6
				c1.6,3.7,3.7,6.8,6.3,9.5c2.6,2.6,5.8,4.8,9.5,6.3c3.7,1.6,7.5,2.4,11.6,2.4c4,0,7.9-0.8,11.6-2.4c3.7-1.6,6.9-3.7,9.5-6.3
				c2.6-2.6,4.8-5.8,6.3-9.5c1.6-3.7,2.4-7.5,2.4-11.6c0-4-0.8-7.8-2.4-11.5c-1.6-3.7-3.7-6.8-6.3-9.5c-2.6-2.6-5.8-4.8-9.5-6.3
				c-3.7-1.6-7.5-2.4-11.6-2.4c-4,0-7.9,0.8-11.6,2.4c-3.7,1.6-6.9,3.7-9.5,6.3C378.2,272.1,376.1,275.3,374.5,279z"/>
                <path fill="#008837" d="M401.9,326.3c-4.8,0-9.5-1-13.9-2.9c-4.4-1.9-8.2-4.5-11.4-7.6c-3.2-3.2-5.8-7.1-7.6-11.4
				c-1.9-4.4-2.8-9.1-2.8-13.9c0-6.4,1.6-12.5,4.8-17.9c3.2-5.5,7.6-9.9,13-13c5.5-3.2,11.5-4.8,17.9-4.8c6.5,0,12.5,1.6,17.9,4.8
				c5.5,3.2,9.8,7.6,13,13c3.2,5.5,4.8,11.5,4.8,17.9c0,4.8-1,9.5-2.8,13.9c-1.9,4.4-4.5,8.2-7.6,11.4c-3.2,3.2-7,5.8-11.4,7.6
				C411.4,325.4,406.7,326.3,401.9,326.3z M401.9,255.4c-6.3,0-12.2,1.6-17.6,4.7c-5.3,3.1-9.6,7.4-12.8,12.8
				c-3.1,5.4-4.7,11.3-4.7,17.6c0,4.7,0.9,9.3,2.8,13.6c1.8,4.3,4.4,8.1,7.5,11.2c3.1,3.1,6.9,5.6,11.2,7.5
				c4.3,1.9,8.9,2.8,13.6,2.8c4.7,0,9.3-0.9,13.6-2.8c4.3-1.9,8.1-4.4,11.2-7.5c3.1-3.1,5.6-6.9,7.5-11.2c1.8-4.3,2.8-8.9,2.8-13.6
				c0-6.3-1.6-12.2-4.7-17.6c-3.1-5.4-7.4-9.7-12.8-12.8C414.1,257,408.2,255.4,401.9,255.4z M401.9,320.6c-4,0-8-0.8-11.7-2.4
				c-3.7-1.6-6.9-3.7-9.6-6.4c-2.7-2.7-4.9-5.9-6.4-9.6c-1.6-3.7-2.4-7.7-2.4-11.7c0-4,0.8-8,2.4-11.7c1.6-3.7,3.7-6.9,6.4-9.6
				c2.7-2.7,5.9-4.8,9.6-6.4c3.7-1.6,7.7-2.4,11.7-2.4c4.1,0,8,0.8,11.7,2.4c3.7,1.6,6.9,3.7,9.6,6.4c2.7,2.7,4.8,5.9,6.4,9.6
				c1.6,3.7,2.4,7.6,2.4,11.7c0,4-0.8,8-2.4,11.7c-1.6,3.7-3.7,6.9-6.4,9.6c-2.7,2.7-5.9,4.8-9.6,6.4
				C409.9,319.8,405.9,320.6,401.9,320.6z M401.9,261.2c-3.9,0-7.8,0.8-11.4,2.3c-3.6,1.5-6.8,3.6-9.4,6.3c-2.6,2.6-4.7,5.8-6.3,9.3
				c-1.6,3.6-2.3,7.4-2.3,11.4c0,3.9,0.8,7.8,2.3,11.4c1.5,3.6,3.6,6.8,6.3,9.4c2.6,2.6,5.8,4.7,9.4,6.3c3.6,1.6,7.5,2.3,11.4,2.3
				c3.9,0,7.8-0.8,11.4-2.3c3.6-1.5,6.8-3.6,9.4-6.3c2.6-2.6,4.7-5.8,6.3-9.4c1.6-3.6,2.3-7.5,2.3-11.4c0-3.9-0.8-7.8-2.3-11.4
				c-1.5-3.6-3.6-6.7-6.3-9.3c-2.6-2.6-5.8-4.7-9.4-6.3C409.7,262,405.8,261.2,401.9,261.2z"/>
            </g>
            <g>
                <path fill-rule="evenodd" clip-rule="evenodd" fill="#008837" d="M466.4,288.9c-3.9-3.7-5.8-8-5.8-13.1c0-5.1,1.9-9.5,5.8-13.1
				c3.9-3.6,8.5-5.5,13.9-5.5h27.3c0.8,0,1.4,0.3,2,0.8c0.5,0.5,0.8,1.2,0.8,2c0,0.8-0.3,1.4-0.8,2c-0.5,0.5-1.2,0.8-2,0.8h-27.3
				c-3.9,0-7.3,1.3-10,3.8c-2.8,2.6-4.2,5.6-4.2,9.2c0,3.6,1.4,6.7,4.2,9.2c2.8,2.6,6.1,3.8,10.1,3.8h14.3h0.2
				c5.4,0.1,10,1.9,13.8,5.5c3.8,3.6,5.7,8,5.7,13c0,5.1-1.9,9.5-5.8,13.1c-3.9,3.6-8.5,5.4-13.9,5.4H465c-0.8,0-1.4-0.3-2-0.8
				c-0.5-0.5-0.8-1.2-0.8-2c0-0.8,0.3-1.4,0.8-2c0.5-0.5,1.2-0.8,2-0.8h29.8c3.9,0,7.3-1.3,10-3.8s4.2-5.6,4.2-9.2
				c0-3.6-1.4-6.7-4.2-9.2c-2.8-2.6-6.1-3.8-10.1-3.8h-14.3C474.9,294.4,470.3,292.5,466.4,288.9z"/>
                <path fill="#078937" d="M494.7,326.3H465c-0.9,0-1.6-0.3-2.2-0.9c-0.6-0.6-0.9-1.3-0.9-2.2c0-0.9,0.3-1.6,0.9-2.2
				c0.6-0.6,1.3-0.9,2.2-0.9h29.8c3.8,0,7.1-1.3,9.8-3.7c2.7-2.5,4-5.5,4-8.9c0-3.5-1.4-6.5-4-8.9c-2.7-2.5-6-3.7-9.8-3.7h-14.3
				c-5.5,0-10.3-1.9-14.2-5.6c-3.9-3.7-5.9-8.2-5.9-13.4c0-5.2,2-9.7,5.9-13.4c3.9-3.7,8.7-5.6,14.2-5.6h27.3c0.9,0,1.6,0.3,2.2,0.9
				c0.6,0.6,0.9,1.4,0.9,2.2s-0.3,1.6-0.9,2.2c-0.6,0.6-1.4,0.9-2.2,0.9h-27.3c-3.8,0-7.1,1.3-9.8,3.7c-2.7,2.5-4,5.4-4,9
				c0,3.5,1.3,6.5,4,9c2.7,2.5,6,3.7,9.8,3.7h14.5c5.5,0.1,10.2,2,14.1,5.6c3.9,3.7,5.8,8.2,5.8,13.3c0,5.2-2,9.7-5.9,13.4
				C505,324.5,500.2,326.3,494.7,326.3z M465,320.8c-0.7,0-1.2,0.2-1.7,0.7c-0.5,0.5-0.7,1-0.7,1.7c0,0.7,0.2,1.2,0.7,1.7
				c0.5,0.5,1,0.7,1.7,0.7h29.8c5.3,0,9.9-1.8,13.7-5.3c3.8-3.5,5.7-7.9,5.7-12.8c0-4.9-1.9-9.2-5.6-12.8c-3.7-3.5-8.3-5.3-13.6-5.4
				h-14.5c-4,0-7.5-1.3-10.3-3.9c-2.8-2.6-4.3-5.8-4.3-9.5c0-3.7,1.4-6.9,4.3-9.5c2.8-2.6,6.3-3.9,10.3-3.9h27.3
				c0.7,0,1.2-0.2,1.7-0.7c0.5-0.5,0.7-1,0.7-1.7c0-0.7-0.2-1.2-0.7-1.7c-0.5-0.5-1-0.7-1.7-0.7h-27.3c-5.3,0-9.9,1.8-13.7,5.4
				c-3.8,3.6-5.7,7.9-5.7,12.9c0,5,1.9,9.3,5.7,12.9c3.8,3.6,8.4,5.4,13.7,5.4h14.3c4,0,7.5,1.3,10.3,3.9c2.8,2.6,4.3,5.8,4.3,9.5
				s-1.4,6.9-4.3,9.5c-2.8,2.6-6.3,3.9-10.3,3.9H465z"/>
            </g>
            <g>
                <g>
                    <path fill-rule="evenodd" clip-rule="evenodd" fill="#008837" d="M331.4,323.2v-63.3c0-0.8,0.3-1.4,0.8-2c0.5-0.5,1.2-0.8,2-0.8
					c0.8,0,1.4,0.3,2,0.8c0.5,0.5,0.8,1.2,0.8,2v63.3c0,0.8-0.3,1.4-0.8,2c-0.5,0.5-1.2,0.8-2,0.8c-0.8,0-1.4-0.3-2-0.8
					C331.7,324.6,331.4,324,331.4,323.2z"/>
                    <path fill="#008837" d="M334.2,326.3c-0.9,0-1.6-0.3-2.2-0.9c-0.6-0.6-0.9-1.3-0.9-2.2v-63.3c0-0.9,0.3-1.6,0.9-2.2
					c0.6-0.6,1.3-0.9,2.2-0.9c0.9,0,1.6,0.3,2.2,0.9c0.6,0.6,0.9,1.3,0.9,2.2v63.3c0,0.9-0.3,1.6-0.9,2.2
					C335.8,326,335.1,326.3,334.2,326.3z M334.2,257.5c-0.7,0-1.2,0.2-1.7,0.7c-0.5,0.5-0.7,1-0.7,1.7v63.3c0,0.7,0.2,1.2,0.7,1.7
					c0.5,0.5,1,0.7,1.7,0.7c0.7,0,1.2-0.2,1.7-0.7c0.5-0.5,0.7-1,0.7-1.7v-63.3c0-0.7-0.2-1.2-0.7-1.7
					C335.4,257.7,334.9,257.5,334.2,257.5z"/>
                </g>
                <linearGradient id="SVGID_3_" gradientUnits="userSpaceOnUse" x1="333.2345" y1="243.8181" x2="360.5255" y2="234.1913">
                    <stop offset="0" style="stop-color:#389c2e"/>
                    <stop offset="7.029074e-02" style="stop-color:#43a12c"/>
                    <stop offset="0.2458" style="stop-color:#58ac29"/>
                    <stop offset="0.4403" style="stop-color:#67b426"/>
                    <stop offset="0.6666" style="stop-color:#70b925"/>
                    <stop offset="1" style="stop-color:#73ba24"/>
                </linearGradient>
                <path fill-rule="evenodd" clip-rule="evenodd" fill="url(#SVGID_3_)" d="M343.1,254.4c-3.1,0.9-6.2,0.8-9.3,0.5
				c2.7-7.1,6.8-10.3,11.4-13.9c2.8-2.1,5.7-4.4,8.8-7.8l0,0c1.5-2,2.6-4.1,3.4-6.3c0.7-1.9,1.2-3.9,1.5-6c0.8,3.9,0.9,7.9,0,12
				c-0.9,4.6-3,9.3-6.5,14.2C349.4,251.4,346.3,253.5,343.1,254.4L343.1,254.4z M358.4,220.9c-0.3,0.3-0.5,0.5-0.8,0.8
				c-0.1,0.1-0.2,0.2-0.3,0.2c-0.1,0-0.1,0.1-0.2,0.2c-0.1,0.1-0.3,0.2-0.4,0.3c-0.2,0.1-0.3,0.2-0.5,0.3c-0.5,0.4-1,0.7-1.6,1
				c-1.2,0.7-2.4,1.3-3.7,1.9c-0.7,0.3-1.4,0.6-2,0.9c-3.9,1.8-8.2,3.7-11.4,6.6l0,0l-0.1,0.1c-2.7,2.6-4.3,5.6-4.9,9
				c-0.6,3.5-0.3,7.3,0.9,11.6l0.1,0.4c2.8-6.9,6.8-10.1,11.4-13.6c2.7-2.1,5.7-4.4,8.7-7.7c1.5-1.9,2.5-4,3.3-6.2
				C357.6,224.8,358.1,222.9,358.4,220.9z"/>
            </g>
        </g>
    </g>
</svg>
