<?xml version="1.0" encoding="utf-8"?>
<!-- Generator: Adobe Illustrator 18.0.0, SVG Export Plug-In . SVG Version: 6.00 Build 0)  -->
<!DOCTYPE svg PUBLIC "-//W3C//DTD SVG 1.1//EN" "http://www.w3.org/Graphics/SVG/1.1/DTD/svg11.dtd">
<svg version="1.1" id="Layer_1" xmlns="http://www.w3.org/2000/svg" xmlns:xlink="http://www.w3.org/1999/xlink" x="0px" y="0px"
	 viewBox="0 0 1080 1080" enable-background="new 0 0 1080 1080" xml:space="preserve">
<g>
	<g>
		<linearGradient id="SVGID_1_" gradientUnits="userSpaceOnUse" x1="221.5244" y1="464.9627" x2="834.6639" y2="464.9627">
			<stop  offset="0" style="stop-color:#42ABC2"/>
			<stop  offset="1" style="stop-color:#0B0E1B"/>
		</linearGradient>
		<path fill-rule="evenodd" clip-rule="evenodd" fill="url(#SVGID_1_)" d="M468.2,541.1c33.6,12.6,64.8,30.9,87,59.5
			c5.6,8.8,10.9,17.1,16.2,24.9c46.5-13.3,37.6-65,63.7-82.6c16.5-11.1,46.2-5.7,54.3,13.9c8.2,19.9-1.9,42.8-17,56.4
			c-21.3,19.3-52,30.6-85.1,34.9l0.3,0.4c6.4,8.8,12.6,16.8,18.6,24.2c34.5,42,57.8,64.7,90.7,75.6c0.5,0.2,0.8,0.4,2,0.4
			c1.6,0,4.6-2.4,4.6-2.4c34-26.6,65.2-61,90.9-103c110-180.4-15.6-462.2-254.7-462.2c-156.1,0-286.5,109.9-318.2,256.5
			c38.4,40.8,88.1,68.4,142.9,77.7c9.8,1.7,19.6,3.5,29.5,5.5c2-5.2,4.6-10.3,8.1-15.3c10.1-14.4,26.8-27.6,41.6-37.1
			c26.5-16.9,37.7-7.8,6.9-28.5c-71.2-47.7-53.2-144.6,75.1-158.8c40-4.4,98.3-1.8,131.9,23.3c51.4,38.5-6.6,90.9-38.6,55.9
			c-14.1-15.5-29.3-75.4-95.5-56.7c-43,12.1-58.9,61.9-45.4,101.5c17.9,52.3,72.5,40.1,114,37.8c39.3-2.2,35.8,28.2,4.5,27.5
			c-25.6-0.5-43.6-8.1-70.3-3.1C485.9,474.9,468.4,505.3,468.2,541.1z"/>
		<linearGradient id="SVGID_2_" gradientUnits="userSpaceOnUse" x1="465.9079" y1="389.3325" x2="672.1686" y2="717.2994">
			<stop  offset="0" style="stop-color:#73BA24"/>
			<stop  offset="1" style="stop-color:#136227"/>
		</linearGradient>
		<path fill-rule="evenodd" clip-rule="evenodd" fill="url(#SVGID_2_)" d="M464.5,757.2c33.9,30.7,72.2,56.7,121.1,71.8
			c158-22.3,279.6-158.1,279.6-322.3c0-96.4-41.9-183.1-108.6-242.7c167.1,202.3,84.5,408.7-58.2,498.1c-0.1-0.1-0.1-0.2-0.2-0.2
			c-33-10.9-62.7-31.4-97.2-73.4c-6.1-7.4-12.3-15.4-18.6-24.2c-10.2-14-21-29.9-32.3-47.9c-33.7-43.6-88.7-63.3-140.6-75.3
			c-16.7-3.9-33.6-7.1-50.2-10c-54.8-9.3-102.5-35.8-141-76.6c-2.7,17-4.2,34.4-4.2,52.2c0,179.8,145.7,325.5,325.5,325.5
			c8.1,0,16.1-0.3,24.1-0.9c-45.2-19-83.3-43.9-114.5-74.4c-29.8-30.7-54.6-64-76.8-98.6C400.2,695.2,430.7,728.5,464.5,757.2z"/>
	</g>
</g>
</svg>
