<?xml version="1.0" encoding="utf-8"?>
<!--Generator: Adobe Illustrator 18.0.0, SVG Export Plug-In . SVG Version: 6.00 Build 0)-->
<!DOCTYPE svg PUBLIC "-//W3C//DTD SVG 1.1//EN" "http://www.w3.org/Graphics/SVG/1.1/DTD/svg11.dtd">
<svg version="1.1" id="Layer_1" xmlns="http://www.w3.org/2000/svg" xmlns:xlink="http://www.w3.org/1999/xlink" x="0px" y="0px" viewBox="0 0 850.4 850.4" enable-background="new 0 0 850.4 850.4" xml:space="preserve">
    <g>
        <linearGradient id="SVGID_1_" gradientUnits="userSpaceOnUse" x1="316.5974" y1="581.5869" x2="391.0071" y2="581.5869">
            <stop offset="0" style="stop-color:#42abc2"/>
            <stop offset="1" style="stop-color:#0b0e1b"/>
        </linearGradient>
        <path fill-rule="evenodd" clip-rule="evenodd" fill="url(#SVGID_1_)" d="M346.5,590.8c4.1,1.5,7.9,3.8,10.6,7.2
		c0.7,1.1,1.3,2.1,2,3c5.6-1.6,4.6-7.9,7.7-10c2-1.3,5.6-0.7,6.6,1.7c1,2.4-0.2,5.2-2.1,6.8c-2.6,2.3-6.3,3.7-10.3,4.2l0,0.1
		c0.8,1.1,1.5,2,2.3,2.9c4.2,5.1,7,7.9,11,9.2c0.1,0,0.1,0.1,0.2,0.1c0.2,0,0.6-0.3,0.6-0.3c4.1-3.2,7.9-7.4,11-12.5
		c13.4-21.9-1.9-56.1-30.9-56.1c-18.9,0-34.8,13.3-38.6,31.1c4.7,4.9,10.7,8.3,17.3,9.4c1.2,0.2,2.4,0.4,3.6,0.7
		c0.2-0.6,0.6-1.3,1-1.9c1.2-1.8,3.3-3.4,5-4.5c3.2-2.1,4.6-1,0.8-3.5c-8.6-5.8-6.5-17.6,9.1-19.3c4.8-0.5,11.9-0.2,16,2.8
		c6.2,4.7-0.8,11-4.7,6.8c-1.7-1.9-3.6-9.2-11.6-6.9c-5.2,1.5-7.1,7.5-5.5,12.3c2.2,6.4,8.8,4.9,13.8,4.6c4.8-0.3,4.3,3.4,0.5,3.3
		c-3.1-0.1-5.3-1-8.5-0.4C348.7,582.8,346.6,586.5,346.5,590.8z"/>
        <linearGradient id="SVGID_2_" gradientUnits="userSpaceOnUse" x1="346.2554" y1="572.4086" x2="371.2869" y2="612.2101">
            <stop offset="0" style="stop-color:#73ba24"/>
            <stop offset="1" style="stop-color:#136227"/>
        </linearGradient>
        <path fill-rule="evenodd" clip-rule="evenodd" fill="url(#SVGID_2_)" d="M346.1,617c4.1,3.7,8.8,6.9,14.7,8.7
		c19.2-2.7,33.9-19.2,33.9-39.1c0-11.7-5.1-22.2-13.2-29.4c20.3,24.5,10.3,49.6-7.1,60.5c0,0,0,0,0,0c-4-1.3-7.6-3.8-11.8-8.9
		c-0.7-0.9-1.5-1.9-2.3-2.9c-1.2-1.7-2.5-3.6-3.9-5.8c-4.1-5.3-10.8-7.7-17.1-9.1c-2-0.5-4.1-0.9-6.1-1.2
		c-6.7-1.1-12.4-4.3-17.1-9.3c-0.3,2.1-0.5,4.2-0.5,6.3c0,21.8,17.7,39.5,39.5,39.5c1,0,2,0,2.9-0.1c-5.5-2.3-10.1-5.3-13.9-9
		c-3.6-3.7-6.6-7.8-9.3-12C338.3,609.5,342,613.6,346.1,617z"/>
        <g>
            <path fill-rule="evenodd" clip-rule="evenodd" fill="#008837" d="M409.3,605.8v-30.3c0-0.4,0.1-0.7,0.4-0.9
			c0.3-0.3,0.6-0.4,0.9-0.4h13.5c2.6,0,4.7,0.8,6.3,2.4c1.6,1.6,2.5,3.6,2.5,6.1c0,1.4-0.3,2.6-0.9,3.8c-0.6,1.2-1.5,2.1-2.5,2.9
			c1.8,0.8,3.2,1.9,4.3,3.4c1.1,1.5,1.6,3.2,1.6,5c0,2.6-1,4.8-3.1,6.6c-2,1.8-4.5,2.8-7.3,2.8h-14.3c-0.4,0-0.7-0.1-0.9-0.4
			C409.4,606.4,409.3,606.1,409.3,605.8L409.3,605.8z M411.9,604.4h13c2.1,0,4-0.7,5.5-2c1.5-1.3,2.3-2.9,2.3-4.8
			c0-1.9-0.8-3.4-2.3-4.8c-1.5-1.3-3.3-2-5.5-2h-13V604.4L411.9,604.4z M411.9,588.4h11.8c1.8,0,3.3-0.5,4.6-1.5c1.3-1,2-2.4,2-4.2
			c0-1.3-0.3-2.3-0.9-3.2c-0.6-0.9-1.4-1.5-2.3-1.9c-0.9-0.4-1.9-0.6-2.9-0.6h-12.2V588.4z"/>
            <path fill="#008837" d="M424.9,607.3h-14.3c-0.4,0-0.8-0.1-1.1-0.4c-0.3-0.3-0.4-0.7-0.4-1.1v-30.3c0-0.4,0.2-0.8,0.4-1.1
			c0.3-0.3,0.7-0.4,1.1-0.4h13.5c2.6,0,4.8,0.8,6.4,2.4c1.7,1.6,2.5,3.7,2.5,6.2c0,1.4-0.3,2.7-0.9,3.9c-0.6,1.1-1.4,2-2.4,2.8
			c1.7,0.8,3,1.9,4.1,3.3c1.1,1.5,1.7,3.3,1.7,5.1c0,2.6-1,4.9-3.1,6.8C430.3,606.3,427.8,607.3,424.9,607.3z M410.6,574.4
			c-0.3,0-0.6,0.1-0.8,0.3c-0.2,0.2-0.3,0.5-0.3,0.8v30.3c0,0.3,0.1,0.6,0.3,0.8c0.2,0.2,0.5,0.3,0.8,0.3h14.3
			c2.8,0,5.2-0.9,7.2-2.7c2-1.8,3-4,3-6.5c0-1.8-0.5-3.4-1.6-4.9c-1.1-1.5-2.5-2.6-4.2-3.4l-0.3-0.1l0.3-0.2
			c1.1-0.8,1.9-1.7,2.5-2.8c0.6-1.1,0.9-2.4,0.9-3.7c0-2.4-0.8-4.4-2.4-5.9c-1.6-1.5-3.7-2.3-6.2-2.3H410.6z M424.9,604.6h-13.1
			v-13.8h13.1c2.2,0,4.1,0.7,5.6,2c1.5,1.3,2.3,3,2.3,4.9c0,1.9-0.8,3.6-2.3,4.9C428.9,603.9,427,604.6,424.9,604.6z M412.1,604.3
			h12.8c2.1,0,3.9-0.6,5.4-1.9c1.5-1.3,2.2-2.8,2.2-4.6c0-1.8-0.7-3.3-2.2-4.6c-1.5-1.3-3.3-1.9-5.4-1.9h-12.8V604.3z M423.7,588.5
			h-12v-11.9h12.4c1.1,0,2.1,0.2,3,0.6c0.9,0.4,1.7,1.1,2.3,2c0.6,0.9,0.9,2.1,0.9,3.3c0,1.8-0.7,3.3-2,4.3
			C427.1,588,425.5,588.5,423.7,588.5z M412.1,588.2h11.6c1.7,0,3.2-0.5,4.5-1.5c1.2-1,1.9-2.4,1.9-4.1c0-1.2-0.3-2.3-0.9-3.1
			c-0.6-0.9-1.3-1.5-2.2-1.9c-0.9-0.4-1.8-0.6-2.9-0.6h-12V588.2z"/>
        </g>
        <g>
            <path fill-rule="evenodd" clip-rule="evenodd" fill="#008837" d="M466.3,590.1c0-3.1,0.8-5.9,2.3-8.5c1.5-2.6,3.6-4.7,6.2-6.2
			c2.6-1.5,5.4-2.3,8.5-2.3c3.1,0,5.9,0.8,8.5,2.3c2.6,1.5,4.7,3.6,6.2,6.2c1.5,2.6,2.3,5.4,2.3,8.5c0,2.3-0.4,4.5-1.3,6.6
			c-0.9,2.1-2.1,3.9-3.6,5.4c-1.5,1.5-3.3,2.7-5.4,3.6c-2.1,0.9-4.3,1.4-6.6,1.4s-4.5-0.4-6.6-1.4c-2.1-0.9-3.9-2.1-5.4-3.6
			c-1.5-1.5-2.7-3.3-3.6-5.4C466.8,594.6,466.3,592.4,466.3,590.1L466.3,590.1z M470.2,584.6c-0.8,1.8-1.1,3.6-1.1,5.5
			c0,1.9,0.4,3.8,1.1,5.5c0.7,1.8,1.8,3.3,3,4.5c1.3,1.3,2.8,2.3,4.5,3c1.8,0.8,3.6,1.1,5.5,1.1s3.8-0.4,5.5-1.1
			c1.8-0.7,3.3-1.8,4.5-3c1.3-1.3,2.3-2.8,3-4.5c0.8-1.8,1.1-3.6,1.1-5.5c0-1.9-0.4-3.8-1.1-5.5c-0.7-1.7-1.8-3.3-3-4.5
			c-1.3-1.3-2.8-2.3-4.5-3c-1.8-0.8-3.6-1.1-5.5-1.1s-3.8,0.4-5.5,1.1c-1.8,0.7-3.3,1.8-4.5,3C471.9,581.4,470.9,582.9,470.2,584.6z
			"/>
            <path fill="#008837" d="M483.3,607.3c-2.3,0-4.5-0.5-6.6-1.4c-2.1-0.9-3.9-2.1-5.5-3.7c-1.5-1.5-2.7-3.4-3.6-5.5
			c-0.9-2.1-1.4-4.3-1.4-6.6c0-3.1,0.8-6,2.3-8.6c1.5-2.6,3.6-4.7,6.2-6.2c2.6-1.5,5.5-2.3,8.6-2.3c3.1,0,6,0.8,8.6,2.3
			c2.6,1.5,4.7,3.6,6.2,6.2c1.5,2.6,2.3,5.5,2.3,8.6c0,2.3-0.5,4.5-1.4,6.6c-0.9,2.1-2.1,3.9-3.6,5.5c-1.5,1.5-3.3,2.7-5.5,3.7
			C487.8,606.8,485.6,607.3,483.3,607.3z M483.3,573.4c-3,0-5.8,0.8-8.4,2.2c-2.6,1.5-4.6,3.5-6.1,6.1c-1.5,2.6-2.2,5.4-2.2,8.4
			c0,2.3,0.4,4.4,1.3,6.5c0.9,2.1,2.1,3.9,3.6,5.4c1.5,1.5,3.3,2.7,5.3,3.6c2.1,0.9,4.2,1.3,6.5,1.3c2.3,0,4.4-0.5,6.5-1.3
			c2.1-0.9,3.9-2.1,5.3-3.6c1.5-1.5,2.7-3.3,3.6-5.4c0.9-2.1,1.3-4.2,1.3-6.5c0-3-0.8-5.8-2.2-8.4c-1.5-2.6-3.5-4.6-6.1-6.1
			C489.1,574.1,486.3,573.4,483.3,573.4z M483.3,604.5c-1.9,0-3.8-0.4-5.6-1.1c-1.8-0.7-3.3-1.8-4.6-3.1c-1.3-1.3-2.3-2.8-3.1-4.6
			c-0.8-1.8-1.1-3.7-1.1-5.6c0-1.9,0.4-3.8,1.1-5.6c0.8-1.8,1.8-3.3,3.1-4.6c1.3-1.3,2.8-2.3,4.6-3.1c1.8-0.8,3.7-1.1,5.6-1.1
			c1.9,0,3.8,0.4,5.6,1.1c1.8,0.7,3.3,1.8,4.6,3.1c1.3,1.3,2.3,2.8,3.1,4.6c0.8,1.8,1.1,3.6,1.1,5.6c0,1.9-0.4,3.8-1.1,5.6
			c-0.7,1.8-1.8,3.3-3.1,4.6c-1.3,1.3-2.8,2.3-4.6,3.1C487.1,604.1,485.2,604.5,483.3,604.5z M483.3,576.1c-1.9,0-3.7,0.4-5.4,1.1
			c-1.7,0.7-3.2,1.7-4.5,3c-1.3,1.3-2.3,2.8-3,4.5c-0.7,1.7-1.1,3.5-1.1,5.4c0,1.9,0.4,3.7,1.1,5.4c0.7,1.7,1.7,3.2,3,4.5
			c1.3,1.3,2.8,2.3,4.5,3c1.7,0.7,3.6,1.1,5.4,1.1c1.9,0,3.7-0.4,5.4-1.1c1.7-0.7,3.2-1.7,4.5-3c1.3-1.3,2.3-2.8,3-4.5
			c0.7-1.7,1.1-3.6,1.1-5.4c0-1.9-0.4-3.7-1.1-5.4c-0.7-1.7-1.7-3.2-3-4.5c-1.3-1.3-2.8-2.3-4.5-3
			C487,576.5,485.1,576.1,483.3,576.1z"/>
        </g>
        <g>
            <path fill-rule="evenodd" clip-rule="evenodd" fill="#008837" d="M514.1,589.4c-1.8-1.7-2.8-3.8-2.8-6.3c0-2.4,0.9-4.5,2.8-6.3
			c1.8-1.7,4.1-2.6,6.7-2.6h13.1c0.4,0,0.7,0.1,0.9,0.4c0.3,0.3,0.4,0.6,0.4,0.9c0,0.4-0.1,0.7-0.4,0.9c-0.3,0.3-0.6,0.4-0.9,0.4
			h-13.1c-1.9,0-3.5,0.6-4.8,1.8c-1.3,1.2-2,2.7-2,4.4c0,1.7,0.7,3.2,2,4.4c1.3,1.2,2.9,1.8,4.8,1.8h6.8h0.1c2.6,0,4.8,0.9,6.6,2.6
			c1.8,1.7,2.7,3.8,2.7,6.2c0,2.4-0.9,4.5-2.8,6.3c-1.8,1.7-4.1,2.6-6.7,2.6h-14.2c-0.4,0-0.7-0.1-0.9-0.4c-0.3-0.3-0.4-0.6-0.4-0.9
			c0-0.4,0.1-0.7,0.4-0.9c0.3-0.3,0.6-0.4,0.9-0.4h14.2c1.9,0,3.5-0.6,4.8-1.8c1.3-1.2,2-2.7,2-4.4c0-1.7-0.7-3.2-2-4.4
			c-1.3-1.2-2.9-1.8-4.8-1.8h-6.8C518.2,592,516,591.1,514.1,589.4z"/>
            <path fill="#078937" d="M527.6,607.3h-14.2c-0.4,0-0.8-0.1-1.1-0.4c-0.3-0.3-0.4-0.6-0.4-1.1c0-0.4,0.1-0.8,0.4-1.1
			c0.3-0.3,0.6-0.4,1.1-0.4h14.2c1.8,0,3.4-0.6,4.7-1.8c1.3-1.2,1.9-2.6,1.9-4.3c0-1.7-0.6-3.1-1.9-4.3c-1.3-1.2-2.9-1.8-4.7-1.8
			h-6.8c-2.6,0-4.9-0.9-6.8-2.7c-1.9-1.8-2.8-3.9-2.8-6.4c0-2.5,0.9-4.6,2.8-6.4c1.9-1.8,4.2-2.7,6.8-2.7h13.1
			c0.4,0,0.8,0.1,1.1,0.4c0.3,0.3,0.4,0.6,0.4,1.1s-0.2,0.8-0.4,1.1c-0.3,0.3-0.6,0.4-1.1,0.4h-13.1c-1.8,0-3.4,0.6-4.7,1.8
			c-1.3,1.2-1.9,2.6-1.9,4.3c0,1.7,0.6,3.1,1.9,4.3c1.3,1.2,2.9,1.8,4.7,1.8h6.9c2.6,0,4.9,0.9,6.7,2.7c1.9,1.8,2.8,3.9,2.8,6.4
			c0,2.5-0.9,4.6-2.8,6.4C532.5,606.4,530.2,607.3,527.6,607.3z M513.4,604.6c-0.3,0-0.6,0.1-0.8,0.3c-0.2,0.2-0.3,0.5-0.3,0.8
			c0,0.3,0.1,0.6,0.3,0.8c0.2,0.2,0.5,0.3,0.8,0.3h14.2c2.5,0,4.7-0.9,6.5-2.6c1.8-1.7,2.7-3.8,2.7-6.1c0-2.4-0.9-4.4-2.7-6.1
			c-1.8-1.7-4-2.6-6.5-2.6h-6.9c-1.9,0-3.6-0.6-4.9-1.9c-1.4-1.3-2-2.8-2-4.6c0-1.8,0.7-3.3,2-4.6c1.4-1.2,3-1.9,4.9-1.9h13.1
			c0.3,0,0.6-0.1,0.8-0.3c0.2-0.2,0.3-0.5,0.3-0.8c0-0.3-0.1-0.6-0.3-0.8c-0.2-0.2-0.5-0.3-0.8-0.3h-13.1c-2.5,0-4.7,0.9-6.5,2.6
			c-1.8,1.7-2.7,3.8-2.7,6.2c0,2.4,0.9,4.4,2.7,6.2c1.8,1.7,4,2.6,6.5,2.6h6.8c1.9,0,3.6,0.6,4.9,1.9c1.4,1.2,2,2.8,2,4.5
			c0,1.8-0.7,3.3-2,4.5c-1.4,1.2-3,1.9-4.9,1.9H513.4z"/>
        </g>
        <g>
            <g>
                <path fill-rule="evenodd" clip-rule="evenodd" fill="#008837" d="M449.6,605.8v-30.3c0-0.4,0.1-0.7,0.4-0.9
				c0.3-0.3,0.6-0.4,0.9-0.4c0.4,0,0.7,0.1,0.9,0.4c0.3,0.3,0.4,0.6,0.4,0.9v30.3c0,0.4-0.1,0.7-0.4,0.9c-0.3,0.3-0.6,0.4-0.9,0.4
				c-0.4,0-0.7-0.1-0.9-0.4C449.7,606.4,449.6,606.1,449.6,605.8z"/>
                <path fill="#008837" d="M450.9,607.3c-0.4,0-0.8-0.1-1.1-0.4c-0.3-0.3-0.4-0.6-0.4-1.1v-30.3c0-0.4,0.1-0.8,0.4-1.1
				c0.3-0.3,0.6-0.4,1.1-0.4c0.4,0,0.8,0.1,1.1,0.4c0.3,0.3,0.4,0.6,0.4,1.1v30.3c0,0.4-0.1,0.8-0.4,1.1
				C451.7,607.1,451.3,607.3,450.9,607.3z M450.9,574.4c-0.3,0-0.6,0.1-0.8,0.3c-0.2,0.2-0.3,0.5-0.3,0.8v30.3
				c0,0.3,0.1,0.6,0.3,0.8c0.2,0.2,0.5,0.3,0.8,0.3c0.3,0,0.6-0.1,0.8-0.3c0.2-0.2,0.3-0.5,0.3-0.8v-30.3c0-0.3-0.1-0.6-0.3-0.8
				C451.5,574.5,451.2,574.4,450.9,574.4z"/>
            </g>
            <linearGradient id="SVGID_3_" gradientUnits="userSpaceOnUse" x1="450.4577" y1="567.84" x2="463.4971" y2="563.2404">
                <stop offset="0" style="stop-color:#389c2e"/>
                <stop offset="7.029074e-02" style="stop-color:#43a12c"/>
                <stop offset="0.2458" style="stop-color:#58ac29"/>
                <stop offset="0.4403" style="stop-color:#67b426"/>
                <stop offset="0.6666" style="stop-color:#70b925"/>
                <stop offset="1" style="stop-color:#73ba24"/>
            </linearGradient>
            <path fill-rule="evenodd" clip-rule="evenodd" fill="url(#SVGID_3_)" d="M455.2,572.9c-1.5,0.4-2.9,0.4-4.4,0.3
			c1.3-3.4,3.2-4.9,5.5-6.6c1.3-1,2.7-2.1,4.2-3.7l0,0c0.7-0.9,1.2-2,1.6-3c0.3-0.9,0.6-1.9,0.7-2.9c0.4,1.9,0.4,3.8,0,5.7
			c-0.4,2.2-1.4,4.4-3.1,6.8C458.2,571.5,456.7,572.4,455.2,572.9L455.2,572.9z M462.5,556.9c-0.1,0.1-0.2,0.2-0.4,0.4
			c0,0-0.1,0.1-0.1,0.1c0,0-0.1,0-0.1,0.1c-0.1,0.1-0.1,0.1-0.2,0.2c-0.1,0.1-0.2,0.1-0.2,0.2c-0.2,0.2-0.5,0.3-0.8,0.5
			c-0.6,0.3-1.2,0.6-1.8,0.9c-0.3,0.2-0.7,0.3-1,0.4c-1.9,0.9-3.9,1.8-5.4,3.2l0,0l0,0c-1.3,1.2-2,2.7-2.3,4.3
			c-0.3,1.7-0.1,3.5,0.4,5.5l0.1,0.2c1.3-3.3,3.3-4.8,5.5-6.5c1.3-1,2.7-2.1,4.1-3.7c0.7-0.9,1.2-1.9,1.6-3
			C462.1,558.8,462.3,557.8,462.5,556.9z"/>
        </g>
    </g>
    <text transform="matrix(1 0 0 1 340.6187 537.3882)" fill="#006725" font-size="24.75">
        by
    </text>
    <g>
        <g>
            <path fill="#3587B9" d="M262.1,375.1c0-2.3,0.4-4.3,1.1-5.8c0.5-1.2,1.3-2.2,2.2-3.1c0.9-0.9,1.9-1.6,3-2.1c1.4-0.6,3.1-0.9,5-0.9
			c3.4,0,6.2,1,8.2,3.1c2.1,2.1,3.1,5,3.1,8.7c0,3.7-1,6.6-3.1,8.6c-2,2.1-4.8,3.1-8.2,3.1c-3.5,0-6.2-1-8.2-3.1
			C263.1,381.5,262.1,378.7,262.1,375.1z M266.9,374.9c0,2.6,0.6,4.5,1.8,5.9c1.2,1.3,2.8,2,4.6,2c1.9,0,3.4-0.7,4.6-2
			c1.2-1.3,1.8-3.3,1.8-5.9c0-2.6-0.6-4.6-1.8-5.8c-1.2-1.3-2.7-1.9-4.7-1.9c-1.9,0-3.5,0.7-4.7,2
			C267.5,370.3,266.9,372.3,266.9,374.9z"/>
            <path fill="#3587B9" d="M288.1,378.9l4.6-0.4c0.3,1.5,0.8,2.6,1.7,3.3c0.8,0.7,2,1.1,3.4,1.1c1.5,0,2.7-0.3,3.4-0.9
			c0.8-0.6,1.1-1.4,1.1-2.2c0-0.5-0.2-1-0.5-1.4c-0.3-0.4-0.9-0.7-1.7-1c-0.5-0.2-1.8-0.5-3.8-1c-2.5-0.6-4.3-1.4-5.3-2.3
			c-1.4-1.3-2.1-2.8-2.1-4.6c0-1.2,0.3-2.2,1-3.3c0.7-1,1.6-1.8,2.9-2.3c1.3-0.5,2.8-0.8,4.6-0.8c2.9,0,5.1,0.6,6.6,1.9
			c1.5,1.3,2.2,2.9,2.3,5l-4.7,0.2c-0.2-1.2-0.6-2-1.3-2.5c-0.7-0.5-1.7-0.8-3-0.8c-1.4,0-2.4,0.3-3.2,0.8c-0.5,0.4-0.7,0.8-0.7,1.4
			c0,0.5,0.2,1,0.7,1.4c0.6,0.5,2,1,4.3,1.5c2.3,0.5,4,1.1,5.1,1.6c1.1,0.6,2,1.3,2.6,2.3c0.6,1,0.9,2.2,0.9,3.6
			c0,1.3-0.4,2.5-1.1,3.7c-0.7,1.1-1.8,2-3.1,2.5c-1.4,0.6-3,0.8-5.1,0.8c-2.9,0-5.2-0.7-6.8-2C289.4,383.4,288.4,381.4,288.1,378.9
			z"/>
            <path fill="#3587B9" d="M311.9,386.3v-22.8h7l4.2,15.5l4.2-15.5h7v22.8H330v-17.9l-4.6,17.9h-4.5l-4.6-17.9v17.9H311.9z"/>
            <path fill="#3587B9" d="M339,375.1c0-2.3,0.4-4.3,1.1-5.8c0.5-1.2,1.3-2.2,2.2-3.1c0.9-0.9,1.9-1.6,3-2.1c1.4-0.6,3.1-0.9,5-0.9
			c3.4,0,6.2,1,8.2,3.1c2.1,2.1,3.1,5,3.1,8.7c0,3.7-1,6.6-3.1,8.6c-2,2.1-4.8,3.1-8.2,3.1c-3.5,0-6.2-1-8.2-3.1
			C340,381.5,339,378.7,339,375.1z M343.9,374.9c0,2.6,0.6,4.5,1.8,5.9c1.2,1.3,2.8,2,4.6,2c1.9,0,3.4-0.7,4.6-2
			c1.2-1.3,1.8-3.3,1.8-5.9c0-2.6-0.6-4.6-1.8-5.8c-1.2-1.3-2.7-1.9-4.7-1.9s-3.5,0.7-4.7,2C344.5,370.3,343.9,372.3,343.9,374.9z"/>
            <path fill="#3587B9" d="M376.2,386.3v-22.8h9.9c2.5,0,4.3,0.2,5.4,0.6c1.1,0.4,2,1.1,2.7,2.2c0.7,1,1,2.2,1,3.6
			c0,1.7-0.5,3.1-1.5,4.2c-1,1.1-2.6,1.8-4.6,2.1c1,0.6,1.9,1.2,2.5,1.9c0.7,0.7,1.6,1.9,2.7,3.7l2.8,4.4h-5.6l-3.4-5
			c-1.2-1.8-2-2.9-2.5-3.3c-0.4-0.5-0.9-0.8-1.4-0.9c-0.5-0.2-1.3-0.3-2.4-0.3h-1v9.5H376.2z M380.9,373.2h3.5
			c2.3,0,3.7-0.1,4.2-0.3c0.6-0.2,1-0.5,1.3-1c0.3-0.5,0.5-1,0.5-1.7c0-0.8-0.2-1.4-0.6-1.9c-0.4-0.5-1-0.8-1.8-0.9
			c-0.4-0.1-1.5-0.1-3.4-0.1h-3.7V373.2z"/>
            <path fill="#3587B9" d="M400.7,386.3v-22.8h17.2v3.9h-12.5v5.1H417v3.8h-11.7v6.2h13v3.8H400.7z"/>
            <path fill="#3587B9" d="M434.1,377.9v-3.8h10.1v9.1c-1,0.9-2.4,1.8-4.3,2.5c-1.9,0.7-3.8,1.1-5.7,1.1c-2.4,0-4.6-0.5-6.4-1.5
			c-1.8-1-3.2-2.4-4.1-4.3c-0.9-1.9-1.4-3.9-1.4-6.1c0-2.4,0.5-4.5,1.5-6.3c1-1.8,2.5-3.3,4.5-4.2c1.5-0.8,3.3-1.1,5.6-1.1
			c2.9,0,5.1,0.6,6.8,1.8c1.6,1.2,2.7,2.8,3.1,4.9l-4.7,0.9c-0.3-1.1-0.9-2-1.8-2.7c-0.9-0.6-2-1-3.4-1c-2.1,0-3.7,0.6-4.9,1.9
			c-1.2,1.3-1.8,3.2-1.8,5.7c0,2.7,0.6,4.7,1.8,6.1c1.2,1.4,2.8,2,4.8,2c1,0,2-0.2,3-0.6c1-0.4,1.8-0.8,2.5-1.4v-2.9H434.1z"/>
            <path fill="#3587B9" d="M449.5,363.5h4.7v12.3c0,2,0.1,3.2,0.2,3.8c0.2,0.9,0.7,1.7,1.4,2.2c0.8,0.6,1.8,0.8,3.1,0.8
			c1.3,0,2.3-0.3,3-0.8s1.1-1.2,1.2-2c0.1-0.8,0.2-2.1,0.2-3.9v-12.6h4.7v12c0,2.7-0.1,4.7-0.4,5.8c-0.3,1.1-0.7,2.1-1.4,2.9
			c-0.7,0.8-1.6,1.4-2.7,1.9c-1.1,0.5-2.6,0.7-4.5,0.7c-2.2,0-3.9-0.3-5.1-0.8c-1.1-0.5-2.1-1.2-2.7-2c-0.7-0.8-1.1-1.6-1.3-2.5
			c-0.3-1.3-0.5-3.2-0.5-5.8V363.5z"/>
            <path fill="#3587B9" d="M474.1,386.3v-22.6h4.7v18.8h11.7v3.8H474.1z"/>
            <path fill="#3587B9" d="M515.8,386.3h-5.1l-2-5.2h-9.3l-1.9,5.2h-5l9.1-22.8h5L515.8,386.3z M507.1,377.3l-3.2-8.5l-3.1,8.5H507.1
			z"/>
            <path fill="#3587B9" d="M519.2,363.5h8.6c1.9,0,3.4,0.1,4.4,0.4c1.4,0.4,2.5,1.1,3.5,2.1s1.7,2.2,2.2,3.7c0.5,1.5,0.8,3.3,0.8,5.4
			c0,1.9-0.2,3.5-0.7,4.8c-0.6,1.7-1.4,3-2.5,4c-0.8,0.8-1.9,1.4-3.3,1.8c-1,0.3-2.4,0.5-4.2,0.5h-8.8V363.5z M523.9,367.4v15.1h3.5
			c1.3,0,2.3-0.1,2.8-0.2c0.8-0.2,1.4-0.5,1.9-0.9c0.5-0.4,0.9-1.2,1.2-2.2c0.3-1,0.5-2.4,0.5-4.2s-0.2-3.1-0.5-4.1
			s-0.8-1.7-1.3-2.2c-0.6-0.5-1.3-0.9-2.2-1.1c-0.7-0.1-1.9-0.2-3.9-0.2H523.9z"/>
            <path fill="#3587B9" d="M542.7,375.1c0-2.3,0.4-4.3,1.1-5.8c0.5-1.2,1.3-2.2,2.2-3.1c0.9-0.9,1.9-1.6,3-2.1c1.4-0.6,3.1-0.9,5-0.9
			c3.4,0,6.2,1,8.2,3.1c2.1,2.1,3.1,5,3.1,8.7c0,3.7-1,6.6-3.1,8.6s-4.8,3.1-8.2,3.1c-3.5,0-6.2-1-8.2-3.1
			C543.7,381.5,542.7,378.7,542.7,375.1z M547.5,374.9c0,2.6,0.6,4.5,1.8,5.9c1.2,1.3,2.8,2,4.6,2c1.9,0,3.4-0.7,4.6-2
			c1.2-1.3,1.8-3.3,1.8-5.9c0-2.6-0.6-4.6-1.8-5.8c-1.2-1.3-2.7-1.9-4.7-1.9c-1.9,0-3.5,0.7-4.7,2
			C548.1,370.3,547.5,372.3,547.5,374.9z"/>
            <path fill="#3587B9" d="M569.9,386.3v-22.8h9.9c2.5,0,4.3,0.2,5.4,0.6c1.1,0.4,2,1.1,2.7,2.2c0.7,1,1,2.2,1,3.6
			c0,1.7-0.5,3.1-1.5,4.2c-1,1.1-2.6,1.8-4.6,2.1c1,0.6,1.9,1.2,2.5,1.9c0.7,0.7,1.6,1.9,2.7,3.7l2.8,4.4h-5.6l-3.4-5
			c-1.2-1.8-2-2.9-2.5-3.3c-0.4-0.5-0.9-0.8-1.4-0.9c-0.5-0.2-1.3-0.3-2.4-0.3h-1v9.5H569.9z M574.6,373.2h3.5
			c2.3,0,3.7-0.1,4.2-0.3c0.6-0.2,1-0.5,1.3-1c0.3-0.5,0.5-1,0.5-1.7c0-0.8-0.2-1.4-0.6-1.9c-0.4-0.5-1-0.8-1.8-0.9
			c-0.4-0.1-1.5-0.1-3.4-0.1h-3.7V373.2z"/>
            <path fill="#3587B9" d="M334.5,409.1c0-2.3,0.4-4.3,1.1-5.8c0.5-1.2,1.3-2.2,2.2-3.1c0.9-0.9,1.9-1.6,3-2.1c1.4-0.6,3.1-0.9,5-0.9
			c3.4,0,6.2,1,8.2,3.1s3.1,5,3.1,8.7c0,3.7-1,6.6-3.1,8.6c-2,2.1-4.8,3.1-8.2,3.1c-3.5,0-6.2-1-8.2-3.1
			C335.5,415.5,334.5,412.7,334.5,409.1z M339.4,408.9c0,2.6,0.6,4.5,1.8,5.9c1.2,1.3,2.8,2,4.6,2c1.9,0,3.4-0.7,4.6-2
			c1.2-1.3,1.8-3.3,1.8-5.9c0-2.6-0.6-4.6-1.8-5.8c-1.2-1.3-2.7-1.9-4.7-1.9c-1.9,0-3.5,0.7-4.7,2
			C339.9,404.3,339.4,406.3,339.4,408.9z"/>
            <path fill="#3587B9" d="M361.7,420.3v-22.8h9.9c2.5,0,4.3,0.2,5.4,0.6c1.1,0.4,2,1.1,2.7,2.2c0.7,1,1,2.2,1,3.6
			c0,1.7-0.5,3.1-1.5,4.2c-1,1.1-2.6,1.8-4.6,2.1c1,0.6,1.9,1.2,2.5,1.9c0.7,0.7,1.6,1.9,2.7,3.7l2.8,4.4H377l-3.4-5
			c-1.2-1.8-2-2.9-2.5-3.4c-0.4-0.5-0.9-0.8-1.4-0.9c-0.5-0.2-1.3-0.3-2.4-0.3h-1v9.5H361.7z M366.4,407.2h3.5
			c2.3,0,3.7-0.1,4.2-0.3c0.6-0.2,1-0.5,1.3-1c0.3-0.5,0.5-1,0.5-1.7c0-0.8-0.2-1.4-0.6-1.9c-0.4-0.5-1-0.8-1.8-0.9
			c-0.4-0.1-1.5-0.1-3.4-0.1h-3.7V407.2z"/>
            <path fill="#3587B9" d="M397,411.9v-3.8h10.1v9.1c-1,0.9-2.4,1.8-4.3,2.5c-1.9,0.7-3.8,1.1-5.7,1.1c-2.4,0-4.6-0.5-6.4-1.5
			c-1.8-1-3.2-2.4-4.1-4.3c-0.9-1.9-1.4-3.9-1.4-6.1c0-2.4,0.5-4.5,1.5-6.3c1-1.8,2.5-3.3,4.5-4.2c1.5-0.8,3.3-1.1,5.6-1.1
			c2.9,0,5.1,0.6,6.8,1.8c1.6,1.2,2.7,2.8,3.1,4.9l-4.7,0.9c-0.3-1.1-0.9-2-1.8-2.7c-0.9-0.6-2-1-3.4-1c-2.1,0-3.7,0.6-4.9,1.9
			c-1.2,1.3-1.8,3.2-1.8,5.7c0,2.7,0.6,4.7,1.8,6.1s2.8,2,4.8,2c1,0,2-0.2,3-0.6c1-0.4,1.8-0.8,2.5-1.4v-2.9H397z"/>
            <path fill="#3587B9" d="M433.4,420.3h-5.1l-2-5.2h-9.3l-1.9,5.2h-5l9.1-22.8h5L433.4,420.3z M424.7,411.3l-3.2-8.5l-3.1,8.5H424.7
			z M418.8,396.2l2.2-4.6h5l-4.4,4.6H418.8z"/>
            <path fill="#3587B9" d="M436.9,420.3v-22.8h4.6l9.5,15.2v-15.2h4.4v22.8h-4.7l-9.4-14.9v14.9H436.9z"/>
            <path fill="#3587B9" d="M461.1,420.3v-22.8h4.7v22.8H461.1z"/>
            <path fill="#3587B9" d="M486.1,411.9l4.6,1.4c-0.7,2.5-1.9,4.3-3.5,5.5c-1.6,1.2-3.7,1.8-6.2,1.8c-3.1,0-5.6-1-7.6-3.1
			c-2-2.1-3-4.9-3-8.5c0-3.8,1-6.7,3-8.8c2-2.1,4.6-3.1,7.9-3.1c2.8,0,5.2,0.8,6.9,2.5c1.1,1,1.8,2.4,2.4,4.2l-4.6,1.1
			c-0.3-1.2-0.8-2.1-1.7-2.8c-0.9-0.7-1.9-1-3.2-1c-1.7,0-3.1,0.6-4.2,1.8s-1.6,3.2-1.6,5.9c0,2.9,0.5,4.9,1.6,6.2
			c1.1,1.2,2.4,1.8,4.1,1.8c1.2,0,2.3-0.4,3.2-1.2C485.1,414.8,485.7,413.6,486.1,411.9z"/>
            <path fill="#3587B9" d="M494.7,409.1c0-2.3,0.4-4.3,1.1-5.8c0.5-1.2,1.3-2.2,2.2-3.1c0.9-0.9,1.9-1.6,3-2.1c1.4-0.6,3.1-0.9,5-0.9
			c3.4,0,6.2,1,8.2,3.1s3.1,5,3.1,8.7c0,3.7-1,6.6-3.1,8.6c-2,2.1-4.8,3.1-8.2,3.1c-3.5,0-6.2-1-8.2-3.1
			C495.8,415.5,494.7,412.7,494.7,409.1z M499.6,408.9c0,2.6,0.6,4.5,1.8,5.9c1.2,1.3,2.8,2,4.6,2c1.9,0,3.4-0.7,4.6-2
			c1.2-1.3,1.8-3.3,1.8-5.9c0-2.6-0.6-4.6-1.8-5.8c-1.2-1.3-2.7-1.9-4.7-1.9c-1.9,0-3.5,0.7-4.7,2
			C500.2,404.3,499.6,406.3,499.6,408.9z"/>
        </g>
    </g>
    <g>
        <g>
            <path fill="#1D648E" d="M551.9,278.5c2-5.7,4.8-10.6,8.6-14.8c3.7-4.2,8.3-7.5,13.7-9.9c5.4-2.4,11.5-3.6,18.3-3.6
			c6.9,0,13,1.2,18.4,3.6c5.4,2.4,9.9,5.7,13.7,9.9c3.7,4.2,6.6,9.2,8.6,14.8c2,5.7,3,11.8,3,18.4c0,6.5-1,12.5-3,18.1
			c-2,5.6-4.8,10.5-8.6,14.6c-3.7,4.1-8.3,7.4-13.7,9.7c-5.4,2.4-11.5,3.5-18.4,3.5c-6.8,0-12.9-1.2-18.3-3.5
			c-5.4-2.4-10-5.6-13.7-9.7c-3.7-4.1-6.6-9-8.6-14.6c-2-5.6-3-11.6-3-18.1C548.9,290.3,549.9,284.2,551.9,278.5z M569.7,307.8
			c0.9,3.5,2.3,6.7,4.2,9.5c1.9,2.8,4.4,5.1,7.5,6.8c3.1,1.7,6.8,2.5,11.2,2.5c4.4,0,8.1-0.8,11.2-2.5c3.1-1.7,5.5-4,7.5-6.8
			c1.9-2.8,3.3-6,4.2-9.5c0.9-3.5,1.3-7.1,1.3-10.9c0-3.9-0.4-7.7-1.3-11.3c-0.9-3.6-2.3-6.9-4.2-9.7c-1.9-2.9-4.4-5.1-7.5-6.8
			c-3.1-1.7-6.8-2.5-11.2-2.5c-4.4,0-8.1,0.8-11.2,2.5c-3.1,1.7-5.5,4-7.5,6.8c-1.9,2.9-3.3,6.1-4.2,9.7c-0.9,3.6-1.3,7.4-1.3,11.3
			C568.4,300.7,568.8,304.3,569.7,307.8z"/>
            <path fill="#1D648E" d="M692.2,252.2c4,0,7.6,0.6,10.7,1.9c3.2,1.3,5.9,3,8.2,5.3c2.3,2.2,4,4.8,5.2,7.8c1.2,2.9,1.8,6.1,1.8,9.5
			c0,5.2-1.1,9.7-3.3,13.5c-2.2,3.8-5.8,6.7-10.7,8.7v0.2c2.4,0.7,4.4,1.7,6,3c1.6,1.4,2.9,3,3.9,4.8c1,1.9,1.7,3.9,2.2,6.1
			c0.5,2.2,0.8,4.5,0.9,6.7c0.1,1.4,0.2,3.1,0.2,5c0.1,1.9,0.2,3.8,0.4,5.8c0.2,2,0.5,3.9,1,5.7c0.5,1.8,1.1,3.3,2,4.5h-19.5
			c-1.1-2.8-1.7-6.2-2-10.1c-0.2-3.9-0.6-7.6-1.1-11.2c-0.7-4.6-2.1-8-4.2-10.2c-2.2-2.2-5.7-3.2-10.6-3.2h-19.5v34.6h-19.5v-88.7
			H692.2z M685.3,292.3c4.5,0,7.8-1,10.1-3c2.2-2,3.4-5.2,3.4-9.7c0-4.3-1.1-7.4-3.4-9.4c-2.2-1.9-5.6-2.9-10.1-2.9h-21.4v25H685.3z
			"/>
        </g>
        <path fill="#1D648E" d="M181.2,315.2c0-15.4-44.9-13.3-44.9-44c0-16.1,14.2-28.8,34.3-28.8c16.3,0,26.4,7.5,29.6,11.7L187,269.8
		c-2.4-2.9-7.9-9-18.2-9c-6.9,0-10.8,3.9-10.8,8.8c0,15.7,44.7,13.3,44.7,44.3c0,14.6-12.1,28.8-36.8,28.8
		c-18.8,0-30.4-8.3-33.8-12.1l12.1-17.5c4.2,4.2,12.6,11.7,24.4,11.7C177.2,324.7,181.2,320.4,181.2,315.2z"/>
        <path fill="#1D648E" d="M418.7,267.6c15,0,23.6,7.5,23.6,23.9v49.7h-20.5V295c0-8.4-4.6-11.2-9.9-11.2c-5.1,0-10.4,3.2-12.7,8.3
		v49.2h-20.5v-44.8c0-8.4-3.8-12.6-10.8-12.6c-5,0-9.9,3.8-11.8,8.5v48.9h-20.5v-72h16.8l3.4,6.8h0.5c4.7-5.7,12.6-8.4,20.2-8.4
		c11.7,0,16.4,4.6,19.1,9.7h0.5C400.1,272.3,407.9,267.6,418.7,267.6z"/>
        <path fill="#1D648E" d="M510,291.8v28.8c0,4.1,1.6,5.9,5.3,5.9h2.2v13.2c-3.3,1.9-6.8,2.4-10.2,2.4c-7.3,0-11.5-3.3-13.8-7.8H493
		c-2.8,3.6-8.5,8-19.5,8c-14.9,0-22.6-9.6-22.6-19.9c0-16.6,15.9-24.2,40-23.1v-5.6c0-8-4.7-10.4-11-10.4c-7.3,0-11.2,3.9-13.1,8.2
		l-14.5-10.1c3-3.9,10.6-13.5,27.5-13.5C499.2,268,510,274.3,510,291.8z M490.8,312.4c-13.4-0.9-20.1,2-20.1,8.3c0,4.1,3,7,8.3,7
		c5,0,9.5-2.2,11.8-5.1V312.4z"/>
        <path fill="#1D648E" d="M211,318.4v-34.2h-9.6v-12l9.6-3.8v-16.9h20l0,18.1l17.7-0.1v14.6H231v34.7c0,5,2.9,7.5,7.9,7.5
		c3.2,0,7.4-1,10.3-3.2l5.2,14.4c-2.5,1.8-8.4,4.5-21,4.5C220.4,342.1,211,335.8,211,318.4z"/>
        <rect x="517.7" y="296.2" fill="#1D648E" width="26.6" height="11.4"/>
        <g>
            <path fill="#188B42" d="M279.2,341.7c-2.7,0-5.3-0.9-7.9-2.7c-2.6-1.3-5.9-5.1-7.4-7.8c-3.8-6.8-6.1-14.3-7.4-24.4
			c-1.5-13.4,2-27.5,9.5-38.7c2.7-4.6,8.2-7.6,14-7.6c5.5,0,9.9,2.7,11.9,7.3c2.2,5.1-1,11.2-3.8,16.5c-0.9,1.8-1.8,3.5-2.5,5
			c-3,7.4-3,15.9,0,23.3c0.6,1.5,1.5,3.1,2.5,4.8c2.8,4.7,6.2,10.6,2.6,16.8C288.9,337.8,284.8,341.7,279.2,341.7z M280,263.4
			c-4.9,0-9.8,2.6-12,6.4c-7.1,10.5-10.5,24.2-9.1,36.7c1.3,9.6,3.4,16.8,7,23.3c1.4,2.6,4.5,5.9,6.4,6.8l0.1,0.1
			c2.2,1.5,4.5,2.3,6.7,2.3c4.6,0,8-3.4,9.5-6.2c2.7-4.6,0.1-9-2.6-13.7c-1-1.8-2-3.4-2.7-5.1c-3.3-8.1-3.3-17.5,0-25.6
			c0.7-1.7,1.6-3.4,2.6-5.2c2.5-4.7,5.3-10,3.7-13.8C288.1,265.5,284.6,263.4,280,263.4z"/>
        </g>
        <path fill="#219138" d="M283.8,271.9c-0.3,1.3-2.4,1.7-4.8,1.1c-2.4-0.7-4.1-2.2-3.8-3.5c0.3-1.3,2.4-1.7,4.8-1.1
		C282.4,269,284.1,270.6,283.8,271.9z"/>
        <path fill="#219138" d="M282.1,279.1c1.1,0.4,1.3,2.9,0.5,5.5c-0.8,2.6-2.3,4.4-3.4,4c-1.1-0.4-1.3-2.9-0.5-5.5
		C279.5,280.4,281.1,278.7,282.1,279.1z"/>
        <path fill="#219138" d="M278.1,313.2c-1.1,0.3-2.5-1.7-3-4.4s-0.1-5.1,1-5.4c1.1-0.3,2.5,1.7,3,4.4
		C279.7,310.5,279.3,312.9,278.1,313.2z"/>
        <path fill="#219138" d="M284.1,329.9c-1.1,0.3-2.5-1.7-3-4.4c-0.6-2.7-0.1-5.1,1-5.4c1.1-0.3,2.5,1.7,3,4.4
		S285.2,329.6,284.1,329.9z"/>
        <ellipse transform="matrix(1.093344e-03 1 -1 1.093344e-03 564.2777 36.3981)" fill="#219138" cx="263.9" cy="300.6" rx="5" ry="2.1"/>
        <path fill="#219138" d="M269.1,276.2c1.1,0.4,1.3,2.9,0.5,5.5c-0.8,2.6-2.3,4.4-3.4,4c-1.1-0.4-1.3-2.9-0.5-5.5
		C266.5,277.6,268,275.8,269.1,276.2z"/>
        <g>
            <g>
                <ellipse fill="#EF531E" cx="271.5" cy="293.9" rx="4.2" ry="5.4"/>
                <path fill="#87430E" d="M271.5,299.8c-2.6,0-4.7-2.7-4.7-6c0-3.3,2.1-6,4.7-6c2.6,0,4.7,2.7,4.7,6
				C276.2,297.2,274.1,299.8,271.5,299.8z M271.5,288.9c-2,0-3.6,2.2-3.6,4.9c0,2.7,1.6,4.9,3.6,4.9c2,0,3.6-2.2,3.6-4.9
				C275.1,291.2,273.5,288.9,271.5,288.9z"/>
            </g>
            <ellipse fill="#87430E" cx="271.5" cy="293.9" rx="1.3" ry="1.7"/>
        </g>
        <g>
            <g>
                <ellipse transform="matrix(0.9342 0.3567 -0.3567 0.9342 132.2843 -91.4357)" fill="#EF531E" cx="314" cy="312.9" rx="4.2" ry="5.4"/>
                <path fill="#87430E" d="M313.3,318.7c-0.5,0-0.9-0.1-1.4-0.2c-1.2-0.5-2.1-1.5-2.5-2.9c-0.4-1.4-0.3-2.9,0.2-4.4
				c0.9-2.5,3-4.1,5.1-4.1c0.5,0,0.9,0.1,1.4,0.2c1.2,0.5,2.1,1.5,2.5,2.9c0.4,1.4,0.3,2.9-0.2,4.4
				C317.5,317.1,315.4,318.7,313.3,318.7z M314.8,308.1c-1.7,0-3.4,1.4-4.2,3.5c-0.5,1.3-0.6,2.6-0.2,3.7c0.3,1.1,1,1.9,1.9,2.2
				c1.8,0.7,4.2-0.8,5.2-3.3c0.5-1.3,0.6-2.6,0.2-3.7c-0.3-1.1-1-1.9-1.9-2.2C315.5,308.2,315.2,308.1,314.8,308.1z"/>
            </g>
            <ellipse transform="matrix(0.9342 0.3567 -0.3567 0.9342 132.2843 -91.4357)" fill="#87430E" cx="314" cy="312.9" rx="1.3" ry="1.7"/>
        </g>
        <path fill="#188B42" d="M285.3,284.4c0,0-6.5,24.4,0.6,33.5c6.1,7.7-0.7,0.3-0.7,0.3S271.6,301.7,285.3,284.4z"/>
        <ellipse transform="matrix(-1.093312e-03 1 -1 -1.093312e-03 622.6784 -19.2393)" fill="#219138" cx="320.9" cy="301.4" rx="5" ry="2.1"/>
        <g>
            <path fill="#188B42" d="M306,260.6c2.7,0,5.3,0.9,7.9,2.7c2.6,1.3,5.9,5.1,7.4,7.8c3.8,6.8,6.1,14.3,7.4,24.4
			c1.5,13.4-2,27.5-9.5,38.7c-2.7,4.6-8.2,7.6-14,7.6c-5.5,0-9.9-2.7-11.9-7.3c-2.2-5.1,1-11.2,3.8-16.5c0.9-1.8,1.8-3.5,2.5-5
			c3-7.4,3-15.9,0-23.3c-0.6-1.5-1.5-3.1-2.5-4.8c-2.8-4.7-6.2-10.6-2.6-16.8C296.3,264.5,300.3,260.6,306,260.6z M305.2,338.9
			c4.9,0,9.8-2.6,12-6.4c7.1-10.5,10.5-24.2,9.1-36.7c-1.3-9.6-3.4-16.8-7-23.3c-1.4-2.6-4.5-5.9-6.4-6.8l-0.1-0.1
			c-2.2-1.5-4.5-2.3-6.7-2.3c-4.6,0-8,3.4-9.5,6.2c-2.7,4.6-0.1,9,2.6,13.7c1,1.8,2,3.4,2.7,5.1c3.3,8.1,3.3,17.5,0,25.6
			c-0.7,1.7-1.6,3.4-2.6,5.2c-2.5,4.7-5.3,10-3.7,13.8C297.1,336.8,300.6,338.9,305.2,338.9z"/>
        </g>
        <path fill="#219138" d="M302.6,327.6c0.9-1,3-0.3,4.7,1.4s2.5,3.9,1.6,4.9c-0.9,1-3,0.3-4.7-1.4
		C302.5,330.7,301.8,328.5,302.6,327.6z"/>
        <path fill="#219138" d="M304.1,324.2c-1.1-0.4-1.3-2.9-0.5-5.5s2.3-4.4,3.4-4c1.1,0.4,1.3,2.9,0.5,5.5
		C306.7,322.9,305.2,324.7,304.1,324.2z"/>
        <path fill="#219138" d="M302.1,278.5c1-0.6,2.8,1,4,3.5c1.2,2.5,1.3,5,0.3,5.5c-1,0.6-2.8-1-4-3.5
		C301.3,281.5,301.1,279.1,302.1,278.5z"/>
        <path fill="#219138" d="M309,293.8c1.1-0.3,2.5,1.7,3,4.4s0.1,5.1-1,5.4s-2.5-1.7-3-4.4S307.9,294.1,309,293.8z"/>
        <path fill="#219138" d="M313,328.9c-1-0.6-0.9-3,0.2-5.5c1.1-2.5,2.9-4.1,3.9-3.5c1,0.6,0.9,3-0.2,5.5
		C315.8,327.9,314,329.5,313,328.9z"/>
        <path fill="#188B42" d="M299.9,317.9c0,0,6.5-24.4-0.6-33.5c-6.1-7.7,0.7-0.3,0.7-0.3S313.6,300.6,299.9,317.9z"/>
        <g>
            <path fill="#1DA0C0" d="M308.4,279.7c0,0,0.6,0.6,1.3,2.5c0.9,2.4,2,5.4,2.6,6.8s1.8,2.8,2.2,3.1c0.4,0.3,4.1,1.9,5.7-0.6
			c1.6-2.5,1.2-3.2-0.1-8.3s-3.7-9.2-7-12.3c-3.4-3.3-9-4.6-10.2-3C301.7,269.5,301.1,272.9,308.4,279.7z"/>
            <path fill="#1D487C" d="M317.5,293.4L317.5,293.4c-1.5,0-2.9-0.6-3.2-0.9c-0.5-0.3-1.8-1.9-2.4-3.3c-0.6-1.4-1.7-4.5-2.6-6.8
			c-0.7-1.8-1.2-2.4-1.2-2.4c-5.8-5.4-7.6-9.6-5.5-12.5c0.4-0.6,1.3-0.9,2.4-0.9c2.3,0,5.9,1.3,8.5,3.8c3.5,3.4,5.9,7.6,7.2,12.6
			l0.4,1.5c1,3.7,1.2,4.7-0.4,7.1C320,292.8,318.9,293.4,317.5,293.4z M304.9,267.7c-0.8,0-1.4,0.2-1.6,0.5
			c-2.2,2.9,1.7,7.7,5.4,11.1c0.1,0.1,0.7,0.8,1.4,2.7c0.9,2.3,2,5.4,2.6,6.7c0.5,1.3,1.8,2.6,2,2.8c0.1,0.1,1.4,0.7,2.7,0.7l0,0
			c1,0,1.8-0.4,2.3-1.2c1.3-2.1,1.2-2.6,0.2-6.3l-0.4-1.6c-1.2-4.8-3.5-8.8-6.9-12.1C310.3,268.9,307,267.7,304.9,267.7z"/>
        </g>
        <g>
            <path fill="#1DA0C0" d="M270,329.2c0,0,2.3,2.4,4.4,3.5c1.3,0.7,6.3,4.9,5.4-0.7s-5-13.8-5.4-14.8s-2.1-4-2.5-4.9
			s-2.8-5.2-5.9-0.8S267.1,325.6,270,329.2z"/>
            <path fill="#1D487C" d="M278.7,335.4C278.7,335.4,278.7,335.4,278.7,335.4c-1.2,0-2.7-1-3.7-1.7c-0.3-0.2-0.6-0.4-0.8-0.5
			c-2.1-1.1-4.4-3.5-4.5-3.6c-3.2-4-7.4-13.9-4.1-18.5c1-1.4,2.1-2.2,3.2-2.2c2,0,3.2,2.4,3.6,3.1c0.2,0.3,0.5,0.9,0.8,1.5
			c0.7,1.3,1.5,2.8,1.7,3.5c0.1,0.2,0.3,0.8,0.7,1.6c1.3,2.9,4,8.9,4.7,13.3c0.2,1.4,0.1,2.4-0.4,2.9
			C279.7,335.1,279.3,335.4,278.7,335.4z M270.4,328.9c0,0,2.2,2.4,4.2,3.4c0.2,0.1,0.5,0.3,0.9,0.6c0.9,0.6,2.3,1.5,3.2,1.5h0
			c0.2,0,0.3-0.1,0.4-0.1c0.1-0.2,0.4-0.7,0.1-2.1c-0.7-4.3-3.4-10.2-4.7-13.1c-0.4-0.9-0.6-1.4-0.7-1.7c-0.2-0.7-1.1-2.2-1.7-3.3
			c-0.3-0.6-0.7-1.2-0.8-1.5c-0.2-0.4-1.3-2.5-2.7-2.5c-0.7,0-1.5,0.6-2.4,1.7C263.4,315.9,267.5,325.2,270.4,328.9L270.4,328.9z"/>
        </g>
    </g>
</svg>
