<?xml version="1.0" encoding="utf-8"?>
<!-- Generator: Adobe Illustrator 18.0.0, SVG Export Plug-In . SVG Version: 6.00 Build 0)  -->
<!DOCTYPE svg PUBLIC "-//W3C//DTD SVG 1.1//EN" "http://www.w3.org/Graphics/SVG/1.1/DTD/svg11.dtd">
<svg version="1.1" id="Layer_3" xmlns="http://www.w3.org/2000/svg" xmlns:xlink="http://www.w3.org/1999/xlink" x="0px" y="0px"
	 viewBox="0 0 450 450" enable-background="new 0 0 450 450" xml:space="preserve">
<circle fill="none" stroke="#000000" stroke-miterlimit="10" cx="225.2" cy="225.2" r="220.8"/>
<g>
	<g>
		<path fill="#23A6A0" d="M256.5,79.2c0,0,1.3,0.4,3.4,1c2,0.6,4.7,1.5,7.3,2.4c2.6,0.9,5.3,2,7.2,2.8c1.9,0.8,3.2,1.4,3.2,1.4
			l-0.2,0.5c0,0-1.3-0.4-3.3-1.1c-2-0.6-4.7-1.4-7.4-2c-2.7-0.7-5.4-1.2-7.4-1.6c-2-0.4-3.4-0.6-3.4-0.6L256.5,79.2z"/>
		<g>
			<path fill="#23A6A0" d="M282.1,88.9c-2.5-0.1-5.7,0.2-7.9,1l2.8-3.1l0.1-4.1C278.2,84.8,280.3,87.2,282.1,88.9z"/>
		</g>
	</g>
	<g>
		<path fill="#23A6A0" d="M94.6,279.8c0,0-0.9-1.7-2.1-4.3c-1.2-2.6-2.7-6.1-4-9.7c-1.3-3.6-2.5-7.2-3.3-10
			c-0.8-2.8-1.3-4.6-1.3-4.6l2.7-0.6c0,0,0.3,1.9,0.9,4.6c0.6,2.8,1.4,6.5,2.5,10.1c1,3.6,2.3,7.2,3.2,9.9c1,2.7,1.7,4.4,1.7,4.4
			L94.6,279.8z"/>
		<g>
			<polygon fill="#23A6A0" points="96.6,276.4 94.4,278.8 91.1,278.9 96.8,284.2 			"/>
		</g>
	</g>
	<g>
		<path fill="#23A6A0" d="M83.9,190.4c0,0,0.5-1.9,1.3-4.9c0.8-2.9,2.1-6.7,3.5-10.5c1.4-3.8,3-7.5,4.3-10.2
			c1.3-2.7,2.2-4.5,2.2-4.5l0.4,0.2c0,0-0.8,1.8-1.9,4.6c-1.1,2.8-2.4,6.6-3.5,10.4c-1.1,3.8-2.1,7.7-2.7,10.6c-0.6,2.9-1,4.9-1,4.9
			L83.9,190.4z"/>
		<g>
			<polygon fill="#23A6A0" points="97.9,155.2 97.4,164 95.3,160.8 91.4,161.2 			"/>
		</g>
	</g>
	<g>
		<path fill="#23A6A0" d="M173.5,86.8c0,0,1.3-0.6,3.2-1.4c1.9-0.8,4.5-1.8,7.2-2.8c2.6-0.9,5.3-1.8,7.3-2.4c2-0.6,3.4-1,3.4-1
			l0.6,2.7c0,0-1.4,0.2-3.4,0.6c-2,0.4-4.8,1-7.4,1.6c-2.7,0.7-5.4,1.4-7.4,2c-2,0.6-3.3,1.1-3.3,1.1L173.5,86.8z"/>
		<g>
			<path fill="#23A6A0" d="M169,88.9c2.5-0.1,5.7,0.2,7.9,1l-2.8-3.1l-0.1-4.1C173,84.8,170.9,87.2,169,88.9z"/>
		</g>
	</g>
	<g>
		<path fill="#23A6A0" d="M355.6,159.6c0,0,0.9,1.8,2.3,4.6c1.3,2.8,3,6.5,4.4,10.4c1.5,3.8,2.7,7.8,3.6,10.7c0.9,3,1.4,5,1.4,5
			l-2.7,0.6c0,0-0.3-2-1-5c-0.6-3-1.6-6.9-2.8-10.8c-1.2-3.9-2.5-7.7-3.6-10.6c-1.1-2.8-1.9-4.7-1.9-4.7L355.6,159.6z"/>
		<g>
			<path fill="#23A6A0" d="M353.3,155.2c0.2,2.5,0.1,5.7-0.5,8l2.9-2.9l4.1-0.4C357.6,158.9,355,157,353.3,155.2z"/>
		</g>
	</g>
	<g>
		<path fill="#23A6A0" d="M367.2,251.3c0,0-0.5,1.8-1.3,4.6c-0.8,2.8-2,6.4-3.3,9.9c-1.3,3.6-2.8,7.1-4,9.6c-1.2,2.6-2,4.3-2,4.3
			l-0.3-0.2c0,0,0.7-1.7,1.7-4.4c1-2.7,2.2-6.2,3.2-9.9c1-3.6,1.9-7.3,2.5-10c0.6-2.7,0.9-4.6,0.9-4.6L367.2,251.3z"/>
		<g>
			<path fill="#23A6A0" d="M354.3,284.2c0.2-2.5,0-5.7-0.6-8l3,2.9l4.1,0.3C358.6,280.4,356.1,282.4,354.3,284.2z"/>
		</g>
	</g>
	<g>
		<path fill="#23A6A0" d="M279.4,354.1c0,0-1.4,0.7-3.6,1.6c-2.2,0.9-5.1,2.1-8,3.1c-3,1.1-6,2-8.2,2.7c-2.3,0.7-3.8,1-3.8,1
			l-0.6-2.7c0,0,1.5-0.2,3.8-0.7c2.3-0.4,5.3-1.1,8.3-1.9c3-0.8,6-1.7,8.2-2.4c2.2-0.7,3.7-1.2,3.7-1.2L279.4,354.1z"/>
		<g>
			<path fill="#23A6A0" d="M283.8,351.9c-2.5,0.1-5.7-0.2-8-0.9l2.8,3.1l0.2,4.1C279.9,356.1,282,353.6,283.8,351.9z"/>
		</g>
	</g>
	<g>
		<path fill="#23A6A0" d="M195.5,362.5c0,0-1.5-0.4-3.8-1c-2.3-0.7-5.3-1.6-8.2-2.7c-3-1.1-5.9-2.2-8-3.1c-2.2-0.9-3.6-1.6-3.6-1.6
			l0.2-0.4c0,0,1.5,0.5,3.7,1.2c2.2,0.7,5.2,1.6,8.2,2.4c3,0.8,6,1.4,8.3,1.9c2.3,0.4,3.8,0.7,3.8,0.7L195.5,362.5z"/>
		<g>
			<path fill="#23A6A0" d="M167.3,351.9c2.5,0.1,5.7-0.2,8-0.9l-2.8,3.1l-0.2,4.1C171.2,356.1,169.1,353.6,167.3,351.9z"/>
		</g>
	</g>
	<path fill="#CC1B31" d="M128.8,166.6c-0.1,0-0.2,0-0.3,0c-27.3-0.1-49.5-22.5-49.3-49.8c0.1-27.2,22.4-49.3,49.6-49.3
		c0.1,0,0.2,0,0.3,0c27.3,0.1,49.5,22.5,49.3,49.8C178.2,144.5,156,166.6,128.8,166.6z"/>
	<path fill="#CC1B31" d="M322.4,166.6c-0.1,0-0.2,0-0.3,0c-27.3-0.1-49.5-22.5-49.3-49.8c0.1-27.2,22.4-49.3,49.6-49.3
		c0.1,0,0.2,0,0.3,0c27.3,0.1,49.5,22.5,49.3,49.8C371.9,144.5,349.7,166.6,322.4,166.6z"/>
	<path fill="#CC1B31" d="M128.8,371.1c-0.1,0-0.2,0-0.3,0c-27.3-0.1-49.5-22.5-49.3-49.8c0.1-27.2,22.4-49.3,49.6-49.3
		c0.1,0,0.2,0,0.3,0c27.3,0.1,49.5,22.5,49.3,49.8C178.2,349,156,371.1,128.8,371.1z"/>
	<path fill="#CC1B31" d="M322.4,371.1c-0.1,0-0.2,0-0.3,0c-27.3-0.1-49.5-22.5-49.3-49.8c0.1-27.2,22.4-49.3,49.6-49.3
		c0.1,0,0.2,0,0.3,0c27.3,0.1,49.5,22.5,49.3,49.8C371.9,349,349.7,371.1,322.4,371.1z"/>
	<g>
		<g>
			<path fill="#FFFFFF" d="M298.2,105.6l0.1-6l-1.6,6h-1.2l-1.6-6l0.1,6h-1.3v-7.3h2l1.4,5.4l1.4-5.4h1.9v7.3H298.2z"/>
			<path fill="#FFFFFF" d="M305.2,105.6l-0.4-1.4h-2.7l-0.4,1.4h-1.4l2.4-7.3h1.5l2.5,7.3H305.2z M303.4,99.6l-1,3.4h2L303.4,99.6z
				 M303.8,97.6h-0.9l0.6-1.2h1.5L303.8,97.6z"/>
			<path fill="#FFFFFF" d="M309.9,105.8c-0.9,0-1.9-0.3-2.6-0.9c-0.2-0.2-0.4-0.4-0.5-0.6l1.1-0.8c0.1,0.1,0.1,0.2,0.2,0.3
				c0.5,0.6,1.2,0.8,2,0.8c0.6,0,1.4-0.2,1.4-1c0-0.7-0.8-0.8-1.4-1l-0.9-0.2c-0.2-0.1-0.4-0.1-0.7-0.2c-0.9-0.3-1.4-0.9-1.4-1.9
				c0-1.6,1.5-2.3,2.9-2.3c1,0,1.9,0.4,2.7,1.2c0.1,0.1,0.2,0.2,0.2,0.3l-1.1,0.8c-0.4-0.7-1-1.1-1.8-1.1c-0.5,0-1.4,0.2-1.4,0.9
				c0,0.7,0.8,0.8,1.3,0.9c1.4,0.3,3.1,0.5,3.1,2.3C313,105.2,311.3,105.8,309.9,105.8z"/>
			<path fill="#FFFFFF" d="M321.7,102.2c-0.6,0.8-1.4,1-2.3,1h-1.3v2.5h-1.3v-7.3h2.5c0.9,0,1.7,0.1,2.3,0.9c0.3,0.4,0.5,1,0.5,1.5
				C322.1,101.2,322,101.7,321.7,102.2z M320.5,100c-0.3-0.5-0.9-0.5-1.4-0.5h-1v2.5h1c0.6,0,1.3,0,1.5-0.7c0.1-0.2,0.1-0.4,0.1-0.6
				C320.7,100.5,320.6,100.2,320.5,100z"/>
			<path fill="#FFFFFF" d="M328.6,104.1c-0.4,1.2-1.7,1.7-2.8,1.7s-2.4-0.5-2.8-1.7c-0.1-0.4-0.1-0.8-0.1-1.2v-4.5h1.4v4.7
				c0,0.2,0,0.5,0.1,0.7c0.3,0.6,0.8,0.8,1.5,0.8c0.6,0,1.2-0.2,1.5-0.9c0.1-0.3,0.1-0.6,0.1-0.9v-4.4h1.3v4.7
				C328.7,103.4,328.7,103.8,328.6,104.1z"/>
			<path fill="#FFFFFF" d="M334.5,105.6l-3.2-5.1l0.1,5.1h-1.3v-7.3h1.2l3.2,5.1l-0.2-5.1h1.3v7.3H334.5z"/>
			<path fill="#FFFFFF" d="M339.8,99.6v6.1h-1.3v-6.1h-2v-1.2h5.3v1.2H339.8z"/>
			<path fill="#FFFFFF" d="M345.3,105.8c-2.1,0-3.4-1.8-3.4-3.8c0-2.1,1.3-3.9,3.5-3.9c0.7,0,1.3,0.2,1.9,0.6c1.1,0.7,1.6,2,1.6,3.3
				C348.8,104.1,347.5,105.8,345.3,105.8z M347.5,102.1c0-1.3-0.6-2.7-2.1-2.7c-1.4,0-2.1,1.2-2.1,2.5c0,0.4,0.1,0.8,0.2,1.2
				c0.3,0.8,1,1.4,1.9,1.4c0.8,0,1.6-0.6,1.9-1.3C347.4,102.9,347.5,102.5,347.5,102.1L347.5,102.1z"/>
			<path fill="#FFFFFF" d="M352.4,105.8c-0.9,0-1.9-0.3-2.6-0.9c-0.2-0.2-0.4-0.4-0.5-0.6l1.1-0.8c0.1,0.1,0.1,0.2,0.2,0.3
				c0.5,0.6,1.2,0.8,2,0.8c0.6,0,1.4-0.2,1.4-1c0-0.7-0.8-0.8-1.4-1l-0.9-0.2c-0.2-0.1-0.4-0.1-0.7-0.2c-0.9-0.3-1.4-0.9-1.4-1.9
				c0-1.6,1.5-2.3,2.9-2.3c1,0,1.9,0.4,2.7,1.2c0.1,0.1,0.2,0.2,0.2,0.3l-1.1,0.8c-0.4-0.7-1-1.1-1.8-1.1c-0.5,0-1.4,0.2-1.4,0.9
				c0,0.7,0.8,0.8,1.3,0.9c1.4,0.3,3.1,0.5,3.1,2.3C355.5,105.2,353.9,105.8,352.4,105.8z"/>
			<path fill="#FFFFFF" d="M305.6,114.8c-0.8,1.4-1.9,1.5-3.4,1.5h-2.3v-7.3h2.6c0.4,0,0.9,0,1.4,0.2c1.5,0.5,2.2,2,2.2,3.6
				C306,113.5,305.9,114.3,305.6,114.8z M303.1,110.4c-0.4-0.1-0.8-0.1-1.2-0.1h-0.7v4.8h0.6c0.5,0,1,0,1.5-0.1
				c1.1-0.3,1.3-1.4,1.3-2.4C304.6,111.6,304.2,110.7,303.1,110.4z"/>
			<path fill="#FFFFFF" d="M307,116.4v-7.3h5.1v1.2h-3.8v1.7h3.5v1.2h-3.5v2h4.1v1.2H307z"/>
			<path fill="#FFFFFF" d="M318.8,116.6c-2.2,0-3.3-1.8-3.3-3.8c0-0.5,0.1-1.1,0.2-1.6c0.5-1.4,1.7-2.3,3.2-2.3
				c0.9,0,1.9,0.4,2.4,1.2c0.2,0.3,0.4,0.7,0.5,1.1l-1.3,0.4c-0.1-0.8-0.8-1.4-1.6-1.4c-1.4,0-2,1.3-2,2.5c0,0.9,0.3,2,1.1,2.4
				c0.3,0.1,0.6,0.2,0.8,0.2c0.9,0,1.5-0.6,1.8-1.5l1.3,0.5C321.4,115.8,320.3,116.6,318.8,116.6z"/>
			<path fill="#FFFFFF" d="M327,116.4l-0.4-1.4h-2.7l-0.4,1.4H322l2.4-7.3h1.5l2.5,7.3H327z M325.2,110.4l-1,3.4h2L325.2,110.4z"/>
			<path fill="#FFFFFF" d="M333.1,116.4l-1.4-2.7h-1.2v2.7h-1.3v-7.3h2.7c0.9,0,1.7,0.1,2.2,0.9c0.3,0.4,0.4,0.9,0.4,1.4
				c0,0.9-0.5,1.7-1.4,2l1.6,3H333.1z M331.7,110.3c-0.4,0-0.8,0-1.3,0v2.3h0.9c0.8,0,1.7-0.1,1.7-1.2
				C333.1,110.6,332.5,110.3,331.7,110.3z"/>
			<path fill="#FFFFFF" d="M340.6,116.4v-0.6c-0.6,0.5-1.2,0.8-1.9,0.8c-2.2,0-3.4-1.7-3.4-3.8c0-2.1,1.3-3.9,3.5-3.9
				c1.4,0,2.5,0.8,3,2.1l-1.3,0.5c-0.3-0.8-0.8-1.4-1.7-1.4c-1.5,0-2,1.3-2,2.6c0,0.9,0.3,1.9,1.2,2.3c0.3,0.1,0.6,0.2,0.9,0.2
				c0.8,0,1.4-0.4,1.7-1.1c0.1-0.2,0.1-0.4,0.1-0.5h-1.8v-1.2h3v4H340.6z"/>
			<path fill="#FFFFFF" d="M347.2,116.4l-0.4-1.4h-2.7l-0.4,1.4h-1.4l2.4-7.3h1.5l2.5,7.3H347.2z M345.5,110.4l-1,3.4h2L345.5,110.4
				z"/>
			<path fill="#FFFFFF" d="M305.9,125.6c-0.8,1.4-1.9,1.5-3.4,1.5h-2.3v-7.3h2.6c0.4,0,0.9,0,1.4,0.2c1.5,0.5,2.2,2,2.2,3.6
				C306.3,124.2,306.2,125,305.9,125.6z M303.4,121.2c-0.4-0.1-0.8-0.1-1.2-0.1h-0.7v4.8h0.6c0.5,0,1,0,1.5-0.1
				c1.1-0.3,1.3-1.4,1.3-2.4C304.9,122.4,304.5,121.5,303.4,121.2z"/>
			<path fill="#FFFFFF" d="M307.3,127.2v-7.3h5.1v1.2h-3.8v1.7h3.5v1.2h-3.5v2h4.1v1.2H307.3z"/>
			<path fill="#FFFFFF" d="M317.6,121.1v1.8h3v1.2h-3v3.1h-1.3v-7.3h4.8v1.2H317.6z"/>
			<path fill="#FFFFFF" d="M325.7,127.2l-1.4-2.7h-1.2v2.7h-1.3v-7.3h2.7c0.9,0,1.7,0.1,2.2,0.9c0.3,0.4,0.4,0.9,0.4,1.4
				c0,0.9-0.5,1.7-1.4,2l1.6,3H325.7z M324.4,121c-0.4,0-0.8,0-1.3,0v2.3h0.9c0.8,0,1.7-0.1,1.7-1.2
				C325.7,121.3,325.1,121,324.4,121z"/>
			<path fill="#FFFFFF" d="M333.8,125.6c-0.4,1.2-1.7,1.7-2.8,1.7s-2.4-0.5-2.8-1.7c-0.1-0.4-0.1-0.8-0.1-1.2v-4.5h1.4v4.7
				c0,0.2,0,0.5,0.1,0.7c0.3,0.6,0.8,0.8,1.5,0.8c0.6,0,1.2-0.2,1.5-0.9c0.1-0.3,0.1-0.6,0.1-0.9v-4.4h1.3v4.7
				C334,124.9,333.9,125.3,333.8,125.6z"/>
			<path fill="#FFFFFF" d="M338.1,121.1v6.1h-1.3v-6.1h-2v-1.2h5.3v1.2H338.1z"/>
			<path fill="#FFFFFF" d="M344.5,127.2l-0.4-1.4h-2.7l-0.4,1.4h-1.4l2.4-7.3h1.5l2.5,7.3H344.5z M342.8,121.2l-1,3.4h2L342.8,121.2
				z"/>
			<path fill="#FFFFFF" d="M347,128.5c-0.1,0-0.1,0-0.2,0V128c0.5-0.1,0.6-0.4,0.6-0.8h-0.6v-1.4h1.4v1.5v0
				C348.1,128,347.7,128.4,347,128.5z"/>
			<path fill="#FFFFFF" d="M309.7,131.9v6.1h-1.3v-6.1h-2v-1.2h5.3v1.2H309.7z"/>
			<path fill="#FFFFFF" d="M316.1,137.9l-0.4-1.4H313l-0.4,1.4h-1.4l2.4-7.3h1.5l2.5,7.3H316.1z M314.4,131.9l-1,3.4h2L314.4,131.9z
				"/>
			<path fill="#FFFFFF" d="M318.3,137.9v-7.3h1.4v6.1h2.9v1.2H318.3z"/>
			<path fill="#FFFFFF" d="M323.4,137.9v-7.3h1.4v6.1h2.9v1.2H323.4z"/>
			<path fill="#FFFFFF" d="M331.2,138.1c-2.1,0-3.4-1.8-3.4-3.8c0-2.1,1.3-3.9,3.5-3.9c0.7,0,1.3,0.2,1.9,0.6c1.1,0.7,1.6,2,1.6,3.3
				C334.7,136.4,333.4,138.1,331.2,138.1z M333.4,134.3c0-1.3-0.6-2.7-2.1-2.7c-1.4,0-2.1,1.2-2.1,2.5c0,0.4,0.1,0.8,0.2,1.2
				c0.3,0.8,1,1.4,1.9,1.4c0.8,0,1.6-0.6,1.9-1.3C333.3,135.1,333.4,134.8,333.4,134.3L333.4,134.3z"/>
			<path fill="#FFFFFF" d="M338.3,138.1c-0.9,0-1.9-0.3-2.6-0.9c-0.2-0.2-0.4-0.4-0.5-0.6l1.1-0.8c0.1,0.1,0.1,0.2,0.2,0.3
				c0.5,0.6,1.2,0.8,2,0.8c0.6,0,1.4-0.2,1.4-1c0-0.7-0.8-0.8-1.4-1l-0.9-0.2c-0.2-0.1-0.4-0.1-0.7-0.2c-0.9-0.3-1.4-0.9-1.4-1.9
				c0-1.6,1.5-2.3,2.9-2.3c1,0,1.9,0.4,2.7,1.2c0.1,0.1,0.2,0.2,0.2,0.3l-1.1,0.8c-0.4-0.7-1-1.1-1.8-1.1c-0.5,0-1.4,0.2-1.4,0.9
				c0,0.7,0.8,0.8,1.3,0.9c1.4,0.3,3.1,0.5,3.1,2.3C341.4,137.5,339.8,138.1,338.3,138.1z"/>
			<path fill="#FFFFFF" d="M307.6,145.8v2.9h-1.3v-2.9l-2.4-4.4h1.5l1.6,3l1.6-3h1.5L307.6,145.8z"/>
			<path fill="#FFFFFF" d="M317.9,148.7v-3.3h-3.1v3.3h-1.4v-7.3h1.4v2.7h3.1v-2.7h1.4v7.3H317.9z"/>
			<path fill="#FFFFFF" d="M323.8,148.9c-2.1,0-3.4-1.8-3.4-3.8c0-2.1,1.3-3.9,3.5-3.9c0.7,0,1.3,0.2,1.9,0.6c1.1,0.7,1.6,2,1.6,3.3
				C327.3,147.1,326,148.9,323.8,148.9z M325.9,145.1c0-1.3-0.6-2.7-2.1-2.7c-1.4,0-2.1,1.2-2.1,2.5c0,0.4,0.1,0.8,0.2,1.2
				c0.3,0.8,1,1.4,1.9,1.4c0.8,0,1.6-0.6,1.9-1.3C325.8,145.9,325.9,145.5,325.9,145.1L325.9,145.1z"/>
			<path fill="#FFFFFF" d="M330.5,147.6c-0.3,0.9-1.3,1.2-2.2,1.2c-0.3,0-0.6,0-0.8-0.1v-1.3c0.2,0.1,0.5,0.1,0.7,0.1
				c0.2,0,0.5,0,0.6-0.1c0.5-0.3,0.4-0.8,0.4-1.3v-4.7h1.3v5.2C330.6,146.9,330.6,147.3,330.5,147.6z"/>
			<path fill="#FFFFFF" d="M336.1,148.7l-0.4-1.4H333l-0.4,1.4h-1.4l2.4-7.3h1.5l2.5,7.3H336.1z M334.3,142.7l-1,3.4h2L334.3,142.7z
				"/>
			<path fill="#FFFFFF" d="M340.8,148.9c-0.9,0-1.9-0.3-2.6-0.9c-0.2-0.2-0.4-0.4-0.5-0.6l1.1-0.8c0.1,0.1,0.1,0.2,0.2,0.3
				c0.5,0.6,1.2,0.8,2,0.8c0.6,0,1.4-0.2,1.4-1c0-0.7-0.8-0.8-1.4-1l-0.9-0.2c-0.2-0.1-0.4-0.1-0.7-0.2c-0.9-0.3-1.4-0.9-1.4-1.9
				c0-1.6,1.5-2.3,2.9-2.3c1,0,1.9,0.4,2.7,1.2c0.1,0.1,0.2,0.2,0.2,0.3l-1.1,0.8c-0.4-0.7-1-1.1-1.8-1.1c-0.5,0-1.4,0.2-1.4,0.9
				c0,0.7,0.8,0.8,1.3,0.9c1.4,0.3,3.1,0.5,3.1,2.3C343.9,148.3,342.2,148.9,340.8,148.9z"/>
		</g>
	</g>
	<g>
		<g>
			<path fill="#FFFFFF" d="M290.5,312.2l0.1-6l-1.6,6h-1.2l-1.6-6l0.1,6h-1.3v-7.3h2l1.4,5.4l1.4-5.4h1.9v7.3H290.5z"/>
			<path fill="#FFFFFF" d="M297.5,312.2l-0.4-1.4h-2.7l-0.4,1.4h-1.4l2.4-7.3h1.5l2.5,7.3H297.5z M295.7,306.2l-1,3.4h2L295.7,306.2
				z"/>
			<path fill="#FFFFFF" d="M302.1,309.3v2.9h-1.3v-2.9l-2.4-4.4h1.5l1.6,3l1.6-3h1.5L302.1,309.3z"/>
			<path fill="#FFFFFF" d="M307.8,312.4c-2.1,0-3.4-1.8-3.4-3.8c0-2.1,1.3-3.9,3.5-3.9c0.7,0,1.3,0.2,1.9,0.6c1.1,0.7,1.6,2,1.6,3.3
				C311.3,310.7,310,312.4,307.8,312.4z M309.9,308.6c0-1.3-0.6-2.7-2.1-2.7c-1.4,0-2.1,1.2-2.1,2.5c0,0.4,0.1,0.8,0.2,1.2
				c0.3,0.8,1,1.4,1.9,1.4c0.8,0,1.6-0.6,1.9-1.3C309.9,309.4,309.9,309.1,309.9,308.6L309.9,308.6z"/>
			<path fill="#FFFFFF" d="M316.4,312.2l-1.4-2.7h-1.2v2.7h-1.3v-7.3h2.7c0.9,0,1.7,0.1,2.2,0.9c0.3,0.4,0.4,0.9,0.4,1.4
				c0,0.9-0.5,1.7-1.4,2l1.6,3H316.4z M315,306.1c-0.4,0-0.8,0-1.3,0v2.3h0.9c0.8,0,1.7-0.1,1.7-1.2
				C316.3,306.4,315.7,306.1,315,306.1z"/>
			<path fill="#FFFFFF" d="M325.9,312.2l-3.2-5.1l0.1,5.1h-1.3v-7.3h1.2l3.2,5.1l-0.2-5.1h1.3v7.3H325.9z"/>
			<path fill="#FFFFFF" d="M334.2,310.7c-0.4,1.2-1.7,1.7-2.8,1.7s-2.4-0.5-2.8-1.7c-0.1-0.4-0.1-0.8-0.1-1.2v-4.5h1.4v4.7
				c0,0.2,0,0.5,0.1,0.7c0.3,0.6,0.8,0.8,1.5,0.8c0.6,0,1.2-0.2,1.5-0.9c0.1-0.3,0.1-0.6,0.1-0.9v-4.4h1.3v4.7
				C334.3,309.9,334.3,310.4,334.2,310.7z M331.8,304.2h-0.9l0.5-1.2h1.5L331.8,304.2z"/>
			<path fill="#FFFFFF" d="M341.1,312.2l0.1-6l-1.6,6h-1.2l-1.6-6l0.1,6h-1.3v-7.3h2l1.4,5.4l1.4-5.4h1.9v7.3H341.1z"/>
			<path fill="#FFFFFF" d="M343.8,312.2v-7.3h5.1v1.2h-3.8v1.7h3.5v1.2h-3.5v2h4.1v1.2H343.8z"/>
			<path fill="#FFFFFF" d="M354,312.2l-1.4-2.7h-1.2v2.7H350v-7.3h2.7c0.9,0,1.7,0.1,2.2,0.9c0.3,0.4,0.4,0.9,0.4,1.4
				c0,0.9-0.5,1.7-1.4,2l1.6,3H354z M352.6,306.1c-0.4,0-0.8,0-1.3,0v2.3h0.9c0.8,0,1.7-0.1,1.7-1.2
				C354,306.4,353.3,306.1,352.6,306.1z"/>
			<path fill="#FFFFFF" d="M359.5,312.4c-2.1,0-3.4-1.8-3.4-3.8c0-2.1,1.3-3.9,3.5-3.9c0.7,0,1.3,0.2,1.9,0.6c1.1,0.7,1.6,2,1.6,3.3
				C363,310.7,361.7,312.4,359.5,312.4z M361.6,308.6c0-1.3-0.6-2.7-2.1-2.7c-1.4,0-2.1,1.2-2.1,2.5c0,0.4,0.1,0.8,0.2,1.2
				c0.3,0.8,1,1.4,1.9,1.4c0.8,0,1.6-0.6,1.9-1.3C361.6,309.4,361.6,309.1,361.6,308.6L361.6,308.6z"/>
			<path fill="#FFFFFF" d="M306.5,321.4c-0.8,1.4-1.9,1.5-3.4,1.5h-2.3v-7.3h2.6c0.4,0,0.9,0,1.4,0.2c1.5,0.5,2.2,2,2.2,3.6
				C307,320,306.8,320.8,306.5,321.4z M304.1,317c-0.4-0.1-0.8-0.1-1.2-0.1h-0.7v4.8h0.6c0.5,0,1,0,1.5-0.1c1.1-0.3,1.3-1.4,1.3-2.4
				C305.5,318.2,305.1,317.3,304.1,317z"/>
			<path fill="#FFFFFF" d="M308,323v-7.3h5.1v1.2h-3.8v1.7h3.5v1.2h-3.5v2h4.1v1.2H308z"/>
			<path fill="#FFFFFF" d="M321.3,323v-3.3h-3.1v3.3h-1.4v-7.3h1.4v2.7h3.1v-2.7h1.4v7.3H321.3z"/>
			<path fill="#FFFFFF" d="M327.2,323.2c-2.1,0-3.4-1.8-3.4-3.8c0-2.1,1.3-3.9,3.5-3.9c0.7,0,1.3,0.2,1.9,0.6c1.1,0.7,1.6,2,1.6,3.3
				C330.7,321.4,329.4,323.2,327.2,323.2z M329.3,319.4c0-1.3-0.6-2.7-2.1-2.7c-1.4,0-2.1,1.2-2.1,2.5c0,0.4,0.1,0.8,0.2,1.2
				c0.3,0.8,1,1.4,1.9,1.4c0.8,0,1.6-0.6,1.9-1.3C329.3,320.2,329.3,319.8,329.3,319.4L329.3,319.4z"/>
			<path fill="#FFFFFF" d="M333.9,321.9c-0.3,0.9-1.3,1.2-2.2,1.2c-0.3,0-0.6,0-0.8-0.1v-1.3c0.2,0.1,0.5,0.1,0.7,0.1
				c0.2,0,0.5,0,0.6-0.1c0.5-0.3,0.4-0.8,0.4-1.3v-4.7h1.3v5.2C334,321.2,334.1,321.6,333.9,321.9z"/>
			<path fill="#FFFFFF" d="M339.5,323l-0.4-1.4h-2.7L336,323h-1.4l2.4-7.3h1.5l2.5,7.3H339.5z M337.8,317l-1,3.4h2L337.8,317z"/>
			<path fill="#FFFFFF" d="M344.2,323.2c-0.9,0-1.9-0.3-2.6-0.9c-0.2-0.2-0.4-0.4-0.5-0.6l1.1-0.8c0.1,0.1,0.1,0.2,0.2,0.3
				c0.5,0.6,1.2,0.8,2,0.8c0.6,0,1.4-0.2,1.4-1c0-0.7-0.8-0.8-1.4-1l-0.9-0.2c-0.2-0.1-0.4-0.1-0.7-0.2c-0.9-0.3-1.4-0.9-1.4-1.9
				c0-1.6,1.5-2.3,2.9-2.3c1,0,1.9,0.4,2.7,1.2c0.1,0.1,0.2,0.2,0.2,0.3l-1.1,0.8c-0.4-0.7-1-1.1-1.8-1.1c-0.5,0-1.4,0.2-1.4,0.9
				c0,0.7,0.8,0.8,1.3,0.9c1.4,0.3,3.1,0.5,3.1,2.3C347.3,322.6,345.7,323.2,344.2,323.2z"/>
			<path fill="#FFFFFF" d="M302.1,330.9v2.9h-1.3v-2.9l-2.4-4.4h1.5l1.6,3l1.6-3h1.5L302.1,330.9z"/>
			<path fill="#FFFFFF" d="M313,333.7v-0.6c-0.6,0.5-1.2,0.8-1.9,0.8c-2.2,0-3.4-1.7-3.4-3.8c0-2.1,1.3-3.9,3.5-3.9
				c1.4,0,2.5,0.8,3,2.1l-1.3,0.5c-0.3-0.8-0.8-1.4-1.7-1.4c-1.5,0-2,1.3-2,2.6c0,0.9,0.3,1.9,1.2,2.3c0.3,0.1,0.6,0.2,0.9,0.2
				c0.8,0,1.4-0.4,1.7-1.1c0.1-0.2,0.1-0.4,0.1-0.5h-1.8v-1.2h3v4H313z"/>
			<path fill="#FFFFFF" d="M319.4,333.7L318,331h-1.2v2.7h-1.3v-7.3h2.7c0.9,0,1.7,0.1,2.2,0.9c0.3,0.4,0.4,0.9,0.4,1.4
				c0,0.9-0.5,1.7-1.4,2l1.6,3H319.4z M318.1,327.6c-0.4,0-0.8,0-1.3,0v2.3h0.9c0.8,0,1.7-0.1,1.7-1.2
				C319.4,327.9,318.8,327.6,318.1,327.6z"/>
			<path fill="#FFFFFF" d="M324.9,333.9c-2.1,0-3.4-1.8-3.4-3.8c0-2.1,1.3-3.9,3.5-3.9c0.7,0,1.3,0.2,1.9,0.6c1.1,0.7,1.6,2,1.6,3.3
				C328.4,332.2,327.1,333.9,324.9,333.9z M327.1,330.2c0-1.3-0.6-2.7-2.1-2.7c-1.4,0-2.1,1.2-2.1,2.5c0,0.4,0.1,0.8,0.2,1.2
				c0.3,0.8,1,1.4,1.9,1.4c0.8,0,1.6-0.6,1.9-1.3C327,331,327.1,330.6,327.1,330.2L327.1,330.2z"/>
			<path fill="#FFFFFF" d="M332,333.9c-0.9,0-1.9-0.3-2.6-0.9c-0.2-0.2-0.4-0.4-0.5-0.6l1.1-0.8c0.1,0.1,0.1,0.2,0.2,0.3
				c0.5,0.6,1.2,0.8,2,0.8c0.6,0,1.4-0.2,1.4-1c0-0.7-0.8-0.8-1.4-1l-0.9-0.2c-0.2-0.1-0.4-0.1-0.7-0.2c-0.9-0.3-1.4-0.9-1.4-1.9
				c0-1.6,1.5-2.3,2.9-2.3c1,0,1.9,0.4,2.7,1.2c0.1,0.1,0.2,0.2,0.2,0.3l-1.1,0.8c-0.4-0.7-1-1.1-1.8-1.1c-0.5,0-1.4,0.2-1.4,0.9
				c0,0.7,0.8,0.8,1.3,0.9c1.4,0.3,3.1,0.5,3.1,2.3C335.1,333.3,333.5,333.9,332,333.9z"/>
			<path fill="#FFFFFF" d="M339.2,333.9c-2.1,0-3.4-1.8-3.4-3.8c0-2.1,1.3-3.9,3.5-3.9c0.7,0,1.3,0.2,1.9,0.6c1.1,0.7,1.6,2,1.6,3.3
				C342.7,332.2,341.4,333.9,339.2,333.9z M341.3,330.2c0-1.3-0.6-2.7-2.1-2.7c-1.4,0-2.1,1.2-2.1,2.5c0,0.4,0.1,0.8,0.2,1.2
				c0.3,0.8,1,1.4,1.9,1.4c0.8,0,1.6-0.6,1.9-1.3C341.3,331,341.3,330.6,341.3,330.2L341.3,330.2z"/>
			<path fill="#FFFFFF" d="M347.8,333.7l-1.4-2.7h-1.2v2.7h-1.3v-7.3h2.7c0.9,0,1.7,0.1,2.2,0.9c0.3,0.4,0.4,0.9,0.4,1.4
				c0,0.9-0.5,1.7-1.4,2l1.6,3H347.8z M346.4,327.6c-0.4,0-0.8,0-1.3,0v2.3h0.9c0.8,0,1.7-0.1,1.7-1.2
				C347.7,327.9,347.1,327.6,346.4,327.6z"/>
			<path fill="#FFFFFF" d="M307.8,342.9c-0.8,1.4-1.9,1.5-3.4,1.5h-2.3v-7.3h2.6c0.4,0,0.9,0,1.4,0.2c1.5,0.5,2.2,2,2.2,3.6
				C308.3,341.6,308.1,342.4,307.8,342.9z M305.4,338.5c-0.4-0.1-0.8-0.1-1.2-0.1h-0.7v4.8h0.6c0.5,0,1,0,1.5-0.1
				c1.1-0.3,1.3-1.4,1.3-2.4C306.8,339.7,306.4,338.8,305.4,338.5z"/>
			<path fill="#FFFFFF" d="M309.2,344.5v-7.3h5.1v1.2h-3.8v1.7h3.5v1.2h-3.5v2h4.1v1.2H309.2z"/>
			<path fill="#FFFFFF" d="M320.9,338.4v6.1h-1.3v-6.1h-2v-1.2h5.3v1.2H320.9z"/>
			<path fill="#FFFFFF" d="M327.3,344.5l-0.4-1.4h-2.7l-0.4,1.4h-1.4l2.4-7.3h1.5l2.5,7.3H327.3z M325.6,338.5l-1,3.4h2L325.6,338.5
				z"/>
			<path fill="#FFFFFF" d="M329.5,344.5v-7.3h1.4v6.1h2.9v1.2H329.5z"/>
			<path fill="#FFFFFF" d="M334.6,344.5v-7.3h1.4v6.1h2.9v1.2H334.6z"/>
			<path fill="#FFFFFF" d="M342.4,344.7c-2.1,0-3.4-1.8-3.4-3.8c0-2.1,1.3-3.9,3.5-3.9c0.7,0,1.3,0.2,1.9,0.6c1.1,0.7,1.6,2,1.6,3.3
				C345.9,342.9,344.6,344.7,342.4,344.7z M344.6,340.9c0-1.3-0.6-2.7-2.1-2.7c-1.4,0-2.1,1.2-2.1,2.5c0,0.4,0.1,0.8,0.2,1.2
				c0.3,0.8,1,1.4,1.9,1.4c0.8,0,1.6-0.6,1.9-1.3C344.5,341.7,344.6,341.4,344.6,340.9L344.6,340.9z"/>
		</g>
	</g>
	<g>
		<g>
			<path fill="#FFFFFF" d="M96,101.6l0.1-6l-1.6,6h-1.2l-1.6-6l0.1,6h-1.3v-7.3h2l1.4,5.4l1.4-5.4h1.9v7.3H96z"/>
			<path fill="#FFFFFF" d="M102.9,101.6l-0.4-1.4h-2.7l-0.4,1.4h-1.4l2.4-7.3h1.5l2.5,7.3H102.9z M101.2,95.6l-1,3.4h2L101.2,95.6z"
				/>
			<path fill="#FFFFFF" d="M107.5,98.7v2.9h-1.3v-2.9l-2.4-4.4h1.5l1.6,3l1.6-3h1.5L107.5,98.7z"/>
			<path fill="#FFFFFF" d="M113.2,101.8c-2.1,0-3.4-1.8-3.4-3.8c0-2.1,1.3-3.9,3.5-3.9c0.7,0,1.3,0.2,1.9,0.6c1.1,0.7,1.6,2,1.6,3.3
				C116.7,100.1,115.4,101.8,113.2,101.8z M115.4,98c0-1.3-0.6-2.7-2.1-2.7c-1.4,0-2.1,1.2-2.1,2.5c0,0.4,0.1,0.8,0.2,1.2
				c0.3,0.8,1,1.4,1.9,1.4c0.8,0,1.6-0.6,1.9-1.3C115.3,98.8,115.4,98.5,115.4,98L115.4,98z"/>
			<path fill="#FFFFFF" d="M121.8,101.6l-1.4-2.7h-1.2v2.7h-1.3v-7.3h2.7c0.9,0,1.7,0.1,2.2,0.9c0.3,0.4,0.4,0.9,0.4,1.4
				c0,0.9-0.5,1.7-1.4,2l1.6,3H121.8z M120.4,95.5c-0.4,0-0.8,0-1.3,0v2.3h0.9c0.8,0,1.7-0.1,1.7-1.2
				C121.8,95.8,121.1,95.5,120.4,95.5z"/>
			<path fill="#FFFFFF" d="M131.2,101.6l-0.4-1.4H128l-0.4,1.4h-1.4l2.4-7.3h1.5l2.5,7.3H131.2z M129.4,95.6l-1,3.4h2L129.4,95.6z"
				/>
			<path fill="#FFFFFF" d="M138.7,101.6l0.1-6l-1.6,6H136l-1.6-6l0.1,6h-1.3v-7.3h2l1.4,5.4l1.4-5.4h1.9v7.3H138.7z"/>
			<path fill="#FFFFFF" d="M145.6,101.6l-0.4-1.4h-2.7l-0.4,1.4h-1.4l2.4-7.3h1.5l2.5,7.3H145.6z M143.9,95.6l-1,3.4h2L143.9,95.6z"
				/>
			<path fill="#FFFFFF" d="M151.8,101.6l-1.4-2.7h-1.2v2.7h-1.3v-7.3h2.7c0.9,0,1.7,0.1,2.2,0.9c0.3,0.4,0.4,0.9,0.4,1.4
				c0,0.9-0.5,1.7-1.4,2l1.6,3H151.8z M150.4,95.5c-0.4,0-0.8,0-1.3,0v2.3h0.9c0.8,0,1.7-0.1,1.7-1.2
				C151.8,95.8,151.1,95.5,150.4,95.5z"/>
			<path fill="#FFFFFF" d="M158.2,101.6l-1.4-2.7h-1.2v2.7h-1.3v-7.3h2.7c0.9,0,1.7,0.1,2.2,0.9c0.3,0.4,0.4,0.9,0.4,1.4
				c0,0.9-0.5,1.7-1.4,2l1.6,3H158.2z M156.8,95.5c-0.4,0-0.8,0-1.3,0v2.3h0.9c0.8,0,1.7-0.1,1.7-1.2
				C158.1,95.8,157.5,95.5,156.8,95.5z"/>
			<path fill="#FFFFFF" d="M160.5,101.6v-7.3h5.1v1.2h-3.8v1.7h3.5v1.2h-3.5v2h4.1v1.2H160.5z"/>
			<path fill="#FFFFFF" d="M167,103c-0.1,0-0.1,0-0.2,0v-0.6c0.5-0.1,0.6-0.4,0.6-0.8h-0.6v-1.4h1.4v1.5v0
				C168.1,102.5,167.7,102.8,167,103z"/>
			<path fill="#FFFFFF" d="M95.5,112.4l0.1-6l-1.6,6h-1.2l-1.6-6l0.1,6h-1.3v-7.3h2l1.4,5.4l1.4-5.4h1.9v7.3H95.5z"/>
			<path fill="#FFFFFF" d="M102.4,112.4l-0.4-1.4h-2.7l-0.4,1.4h-1.4l2.4-7.3h1.5l2.5,7.3H102.4z M100.7,106.4l-1,3.4h2L100.7,106.4
				z"/>
			<path fill="#FFFFFF" d="M107,109.5v2.9h-1.3v-2.9l-2.4-4.4h1.5l1.6,3l1.6-3h1.5L107,109.5z"/>
			<path fill="#FFFFFF" d="M112.7,112.6c-2.1,0-3.4-1.8-3.4-3.8c0-2.1,1.3-3.9,3.5-3.9c0.7,0,1.3,0.2,1.9,0.6c1.1,0.7,1.6,2,1.6,3.3
				C116.2,110.8,114.9,112.6,112.7,112.6z M114.9,108.8c0-1.3-0.6-2.7-2.1-2.7c-1.4,0-2.1,1.2-2.1,2.5c0,0.4,0.1,0.8,0.2,1.2
				c0.3,0.8,1,1.4,1.9,1.4c0.8,0,1.6-0.6,1.9-1.3C114.8,109.6,114.9,109.2,114.9,108.8L114.9,108.8z"/>
			<path fill="#FFFFFF" d="M121.3,112.4l-1.4-2.7h-1.2v2.7h-1.3v-7.3h2.7c0.9,0,1.7,0.1,2.2,0.9c0.3,0.4,0.4,0.9,0.4,1.4
				c0,0.9-0.5,1.7-1.4,2l1.6,3H121.3z M119.9,106.2c-0.4,0-0.8,0-1.3,0v2.3h0.9c0.8,0,1.7-0.1,1.7-1.2
				C121.3,106.5,120.6,106.2,119.9,106.2z"/>
			<path fill="#FFFFFF" d="M129.1,106.3v6.1h-1.3v-6.1h-2v-1.2h5.3v1.2H129.1z"/>
			<path fill="#FFFFFF" d="M135.6,112.4l-0.4-1.4h-2.7l-0.4,1.4h-1.4l2.4-7.3h1.5l2.5,7.3H135.6z M133.8,106.4l-1,3.4h2L133.8,106.4
				z"/>
			<path fill="#FFFFFF" d="M143.1,112.4l0.1-6l-1.6,6h-1.2l-1.6-6l0.1,6h-1.3v-7.3h2l1.4,5.4l1.4-5.4h1.9v7.3H143.1z"/>
			<path fill="#FFFFFF" d="M150.1,112.4l-0.4-1.4h-2.7l-0.4,1.4h-1.4l2.4-7.3h1.5l2.5,7.3H150.1z M148.3,106.4l-1,3.4h2L148.3,106.4
				z"/>
			<path fill="#FFFFFF" d="M156.6,112.4l-3.2-5.1l0.1,5.1h-1.3v-7.3h1.2l3.2,5.1l-0.2-5.1h1.3v7.3H156.6z M156.8,103.5
				c-0.1,0.5-0.4,0.9-1,0.9c-0.5,0-1-0.4-1.5-0.4c-0.2,0-0.3,0.2-0.4,0.4h-0.8c0-0.2,0-0.3,0.1-0.5c0.2-0.4,0.5-0.8,1-0.8
				c0.2,0,0.7,0.1,0.9,0.2c0.2,0,0.3,0.1,0.5,0.1c0.3,0,0.3-0.2,0.4-0.4h0.8C156.9,103.3,156.9,103.4,156.8,103.5z"/>
			<path fill="#FFFFFF" d="M162.3,112.6c-2.1,0-3.4-1.8-3.4-3.8c0-2.1,1.3-3.9,3.5-3.9c0.7,0,1.3,0.2,1.9,0.6c1.1,0.7,1.6,2,1.6,3.3
				C165.8,110.8,164.5,112.6,162.3,112.6z M164.5,108.8c0-1.3-0.6-2.7-2.1-2.7c-1.4,0-2.1,1.2-2.1,2.5c0,0.4,0.1,0.8,0.2,1.2
				c0.3,0.8,1,1.4,1.9,1.4c0.8,0,1.6-0.6,1.9-1.3C164.4,109.6,164.5,109.2,164.5,108.8L164.5,108.8z"/>
			<path fill="#FFFFFF" d="M110.9,121.6c-0.8,1.4-1.9,1.5-3.4,1.5h-2.3v-7.3h2.6c0.4,0,0.9,0,1.4,0.2c1.5,0.5,2.2,2,2.2,3.6
				C111.3,120.2,111.2,121,110.9,121.6z M108.4,117.2c-0.4-0.1-0.8-0.1-1.2-0.1h-0.7v4.8h0.6c0.5,0,1,0,1.5-0.1
				c1.1-0.3,1.3-1.4,1.3-2.4C109.9,118.4,109.5,117.4,108.4,117.2z"/>
			<path fill="#FFFFFF" d="M112.3,123.1v-7.3h5.1v1.2h-3.8v1.7h3.5v1.2h-3.5v2h4.1v1.2H112.3z"/>
			<path fill="#FFFFFF" d="M122.6,117.1v1.8h3v1.2h-3v3.1h-1.3v-7.3h4.8v1.2H122.6z"/>
			<path fill="#FFFFFF" d="M130.7,123.1l-1.4-2.7h-1.2v2.7h-1.3v-7.3h2.7c0.9,0,1.7,0.1,2.2,0.9c0.3,0.4,0.4,0.9,0.4,1.4
				c0,0.9-0.5,1.7-1.4,2l1.6,3H130.7z M129.4,117c-0.4,0-0.8,0-1.3,0v2.3h0.9c0.8,0,1.7-0.1,1.7-1.2
				C130.7,117.3,130.1,117,129.4,117z"/>
			<path fill="#FFFFFF" d="M138.8,121.6c-0.4,1.2-1.7,1.7-2.8,1.7c-1.2,0-2.4-0.5-2.8-1.7c-0.1-0.4-0.1-0.8-0.1-1.2v-4.5h1.4v4.7
				c0,0.2,0,0.5,0.1,0.7c0.3,0.6,0.8,0.8,1.5,0.8c0.6,0,1.2-0.2,1.5-0.9c0.1-0.3,0.1-0.6,0.1-0.9v-4.4h1.3v4.7
				C139,120.9,139,121.3,138.8,121.6z"/>
			<path fill="#FFFFFF" d="M143.1,117.1v6.1h-1.3v-6.1h-2v-1.2h5.3v1.2H143.1z"/>
			<path fill="#FFFFFF" d="M149.5,123.1l-0.4-1.4h-2.7l-0.4,1.4h-1.4l2.4-7.3h1.5l2.5,7.3H149.5z M147.8,117.2l-1,3.4h2L147.8,117.2
				z"/>
			<path fill="#FFFFFF" d="M102.5,131v2.9h-1.3V131l-2.4-4.4h1.5l1.6,3l1.6-3h1.5L102.5,131z"/>
			<path fill="#FFFFFF" d="M111.5,134.1c-2.1,0-3.4-1.8-3.4-3.8c0-2.1,1.3-3.9,3.5-3.9c0.7,0,1.3,0.2,1.9,0.6c1.1,0.7,1.6,2,1.6,3.3
				C114.9,132.3,113.6,134.1,111.5,134.1z M113.6,130.3c0-1.3-0.6-2.7-2.1-2.7c-1.4,0-2.1,1.2-2.1,2.5c0,0.4,0.1,0.8,0.2,1.2
				c0.3,0.8,1,1.4,1.9,1.4c0.8,0,1.6-0.6,1.9-1.3C113.5,131.1,113.6,130.8,113.6,130.3L113.6,130.3z M111.8,125.9h-0.9l0.5-1.2h1.5
				L111.8,125.9z"/>
			<path fill="#FFFFFF" d="M120,133.9l-1.4-2.7h-1.2v2.7H116v-7.3h2.7c0.9,0,1.7,0.1,2.2,0.9c0.3,0.4,0.4,0.9,0.4,1.4
				c0,0.9-0.5,1.7-1.4,2l1.6,3H120z M118.6,127.8c-0.4,0-0.8,0-1.3,0v2.3h0.9c0.8,0,1.7-0.1,1.7-1.2
				C120,128.1,119.3,127.8,118.6,127.8z"/>
			<path fill="#FFFFFF" d="M127.4,133.9v-0.6c-0.6,0.5-1.2,0.8-1.9,0.8c-2.2,0-3.4-1.7-3.4-3.8c0-2.1,1.3-3.9,3.5-3.9
				c1.4,0,2.5,0.8,3,2.1l-1.3,0.5c-0.3-0.8-0.8-1.4-1.7-1.4c-1.5,0-2,1.3-2,2.6c0,0.9,0.3,1.9,1.2,2.3c0.3,0.1,0.6,0.2,0.9,0.2
				c0.8,0,1.4-0.4,1.7-1.1c0.1-0.2,0.1-0.4,0.1-0.5h-1.8v-1.2h3v4H127.4z"/>
			<path fill="#FFFFFF" d="M134.1,133.9l-0.4-1.4H131l-0.4,1.4h-1.4l2.4-7.3h1.5l2.5,7.3H134.1z M132.3,127.9l-1,3.4h2L132.3,127.9z
				"/>
			<path fill="#FFFFFF" d="M140.7,133.9l-3.2-5.1l0.1,5.1h-1.3v-7.3h1.2l3.2,5.1l-0.2-5.1h1.3v7.3H140.7z"/>
			<path fill="#FFFFFF" d="M146.4,134.1c-2.1,0-3.4-1.8-3.4-3.8c0-2.1,1.3-3.9,3.5-3.9c0.7,0,1.3,0.2,1.9,0.6c1.1,0.7,1.6,2,1.6,3.3
				C149.9,132.3,148.6,134.1,146.4,134.1z M148.5,130.3c0-1.3-0.6-2.7-2.1-2.7c-1.4,0-2.1,1.2-2.1,2.5c0,0.4,0.1,0.8,0.2,1.2
				c0.3,0.8,1,1.4,1.9,1.4c0.8,0,1.6-0.6,1.9-1.3C148.4,131.1,148.5,130.8,148.5,130.3L148.5,130.3z"/>
			<path fill="#FFFFFF" d="M153.5,134.1c-0.9,0-1.9-0.3-2.6-0.9c-0.2-0.2-0.4-0.4-0.5-0.6l1.1-0.8c0.1,0.1,0.1,0.2,0.2,0.3
				c0.5,0.6,1.2,0.8,2,0.8c0.6,0,1.4-0.2,1.4-1c0-0.7-0.8-0.8-1.4-1l-0.9-0.2c-0.2-0.1-0.4-0.1-0.7-0.2c-0.9-0.3-1.4-0.9-1.4-1.9
				c0-1.6,1.5-2.3,2.9-2.3c1,0,1.9,0.4,2.7,1.2c0.1,0.1,0.2,0.2,0.2,0.3l-1.1,0.8c-0.4-0.7-1-1.1-1.8-1.1c-0.5,0-1.4,0.2-1.4,0.9
				c0,0.7,0.8,0.8,1.3,0.9c1.4,0.3,3.1,0.5,3.1,2.3C156.6,133.5,154.9,134.1,153.5,134.1z"/>
			<path fill="#FFFFFF" d="M105.4,143.1c-0.8,1.4-1.9,1.5-3.4,1.5h-2.3v-7.3h2.6c0.4,0,0.9,0,1.4,0.2c1.5,0.5,2.2,2,2.2,3.6
				C105.9,141.7,105.7,142.5,105.4,143.1z M103,138.7c-0.4-0.1-0.8-0.1-1.2-0.1h-0.7v4.8h0.6c0.5,0,1,0,1.5-0.1
				c1.1-0.3,1.3-1.4,1.3-2.4C104.4,139.9,104,139,103,138.7z"/>
			<path fill="#FFFFFF" d="M106.9,144.7v-7.3h5.1v1.2h-3.8v1.7h3.5v1.2h-3.5v2h4.1v1.2H106.9z"/>
			<path fill="#FFFFFF" d="M119.8,144.7l-1.4-2.7h-1.2v2.7h-1.3v-7.3h2.7c0.9,0,1.7,0.1,2.2,0.9c0.3,0.4,0.4,0.9,0.4,1.4
				c0,0.9-0.5,1.7-1.4,2l1.6,3H119.8z M118.4,138.5c-0.4,0-0.8,0-1.3,0v2.3h0.9c0.8,0,1.7-0.1,1.7-1.2
				C119.8,138.8,119.1,138.5,118.4,138.5z"/>
			<path fill="#FFFFFF" d="M122.2,144.7v-7.3h5.1v1.2h-3.8v1.7h3.5v1.2h-3.5v2h4.1v1.2H122.2z"/>
			<path fill="#FFFFFF" d="M130.9,144.8c-0.9,0-1.9-0.3-2.6-0.9c-0.2-0.2-0.4-0.4-0.5-0.6l1.1-0.8c0.1,0.1,0.1,0.2,0.2,0.3
				c0.5,0.6,1.2,0.8,2,0.8c0.6,0,1.4-0.2,1.4-1c0-0.7-0.8-0.8-1.4-1l-0.9-0.2c-0.2-0.1-0.4-0.1-0.7-0.2c-0.9-0.3-1.4-0.9-1.4-1.9
				c0-1.6,1.5-2.3,2.9-2.3c1,0,1.9,0.4,2.7,1.2c0.1,0.1,0.2,0.2,0.2,0.3l-1.1,0.8c-0.4-0.7-1-1.1-1.8-1.1c-0.5,0-1.4,0.2-1.4,0.9
				c0,0.7,0.8,0.8,1.3,0.9c1.4,0.3,3.1,0.5,3.1,2.3C134,144.3,132.3,144.8,130.9,144.8z"/>
			<path fill="#FFFFFF" d="M134.9,144.7v-7.3h5.1v1.2h-3.8v1.7h3.5v1.2h-3.5v2h4.1v1.2H134.9z"/>
			<path fill="#FFFFFF" d="M145.1,144.7l-1.4-2.7h-1.2v2.7h-1.3v-7.3h2.7c0.9,0,1.7,0.1,2.2,0.9c0.3,0.4,0.4,0.9,0.4,1.4
				c0,0.9-0.5,1.7-1.4,2l1.6,3H145.1z M143.7,138.5c-0.4,0-0.8,0-1.3,0v2.3h0.9c0.8,0,1.7-0.1,1.7-1.2
				C145.1,138.8,144.5,138.5,143.7,138.5z"/>
			<path fill="#FFFFFF" d="M150.7,144.7h-1.8l-2.1-7.3h1.4l1.6,5.8l1.6-5.8h1.4L150.7,144.7z"/>
			<path fill="#FFFFFF" d="M157.7,144.7l-0.4-1.4h-2.7l-0.4,1.4h-1.4l2.4-7.3h1.5l2.5,7.3H157.7z M156,138.7l-1,3.4h2L156,138.7z"/>
		</g>
	</g>
	<g>
		<g>
			<path fill="#FFFFFF" d="M101.7,321.2l0.1-6l-1.6,6H99l-1.6-6l0.1,6h-1.3v-7.3h2l1.4,5.4l1.4-5.4h1.9v7.3H101.7z"/>
			<path fill="#FFFFFF" d="M108.6,321.2l-0.4-1.4h-2.7l-0.4,1.4h-1.4l2.4-7.3h1.5l2.5,7.3H108.6z M106.9,315.2l-1,3.4h2L106.9,315.2
				z"/>
			<path fill="#FFFFFF" d="M113.2,318.3v2.9h-1.3v-2.9l-2.4-4.4h1.5l1.6,3l1.6-3h1.5L113.2,318.3z"/>
			<path fill="#FFFFFF" d="M118.9,321.3c-2.1,0-3.4-1.8-3.4-3.8c0-2.1,1.3-3.9,3.5-3.9c0.7,0,1.3,0.2,1.9,0.6c1.1,0.7,1.6,2,1.6,3.3
				C122.4,319.6,121.1,321.3,118.9,321.3z M121.1,317.6c0-1.3-0.6-2.7-2.1-2.7c-1.4,0-2.1,1.2-2.1,2.5c0,0.4,0.1,0.8,0.2,1.2
				c0.3,0.8,1,1.4,1.9,1.4c0.8,0,1.6-0.6,1.9-1.3C121,318.4,121.1,318,121.1,317.6L121.1,317.6z"/>
			<path fill="#FFFFFF" d="M127.5,321.2l-1.4-2.7h-1.2v2.7h-1.3v-7.3h2.7c0.9,0,1.7,0.1,2.2,0.9c0.3,0.4,0.4,0.9,0.4,1.4
				c0,0.9-0.5,1.7-1.4,2l1.6,3H127.5z M126.1,315c-0.4,0-0.8,0-1.3,0v2.3h0.9c0.8,0,1.7-0.1,1.7-1.2
				C127.5,315.3,126.8,315,126.1,315z"/>
			<path fill="#FFFFFF" d="M135.8,321.2H134l-2.1-7.3h1.4l1.6,5.8l1.6-5.8h1.4L135.8,321.2z"/>
			<path fill="#FFFFFF" d="M138.6,321.2v-7.3h1.3v7.3H138.6z"/>
			<path fill="#FFFFFF" d="M146.9,319.6c-0.8,1.4-1.9,1.5-3.4,1.5h-2.3v-7.3h2.6c0.4,0,0.9,0,1.4,0.2c1.5,0.5,2.2,2,2.2,3.6
				C147.4,318.2,147.2,319,146.9,319.6z M144.5,315.2c-0.4-0.1-0.8-0.1-1.2-0.1h-0.7v4.8h0.6c0.5,0,1,0,1.5-0.1
				c1.1-0.3,1.3-1.4,1.3-2.4C146,316.4,145.6,315.5,144.5,315.2z"/>
			<path fill="#FFFFFF" d="M152.6,321.2l-0.4-1.4h-2.7l-0.4,1.4h-1.4l2.4-7.3h1.5l2.5,7.3H152.6z M150.9,315.2l-1,3.4h2L150.9,315.2
				z"/>
			<path fill="#FFFFFF" d="M101.5,330.4c-0.8,1.4-1.9,1.5-3.4,1.5h-2.3v-7.3h2.6c0.4,0,0.9,0,1.4,0.2c1.5,0.5,2.2,2,2.2,3.6
				C102,329,101.8,329.8,101.5,330.4z M99.1,325.9c-0.4-0.1-0.8-0.1-1.2-0.1h-0.7v4.8h0.6c0.5,0,1,0,1.5-0.1
				c1.1-0.3,1.3-1.4,1.3-2.4C100.5,327.2,100.1,326.2,99.1,325.9z"/>
			<path fill="#FFFFFF" d="M103,331.9v-7.3h5.1v1.2h-3.8v1.7h3.5v1.2h-3.5v2h4.1v1.2H103z"/>
			<path fill="#FFFFFF" d="M116.1,331.9l-0.4-1.4H113l-0.4,1.4h-1.4l2.4-7.3h1.5l2.5,7.3H116.1z M114.4,325.9l-1,3.4h2L114.4,325.9z
				"/>
			<path fill="#FFFFFF" d="M122.7,331.9l-3.2-5.1l0.1,5.1h-1.3v-7.3h1.2l3.2,5.1l-0.2-5.1h1.3v7.3H122.7z"/>
			<path fill="#FFFFFF" d="M129.5,331.9l-0.4-1.4h-2.7l-0.4,1.4h-1.4l2.4-7.3h1.5l2.5,7.3H129.5z M127.8,325.9l-1,3.4h2L127.8,325.9
				z"/>
			<path fill="#FFFFFF" d="M138.5,332.2c-0.5-0.1-1.2-0.5-1.5-0.9c-0.6,0.5-1.5,0.8-2.3,0.8c-2.2,0-3.4-1.8-3.4-3.8
				c0-2.1,1.2-3.8,3.4-3.8c2.2,0,3.5,1.6,3.5,3.8c0,0.7-0.2,1.6-0.5,2.2c0.1,0.3,0.8,0.6,1.1,0.6c0.1,0,0.1,0,0.1,0L138.5,332.2z
				 M134.6,325.7c-1.3,0-2,1.4-2,2.6c0,1.2,0.7,2.5,2.1,2.5c1.4,0,1.9-1.4,1.9-2.6C136.7,327,136,325.7,134.6,325.7z"/>
			<path fill="#FFFFFF" d="M145,330.4c-0.4,1.2-1.7,1.7-2.8,1.7c-1.2,0-2.4-0.5-2.8-1.7c-0.1-0.4-0.1-0.8-0.1-1.2v-4.5h1.4v4.7
				c0,0.2,0,0.5,0.1,0.7c0.3,0.6,0.8,0.8,1.5,0.8c0.6,0,1.2-0.2,1.5-0.9c0.1-0.3,0.1-0.6,0.1-0.9v-4.4h1.3v4.7
				C145.2,329.6,145.1,330.1,145,330.4z"/>
			<path fill="#FFFFFF" d="M146.6,331.9v-7.3h5.1v1.2h-3.8v1.7h3.5v1.2h-3.5v2h4.1v1.2H146.6z"/>
			<path fill="#FFFFFF" d="M152.8,331.9v-7.3h1.4v6.1h2.9v1.2H152.8z"/>
		</g>
	</g>
	<g>
		<g>
			<g>
				<g>
					<path fill="#006725" d="M168.9,203.4l-1.2,6.2c-2.6-0.8-5.3-1.2-8.1-1.2c-4.5,0-8,1.3-10.5,3.9c-2.5,2.6-3.7,5.6-3.7,9.1
						c0,2.7,0.9,4.9,2.6,6.5c1.7,1.6,4,2.4,7,2.4c3.6,0,7.6-1.3,12.1-3.9l-1,7.4c-4,1.8-7.9,2.6-11.7,2.6c-4.8,0-8.8-1.4-11.8-4.2
						c-3-2.8-4.5-6.5-4.5-11c0-5.6,2-10.1,6.1-13.7c4-3.5,9.3-5.3,15.7-5.3C162.6,202.2,165.6,202.6,168.9,203.4z"/>
					<path fill="#006725" d="M201.2,214.1l-0.5,3.2l0.1,0.1c2-2.4,3.8-3.7,5.4-3.7c1.2,0,2.6,0.8,3.9,2.4l-3.1,6.1
						c-1.1-1.6-2.1-2.4-3.1-2.4c-0.9,0-1.8,0.5-2.6,1.4c-0.9,0.9-1.3,1.5-1.4,1.9l-1.8,13.2h-6.6l3.1-22.2H201.2z"/>
				</g>
			</g>
			<g>
				<path fill="#6EBB20" d="M274.6,202.7c-0.4,0.2-0.8,0.5-1.1,0.7c0,0-0.1,0.1-0.1,0.1c-1.6,1.2-2.2,2.5-2.3,3.8
					c0,0.4-0.1,0.7,0,1.1c0.1,1.5,0.7,2.6,0.7,2.6c0,0,0,0,0.1,0c1,0,1.9-0.2,2.8-0.3c0.2,0,0.3-0.1,0.5-0.1
					c0.6-0.1,1.1-0.3,1.7-0.5c0.2-0.1,0.4-0.2,0.6-0.2c6.8-2.9,7.7-10.3,6.9-13.5c0,0,0,0,0,0C281.7,198.6,280.5,199.6,274.6,202.7z
					"/>
			</g>
			<g>
				<path fill="#006725" d="M167.6,236.4l6.2-32.3h6.6l-2.5,12.9h0.1c1.9-2,4.2-3.4,7.2-3.4c3.5,0,5.6,2.2,5.6,6c0,1-0.2,2.7-0.4,4
					l-2.4,12.7h-6.6l2.3-12.2c0.2-0.9,0.3-1.8,0.3-2.7c0-1.5-0.6-2.5-2.2-2.5c-2.3,0-4.7,2.8-5.5,7.3l-2,10.2H167.6z"/>
			</g>
			<path fill="#006725" d="M240,214.2l-0.4,2.5c2.5-1.9,5-2.9,7.6-2.9c1.9,0,3.4,0.6,4.5,1.8c1,1.2,1.5,2.9,1.5,5c0,0.6,0,1.3-0.1,2
				l-1.9,13.7h-6.6l1.9-13.2c0.1-0.4,0.1-0.8,0.1-1.1c0-2.2-0.7-3.3-2.1-3.3c-1.6,0-3.4,1.1-5.6,3.4l-2,14.3h-6.6l3.2-22.2H240z"/>
			<g>
				<path fill="#006725" d="M230.1,222.7c0,7.9-5.4,13.7-12.9,13.7c-5.5,0-9.1-3.6-9.1-9c0-7.5,5.2-13.6,12.9-13.6
					C226.8,213.8,230.1,217.8,230.1,222.7z M214.7,227.3c0,2.5,1.2,4.2,3.5,4.2c3.4,0,5.4-5.1,5.4-8.8c0-2-0.9-4.1-3.4-4.1
					C216.5,218.6,214.7,224,214.7,227.3z"/>
			</g>
			<path fill="#006725" d="M302.1,214.7l-0.7,4c-0.8-0.6-1.8-1.1-2.8-1.4c-1.1-0.4-2-0.6-2.8-0.6c-0.9,0-1.7,0.2-2.3,0.7
				c-0.6,0.5-0.9,1.1-0.9,1.8c0,0.4,0.2,0.9,0.5,1.3c0.3,0.4,1.4,1.2,3.2,2.3c1.8,1.1,3,2.1,3.7,3.2c0.6,1,0.9,2.1,0.9,3.3
				c0,2-0.7,3.7-2.1,5c-1.4,1.3-3.3,2-5.6,2c-3,0-5.6-0.7-7.7-2.2l0.7-4c1,0.7,2.1,1.3,3.3,1.7c1.2,0.4,2.3,0.6,3.2,0.6
				c1,0,1.8-0.2,2.4-0.7c0.6-0.5,0.9-1.1,0.9-1.8c0-0.5-0.2-1-0.6-1.6c-0.4-0.5-1.5-1.4-3.3-2.5c-1.8-1.1-3-2.2-3.6-3.1
				c-0.6-1-0.9-1.9-0.9-3c0-2,0.8-3.6,2.3-4.9c1.5-1.3,3.4-2,5.7-2S300,213.5,302.1,214.7z"/>
		</g>
		<g>
			<path fill="#FFFFFF" d="M262.1,249l-0.2-0.8l0.3-0.7c0.2-0.1,0.3-0.2,0.5-0.4c0.2-0.2,0.3-0.4,0.5-0.6c0.2-0.3,0.4-0.7,0.6-1
				l0.1-0.2c-0.1-0.4-0.2-0.9-0.3-1.4c-0.1-1.4,0.4-2.7,1.3-3.7l1-1l0.6-0.2l0.7,0.2l0.4,0.5l0.3,1.4c0.3,3.4-2.3,6.5-2.7,6.8
				c-0.3,0.3-0.7,0.7-1.2,1l-0.2,0.1c-0.3,0.2-0.7,0.4-1.2,0.5L262.1,249z"/>
			<path fill="#C31C2A" d="M263.6,248.5c0.1,0,0.1-0.1,0.2-0.1c0.4-0.2,0.8-0.6,1-0.9c0.3-0.3,2.8-3.2,2.5-6.3l-0.3-1.4l-0.7-0.2
				l-1,1c-0.8,0.8-1.2,2-1.2,3.2c0,0.6,0.2,1.1,0.4,1.5l0,0c-0.1,0.1-0.2,0.3-0.3,0.4c-0.2,0.3-0.4,0.7-0.7,1
				c-0.2,0.3-0.4,0.5-0.5,0.7c-0.2,0.3-0.4,0.4-0.6,0.6l0.2,0.8C263,248.8,263.3,248.6,263.6,248.5z"/>
			<path fill="#C31C2A" d="M268.9,248.7c0.5-0.6,0.9-1.2,1.2-2.1c0.1-0.4,0.2-0.7,0.3-1.1c0.1-0.3,0.2-0.7,0.3-1l-0.8-0.3
				c-0.2,0.3-0.3,0.7-0.4,1.1c-0.1,0.3-0.2,0.7-0.4,1c-0.3,0.7-0.7,1.2-1.2,1.7c-0.9,0.9-2.3,1.5-4,1.9c-1.1,0.2-2.4,0.3-3.8,0.3
				c-0.3,0-0.7,0-1,0c-1.6-0.1-3.2-0.2-4.9-0.5c-1.7-0.3-3.3-0.6-4.9-0.9l-0.2,0c-1.6-0.3-3.2-0.7-4.9-0.8c-0.4,0-0.8,0-1.2,0
				c-1.5,0-2.9,0.2-4.3,0.5c-0.3,0.1-0.6,0.2-1,0.3c0.3-0.7,0.6-1.4,1-2.2c0.7-1.6,1.2-3.3,1.6-4.5c0.5-1.7,1-3.2,1.3-4.6
				c0.2-0.9,0.4-1.6,0.5-2.4l0-0.1c0.1-0.8,0.2-1.6,0.1-2.5l-0.3-3l-0.8-0.1c0,0.1-1.8,7.1-3.6,9.4c-1.6,2.1-5,5-12,7.2
				c-2.3,0.7-6,1.4-11.1,1.9l-0.3,0c-1.4,0.2-2.6,0.3-3.8,0.3c-0.6,0-1.2,0-1.9,0c-1.9,0-3.9-0.1-5.8-0.4c-2.2-0.3-4.6-0.7-7.6-1.4
				c-1.4-0.4-2.5-0.7-3.5-1.2c-1-0.5-2-1.2-2.9-2.1l-0.6,0.6c0.9,1,1.9,1.8,2.9,2.4c1,0.6,2.1,1.1,3.7,1.5c1.2,0.4,2.4,0.7,3.8,1
				c1.3,0.3,2.6,0.6,3.9,0.8c2.5,0.4,5.1,0.6,7.7,0.6l0.3,0c1.4,0,2.7-0.1,4-0.2c0.9-0.1,1.9-0.2,2.8-0.3c0.4,0,2.3-0.3,2.3-0.3
				c2.2-0.3,4.5-0.5,6.8-1.2c2.3-0.6,4.6-1.7,7.3-3.3c0.3-0.2,0.5-0.3,0.8-0.5c0.3-0.2,0.6-0.4,0.9-0.6c0.5-0.4,1-0.9,1.5-1.4
				c0.2-0.2,0.5-0.6,0.7-0.9c-3.3,10-7,12.5-7,12.5l0.4,0.7l4.4-2.3c3-1.6,5.6-2.3,8.1-2.3c0.2,0,0.4,0,0.7,0
				c1.5,0.1,3.1,0.3,4.8,0.6c1.5,0.3,3.2,0.5,5,0.7c1.8,0.2,3.4,0.3,4.8,0.3l0.4,0c2,0,3.7-0.2,5.2-0.6
				C265.8,250.9,267.7,250.2,268.9,248.7z"/>
			<path fill="#C31C2A" d="M281.4,231.9c-1.1,0.5-1.9,1.2-2.5,2c-0.5,0.8-0.9,1.7-1.1,2.9c0,0.1,0,0.2,0,0.2
				c2.8-1.3,5.3-3.5,6.9-6.1C283.6,231.1,282.4,231.4,281.4,231.9z"/>
			<path fill="#C31C2A" d="M282.5,238.2c0.4-0.4,1-1.1,0.8-1.9l-0.8-0.1c-0.2,0.3-0.5,0.6-1,0.8c-0.5,0.2-1,0.4-1.5,0.5
				c-0.9,0.2-1.9,0.4-3,0.5c0-0.5,0.1-0.9,0.2-1.3c0.2-1.3,0.6-2.3,1.2-3.2c0.6-0.9,1.6-1.7,2.7-2.2c1.3-0.6,2.8-0.9,4.1-1.1l0-0.8
				c-0.5-0.1-1-0.1-1.5-0.1c-1.1,0-2.2,0.1-3.2,0.4c-0.8,0.2-1.6,0.6-2.3,1c-0.6,0.4-1.3,0.9-1.8,1.6c-0.9,1-1.5,2.3-1.9,4
				c-0.1,0.6-0.2,1.2-0.3,1.9c-0.2,0-0.5,0-0.7,0c-0.9-0.1-2.1-0.2-3.3-0.7l-0.5,0.6c0.8,1.1,2.3,1.6,3.4,1.9
				c0.3,0.1,0.6,0.1,0.9,0.2l0,0.2c0,0.6-0.1,1.2-0.1,1.8c0,0.3-0.1,0.6-0.1,0.8l-0.2,0.9c-0.2,1.1-0.4,2.3-0.9,3.4
				c-0.5,1.1-1.2,2.1-2.1,2.8c-0.5,0.4-1.1,0.8-1.6,1c-0.3,0.1-0.6,0.2-0.9,0.2c-0.3,0-0.6-0.1-0.8-0.2l-0.5,0.6
				c0.3,0.3,0.7,0.6,1.2,0.7c0.2,0,0.4,0.1,0.6,0.1c0.2,0,0.5,0,0.7-0.1c0.9-0.2,1.7-0.5,2.3-0.9c0.7-0.4,1.3-0.9,1.9-1.4
				c0.5-0.5,1-1.1,1.4-1.8c0.8-1.3,1.2-2.7,1.5-3.9c0.1-0.3,0.1-0.6,0.2-0.9l0-0.1c0.1-0.4,0.1-0.7,0.2-1.1c0.1-0.5,0.1-1,0.1-1.6
				l0-0.5c0,0,0.1,0,0.1,0c1.4-0.1,2.7-0.4,3.8-0.9C281.4,239,282,238.6,282.5,238.2z"/>
			<path fill="#C31C2A" d="M313,242.5c-0.4-0.5-1-0.9-1.7-1.2c-1-0.4-2.2-0.6-3.7-0.6c-0.2,0-0.3,0-0.5,0c-1.3,0.1-2.6,0.3-4,0.6
				c-0.7,0.2-1.3,0.4-2,0.6c-0.6,0.2-1.2,0.5-1.8,0.8c-1.3,0.6-2.5,1.3-3.6,2c-1,0.6-1.9,1.1-2.8,1.6c-2.3,1.2-4.4,1.9-6.6,2.1
				c-0.6,0.1-1.2,0.1-1.7,0.1c-0.6,0-1.1,0-1.6-0.1c-0.3,0-0.5-0.1-0.7-0.2c0.2-0.1,0.4-0.3,0.5-0.4c0.4-0.4,0.9-0.8,1.4-1.3
				c0.4-0.4,0.8-0.9,1.2-1.5c0.4-0.6,0.6-1.1,0.8-1.7c0.1-0.4,0.2-0.7,0.2-1c0-0.1,0-0.2,0-0.3l0-0.1c0-0.1,0-0.1,0-0.2
				c0-0.3-0.1-0.5-0.3-0.7c-0.3-0.5-0.9-0.9-1.5-1c-0.2,0-0.4,0-0.6,0c-0.3,0-0.6,0-0.9,0.1c-0.7,0.2-1.4,0.4-2.1,0.9
				c-0.3,0.2-0.6,0.4-0.9,0.6c-0.3,0.2-0.6,0.5-0.8,0.8c-0.4,0.5-0.8,1.2-1,1.9c-0.4,1.4-0.3,2.8,0.3,4c0.2,0.3,0.4,0.7,0.6,0.9
				l0.1,0.2l0.2,0.2l0.1,0.1c0.2,0.2,0.4,0.3,0.6,0.4c0.6,0.4,1.4,0.7,2.3,0.8c0.7,0.1,1.5,0.2,2.3,0.2c0.6,0,1.2,0,2-0.1
				c1.4-0.1,2.8-0.5,4.1-0.9c1.2-0.4,2.5-1,3.6-1.7c1.1-0.7,2.2-1.4,3.2-2c1-0.7,2-1.3,2.9-1.9c0.5-0.3,1-0.6,1.6-0.8
				c0.4-0.2,0.9-0.4,1.6-0.6c1.2-0.4,2.3-0.7,3.5-0.8c0.5-0.1,1.1-0.1,1.5-0.1c0.7,0,1.4,0.1,1.9,0.2c0.5,0.2,1,0.4,1.4,0.7
				c0.3,0.3,0.6,0.7,0.8,1.2l0.8-0.2C313.7,243.6,313.4,243,313,242.5z M281.3,247.5c0-0.1-0.1-0.1-0.1-0.2
				c-0.4-0.7-0.5-1.6-0.3-2.4c0.1-0.4,0.3-0.8,0.5-1.1c0.1-0.2,0.3-0.3,0.4-0.5c0.2-0.2,0.4-0.3,0.6-0.5c0.4-0.3,0.9-0.5,1.3-0.6
				c0.1,0,0.3-0.1,0.4-0.1l0,0c0,0,0,0.1,0,0.1l0,0l0,0c0,0,0,0.1,0,0.1c0,0.2,0,0.4-0.1,0.6c-0.1,0.4-0.2,0.8-0.5,1.4
				c-0.4,0.8-1,1.7-1.9,2.6C281.7,247.2,281.5,247.3,281.3,247.5z"/>
			<ellipse fill="#C31C2A" cx="266.6" cy="236.8" rx="1.1" ry="1.2"/>
			<path fill="#C31C2A" d="M279.8,209.9l-2.7,4.2c3.3,1.7,5.4,5.2,5.2,9.3c-0.1,1.5-0.5,2.9-1.1,4.1c-2.8-0.8-5.2-0.9-7.4-0.7
				c-3.3-6.5-2-16.6-2-16.6s0,0-0.4,0.2c-1.4,9-0.6,14.5-0.1,16.9c-1.2,0.3-2.3,0.6-3.5,1c-2,0.7-3.8,0.5-5.2,0.1
				c-0.7-1.5-1.1-3.2-1-5c0.3-4.1,2.8-7.6,6.3-9.3l-2.2-4.2c-5,2.5-8.7,7.6-9,13.5c-0.4,6.2,3,11.5,8.2,13.9c0-0.2-0.1-0.3-0.1-0.5
				c0-1,0.8-1.9,1.7-1.9c1,0,1.7,0.8,1.7,1.9c0,0.6-0.2,1.1-0.6,1.4c0.5,0.1,0.9,0.2,1.4,0.2c0,0,0,0,0,0l0-0.8l0.5-0.6l0.7-0.2
				c1.1,0.4,2.2,0.6,3.1,0.6c0,0,0.1,0,0.1,0c0.1-0.5,0.2-0.9,0.3-1.4c0.4-1.7,1.1-3.1,2.1-4.2c0.6-0.7,1.3-1.3,2-1.7
				c0.7-0.4,1.5-0.8,2.4-1c1.1-0.3,2.2-0.4,3.4-0.4c0.5,0,1.1,0,1.6,0.1l0.4,0.4c0.9-1.8,1.4-3.8,1.5-5.8
				C287.5,217.5,284.5,212.5,279.8,209.9z"/>
		</g>
		<g>
			<path fill="#C31C2A" d="M307,243.6c1.8,0,3.2,1.4,3.2,3.2c0,1.8-1.4,3.2-3.3,3.2c-1.8,0-3.3-1.4-3.3-3.2
				C303.7,245,305.1,243.6,307,243.6L307,243.6z M306.9,244.3c-1.4,0-2.4,1.1-2.4,2.5c0,1.4,1,2.5,2.5,2.5c1.4,0,2.4-1.1,2.4-2.5
				C309.4,245.4,308.4,244.3,306.9,244.3L306.9,244.3z M306.4,248.5h-0.7v-3.2c0.3-0.1,0.7-0.1,1.2-0.1c0.6,0,0.9,0.1,1.1,0.3
				c0.2,0.1,0.3,0.4,0.3,0.7c0,0.4-0.3,0.6-0.7,0.8v0c0.3,0.1,0.5,0.4,0.6,0.8c0.1,0.5,0.2,0.7,0.2,0.8h-0.8
				c-0.1-0.1-0.2-0.4-0.3-0.8c-0.1-0.4-0.3-0.5-0.7-0.5h-0.3V248.5z M306.5,246.7h0.3c0.4,0,0.7-0.1,0.7-0.5c0-0.3-0.2-0.5-0.7-0.5
				c-0.2,0-0.3,0-0.4,0V246.7z"/>
		</g>
	</g>
	<g>
		<path fill="#006725" d="M171,260.6l2.5,6.8H172l-0.5-1.5h-2.5l-0.5,1.5h-1.5l2.6-6.8H171z M171.1,264.7l-0.9-2.5h0l-0.9,2.5H171.1
			z"/>
		<path fill="#006725" d="M179.2,266.8c-0.5,0.4-1.2,0.7-2.1,0.7c-0.9,0-1.6-0.2-2.1-0.7s-0.8-1.1-0.8-2v-4.2h1.5v4.2
			c0,0.2,0,0.4,0,0.5s0.1,0.3,0.2,0.5c0.1,0.1,0.2,0.2,0.4,0.3c0.2,0.1,0.4,0.1,0.7,0.1c0.5,0,0.9-0.1,1.1-0.4s0.3-0.6,0.3-1.1v-4.2
			h1.5v4.2C179.9,265.7,179.7,266.4,179.2,266.8z"/>
		<path fill="#006725" d="M183.4,260.6l1.6,4.7h0l1.5-4.7h2.1v6.8h-1.4v-4.8h0l-1.7,4.8h-1.1l-1.7-4.7h0v4.7h-1.4v-6.8H183.4z"/>
		<path fill="#006725" d="M195.1,260.6v1.3h-3.6v1.5h3.3v1.2h-3.3v1.7h3.6v1.3H190v-6.8H195.1z"/>
		<path fill="#006725" d="M197.7,260.6l2.8,4.5h0v-4.5h1.4v6.8h-1.5l-2.8-4.5h0v4.5h-1.4v-6.8H197.7z"/>
		<path fill="#006725" d="M202.8,261.8v-1.3h5.5v1.3h-2v5.5h-1.5v-5.5H202.8z"/>
		<path fill="#006725" d="M211.7,260.6l2.5,6.8h-1.5l-0.5-1.5h-2.5l-0.5,1.5h-1.5l2.6-6.8H211.7z M211.8,264.7l-0.9-2.5h0l-0.9,2.5
			H211.8z"/>
		<path fill="#006725" d="M217.1,261.8v-1.3h5.5v1.3h-2v5.5h-1.5v-5.5H217.1z"/>
		<path fill="#006725" d="M228.5,266.8c-0.5,0.4-1.2,0.7-2.1,0.7c-0.9,0-1.6-0.2-2.1-0.7s-0.8-1.1-0.8-2v-4.2h1.5v4.2
			c0,0.2,0,0.4,0,0.5c0,0.2,0.1,0.3,0.2,0.5c0.1,0.1,0.2,0.2,0.4,0.3c0.2,0.1,0.4,0.1,0.7,0.1c0.5,0,0.9-0.1,1.1-0.4
			s0.3-0.6,0.3-1.1v-4.2h1.5v4.2C229.3,265.7,229,266.4,228.5,266.8z"/>
		<path fill="#006725" d="M231.8,265.7c0.1,0.2,0.2,0.3,0.3,0.4s0.3,0.2,0.5,0.2c0.2,0,0.4,0.1,0.6,0.1c0.1,0,0.3,0,0.4,0
			s0.3-0.1,0.4-0.1s0.2-0.2,0.3-0.3c0.1-0.1,0.1-0.3,0.1-0.4c0-0.2-0.1-0.3-0.2-0.4c-0.1-0.1-0.3-0.2-0.5-0.3s-0.4-0.1-0.6-0.2
			s-0.5-0.1-0.7-0.2c-0.3-0.1-0.5-0.1-0.7-0.2c-0.2-0.1-0.5-0.2-0.6-0.4c-0.2-0.1-0.3-0.3-0.5-0.5c-0.1-0.2-0.2-0.5-0.2-0.8
			c0-0.3,0.1-0.6,0.2-0.9s0.3-0.5,0.6-0.6c0.2-0.2,0.5-0.3,0.8-0.4c0.3-0.1,0.6-0.1,0.9-0.1c0.4,0,0.7,0,1,0.1s0.6,0.2,0.9,0.4
			s0.5,0.4,0.6,0.7c0.1,0.3,0.2,0.6,0.2,1h-1.4c0-0.2-0.1-0.4-0.1-0.5c-0.1-0.1-0.2-0.2-0.3-0.3c-0.1-0.1-0.3-0.1-0.4-0.2
			c-0.2,0-0.3,0-0.5,0c-0.1,0-0.2,0-0.4,0s-0.2,0.1-0.3,0.1c-0.1,0.1-0.2,0.1-0.2,0.2s-0.1,0.2-0.1,0.4c0,0.1,0,0.2,0.1,0.3
			c0,0.1,0.1,0.2,0.3,0.2s0.4,0.1,0.6,0.2c0.3,0.1,0.6,0.2,1,0.3c0.1,0,0.3,0.1,0.5,0.1c0.2,0.1,0.4,0.2,0.7,0.3
			c0.2,0.1,0.4,0.3,0.6,0.6s0.2,0.6,0.2,0.9c0,0.3-0.1,0.6-0.2,0.9c-0.1,0.3-0.3,0.5-0.5,0.7c-0.2,0.2-0.5,0.3-0.9,0.5
			s-0.8,0.2-1.2,0.2c-0.4,0-0.7,0-1.1-0.1c-0.4-0.1-0.7-0.2-0.9-0.4c-0.3-0.2-0.5-0.4-0.6-0.7c-0.2-0.3-0.2-0.7-0.2-1.1h1.4
			C231.7,265.3,231.7,265.5,231.8,265.7z"/>
		<path fill="#006725" d="M243.7,267.3c-0.3,0.1-0.6,0.2-1,0.2c-0.5,0-1-0.1-1.4-0.3c-0.4-0.2-0.8-0.4-1-0.7
			c-0.3-0.3-0.5-0.7-0.7-1.1c-0.2-0.4-0.2-0.9-0.2-1.4c0-0.5,0.1-1,0.2-1.4c0.2-0.4,0.4-0.8,0.7-1.1s0.6-0.6,1-0.8
			c0.4-0.2,0.9-0.3,1.4-0.3c0.3,0,0.7,0.1,1,0.2c0.3,0.1,0.6,0.3,0.9,0.5c0.3,0.2,0.5,0.5,0.6,0.7c0.2,0.3,0.3,0.6,0.3,1h-1.4
			c-0.1-0.4-0.3-0.7-0.5-0.9c-0.3-0.2-0.6-0.3-0.9-0.3c-0.3,0-0.6,0.1-0.9,0.2c-0.2,0.1-0.4,0.3-0.6,0.5c-0.1,0.2-0.3,0.5-0.3,0.7
			c-0.1,0.3-0.1,0.6-0.1,0.9c0,0.3,0,0.6,0.1,0.8s0.2,0.5,0.3,0.7s0.3,0.4,0.6,0.5c0.2,0.1,0.5,0.2,0.9,0.2c0.5,0,0.9-0.1,1.1-0.4
			c0.3-0.2,0.4-0.6,0.5-1.1h-1.5v-1.1h2.8v3.7h-0.9l-0.2-0.8C244.3,266.9,244,267.1,243.7,267.3z"/>
		<path fill="#006725" d="M250.3,260.6l2.5,6.8h-1.5l-0.5-1.5h-2.5l-0.5,1.5h-1.5l2.6-6.8H250.3z M250.4,264.7l-0.9-2.5h0l-0.9,2.5
			H250.4z"/>
		<path fill="#006725" d="M255,260.6l2.8,4.5h0v-4.5h1.4v6.8h-1.5l-2.8-4.5h0v4.5h-1.4v-6.8H255z"/>
		<path fill="#006725" d="M264,260.6l2.5,6.8H265l-0.5-1.5H262l-0.5,1.5h-1.5l2.6-6.8H264z M264.1,264.7l-0.9-2.5h0l-0.9,2.5H264.1z
			"/>
		<path fill="#006725" d="M268.7,260.6l2.8,4.5h0v-4.5h1.4v6.8h-1.5l-2.8-4.5h0v4.5h-1.4v-6.8H268.7z"/>
		<path fill="#006725" d="M278.7,262.4c-0.1-0.1-0.2-0.3-0.3-0.4s-0.3-0.2-0.5-0.3c-0.2-0.1-0.3-0.1-0.5-0.1c-0.3,0-0.6,0.1-0.9,0.2
			c-0.2,0.1-0.4,0.3-0.6,0.5c-0.1,0.2-0.3,0.5-0.3,0.7c-0.1,0.3-0.1,0.6-0.1,0.9c0,0.3,0,0.6,0.1,0.8s0.2,0.5,0.3,0.7
			s0.3,0.4,0.6,0.5c0.2,0.1,0.5,0.2,0.9,0.2c0.5,0,0.8-0.1,1.1-0.4s0.4-0.6,0.5-1.1h1.4c0,0.4-0.1,0.8-0.3,1.1
			c-0.2,0.3-0.4,0.6-0.6,0.9c-0.3,0.2-0.6,0.4-0.9,0.5c-0.3,0.1-0.7,0.2-1.1,0.2c-0.5,0-1-0.1-1.4-0.3c-0.4-0.2-0.8-0.4-1-0.7
			c-0.3-0.3-0.5-0.7-0.7-1.1c-0.2-0.4-0.2-0.9-0.2-1.4c0-0.5,0.1-1,0.2-1.4c0.2-0.4,0.4-0.8,0.7-1.1s0.6-0.6,1-0.8
			c0.4-0.2,0.9-0.3,1.4-0.3c0.4,0,0.7,0.1,1.1,0.2s0.6,0.3,0.9,0.5c0.3,0.2,0.5,0.5,0.6,0.8c0.2,0.3,0.3,0.7,0.3,1h-1.4
			C278.8,262.7,278.8,262.5,278.7,262.4z"/>
		<path fill="#006725" d="M283,260.6v6.8h-1.5v-6.8H283z"/>
		<path fill="#006725" d="M287.7,260.6l2.5,6.8h-1.5l-0.5-1.5h-2.5l-0.5,1.5h-1.5l2.6-6.8H287.7z M287.8,264.7l-0.9-2.5h0l-0.9,2.5
			H287.8z"/>
		<path fill="#006725" d="M292.1,265.7c0.1,0.2,0.2,0.3,0.3,0.4s0.3,0.2,0.5,0.2c0.2,0,0.4,0.1,0.6,0.1c0.1,0,0.3,0,0.4,0
			s0.3-0.1,0.4-0.1s0.2-0.2,0.3-0.3c0.1-0.1,0.1-0.3,0.1-0.4c0-0.2-0.1-0.3-0.2-0.4c-0.1-0.1-0.3-0.2-0.5-0.3s-0.4-0.1-0.6-0.2
			s-0.5-0.1-0.7-0.2c-0.3-0.1-0.5-0.1-0.7-0.2c-0.2-0.1-0.5-0.2-0.6-0.4c-0.2-0.1-0.3-0.3-0.5-0.5c-0.1-0.2-0.2-0.5-0.2-0.8
			c0-0.3,0.1-0.6,0.2-0.9s0.3-0.5,0.6-0.6c0.2-0.2,0.5-0.3,0.8-0.4c0.3-0.1,0.6-0.1,0.9-0.1c0.4,0,0.7,0,1,0.1s0.6,0.2,0.9,0.4
			s0.5,0.4,0.6,0.7c0.1,0.3,0.2,0.6,0.2,1h-1.4c0-0.2-0.1-0.4-0.1-0.5c-0.1-0.1-0.2-0.2-0.3-0.3c-0.1-0.1-0.3-0.1-0.4-0.2
			c-0.2,0-0.3,0-0.5,0c-0.1,0-0.2,0-0.4,0s-0.2,0.1-0.3,0.1c-0.1,0.1-0.2,0.1-0.2,0.2s-0.1,0.2-0.1,0.4c0,0.1,0,0.2,0.1,0.3
			c0,0.1,0.1,0.2,0.3,0.2s0.4,0.1,0.6,0.2c0.3,0.1,0.6,0.2,1,0.3c0.1,0,0.3,0.1,0.5,0.1c0.2,0.1,0.4,0.2,0.7,0.3
			c0.2,0.1,0.4,0.3,0.6,0.6s0.2,0.6,0.2,0.9c0,0.3-0.1,0.6-0.2,0.9c-0.1,0.3-0.3,0.5-0.5,0.7c-0.2,0.2-0.5,0.3-0.9,0.5
			s-0.8,0.2-1.2,0.2c-0.4,0-0.7,0-1.1-0.1c-0.4-0.1-0.7-0.2-0.9-0.4c-0.3-0.2-0.5-0.4-0.6-0.7c-0.2-0.3-0.2-0.7-0.2-1.1h1.4
			C292,265.3,292,265.5,292.1,265.7z"/>
	</g>
	<path fill="#1D9DD6" d="M75.5,253.4c-0.1,0-0.1,0-0.2,0c-8.7,0-16.9-3.5-23-9.7c-6.1-6.2-9.5-14.4-9.4-23.1
		c0.1-17.9,14.7-32.5,32.6-32.5c0.1,0,0.1,0,0.2,0c8.7,0,16.9,3.5,23,9.7c6.1,6.2,9.5,14.4,9.4,23.1c0,8.7-3.5,16.9-9.7,23
		C92.2,250.1,84.1,253.4,75.5,253.4z"/>
	<path fill="#FFB806" d="M378.6,254.6c-0.1,0-0.1,0-0.2,0c-8.7,0-16.9-3.5-23-9.7c-6.1-6.2-9.5-14.4-9.4-23.1
		c0.1-17.9,14.7-32.5,32.6-32.5c0.1,0,0.1,0,0.2,0c8.7,0,16.9,3.5,23,9.7c6.1,6.2,9.5,14.4,9.4,23.1c0,8.7-3.5,16.9-9.7,23
		C395.4,251.3,387.2,254.6,378.6,254.6z"/>
	<path fill="#F76C06" d="M225.9,408.6c-0.1,0-0.1,0-0.2,0c-8.7,0-16.9-3.5-23-9.7c-6.1-6.2-9.5-14.4-9.4-23.1c0-8.7,3.5-16.9,9.7-23
		c6.2-6.1,14.3-9.4,22.9-9.4c0.1,0,0.1,0,0.2,0c8.7,0,16.9,3.5,23,9.7c6.1,6.2,9.5,14.4,9.4,23.1c0,8.7-3.5,16.9-9.7,23
		C242.7,405.2,234.5,408.6,225.9,408.6z"/>
	<path fill="#6EBB20" d="M226,106.1c-0.1,0-0.1,0-0.2,0c-8.7,0-16.9-3.5-23-9.7c-6.1-6.2-9.5-14.4-9.4-23.1c0-8.7,3.5-16.9,9.7-23
		c6.2-6.1,14.3-9.4,22.9-9.4c0.1,0,0.1,0,0.2,0c18,0.1,32.6,14.8,32.5,32.8c0,8.7-3.5,16.9-9.7,23
		C242.8,102.7,234.7,106.1,226,106.1z"/>
	<g>
		<g>
			<path fill="#FFFFFF" d="M357.1,216.2v-5.6h4v0.9h-2.9v1.3h2.7v0.9h-2.7v1.5h3.1v1H357.1z"/>
			<path fill="#FFFFFF" d="M365.1,216.2l-1.3-2.1l-1.3,2.1h-1.2l1.9-3.1l-1.6-2.6h1.2l1,1.6l1-1.6h1.2l-1.6,2.6l1.9,3.1H365.1z"/>
			<path fill="#FFFFFF" d="M369,211.5v4.7h-1v-4.7h-1.5v-1h4.1v1H369z"/>
			<path fill="#FFFFFF" d="M374.2,216.2l-1.1-2.1h-0.9v2.1h-1v-5.6h2.1c0.7,0,1.3,0.1,1.7,0.7c0.2,0.3,0.3,0.7,0.3,1.1
				c0,0.7-0.4,1.4-1.1,1.6l1.2,2.3H374.2z M373.2,211.4c-0.3,0-0.6,0-1,0v1.8h0.7c0.6,0,1.4,0,1.4-0.9
				C374.2,211.7,373.7,211.4,373.2,211.4z"/>
			<path fill="#FFFFFF" d="M379.4,216.2l-0.3-1.1h-2.1l-0.3,1.1h-1.1l1.9-5.6h1.2l1.9,5.6H379.4z M378,211.5l-0.8,2.6h1.5L378,211.5
				z"/>
			<path fill="#FFFFFF" d="M383.3,216.3c-1.7,0-2.6-1.4-2.6-3c0-0.4,0-0.8,0.2-1.2c0.4-1.1,1.3-1.7,2.5-1.7c0.7,0,1.5,0.3,1.9,0.9
				c0.2,0.3,0.3,0.5,0.4,0.8l-1,0.3c-0.1-0.6-0.6-1-1.2-1c-1.1,0-1.5,1-1.5,1.9c0,0.7,0.2,1.5,0.9,1.9c0.2,0.1,0.4,0.2,0.6,0.2
				c0.7,0,1.2-0.5,1.4-1.1l1,0.4C385.3,215.7,384.4,216.3,383.3,216.3z"/>
			<path fill="#FFFFFF" d="M388.4,211.5v4.7h-1v-4.7h-1.5v-1h4.1v1H388.4z"/>
			<path fill="#FFFFFF" d="M392.7,216.3c-1.6,0-2.7-1.4-2.7-2.9c0-1.6,1-3,2.7-3c0.5,0,1,0.2,1.5,0.4c0.9,0.6,1.2,1.5,1.2,2.5
				C395.4,215,394.4,216.3,392.7,216.3z M394.3,213.4c0-1-0.5-2.1-1.6-2.1c-1.1,0-1.6,1-1.6,2c0,0.3,0,0.6,0.1,0.9
				c0.2,0.7,0.8,1.1,1.5,1.1c0.7,0,1.2-0.4,1.5-1C394.3,214,394.3,213.7,394.3,213.4L394.3,213.4z"/>
			<path fill="#FFFFFF" d="M398.2,216.3c-0.7,0-1.5-0.2-2-0.7c-0.1-0.1-0.3-0.3-0.4-0.5l0.9-0.6c0.1,0.1,0.1,0.2,0.2,0.2
				c0.4,0.4,1,0.6,1.5,0.6c0.5,0,1.1-0.2,1.1-0.7c0-0.6-0.7-0.6-1.1-0.7l-0.7-0.2c-0.2,0-0.3-0.1-0.5-0.1c-0.7-0.2-1.1-0.7-1.1-1.4
				c0-1.2,1.1-1.8,2.2-1.8c0.8,0,1.5,0.3,2.1,0.9c0.1,0.1,0.1,0.2,0.2,0.2l-0.9,0.6c-0.3-0.5-0.8-0.8-1.4-0.8
				c-0.4,0-1.1,0.2-1.1,0.7c0,0.5,0.7,0.6,1,0.7c1.1,0.2,2.4,0.4,2.4,1.8C400.6,215.9,399.3,216.3,398.2,216.3z"/>
			<path fill="#FFFFFF" d="M377.4,223.3c-0.6,1.1-1.5,1.2-2.6,1.2H373v-5.6h2c0.3,0,0.7,0,1.1,0.1c1.2,0.4,1.7,1.6,1.7,2.8
				C377.7,222.2,377.6,222.9,377.4,223.3z M375.5,219.9c-0.3-0.1-0.6-0.1-0.9-0.1H374v3.7h0.4c0.4,0,0.8,0,1.2-0.1
				c0.9-0.2,1-1,1-1.8C376.6,220.8,376.3,220.1,375.5,219.9z"/>
			<path fill="#FFFFFF" d="M378.5,224.5v-5.6h4v0.9h-2.9v1.3h2.7v0.9h-2.7v1.5h3.1v1H378.5z"/>
			<path fill="#FFFFFF" d="M366.6,230.2c-0.4,0.6-1.1,0.8-1.8,0.8h-1v1.9h-1v-5.6h2c0.7,0,1.3,0.1,1.8,0.7c0.3,0.3,0.4,0.7,0.4,1.2
				C366.9,229.4,366.8,229.8,366.6,230.2z M365.7,228.5c-0.3-0.4-0.7-0.4-1.1-0.4h-0.8v2h0.8c0.5,0,1,0,1.2-0.5
				c0.1-0.2,0.1-0.3,0.1-0.5C365.8,228.9,365.8,228.7,365.7,228.5z"/>
			<path fill="#FFFFFF" d="M367.5,232.8v-5.6h1.1v4.7h2.2v1H367.5z"/>
			<path fill="#FFFFFF" d="M374.7,232.8l-0.3-1.1h-2.1l-0.3,1.1h-1.1l1.9-5.6h1.2l1.9,5.6H374.7z M373.4,228.2l-0.8,2.6h1.5
				L373.4,228.2z"/>
			<path fill="#FFFFFF" d="M379.8,232.8l-2.4-4l0.1,4h-1v-5.6h0.9l2.5,4l-0.1-4h1v5.6H379.8z"/>
			<path fill="#FFFFFF" d="M384,228.2v4.7h-1v-4.7h-1.5v-1h4.1v1H384z"/>
			<path fill="#FFFFFF" d="M388.9,232.8l-0.3-1.1h-2.1l-0.3,1.1h-1.1l1.9-5.6h1.2l1.9,5.6H388.9z M387.6,228.2l-0.8,2.6h1.5
				L387.6,228.2z"/>
			<path fill="#FFFFFF" d="M392.6,233c-0.7,0-1.5-0.2-2-0.7c-0.1-0.1-0.3-0.3-0.4-0.5l0.9-0.6c0.1,0.1,0.1,0.2,0.2,0.2
				c0.4,0.4,1,0.6,1.5,0.6c0.5,0,1.1-0.2,1.1-0.7c0-0.6-0.7-0.6-1.1-0.7l-0.7-0.2c-0.2,0-0.3-0.1-0.5-0.1c-0.7-0.2-1.1-0.7-1.1-1.4
				c0-1.2,1.1-1.8,2.2-1.8c0.8,0,1.5,0.3,2.1,0.9c0.1,0.1,0.1,0.2,0.2,0.2l-0.9,0.6c-0.3-0.5-0.8-0.8-1.4-0.8
				c-0.4,0-1.1,0.2-1.1,0.7c0,0.5,0.7,0.6,1,0.7c1.1,0.2,2.4,0.4,2.4,1.8C395,232.5,393.7,233,392.6,233z"/>
		</g>
	</g>
	<g>
		<path fill="#006725" d="M201.7,29.9v-5.6h1v5.6H201.7z"/>
		<path fill="#006725" d="M207.2,29.9l-2.4-4l0.1,4h-1v-5.6h0.9l2.5,4l-0.1-4h1v5.6H207.2z"/>
		<path fill="#006725" d="M213.1,29.9v-0.5c-0.4,0.4-0.9,0.6-1.5,0.6c-1.7,0-2.7-1.3-2.7-2.9c0-1.6,1-3,2.7-3c1.1,0,2,0.6,2.4,1.7
			l-1,0.4c-0.2-0.6-0.6-1.1-1.3-1.1c-1.1,0-1.6,1-1.6,2c0,0.7,0.2,1.5,0.9,1.8c0.2,0.1,0.4,0.2,0.7,0.2c0.6,0,1.1-0.3,1.3-0.9
			c0-0.1,0.1-0.3,0.1-0.4h-1.4v-0.9h2.3v3.1H213.1z"/>
		<path fill="#006725" d="M218.1,29.9l-1.1-2.1h-0.9v2.1h-1v-5.6h2.1c0.7,0,1.3,0.1,1.7,0.7c0.2,0.3,0.3,0.7,0.3,1.1
			c0,0.7-0.4,1.4-1.1,1.6l1.2,2.3H218.1z M217,25.1c-0.3,0-0.6,0-1,0v1.8h0.7c0.6,0,1.4,0,1.4-0.9C218.1,25.4,217.6,25.1,217,25.1z"
			/>
		<path fill="#006725" d="M220,29.9v-5.6h4v0.9H221v1.3h2.7v0.9H221v1.5h3.1v1H220z"/>
		<path fill="#006725" d="M229.1,28.7c-0.6,1.1-1.5,1.2-2.6,1.2h-1.8v-5.6h2c0.3,0,0.7,0,1.1,0.1c1.2,0.4,1.7,1.6,1.7,2.8
			C229.4,27.6,229.3,28.2,229.1,28.7z M227.2,25.2c-0.3-0.1-0.6-0.1-0.9-0.1h-0.6v3.7h0.4c0.4,0,0.8,0,1.2-0.1c0.9-0.2,1-1,1-1.8
			C228.3,26.2,228,25.5,227.2,25.2z"/>
		<path fill="#006725" d="M230.2,29.9v-5.6h1v5.6H230.2z"/>
		<path fill="#006725" d="M232.3,29.9v-5.6h4v0.9h-2.9v1.3h2.7v0.9h-2.7v1.5h3.1v1H232.3z"/>
		<path fill="#006725" d="M240.5,29.9l-2.4-4l0.1,4h-1v-5.6h0.9l2.5,4l-0.1-4h1v5.6H240.5z"/>
		<path fill="#006725" d="M244.7,25.2v4.7h-1v-4.7h-1.5v-1h4.1v1H244.7z"/>
		<path fill="#006725" d="M246.8,29.9v-5.6h4v0.9h-2.9v1.3h2.7v0.9h-2.7v1.5h3.1v1H246.8z"/>
		<path fill="#006725" d="M203.2,37c-0.6,1.1-1.5,1.2-2.6,1.2h-1.8v-5.6h2c0.3,0,0.7,0,1.1,0.1c1.2,0.4,1.7,1.6,1.7,2.8
			C203.5,35.9,203.4,36.6,203.2,37z M201.3,33.6c-0.3-0.1-0.6-0.1-0.9-0.1h-0.6v3.7h0.4c0.4,0,0.8,0,1.2-0.1c0.9-0.2,1-1,1-1.8
			C202.4,34.5,202.1,33.8,201.3,33.6z"/>
		<path fill="#006725" d="M204.3,38.2v-5.6h1v5.6H204.3z"/>
		<path fill="#006725" d="M207.5,33.5v1.4h2.3v0.9h-2.3v2.4h-1v-5.6h3.7v0.9H207.5z"/>
		<path fill="#006725" d="M210.7,38.2v-5.6h4v0.9h-2.9v1.3h2.7v0.9h-2.7v1.5h3.1v1H210.7z"/>
		<path fill="#006725" d="M218.6,38.2l-1.1-2.1h-0.9v2.1h-1v-5.6h2.1c0.7,0,1.3,0.1,1.7,0.7c0.2,0.3,0.3,0.7,0.3,1.1
			c0,0.7-0.4,1.4-1.1,1.6l1.2,2.3H218.6z M217.5,33.5c-0.3,0-0.6,0-1,0v1.8h0.7c0.6,0,1.4,0,1.4-0.9
			C218.6,33.7,218.1,33.5,217.5,33.5z"/>
		<path fill="#006725" d="M220.4,38.2v-5.6h4v0.9h-2.9v1.3h2.7v0.9h-2.7v1.5h3.1v1H220.4z"/>
		<path fill="#006725" d="M228.7,38.2l-2.4-4l0.1,4h-1v-5.6h0.9l2.5,4l-0.1-4h1v5.6H228.7z"/>
		<path fill="#006725" d="M232.9,38.3c-1.7,0-2.6-1.4-2.6-3c0-0.4,0-0.8,0.2-1.2c0.4-1.1,1.3-1.7,2.5-1.7c0.7,0,1.5,0.3,1.9,0.9
			c0.2,0.3,0.3,0.5,0.4,0.8l-1,0.3c-0.1-0.6-0.6-1-1.2-1c-1.1,0-1.5,1-1.5,1.9c0,0.7,0.2,1.5,0.9,1.9c0.2,0.1,0.4,0.2,0.6,0.2
			c0.7,0,1.2-0.5,1.4-1.1l1,0.4C235,37.7,234.1,38.3,232.9,38.3z"/>
		<path fill="#006725" d="M236,38.2v-5.6h1v5.6H236z"/>
		<path fill="#006725" d="M241.4,38.2l-0.3-1.1H239l-0.3,1.1h-1.1l1.9-5.6h1.2l1.9,5.6H241.4z M240,33.6l-0.8,2.6h1.5L240,33.6z"/>
		<path fill="#006725" d="M247.4,37c-0.6,1.1-1.5,1.2-2.6,1.2H243v-5.6h2c0.3,0,0.7,0,1.1,0.1c1.2,0.4,1.7,1.6,1.7,2.8
			C247.7,35.9,247.6,36.6,247.4,37z M245.5,33.6c-0.3-0.1-0.6-0.1-0.9-0.1H244v3.7h0.4c0.4,0,0.8,0,1.2-0.1c0.9-0.2,1-1,1-1.8
			C246.6,34.5,246.3,33.8,245.5,33.6z"/>
		<path fill="#006725" d="M250.9,38.3c-1.6,0-2.7-1.4-2.7-2.9c0-1.6,1-3,2.7-3c0.5,0,1,0.2,1.5,0.4c0.9,0.6,1.2,1.5,1.2,2.5
			C253.6,37,252.6,38.3,250.9,38.3z M252.6,35.4c0-1-0.5-2.1-1.6-2.1c-1.1,0-1.6,1-1.6,2c0,0.3,0,0.6,0.1,0.9
			c0.2,0.7,0.8,1.1,1.5,1.1c0.7,0,1.2-0.4,1.5-1C252.5,36,252.6,35.8,252.6,35.4L252.6,35.4z"/>
	</g>
	<path fill="#006725" d="M230.7,170.8c-0.4-1.2-0.8-2.4-1.2-3.6c-0.1-0.2-0.1-0.3-0.1-0.5c-0.6-1.6-0.3-2.9,0.8-4.2
		c2.2-2.7,4.3-5.4,6.4-8.2c0.7-1,1.5-1.3,2.7-1c3.6,0.9,7.3,1.8,11,2.7c1.4,0.3,2.8,0.2,4.2-0.2c1.2-0.4,1.7-1.4,1.3-2.6
		c-0.4-1.2-1.2-1.9-2.3-2.2c-2.4-0.7-4.8-1.3-7.2-2c-3.2-0.9-6.3-1.7-9.5-2.6c-0.8-0.2-1.4,0-2,0.5c-6.4,5.2-12.8,10.4-19.2,15.6
		c-2.6,2.1-3.6,5.1-3.8,8.3c-0.1,1.2,0,2.4,0,3.7c0.1,8.7,0.3,17.4,0.4,26.2c0,1.5-0.6,2.4-1.8,2.4c-1.2,0-1.8-0.8-1.8-2.4
		c-0.1-8.3-0.4-16.5-0.4-24.8c0-4.9-0.7-9.8-1.4-14.6c-1-6.9-2-13.8-3-20.7c-0.1-0.9-0.2-1.7-0.4-2.6c-0.8-3.5,2.4-7.5,7-6.8
		c0.2,0,0.4,0.1,0.7,0.1c0-0.5,0.1-1,0.1-1.5c0.1-1.6,0.1-3.3,0.2-4.9c0.1-2.4,1.6-4.4,3.5-5c2.2-0.7,4.7,0,6.3,1.9
		c0.2,0.2,0.3,0.4,0.6,0.7c0.2-0.7,0.4-1.3,0.6-1.8c0.5-1.5,1.2-2.8,2.5-3.7c3.6-2.5,8.9,0.1,9.5,4.6c0.3,2.2-0.3,4.2-0.7,6.2
		c-1.4,6.1-2.8,12.2-4.3,18.3c0,0.2-0.1,0.4-0.1,0.8c0.7-0.5,1.2-1,1.7-1.4c1-0.7,1.9-1.6,3-2.2c1.2-0.7,2.5-0.7,3.9-0.4
		c5.3,1.4,10.5,2.8,15.8,4.2c2.4,0.6,4.3,1.8,5.4,4.1c1.1,2.3,0.8,4.6-1,6.6c0.3,0.2,0.5,0.3,0.7,0.5c1.8,1.2,2.7,2.7,2.4,5
		c-0.6,4-1,8.1-1.6,12.1c-0.1,0.4-0.2,0.8-0.4,1.2c-1.1,2.2-2.2,4.4-3.4,6.6c-1.9,3.6-4.7,6.4-7.9,8.7c-2,1.5-4.2,2.7-6.3,4.1
		c-1.2,0.8-2.3,1.7-3.5,2.7c-0.5,0.4-0.7,0.9-0.6,1.6c0.1,0.6,0,1.1,0,1.7c0,1.1-0.8,1.9-1.8,1.9c-1,0-1.7-0.8-1.8-1.9
		c0-0.9,0-1.8,0-2.7c0-1.1,0.6-1.9,1.3-2.7c1.3-1.6,3-2.7,4.7-3.7c2-1.3,4-2.5,5.9-3.9c3.1-2.3,5.7-5,7.2-8.6
		c0.4-0.9,0.8-1.7,1.3-2.5c1.4-2.1,1.8-4.5,2.1-6.9c0.3-2.7,0.7-5.4,1.1-8c0.1-0.6,0-1.1-0.5-1.4c-1.2-0.8-2.6-1.3-4.1-0.8
		c-0.9,0.3-1.6,0.9-1.9,1.8c-0.7,2.2-1.4,4.4-2.3,6.6c-1.3,3.3-3.5,5.6-7.1,6.5c-4.2,1.1-8.1,0.8-11.8-1.4c-1.1-0.6-2-1.6-2.9-2.5
		c-0.9-0.9-0.7-2,0.1-2.6c0.8-0.7,1.9-0.5,2.7,0.5c0.3,0.4,0.7,0.9,1,1.3C230.6,171,230.7,170.9,230.7,170.8z M215.2,157.9
		c0.1,0,0.1,0.1,0.2,0.1c2.9-2.4,5.9-4.7,8.8-7.1c0.2-0.2,0.4-0.5,0.4-0.8c0.9-3.8,1.7-7.5,2.6-11.3c1.1-4.6,2.2-9.1,3.2-13.7
		c0.3-1.3,0.5-2.7-0.1-4c-0.5-1-1.4-1.6-2.5-1.6c-1-0.1-1.5,0.6-1.9,1.5c-0.2,0.4-0.3,0.8-0.5,1.2c-2.5,8.9-5.1,17.8-7.6,26.7
		C216.9,151.9,216.1,154.9,215.2,157.9z M248.3,159.3c-2.7-0.7-5.7-1.4-8.6-2.1c-0.5-0.1-0.7,0-1,0.4c-1.3,1.7-2.6,3.3-3.8,5
		c-0.7,1-2.1,1.8-2,3.1c0.1,1.2,0.8,2.4,1.2,3.6c0.6,1.6,1.8,2.6,3.6,2.9c3,0.6,5.8-0.6,7.1-3.2c0.3-0.6,0.5-1.3,0.7-2
		C246.5,164.4,247.4,161.9,248.3,159.3z M213.9,149.2c0,0,0.1,0,0.1,0c0.1-0.2,0.1-0.4,0.2-0.6c1.6-5.5,3.2-11,4.7-16.5
		c0.6-2.2,0.3-4.3,0.1-6.5c0-0.4-0.2-0.8-0.4-1.1c-0.6-1-1.5-1.4-2.6-1.1c-0.7,0.2-1.1,0.9-1.1,2c-0.2,4.7-0.4,9.3-0.6,14
		C214.1,142.6,214,145.9,213.9,149.2z M209.7,157.7c0,0,0.1,0,0.1,0c0.1-1.6,0.1-3.1,0.2-4.7c0.2-5.6,0.5-11.2,0.7-16.8
		c0-0.3-0.1-0.8-0.4-1c-0.8-0.6-1.6-0.5-2.4-0.1c-0.8,0.4-1.3,1.2-1.1,2C207.8,144,208.7,150.9,209.7,157.7z"/>
	<g>
		<g>
			<path fill="#FFFFFF" d="M206,366.4c-0.4,0.6-1.1,0.8-1.8,0.8h-1v1.9h-1v-5.6h2c0.7,0,1.3,0.1,1.8,0.7c0.3,0.3,0.4,0.7,0.4,1.2
				C206.3,365.7,206.2,366.1,206,366.4z M205.1,364.7c-0.3-0.4-0.7-0.4-1.1-0.4h-0.8v2h0.8c0.5,0,1,0,1.2-0.5
				c0.1-0.2,0.1-0.3,0.1-0.5C205.3,365.1,205.2,364.9,205.1,364.7z"/>
			<path fill="#FFFFFF" d="M210,369.1l-1.1-2.1H208v2.1h-1v-5.6h2.1c0.7,0,1.3,0.1,1.7,0.7c0.2,0.3,0.3,0.7,0.3,1.1
				c0,0.7-0.4,1.4-1.1,1.6l1.2,2.3H210z M209,364.3c-0.3,0-0.6,0-1,0v1.8h0.7c0.6,0,1.4,0,1.4-0.9C210,364.6,209.5,364.3,209,364.3z
				"/>
			<path fill="#FFFFFF" d="M214.3,369.2c-1.6,0-2.7-1.4-2.7-2.9c0-1.6,1-3,2.7-3c0.5,0,1,0.2,1.5,0.4c0.9,0.6,1.2,1.5,1.2,2.5
				C217,367.9,216,369.2,214.3,369.2z M216,366.3c0-1-0.5-2.1-1.6-2.1c-1.1,0-1.6,1-1.6,2c0,0.3,0,0.6,0.1,0.9
				c0.2,0.7,0.8,1.1,1.5,1.1c0.7,0,1.2-0.4,1.5-1C215.9,366.9,216,366.7,216,366.3L216,366.3z"/>
			<path fill="#FFFFFF" d="M219.6,364.4v4.7h-1v-4.7h-1.5v-1h4.1v1H219.6z"/>
			<path fill="#FFFFFF" d="M221.8,369.1v-5.6h4v0.9h-2.9v1.3h2.7v0.9h-2.7v1.5h3.1v1H221.8z"/>
			<path fill="#FFFFFF" d="M228.9,369.2c-1.7,0-2.6-1.4-2.6-3c0-0.4,0-0.8,0.2-1.2c0.4-1.1,1.3-1.7,2.5-1.7c0.7,0,1.5,0.3,1.9,0.9
				c0.2,0.3,0.3,0.5,0.4,0.8l-1,0.3c-0.1-0.6-0.6-1-1.2-1c-1.1,0-1.5,1-1.5,1.9c0,0.7,0.2,1.5,0.9,1.9c0.2,0.1,0.4,0.2,0.6,0.2
				c0.7,0,1.2-0.5,1.4-1.1l1,0.4C230.9,368.6,230,369.2,228.9,369.2z"/>
			<path fill="#FFFFFF" d="M234.1,369.2c-1.7,0-2.6-1.4-2.6-3c0-0.4,0-0.8,0.2-1.2c0.4-1.1,1.3-1.7,2.5-1.7c0.7,0,1.5,0.3,1.9,0.9
				c0.2,0.3,0.3,0.5,0.4,0.8l-1,0.3c-0.1-0.6-0.6-1-1.2-1c-1.1,0-1.5,1-1.5,1.9c0,0.7,0.2,1.5,0.9,1.9c0.2,0.1,0.4,0.2,0.6,0.2
				c0.7,0,1.2-0.5,1.4-1.1l1,0.4C236.2,368.6,235.3,369.2,234.1,369.2z"/>
			<path fill="#FFFFFF" d="M237.2,369.1v-5.6h1v5.6H237.2z"/>
			<path fill="#FFFFFF" d="M241.7,369.2c-1.6,0-2.7-1.4-2.7-2.9c0-1.6,1-3,2.7-3c0.5,0,1,0.2,1.5,0.4c0.9,0.6,1.2,1.5,1.2,2.5
				C244.4,367.9,243.4,369.2,241.7,369.2z M243.4,366.3c0-1-0.5-2.1-1.6-2.1c-1.1,0-1.6,1-1.6,2c0,0.3,0,0.6,0.1,0.9
				c0.2,0.7,0.8,1.1,1.5,1.1c0.7,0,1.2-0.4,1.5-1C243.3,366.9,243.4,366.7,243.4,366.3L243.4,366.3z M242,362.9h-0.7l0.4-1h1.1
				L242,362.9z"/>
			<path fill="#FFFFFF" d="M248.7,369.1l-2.4-4l0.1,4h-1v-5.6h0.9l2.5,4l-0.1-4h1v5.6H248.7z"/>
			<path fill="#FFFFFF" d="M219.1,376.2c-0.6,1.1-1.5,1.2-2.6,1.2h-1.8v-5.6h2c0.3,0,0.7,0,1.1,0.1c1.2,0.4,1.7,1.6,1.7,2.8
				C219.4,375.2,219.3,375.8,219.1,376.2z M217.2,372.8c-0.3-0.1-0.6-0.1-0.9-0.1h-0.6v3.7h0.4c0.4,0,0.8,0,1.2-0.1
				c0.9-0.2,1-1,1-1.8C218.3,373.7,218,373,217.2,372.8z"/>
			<path fill="#FFFFFF" d="M220.2,377.4v-5.6h4v0.9h-2.9v1.3h2.7v0.9h-2.7v1.5h3.1v1H220.2z"/>
			<path fill="#FFFFFF" d="M227.1,377.4v-5.6h1.1v4.7h2.2v1H227.1z"/>
			<path fill="#FFFFFF" d="M234.3,377.4l-0.3-1.1h-2.1l-0.3,1.1h-1.1l1.9-5.6h1.2l1.9,5.6H234.3z M233,372.8l-0.8,2.6h1.5L233,372.8
				z"/>
			<path fill="#FFFFFF" d="M209.1,385.8l0.1-4.6l-1.2,4.6h-0.9l-1.2-4.6l0.1,4.6h-1v-5.6h1.5l1.1,4.2l1.1-4.2h1.5v5.6H209.1z"/>
			<path fill="#FFFFFF" d="M211.2,385.8v-5.6h4v0.9h-2.9v1.3h2.7v0.9h-2.7v1.5h3.1v1H211.2z"/>
			<path fill="#FFFFFF" d="M220.2,385.8l0.1-4.6l-1.2,4.6h-0.9l-1.2-4.6l0.1,4.6h-1v-5.6h1.5l1.1,4.2l1.1-4.2h1.5v5.6H220.2z"/>
			<path fill="#FFFFFF" d="M226.5,385.1c-0.4,0.6-1,0.6-1.7,0.6h-2.5v-5.6h2.4c0.6,0,1.1,0.1,1.5,0.5c0.2,0.2,0.3,0.5,0.3,0.9
				c0,0.4-0.2,0.8-0.6,1.1c-0.1,0.1-0.2,0.1-0.4,0.1c0.7,0.1,1.2,0.8,1.2,1.5C226.8,384.5,226.7,384.8,226.5,385.1z M225.2,381.2
				c-0.2-0.2-0.6-0.2-0.9-0.2c-0.3,0-0.7,0-1,0v1.4h0.5c0.3,0,0.9,0,1.2-0.1c0.3-0.1,0.4-0.3,0.4-0.6
				C225.4,381.5,225.4,381.3,225.2,381.2z M225.4,383.5c-0.3-0.2-0.6-0.3-1-0.3h-1.1v1.7h1.3c0.5,0,1-0.2,1-0.8
				C225.7,383.8,225.6,383.6,225.4,383.5z"/>
			<path fill="#FFFFFF" d="M230.7,385.8l-1.1-2.1h-0.9v2.1h-1v-5.6h2.1c0.7,0,1.3,0.1,1.7,0.7c0.2,0.3,0.3,0.7,0.3,1.1
				c0,0.7-0.4,1.4-1.1,1.6l1.2,2.3H230.7z M229.6,381c-0.3,0-0.6,0-1,0v1.8h0.7c0.6,0,1.4,0,1.4-0.9
				C230.7,381.2,230.2,381,229.6,381z"/>
			<path fill="#FFFFFF" d="M235.8,385.8l-0.3-1.1h-2.1l-0.3,1.1H232l1.9-5.6h1.2l1.9,5.6H235.8z M234.5,381.1l-0.8,2.6h1.5
				L234.5,381.1z"/>
			<path fill="#FFFFFF" d="M240.9,385.8l-2.4-4l0.1,4h-1v-5.6h0.9l2.5,4l-0.1-4h1v5.6H240.9z"/>
			<path fill="#FFFFFF" d="M246.2,385.8l-0.3-1.1h-2.1l-0.3,1.1h-1.1l1.9-5.6h1.2l1.9,5.6H246.2z M244.9,381.1l-0.8,2.6h1.5
				L244.9,381.1z"/>
			<path fill="#FFFFFF" d="M211.9,394.2c-1.7,0-2.6-1.4-2.6-3c0-0.4,0-0.8,0.2-1.2c0.4-1.1,1.3-1.7,2.5-1.7c0.7,0,1.5,0.3,1.9,0.9
				c0.2,0.3,0.3,0.5,0.4,0.8l-1,0.3c-0.1-0.6-0.6-1-1.2-1c-1.1,0-1.5,1-1.5,1.9c0,0.7,0.2,1.5,0.9,1.9c0.2,0.1,0.4,0.2,0.6,0.2
				c0.7,0,1.2-0.5,1.4-1.1l1,0.4C214,393.6,213.1,394.2,211.9,394.2z"/>
			<path fill="#FFFFFF" d="M215,394.1v-5.6h4v0.9H216v1.3h2.7v0.9H216v1.5h3.1v1H215z"/>
			<path fill="#FFFFFF" d="M219.8,394.1v-5.6h1.1v4.7h2.2v1H219.8z"/>
			<path fill="#FFFFFF" d="M228.1,392.9c-0.3,1-1.3,1.3-2.2,1.3c-0.9,0-1.9-0.4-2.1-1.3c-0.1-0.3-0.1-0.6-0.1-1v-3.5h1.1v3.6
				c0,0.2,0,0.4,0.1,0.5c0.2,0.5,0.6,0.6,1.1,0.6c0.5,0,1-0.2,1.1-0.7c0.1-0.2,0.1-0.5,0.1-0.7v-3.4h1v3.6
				C228.2,392.3,228.2,392.7,228.1,392.9z"/>
			<path fill="#FFFFFF" d="M229.3,394.1v-5.6h1.1v4.7h2.2v1H229.3z"/>
			<path fill="#FFFFFF" d="M236.6,394.1l-0.3-1.1h-2.1l-0.3,1.1h-1.1l1.9-5.6h1.2l1.9,5.6H236.6z M235.2,389.5l-0.8,2.6h1.5
				L235.2,389.5z"/>
			<path fill="#FFFFFF" d="M241.3,394.1l-1.1-2.1h-0.9v2.1h-1v-5.6h2.1c0.7,0,1.3,0.1,1.7,0.7c0.2,0.3,0.3,0.7,0.3,1.1
				c0,0.7-0.4,1.4-1.1,1.6l1.2,2.3H241.3z M240.3,389.4c-0.3,0-0.6,0-1,0v1.8h0.7c0.6,0,1.4,0,1.4-0.9
				C241.3,389.6,240.8,389.4,240.3,389.4z"/>
		</g>
	</g>
	<g>
		<g>
			<path fill="#FFFFFF" d="M54.7,213.3l-1-1.9h-0.9v1.9h-0.9v-5.2h1.9c0.6,0,1.2,0.1,1.6,0.6c0.2,0.3,0.3,0.6,0.3,1
				c0,0.7-0.4,1.2-1,1.4l1.1,2.1H54.7z M53.7,209c-0.3,0-0.6,0-0.9,0v1.6h0.6c0.6,0,1.2,0,1.2-0.8C54.7,209.2,54.2,209,53.7,209z"/>
			<path fill="#FFFFFF" d="M56.4,213.3v-5.2H60v0.9h-2.7v1.2h2.5v0.8h-2.5v1.4h2.9v0.9H56.4z"/>
			<path fill="#FFFFFF" d="M62.7,209v4.3h-1V209h-1.4v-0.9h3.8v0.9H62.7z"/>
			<path fill="#FFFFFF" d="M67.5,213.3l-1-1.9h-0.9v1.9h-0.9v-5.2h1.9c0.6,0,1.2,0.1,1.6,0.6c0.2,0.3,0.3,0.6,0.3,1
				c0,0.7-0.4,1.2-1,1.4l1.1,2.1H67.5z M66.5,209c-0.3,0-0.6,0-0.9,0v1.6h0.6c0.6,0,1.2,0,1.2-0.8C67.5,209.2,67,209,66.5,209z"/>
			<path fill="#FFFFFF" d="M72.2,213.3l-0.3-1H70l-0.3,1h-1l1.7-5.2h1.1l1.7,5.2H72.2z M71,209.1l-0.7,2.4h1.4L71,209.1z"/>
			<path fill="#FFFFFF" d="M75.5,213.5c-0.7,0-1.3-0.2-1.8-0.7c-0.1-0.1-0.3-0.3-0.4-0.4l0.8-0.6c0.1,0.1,0.1,0.1,0.2,0.2
				c0.4,0.4,0.9,0.6,1.4,0.6c0.4,0,1-0.1,1-0.7c0-0.5-0.6-0.6-1-0.7l-0.6-0.1c-0.2,0-0.3-0.1-0.5-0.1c-0.6-0.2-1-0.6-1-1.3
				c0-1.1,1-1.6,2-1.6c0.7,0,1.4,0.3,1.9,0.8c0.1,0.1,0.1,0.1,0.2,0.2l-0.8,0.6c-0.3-0.5-0.7-0.8-1.3-0.8c-0.4,0-1,0.1-1,0.6
				c0,0.5,0.6,0.5,0.9,0.6c1,0.2,2.2,0.4,2.2,1.7C77.7,213.1,76.5,213.5,75.5,213.5z"/>
			<path fill="#FFFFFF" d="M80.6,213.5c-1.5,0-2.4-1.3-2.4-2.7c0-1.5,0.9-2.7,2.5-2.7c0.5,0,0.9,0.1,1.3,0.4
				c0.8,0.5,1.1,1.4,1.1,2.3C83.1,212.2,82.2,213.5,80.6,213.5z M82.1,210.8c0-0.9-0.5-1.9-1.5-1.9c-1,0-1.5,0.9-1.5,1.8
				c0,0.3,0,0.6,0.1,0.8c0.2,0.6,0.7,1,1.4,1c0.6,0,1.1-0.4,1.3-1C82.1,211.4,82.1,211.1,82.1,210.8L82.1,210.8z"/>
			<path fill="#FFFFFF" d="M89.7,212.2c-0.5,1-1.4,1.1-2.4,1.1h-1.6v-5.2h1.8c0.3,0,0.7,0,1,0.1c1.1,0.4,1.5,1.4,1.5,2.5
				C90,211.3,89.9,211.8,89.7,212.2z M88,209.1c-0.3-0.1-0.6-0.1-0.8-0.1h-0.5v3.4h0.4c0.3,0,0.7,0,1.1-0.1c0.8-0.2,0.9-1,0.9-1.7
				C89,210,88.7,209.3,88,209.1z"/>
			<path fill="#FFFFFF" d="M90.7,213.3v-5.2h3.6v0.9h-2.7v1.2h2.5v0.8h-2.5v1.4h2.9v0.9H90.7z"/>
			<path fill="#FFFFFF" d="M95.1,213.3v-5.2h1v4.3h2v0.9H95.1z"/>
			<path fill="#FFFFFF" d="M57.3,221v-5.2h0.9v5.2H57.3z"/>
			<path fill="#FFFFFF" d="M62.4,221l-2.2-3.6l0.1,3.6h-0.9v-5.2h0.9l2.3,3.6l-0.1-3.6h0.9v5.2H62.4z"/>
			<path fill="#FFFFFF" d="M64.2,221v-5.2h0.9v5.2H64.2z"/>
			<path fill="#FFFFFF" d="M68.2,221.1c-1.5,0-2.4-1.3-2.4-2.7c0-0.4,0-0.8,0.2-1.1c0.3-1,1.2-1.6,2.3-1.6c0.7,0,1.3,0.3,1.7,0.8
				c0.2,0.2,0.3,0.5,0.3,0.8l-0.9,0.2c-0.1-0.6-0.5-1-1.1-1c-1,0-1.4,0.9-1.4,1.8c0,0.7,0.2,1.4,0.8,1.7c0.2,0.1,0.4,0.1,0.6,0.1
				c0.6,0,1.1-0.5,1.3-1l0.9,0.4C70.1,220.5,69.3,221.1,68.2,221.1z"/>
			<path fill="#FFFFFF" d="M71,221v-5.2H72v5.2H71z"/>
			<path fill="#FFFFFF" d="M75.2,221.1c-1.5,0-2.4-1.3-2.4-2.7c0-1.5,0.9-2.7,2.5-2.7c0.5,0,0.9,0.1,1.3,0.4
				c0.8,0.5,1.1,1.4,1.1,2.3C77.7,219.9,76.7,221.1,75.2,221.1z M76.7,218.4c0-0.9-0.5-1.9-1.5-1.9c-1,0-1.5,0.9-1.5,1.8
				c0,0.3,0,0.6,0.1,0.8c0.2,0.6,0.7,1,1.4,1c0.6,0,1.1-0.4,1.3-1C76.6,219,76.7,218.7,76.7,218.4L76.7,218.4z"/>
			<path fill="#FFFFFF" d="M84.3,219.9c-0.5,1-1.4,1.1-2.4,1.1h-1.6v-5.2h1.8c0.3,0,0.7,0,1,0.1c1.1,0.4,1.5,1.4,1.5,2.5
				C84.6,218.9,84.5,219.5,84.3,219.9z M82.6,216.7c-0.3-0.1-0.6-0.1-0.8-0.1h-0.5v3.4h0.4c0.3,0,0.7,0,1.1-0.1
				c0.8-0.2,0.9-1,0.9-1.7C83.6,217.6,83.3,216.9,82.6,216.7z"/>
			<path fill="#FFFFFF" d="M85.3,221v-5.2h3.6v0.9h-2.7v1.2h2.5v0.8h-2.5v1.4h2.9v0.9H85.3z"/>
			<path fill="#FFFFFF" d="M89.7,221v-5.2h1v4.3h2v0.9H89.7z"/>
			<path fill="#FFFFFF" d="M46.3,228.6v-5.2H50v0.9h-2.7v1.2h2.5v0.8h-2.5v1.4h2.9v0.9H46.3z"/>
			<path fill="#FFFFFF" d="M53.8,228.6l-2.2-3.6l0.1,3.6h-0.9v-5.2h0.9l2.3,3.6l-0.1-3.6h0.9v5.2H53.8z"/>
			<path fill="#FFFFFF" d="M58,228.6h-1.3l-1.5-5.2h1l1.1,4.1l1.1-4.1h1L58,228.6z"/>
			<path fill="#FFFFFF" d="M59.9,228.6v-5.2h3.6v0.9h-2.7v1.2h2.5v0.8h-2.5v1.4h2.9v0.9H59.9z"/>
			<path fill="#FFFFFF" d="M66,227.8c-0.2,0.6-0.9,0.8-1.5,0.8c-0.2,0-0.4,0-0.6-0.1v-1c0.2,0,0.3,0.1,0.5,0.1c0.1,0,0.3,0,0.4-0.1
				c0.3-0.2,0.3-0.6,0.3-0.9v-3.3h0.9v3.7C66.1,227.3,66.1,227.6,66,227.8z"/>
			<path fill="#FFFFFF" d="M67,228.6v-5.2h3.6v0.9h-2.7v1.2h2.5v0.8h-2.5v1.4h2.9v0.9H67z"/>
			<path fill="#FFFFFF" d="M73.4,228.7c-1.5,0-2.4-1.3-2.4-2.7c0-0.4,0-0.8,0.2-1.1c0.3-1,1.2-1.6,2.3-1.6c0.7,0,1.3,0.3,1.7,0.8
				c0.2,0.2,0.3,0.5,0.3,0.8l-0.9,0.2c-0.1-0.6-0.5-1-1.1-1c-1,0-1.4,0.9-1.4,1.8c0,0.7,0.2,1.4,0.8,1.7c0.2,0.1,0.4,0.1,0.6,0.1
				c0.6,0,1.1-0.5,1.3-1l0.9,0.4C75.3,228.2,74.5,228.7,73.4,228.7z"/>
			<path fill="#FFFFFF" d="M76.2,228.6v-5.2h0.9v5.2H76.2z"/>
			<path fill="#FFFFFF" d="M82,228.6l0.1-4.2l-1.1,4.2h-0.9l-1.1-4.2l0.1,4.2h-0.9v-5.2h1.4l1,3.8l1-3.8h1.4v5.2H82z"/>
			<path fill="#FFFFFF" d="M83.9,228.6v-5.2h0.9v5.2H83.9z"/>
			<path fill="#FFFFFF" d="M85.9,228.6v-5.2h3.6v0.9h-2.7v1.2h2.5v0.8h-2.5v1.4h2.9v0.9H85.9z"/>
			<path fill="#FFFFFF" d="M93.4,228.6l-2.2-3.6l0.1,3.6h-0.9v-5.2h0.9l2.3,3.6l-0.1-3.6h0.9v5.2H93.4z"/>
			<path fill="#FFFFFF" d="M97.2,224.3v4.3h-1v-4.3h-1.4v-0.9h3.8v0.9H97.2z"/>
			<path fill="#FFFFFF" d="M101,228.7c-1.5,0-2.4-1.3-2.4-2.7c0-1.5,0.9-2.7,2.5-2.7c0.5,0,0.9,0.1,1.3,0.4c0.8,0.5,1.1,1.4,1.1,2.3
				C103.5,227.5,102.6,228.7,101,228.7z M102.5,226.1c0-0.9-0.5-1.9-1.5-1.9c-1,0-1.5,0.9-1.5,1.8c0,0.3,0,0.6,0.1,0.8
				c0.2,0.6,0.7,1,1.4,1c0.6,0,1.1-0.4,1.3-1C102.5,226.6,102.5,226.4,102.5,226.1L102.5,226.1z"/>
			<path fill="#FFFFFF" d="M57.5,235.1c-0.5,1-1.4,1.1-2.4,1.1h-1.6V231h1.8c0.3,0,0.7,0,1,0.1c1.1,0.4,1.5,1.4,1.5,2.5
				C57.9,234.1,57.8,234.7,57.5,235.1z M55.8,232c-0.3-0.1-0.6-0.1-0.8-0.1h-0.5v3.4h0.4c0.3,0,0.7,0,1.1-0.1c0.8-0.2,0.9-1,0.9-1.7
				C56.8,232.8,56.6,232.2,55.8,232z"/>
			<path fill="#FFFFFF" d="M58.6,236.2V231h3.6v0.9h-2.7v1.2H62v0.8h-2.5v1.4h2.9v0.9H58.6z"/>
			<path fill="#FFFFFF" d="M63,236.2V231h1v4.3h2v0.9H63z"/>
			<path fill="#FFFFFF" d="M70.6,236.3c-1.5,0-2.4-1.3-2.4-2.7c0-0.4,0-0.8,0.2-1.1c0.3-1,1.2-1.6,2.3-1.6c0.7,0,1.3,0.3,1.7,0.8
				c0.2,0.2,0.3,0.5,0.3,0.8l-0.9,0.2c-0.1-0.6-0.5-1-1.1-1c-1,0-1.4,0.9-1.4,1.8c0,0.7,0.2,1.4,0.8,1.7c0.2,0.1,0.4,0.1,0.6,0.1
				c0.6,0,1.1-0.5,1.3-1l0.9,0.4C72.4,235.8,71.6,236.3,70.6,236.3z"/>
			<path fill="#FFFFFF" d="M77.4,235.1c-0.3,0.9-1.2,1.2-2,1.2c-0.8,0-1.7-0.3-2-1.2c-0.1-0.3-0.1-0.6-0.1-0.9V231h1v3.3
				c0,0.1,0,0.4,0.1,0.5c0.2,0.5,0.6,0.6,1,0.6c0.4,0,0.9-0.2,1-0.6c0.1-0.2,0.1-0.4,0.1-0.6V231h1v3.3
				C77.5,234.6,77.4,234.9,77.4,235.1z"/>
			<path fill="#FFFFFF" d="M78.5,236.2V231h1v4.3h2v0.9H78.5z"/>
			<path fill="#FFFFFF" d="M83.4,231.9v4.3h-1v-4.3h-1.4V231h3.8v0.9H83.4z"/>
			<path fill="#FFFFFF" d="M85.4,236.2V231h0.9v5.2H85.4z"/>
			<path fill="#FFFFFF" d="M89.6,236.2h-1.3l-1.5-5.2h1l1.1,4.1l1.1-4.1h1L89.6,236.2z"/>
			<path fill="#FFFFFF" d="M93.8,236.3c-1.5,0-2.4-1.3-2.4-2.7c0-1.5,0.9-2.7,2.5-2.7c0.5,0,0.9,0.1,1.3,0.4
				c0.8,0.5,1.1,1.4,1.1,2.3C96.2,235.1,95.3,236.3,93.8,236.3z M95.3,233.7c0-0.9-0.5-1.9-1.5-1.9c-1,0-1.5,0.9-1.5,1.8
				c0,0.3,0,0.6,0.1,0.8c0.2,0.6,0.7,1,1.4,1c0.6,0,1.1-0.4,1.3-1C95.2,234.2,95.3,234,95.3,233.7L95.3,233.7z"/>
		</g>
	</g>
	<g>
		<g>
			<path fill="#FFFFFF" d="M207.6,73.5c-0.4,0.6-1.1,0.8-1.8,0.8h-1v1.9h-1v-5.6h2c0.7,0,1.3,0.1,1.8,0.7c0.3,0.3,0.4,0.7,0.4,1.2
				C208,72.8,207.9,73.2,207.6,73.5z M206.7,71.9c-0.3-0.4-0.7-0.4-1.1-0.4h-0.8v2h0.8c0.5,0,1,0,1.2-0.5c0.1-0.2,0.1-0.3,0.1-0.5
				C206.9,72.2,206.8,72,206.7,71.9z"/>
			<path fill="#FFFFFF" d="M211,76.3c-1.6,0-2.7-1.4-2.7-2.9c0-1.6,1-3,2.7-3c0.5,0,1,0.2,1.5,0.4c0.9,0.6,1.2,1.5,1.2,2.5
				C213.7,75,212.7,76.3,211,76.3z M212.6,73.4c0-1-0.5-2.1-1.6-2.1c-1.1,0-1.6,1-1.6,2c0,0.3,0,0.6,0.1,0.9
				c0.2,0.7,0.8,1.1,1.5,1.1c0.7,0,1.2-0.4,1.5-1C212.6,74,212.6,73.8,212.6,73.4L212.6,73.4z"/>
			<path fill="#FFFFFF" d="M214.5,76.2v-5.6h1.1v4.7h2.2v1H214.5z"/>
			<path fill="#FFFFFF" d="M218.5,76.2v-5.6h1v5.6H218.5z"/>
			<path fill="#FFFFFF" d="M223.9,76.2l-0.3-1.1h-2.1l-0.3,1.1H220l1.9-5.6h1.2l1.9,5.6H223.9z M222.5,71.6l-0.8,2.6h1.5L222.5,71.6
				z"/>
			<path fill="#FFFFFF" d="M229.7,76.2l0.1-4.6l-1.2,4.6h-0.9l-1.2-4.6l0.1,4.6h-1v-5.6h1.5l1.1,4.2l1.1-4.2h1.5v5.6H229.7z"/>
			<path fill="#FFFFFF" d="M231.8,76.2v-5.6h1v5.6H231.8z"/>
			<path fill="#FFFFFF" d="M237.4,76.2l-2.4-4l0.1,4h-1v-5.6h0.9l2.5,4l-0.1-4h1v5.6H237.4z"/>
			<path fill="#FFFFFF" d="M242.7,76.2l-0.3-1.1h-2.1l-0.3,1.1h-1.1l1.9-5.6h1.2l1.9,5.6H242.7z M241.3,71.6l-0.8,2.6h1.5
				L241.3,71.6z"/>
			<path fill="#FFFFFF" d="M246.3,76.3c-0.7,0-1.5-0.2-2-0.7c-0.1-0.1-0.3-0.3-0.4-0.5l0.9-0.6c0.1,0.1,0.1,0.2,0.2,0.2
				c0.4,0.4,1,0.6,1.5,0.6c0.5,0,1.1-0.2,1.1-0.7c0-0.6-0.7-0.6-1.1-0.7l-0.7-0.2c-0.2,0-0.3-0.1-0.5-0.1c-0.7-0.2-1.1-0.7-1.1-1.4
				c0-1.2,1.1-1.8,2.2-1.8c0.8,0,1.5,0.3,2.1,0.9c0.1,0.1,0.1,0.2,0.2,0.2l-0.9,0.6c-0.3-0.5-0.8-0.8-1.4-0.8
				c-0.4,0-1.1,0.2-1.1,0.7c0,0.5,0.7,0.6,1,0.7c1.1,0.2,2.4,0.4,2.4,1.8C248.8,75.9,247.5,76.3,246.3,76.3z"/>
		</g>
	</g>
	<g>
		<path fill="#006725" d="M190.5,417.3l0.1-4.6l-1.2,4.6h-0.9l-1.2-4.6l0.1,4.6h-1v-5.6h1.5l1.1,4.2l1.1-4.2h1.5v5.6H190.5z"/>
		<path fill="#006725" d="M195.9,417.3l-0.3-1.1h-2.1l-0.3,1.1h-1.1l1.9-5.6h1.2l1.9,5.6H195.9z M194.6,412.6l-0.8,2.6h1.5
			L194.6,412.6z"/>
		<path fill="#006725" d="M199.5,415v2.2h-1V415l-1.9-3.4h1.2l1.2,2.3l1.2-2.3h1.2L199.5,415z"/>
		<path fill="#006725" d="M203.9,417.4c-1.6,0-2.7-1.4-2.7-2.9c0-1.6,1-3,2.7-3c0.5,0,1,0.2,1.5,0.4c0.9,0.6,1.2,1.5,1.2,2.5
			C206.6,416.1,205.6,417.4,203.9,417.4z M205.6,414.5c0-1-0.5-2.1-1.6-2.1c-1.1,0-1.6,1-1.6,2c0,0.3,0,0.6,0.1,0.9
			c0.2,0.7,0.8,1.1,1.5,1.1c0.7,0,1.2-0.4,1.5-1C205.5,415.1,205.6,414.9,205.6,414.5L205.6,414.5z"/>
		<path fill="#006725" d="M210.5,417.3l-1.1-2.1h-0.9v2.1h-1v-5.6h2.1c0.7,0,1.3,0.1,1.7,0.7c0.2,0.3,0.3,0.7,0.3,1.1
			c0,0.7-0.4,1.4-1.1,1.6l1.2,2.3H210.5z M209.5,412.5c-0.3,0-0.6,0-1,0v1.8h0.7c0.6,0,1.4,0,1.4-0.9
			C210.5,412.8,210,412.5,209.5,412.5z"/>
		<path fill="#006725" d="M218.4,414.6c-0.4,0.6-1.1,0.8-1.8,0.8h-1v1.9h-1v-5.6h2c0.7,0,1.3,0.1,1.8,0.7c0.3,0.3,0.4,0.7,0.4,1.2
			C218.7,413.9,218.6,414.3,218.4,414.6z M217.5,412.9c-0.3-0.4-0.7-0.4-1.1-0.4h-0.8v2h0.8c0.5,0,1,0,1.2-0.5
			c0.1-0.2,0.1-0.3,0.1-0.5C217.6,413.3,217.6,413.1,217.5,412.9z"/>
		<path fill="#006725" d="M222.4,417.3l-1.1-2.1h-0.9v2.1h-1v-5.6h2.1c0.7,0,1.3,0.1,1.7,0.7c0.2,0.3,0.3,0.7,0.3,1.1
			c0,0.7-0.4,1.4-1.1,1.6l1.2,2.3H222.4z M221.3,412.5c-0.3,0-0.6,0-1,0v1.8h0.7c0.6,0,1.4,0,1.4-0.9
			C222.4,412.8,221.9,412.5,221.3,412.5z"/>
		<path fill="#006725" d="M226.7,417.4c-1.6,0-2.7-1.4-2.7-2.9c0-1.6,1-3,2.7-3c0.5,0,1,0.2,1.5,0.4c0.9,0.6,1.2,1.5,1.2,2.5
			C229.4,416.1,228.3,417.4,226.7,417.4z M228.3,414.5c0-1-0.5-2.1-1.6-2.1c-1.1,0-1.6,1-1.6,2c0,0.3,0,0.6,0.1,0.9
			c0.2,0.7,0.8,1.1,1.5,1.1c0.7,0,1.2-0.4,1.5-1C228.3,415.1,228.3,414.9,228.3,414.5L228.3,414.5z"/>
		<path fill="#006725" d="M234.5,416.1c-0.6,1.1-1.5,1.2-2.6,1.2h-1.8v-5.6h2c0.3,0,0.7,0,1.1,0.1c1.2,0.4,1.7,1.6,1.7,2.8
			C234.8,415,234.7,415.6,234.5,416.1z M232.6,412.6c-0.3-0.1-0.6-0.1-0.9-0.1h-0.6v3.7h0.4c0.4,0,0.8,0,1.2-0.1c0.9-0.2,1-1,1-1.8
			C233.7,413.6,233.4,412.9,232.6,412.6z"/>
		<path fill="#006725" d="M240,416.1c-0.3,1-1.3,1.3-2.2,1.3c-0.9,0-1.9-0.4-2.1-1.3c-0.1-0.3-0.1-0.6-0.1-1v-3.5h1.1v3.6
			c0,0.2,0,0.4,0.1,0.5c0.2,0.5,0.6,0.6,1.1,0.6c0.5,0,1-0.2,1.1-0.7c0.1-0.2,0.1-0.5,0.1-0.7v-3.4h1v3.6
			C240.1,415.5,240.1,415.8,240,416.1z"/>
		<path fill="#006725" d="M243.5,417.4c-1.7,0-2.6-1.4-2.6-3c0-0.4,0-0.8,0.2-1.2c0.4-1.1,1.3-1.7,2.5-1.7c0.7,0,1.5,0.3,1.9,0.9
			c0.2,0.3,0.3,0.5,0.4,0.8l-1,0.3c-0.1-0.6-0.6-1-1.2-1c-1.1,0-1.5,1-1.5,1.9c0,0.7,0.2,1.5,0.9,1.9c0.2,0.1,0.4,0.2,0.6,0.2
			c0.7,0,1.2-0.5,1.4-1.1l1,0.4C245.5,416.8,244.6,417.4,243.5,417.4z"/>
		<path fill="#006725" d="M248.8,417.4c-1.7,0-2.6-1.4-2.6-3c0-0.4,0-0.8,0.2-1.2c0.4-1.1,1.3-1.7,2.5-1.7c0.7,0,1.5,0.3,1.9,0.9
			c0.2,0.3,0.3,0.5,0.4,0.8l-1,0.3c-0.1-0.6-0.6-1-1.2-1c-1.1,0-1.5,1-1.5,1.9c0,0.7,0.2,1.5,0.9,1.9c0.2,0.1,0.4,0.2,0.6,0.2
			c0.7,0,1.2-0.5,1.4-1.1l1,0.4C250.8,416.8,249.9,417.4,248.8,417.4z"/>
		<path fill="#006725" d="M251.8,417.3v-5.6h1v5.6H251.8z"/>
		<path fill="#006725" d="M256.4,417.4c-1.6,0-2.7-1.4-2.7-2.9c0-1.6,1-3,2.7-3c0.5,0,1,0.2,1.5,0.4c0.9,0.6,1.2,1.5,1.2,2.5
			C259,416.1,258,417.4,256.4,417.4z M258,414.5c0-1-0.5-2.1-1.6-2.1c-1.1,0-1.6,1-1.6,2c0,0.3,0,0.6,0.1,0.9
			c0.2,0.7,0.8,1.1,1.5,1.1c0.7,0,1.2-0.4,1.5-1C258,415.1,258,414.9,258,414.5L258,414.5z M256.6,411.1h-0.7l0.4-1h1.1L256.6,411.1
			z"/>
		<path fill="#006725" d="M263.3,417.3l-2.4-4l0.1,4h-1v-5.6h0.9l2.5,4l-0.1-4h1v5.6H263.3z"/>
		<path fill="#006725" d="M197.3,425.6l-0.3-1.1h-2.1l-0.3,1.1h-1.1l1.9-5.6h1.2l1.9,5.6H197.3z M196,421l-0.8,2.6h1.5L196,421z"/>
		<path fill="#006725" d="M204.5,425.6l-2.4-4l0.1,4h-1V420h0.9l2.5,4l-0.1-4h1v5.6H204.5z"/>
		<path fill="#006725" d="M206.5,425.6V420h1v5.6H206.5z"/>
		<path fill="#006725" d="M211.2,425.6h-1.4l-1.6-5.6h1.1l1.2,4.5l1.2-4.5h1.1L211.2,425.6z"/>
		<path fill="#006725" d="M213.3,425.6V420h4v0.9h-2.9v1.3h2.7v0.9h-2.7v1.5h3.1v1H213.3z"/>
		<path fill="#006725" d="M218.1,425.6V420h1.1v4.7h2.2v1H218.1z"/>
		<path fill="#006725" d="M226.4,425.8c-1.7,0-2.6-1.4-2.6-3c0-0.4,0-0.8,0.2-1.2c0.4-1.1,1.3-1.7,2.5-1.7c0.7,0,1.5,0.3,1.9,0.9
			c0.2,0.3,0.3,0.5,0.4,0.8l-1,0.3c-0.1-0.6-0.6-1-1.2-1c-1.1,0-1.5,1-1.5,1.9c0,0.7,0.2,1.5,0.9,1.9c0.2,0.1,0.4,0.2,0.6,0.2
			c0.7,0,1.2-0.5,1.4-1.1l1,0.4C228.4,425.2,227.6,425.8,226.4,425.8z"/>
		<path fill="#006725" d="M229.4,425.6V420h4v0.9h-2.9v1.3h2.7v0.9h-2.7v1.5h3.1v1H229.4z"/>
		<path fill="#006725" d="M234.3,425.6V420h1.1v4.7h2.2v1H234.3z"/>
		<path fill="#006725" d="M242.6,424.5c-0.3,1-1.3,1.3-2.2,1.3c-0.9,0-1.9-0.4-2.1-1.3c-0.1-0.3-0.1-0.6-0.1-1V420h1.1v3.6
			c0,0.2,0,0.4,0.1,0.5c0.2,0.5,0.6,0.6,1.1,0.6c0.5,0,1-0.2,1.1-0.7c0.1-0.2,0.1-0.5,0.1-0.7V420h1v3.6
			C242.7,423.9,242.7,424.2,242.6,424.5z"/>
		<path fill="#006725" d="M243.8,425.6V420h1.1v4.7h2.2v1H243.8z"/>
		<path fill="#006725" d="M251.1,425.6l-0.3-1.1h-2.1l-0.3,1.1h-1.1l1.9-5.6h1.2l1.9,5.6H251.1z M249.7,421l-0.8,2.6h1.5L249.7,421z
			"/>
		<path fill="#006725" d="M255.8,425.6l-1.1-2.1h-0.9v2.1h-1V420h2.1c0.7,0,1.3,0.1,1.7,0.7c0.2,0.3,0.3,0.7,0.3,1.1
			c0,0.7-0.4,1.4-1.1,1.6l1.2,2.3H255.8z M254.7,420.9c-0.3,0-0.6,0-1,0v1.8h0.7c0.6,0,1.4,0,1.4-0.9
			C255.8,421.1,255.3,420.9,254.7,420.9z"/>
	</g>
	<rect x="351.9" y="256.8" fill="#FFFFFF" width="51.5" height="10.6"/>
	<rect x="39.3" y="256.8" fill="#FFFFFF" width="68.5" height="10.6"/>
	<g>
		<path fill="#006725" d="M356.4,265v-5.6h4v0.9h-2.9v1.3h2.7v0.9h-2.7v1.5h3.1v1H356.4z"/>
		<path fill="#006725" d="M363.4,265.2c-1.7,0-2.6-1.4-2.6-3c0-0.4,0-0.8,0.2-1.2c0.4-1.1,1.3-1.7,2.5-1.7c0.7,0,1.5,0.3,1.9,0.9
			c0.2,0.3,0.3,0.5,0.4,0.8l-1,0.3c-0.1-0.6-0.6-1-1.2-1c-1.1,0-1.5,1-1.5,1.9c0,0.7,0.2,1.5,0.9,1.9c0.2,0.1,0.4,0.2,0.6,0.2
			c0.7,0,1.2-0.5,1.4-1.1l1,0.4C365.4,264.6,364.6,265.2,363.4,265.2z"/>
		<path fill="#006725" d="M368.9,265.2c-1.6,0-2.7-1.4-2.7-2.9c0-1.6,1-3,2.7-3c0.5,0,1,0.2,1.5,0.4c0.9,0.6,1.2,1.5,1.2,2.5
			C371.6,263.8,370.6,265.2,368.9,265.2z M370.5,262.3c0-1-0.5-2.1-1.6-2.1c-1.1,0-1.6,1-1.6,2c0,0.3,0,0.6,0.1,0.9
			c0.2,0.7,0.8,1.1,1.5,1.1c0.7,0,1.2-0.4,1.5-1C370.5,262.9,370.5,262.6,370.5,262.3L370.5,262.3z"/>
		<path fill="#006725" d="M372.4,265v-5.6h1.1v4.7h2.2v1H372.4z"/>
		<path fill="#006725" d="M378.5,265.2c-1.6,0-2.7-1.4-2.7-2.9c0-1.6,1-3,2.7-3c0.5,0,1,0.2,1.5,0.4c0.9,0.6,1.2,1.5,1.2,2.5
			C381.2,263.8,380.2,265.2,378.5,265.2z M380.1,262.3c0-1-0.5-2.1-1.6-2.1c-1.1,0-1.6,1-1.6,2c0,0.3,0,0.6,0.1,0.9
			c0.2,0.7,0.8,1.1,1.5,1.1c0.7,0,1.2-0.4,1.5-1C380.1,262.9,380.1,262.6,380.1,262.3L380.1,262.3z M378.8,258.8H378l0.4-1h1.1
			L378.8,258.8z"/>
		<path fill="#006725" d="M385.9,265v-0.5c-0.4,0.4-0.9,0.6-1.5,0.6c-1.7,0-2.7-1.3-2.7-2.9c0-1.6,1-3,2.7-3c1.1,0,2,0.6,2.4,1.7
			l-1,0.4c-0.2-0.6-0.6-1.1-1.3-1.1c-1.1,0-1.6,1-1.6,2c0,0.7,0.2,1.5,0.9,1.8c0.2,0.1,0.4,0.2,0.7,0.2c0.6,0,1.1-0.3,1.3-0.9
			c0-0.1,0.1-0.3,0.1-0.4h-1.4V262h2.3v3.1H385.9z"/>
		<path fill="#006725" d="M387.8,265v-5.6h1v5.6H387.8z"/>
		<path fill="#006725" d="M392.2,265.2c-1.7,0-2.6-1.4-2.6-3c0-0.4,0-0.8,0.2-1.2c0.4-1.1,1.3-1.7,2.5-1.7c0.7,0,1.5,0.3,1.9,0.9
			c0.2,0.3,0.3,0.5,0.4,0.8l-1,0.3c-0.1-0.6-0.6-1-1.2-1c-1.1,0-1.5,1-1.5,1.9c0,0.7,0.2,1.5,0.9,1.9c0.2,0.1,0.4,0.2,0.6,0.2
			c0.7,0,1.2-0.5,1.4-1.1l1,0.4C394.2,264.6,393.3,265.2,392.2,265.2z"/>
		<path fill="#006725" d="M397.6,265.2c-1.6,0-2.7-1.4-2.7-2.9c0-1.6,1-3,2.7-3c0.5,0,1,0.2,1.5,0.4c0.9,0.6,1.2,1.5,1.2,2.5
			C400.3,263.8,399.3,265.2,397.6,265.2z M399.3,262.3c0-1-0.5-2.1-1.6-2.1c-1.1,0-1.6,1-1.6,2c0,0.3,0,0.6,0.1,0.9
			c0.2,0.7,0.8,1.1,1.5,1.1c0.7,0,1.2-0.4,1.5-1C399.2,262.9,399.3,262.6,399.3,262.3L399.3,262.3z"/>
	</g>
	<g>
		<path fill="#006725" d="M46,264.1l-0.3-1.1h-2.1l-0.3,1.1h-1.1l1.9-5.6h1.2l1.9,5.6H46z M44.7,259.5l-0.8,2.6h1.5L44.7,259.5z"/>
		<path fill="#006725" d="M51.1,264.1l-2.4-4l0.1,4h-1v-5.6h0.9l2.5,4l-0.1-4h1v5.6H51.1z"/>
		<path fill="#006725" d="M55.2,259.4v4.7h-1v-4.7h-1.5v-1h4.1v1H55.2z"/>
		<path fill="#006725" d="M57.4,264.1v-5.6h1v5.6H57.4z"/>
		<path fill="#006725" d="M61.5,264.2c-0.7,0-1.5-0.2-2-0.7c-0.1-0.1-0.3-0.3-0.4-0.5l0.9-0.6c0.1,0.1,0.1,0.2,0.2,0.2
			c0.4,0.4,1,0.6,1.5,0.6c0.5,0,1.1-0.2,1.1-0.7c0-0.6-0.7-0.6-1.1-0.7l-0.7-0.2c-0.2,0-0.3-0.1-0.5-0.1c-0.7-0.2-1.1-0.7-1.1-1.4
			c0-1.2,1.1-1.8,2.2-1.8c0.8,0,1.5,0.3,2.1,0.9c0.1,0.1,0.1,0.2,0.2,0.2l-0.9,0.6c-0.3-0.5-0.8-0.8-1.4-0.8c-0.4,0-1.1,0.2-1.1,0.7
			c0,0.5,0.7,0.6,1,0.7c1.1,0.2,2.4,0.4,2.4,1.8C63.9,263.8,62.7,264.2,61.5,264.2z"/>
		<path fill="#006725" d="M64.7,264.1v-5.6h4v0.9h-2.9v1.3h2.7v0.9h-2.7v1.5h3.1v1H64.7z"/>
		<path fill="#006725" d="M72.9,264.1l-2.4-4l0.1,4h-1v-5.6h0.9l2.5,4l-0.1-4h1v5.6H72.9z"/>
		<path fill="#006725" d="M74.9,264.1v-5.6h4v0.9h-2.9v1.3h2.7v0.9h-2.7v1.5h3.1v1H74.9z"/>
		<path fill="#006725" d="M81.7,264.2c-0.7,0-1.5-0.2-2-0.7c-0.1-0.1-0.3-0.3-0.4-0.5l0.9-0.6c0.1,0.1,0.1,0.2,0.2,0.2
			c0.4,0.4,1,0.6,1.5,0.6c0.5,0,1.1-0.2,1.1-0.7c0-0.6-0.7-0.6-1.1-0.7l-0.7-0.2c-0.2,0-0.3-0.1-0.5-0.1c-0.7-0.2-1.1-0.7-1.1-1.4
			c0-1.2,1.1-1.8,2.2-1.8c0.8,0,1.5,0.3,2.1,0.9c0.1,0.1,0.1,0.2,0.2,0.2l-0.9,0.6c-0.3-0.5-0.8-0.8-1.4-0.8c-0.4,0-1.1,0.2-1.1,0.7
			c0,0.5,0.7,0.6,1,0.7c1.1,0.2,2.4,0.4,2.4,1.8C84.1,263.8,82.8,264.2,81.7,264.2z"/>
		<path fill="#006725" d="M87.1,264.2c-1.7,0-2.6-1.4-2.6-3c0-0.4,0-0.8,0.2-1.2c0.4-1.1,1.3-1.7,2.5-1.7c0.7,0,1.5,0.3,1.9,0.9
			c0.2,0.3,0.3,0.5,0.4,0.8l-1,0.3c-0.1-0.6-0.6-1-1.2-1c-1.1,0-1.5,1-1.5,1.9c0,0.7,0.2,1.5,0.9,1.9c0.2,0.1,0.4,0.2,0.6,0.2
			c0.7,0,1.2-0.5,1.4-1.1l1,0.4C89.1,263.6,88.2,264.2,87.1,264.2z"/>
		<path fill="#006725" d="M90.1,264.1v-5.6h4v0.9h-2.9v1.3h2.7v0.9h-2.7v1.5h3.1v1H90.1z"/>
		<path fill="#006725" d="M98.3,264.1l-2.4-4l0.1,4h-1v-5.6h0.9l2.5,4l-0.1-4h1v5.6H98.3z"/>
		<path fill="#006725" d="M102.4,259.4v4.7h-1v-4.7h-1.5v-1h4.1v1H102.4z"/>
		<path fill="#006725" d="M104.6,264.1v-5.6h4v0.9h-2.9v1.3h2.7v0.9h-2.7v1.5h3.1v1H104.6z"/>
	</g>
</g>
</svg>
