<?xml version="1.0" encoding="utf-8"?>
<!-- Generator: Adobe Illustrator 18.0.0, SVG Export Plug-In . SVG Version: 6.00 Build 0)  -->
<!DOCTYPE svg PUBLIC "-//W3C//DTD SVG 1.1//EN" "http://www.w3.org/Graphics/SVG/1.1/DTD/svg11.dtd">
<svg version="1.1" id="Layer_1" xmlns="http://www.w3.org/2000/svg" xmlns:xlink="http://www.w3.org/1999/xlink" x="0px" y="0px"
	 viewBox="0 0 792 612" enable-background="new 0 0 792 612" xml:space="preserve">
<g>
	<g>
		<g>
			<g>
				<g>
					<path fill="#006725" d="M179.2,190l-4.4,23.4c-10-3.1-20.2-4.6-30.6-4.6c-17.1,0-30.4,4.9-39.8,14.7
						c-9.5,9.8-14.2,21.3-14.2,34.5c0,10.3,3.3,18.6,9.8,24.7c6.5,6.1,15.3,9.2,26.4,9.2c13.6,0,28.9-4.9,46-14.8l-3.9,28.2
						c-15,6.6-29.9,10-44.5,10c-18.4,0-33.2-5.4-44.6-16c-11.4-10.7-17-24.7-17-41.9c0-21.1,7.7-38.3,23-51.8
						c15.3-13.4,35.2-20.2,59.5-20.2C155.5,185.4,166.9,186.9,179.2,190z"/>
					<path fill="#006725" d="M301.9,230.7l-1.9,12.2l0.4,0.4c7.5-9.2,14.3-13.9,20.5-13.9c4.7,0,9.7,3.1,15,9.2l-11.7,23.2
						c-4-6-8-9.1-11.9-9.1c-3.3,0-6.7,1.7-10,5.2c-3.3,3.4-5.1,5.8-5.3,7.1l-7,50H265l11.9-84.3H301.9z"/>
				</g>
			</g>
			<g>
				<path fill="#6EBB20" d="M580.2,187.2c-1.6,0.9-3,1.7-4.3,2.7c-0.2,0.1-0.3,0.2-0.4,0.3c-5.9,4.5-8.3,9.7-8.9,14.4
					c-0.2,1.4-0.2,2.8-0.1,4.1c0.3,5.7,2.7,9.9,2.7,9.9c0.1,0,0.1,0,0.2,0c3.8-0.2,7.4-0.6,10.7-1.3c0.7-0.1,1.3-0.3,1.9-0.4
					c2.2-0.5,4.3-1.2,6.3-1.9c0.8-0.3,1.6-0.6,2.3-0.9c25.8-11.1,29.2-39,26.3-51.1c0,0,0-0.1,0-0.1
					C607.4,171.6,602.7,175.4,580.2,187.2z"/>
			</g>
			<g>
				<path fill="#006725" d="M174.5,315.1L198,192.5H223l-9.6,49h0.3c7.1-7.8,16-12.8,27.2-12.8c13.2,0,21.4,8.3,21.4,22.8
					c0,4-0.7,10.4-1.6,15.2l-9.2,48.4h-25.1l8.9-46.3c0.7-3.3,1-6.9,1-10.4c0-5.7-2.3-9.7-8.5-9.7c-8.9,0-17.8,10.7-20.9,27.6
					l-7.5,38.7H174.5z"/>
			</g>
			<path fill="#006725" d="M449.1,230.8l-1.3,9.6c9.3-7.3,18.9-11,28.7-11c7.4,0,13,2.3,16.9,6.8c3.9,4.5,5.9,10.9,5.9,19.1
				c0,2.4-0.2,4.9-0.5,7.6l-7.2,52.1h-25.1l7.1-50.2c0.2-1.4,0.4-2.9,0.4-4.3c0-8.3-2.6-12.5-7.8-12.5c-6,0-13,4.3-21.1,13
				l-7.6,54.1h-25.1l12-84.3H449.1z"/>
			<g>
				<path fill="#006725" d="M411.7,263.2c0,30-20.6,52-48.9,52c-20.8,0-34.7-13.6-34.7-34c0-28.3,19.8-51.8,48.9-51.8
					C399,229.4,411.7,244.5,411.7,263.2z M353.1,280.9c0,9.6,4.7,15.9,13.2,15.9c12.9,0,20.4-19.4,20.4-33.4
					c0-7.5-3.3-15.6-12.9-15.6C359.9,247.8,353.1,268.1,353.1,280.9z"/>
			</g>
			<path fill="#006725" d="M684.6,232.9l-2.5,15.2c-3.1-2.2-6.7-4-10.7-5.5c-4-1.4-7.6-2.1-10.6-2.1c-3.5,0-6.3,0.9-8.6,2.7
				c-2.3,1.8-3.5,4.1-3.5,6.8c0,1.6,0.6,3.3,1.9,5c1.3,1.7,5.4,4.5,12.3,8.7c6.9,4.1,11.5,8.2,13.9,12.1c2.4,4,3.6,8.1,3.6,12.4
				c0,7.6-2.6,13.9-7.9,18.9c-5.3,5-12.4,7.5-21.3,7.5c-11.3,0-21.1-2.7-29.3-8.2l2.8-15c3.7,2.6,7.8,4.8,12.4,6.4
				c4.5,1.6,8.5,2.4,12,2.4c3.7,0,6.8-0.9,9-2.6c2.3-1.7,3.4-4,3.4-6.9c0-2-0.7-4-2.2-6c-1.5-2-5.7-5.2-12.6-9.4
				c-6.9-4.3-11.5-8.2-13.7-11.9c-2.2-3.6-3.3-7.4-3.3-11.2c0-7.4,2.9-13.6,8.6-18.6c5.8-5,13-7.5,21.7-7.5
				C668.7,226.1,676.9,228.4,684.6,232.9z"/>
		</g>
		<g>
			<path fill="#FFFFFF" d="M532.8,363.1l-0.9-2.9l1-2.8c0.6-0.4,1.2-0.9,1.9-1.7c0.6-0.7,1.2-1.4,1.9-2.4c0.9-1.3,1.7-2.5,2.4-3.7
				l0.5-0.8c-0.6-1.6-0.9-3.3-1.1-5.3c-0.3-5.3,1.5-10.2,5-13.9l3.7-3.9l2.4-0.6l2.7,0.8l1.7,1.8l1.1,5.3
				c1.3,12.9-8.9,24.5-10.1,25.8c-1,1.1-2.7,2.7-4.4,3.7l-0.7,0.4c-1.1,0.7-2.5,1.7-4.6,1.8L532.8,363.1z"/>
			<path fill="#C31C2A" d="M538.6,361c0.2-0.2,0.5-0.3,0.8-0.5c1.5-0.9,3-2.3,3.9-3.3c1.1-1.2,10.7-12.1,9.5-23.7l-1.1-5.3l-2.7-0.8
				l-3.7,3.9c-3.1,3.2-4.6,7.5-4.4,12c0.2,2.2,0.6,4.1,1.4,5.7l-0.1,0.1c-0.3,0.6-0.7,1.1-1,1.7c-0.8,1.3-1.6,2.6-2.5,3.9
				c-0.7,1.1-1.4,1.9-2,2.6c-0.8,0.9-1.6,1.6-2.4,2.1l0.9,2.9C536.5,362.3,537.6,361.6,538.6,361z"/>
			<path fill="#C31C2A" d="M558.9,361.9c1.9-2.1,3.4-4.7,4.6-7.9c0.5-1.4,0.8-2.8,1.2-4.2c0.3-1.3,0.6-2.5,1-3.7l-2.9-1.2
				c-0.6,1.3-1.1,2.7-1.5,4c-0.4,1.3-0.9,2.5-1.4,3.7c-1.3,2.6-2.7,4.7-4.4,6.4c-3.4,3.4-8.6,5.9-15,7.2c-4.3,0.9-9,1.3-14.4,1.3
				c-1.3,0-2.6,0-3.8-0.1c-5.9-0.2-12.1-0.8-18.6-1.8c-6.5-1-12.7-2.2-18.5-3.4l-0.8-0.2c-6-1.2-12.2-2.5-18.7-2.9
				c-1.4-0.1-2.9-0.2-4.4-0.2c-5.5,0-11,0.7-16.3,2.1c-1.2,0.3-2.4,0.7-3.8,1.1c1.2-2.6,2.4-5.3,3.6-8.4c2.5-6.2,4.6-12.4,6.2-17.1
				c2-6.3,3.6-12,4.9-17.4c0.8-3.4,1.4-6.2,1.8-9l0.1-0.5c0.4-2.9,0.8-5.9,0.4-9.5l-1.3-11.5l-3.1-0.2c-0.1,0.3-6.9,27.1-13.6,35.7
				c-6.1,7.8-19,19-45.5,27.4c-8.7,2.8-22.9,5.2-42,7.2l-1,0.1c-5.2,0.6-10,1-14.6,1.2c-2.4,0.1-4.7,0.1-7.1,0.1
				c-7.2,0-14.6-0.5-22.1-1.4c-8.3-1-17.5-2.7-28.9-5.3c-5.4-1.3-9.7-2.8-13.3-4.7c-3.8-1.9-7.5-4.5-10.9-7.8l-2.3,2.2
				c3.4,3.8,7.1,6.9,11.1,9.2c3.7,2.2,8.1,4,13.9,5.8c4.6,1.4,9.1,2.5,14.5,3.8c4.9,1.2,9.9,2.2,14.8,3c9.6,1.6,19.5,2.4,29.4,2.4
				l1.1,0c5.2,0,10.3-0.3,15.3-0.7c3.6-0.3,7.2-0.7,10.6-1.2c1.5-0.2,8.8-1,8.8-1c8.5-1,17.2-2.1,25.8-4.5
				c8.7-2.4,17.5-6.4,27.7-12.7c1-0.6,2-1.2,3.1-1.9c1.1-0.8,2.2-1.5,3.3-2.4c1.9-1.6,3.7-3.3,5.5-5.3c0.8-0.9,1.7-2.1,2.7-3.4
				c-12.6,38-26.5,47.5-26.6,47.5l1.6,2.7l16.6-8.7c11.3-5.9,21.4-8.7,30.9-8.7c0.8,0,1.7,0,2.5,0.1c5.9,0.2,11.7,1.3,18.2,2.4
				c5.6,1,12.3,2.1,19.2,2.8c7,0.8,12.7,1.1,18.2,1.1l1.4,0c7.6-0.1,14.1-0.9,19.8-2.3C546.9,370.1,554.1,367.4,558.9,361.9z"/>
			<path fill="#C31C2A" d="M606.1,298.1c-4,1.8-7.3,4.4-9.5,7.7c-1.9,3-3.3,6.6-4.1,11.1c-0.1,0.3-0.1,0.6-0.1,0.9
				c10.8-5.1,19.9-13.2,26.3-23.3C614.5,295.3,610,296.3,606.1,298.1z"/>
			<path fill="#C31C2A" d="M610.2,322c1.4-1.4,3.7-4.1,3-7.3l-3-0.4c-0.6,1.3-1.8,2.2-3.8,3.2c-1.7,0.9-3.7,1.4-5.6,1.9
				c-3.4,0.9-7.1,1.5-11.4,1.9c0.2-1.8,0.4-3.4,0.7-4.9c0.9-4.8,2.3-8.8,4.4-12c2.4-3.6,6-6.5,10.4-8.5c4.9-2.3,10.6-3.4,15.5-4.2
				l-0.1-3.1c-1.9-0.2-3.9-0.3-5.8-0.3c-4.3,0-8.4,0.5-12.3,1.6c-3.1,0.9-6,2.2-8.6,3.7c-2.5,1.5-4.8,3.5-7,6
				c-3.4,3.9-5.8,8.9-7.3,15.1c-0.5,2.2-0.9,4.5-1.2,7.1c-0.9,0-1.8-0.1-2.7-0.1c-3.4-0.2-7.9-0.7-12.4-2.6l-1.8,2.4
				c3.2,4.1,8.8,6.2,12.9,7.2c1,0.2,2.1,0.4,3.4,0.6l0,0.8c-0.1,2.3-0.2,4.5-0.4,6.7c-0.1,1.1-0.2,2.2-0.4,3.2l-0.6,3.5
				c-0.7,4-1.7,8.7-3.6,13c-1.9,4.3-4.6,7.8-8.1,10.6c-2,1.6-4.1,2.9-6.1,3.7c-1.1,0.5-2.3,0.7-3.3,0.7c-1.1,0-2.1-0.3-3-0.8l-2,2.4
				c1.1,1.2,2.8,2.2,4.6,2.5c0.7,0.2,1.5,0.2,2.4,0.2c0.9,0,1.8-0.1,2.8-0.3c3.5-0.6,6.5-2.1,8.8-3.3c2.5-1.5,4.9-3.3,7.1-5.4
				c1.9-1.9,3.6-4.1,5.3-6.8c3-5,4.6-10.3,5.6-14.9c0.3-1.1,0.5-2.2,0.8-3.4l0.1-0.3c0.3-1.3,0.5-2.7,0.6-4c0.2-2,0.3-4,0.5-5.9
				l0.1-2.1c0.1,0,0.3,0,0.4,0c5.3-0.5,10.2-1.7,14.5-3.6C606.3,325,608.4,323.7,610.2,322z"/>
			<path fill="#C31C2A" d="M726.1,338.4c-1.5-1.9-3.8-3.5-6.5-4.6c-3.8-1.5-8.2-2.3-13.9-2.3c-0.6,0-1.2,0-1.8,0
				c-4.9,0.2-10,1-15.3,2.3c-2.6,0.6-5,1.4-7.4,2.4c-2.2,0.9-4.5,1.9-6.8,3.1c-4.8,2.4-9.3,5.1-13.6,7.7c-3.6,2.2-7.1,4.3-10.7,6.2
				c-8.6,4.6-16.7,7.3-24.9,8c-2.3,0.3-4.6,0.4-6.6,0.4c-2.3,0-4.3-0.2-6.2-0.5c-1-0.2-2-0.4-2.8-0.7c0.7-0.5,1.3-1,1.9-1.4
				c1.7-1.3,3.3-2.9,5.2-4.8c1.6-1.6,3-3.5,4.4-5.6c1.4-2.2,2.4-4.3,3.2-6.5c0.4-1.4,0.7-2.7,0.8-3.9c0-0.4,0-0.7,0-1.2l0-0.4
				c0-0.2,0-0.3-0.1-0.7c-0.2-1-0.5-1.8-1-2.6c-1-1.9-3.4-3.5-5.8-3.8c-0.7-0.1-1.5-0.2-2.1-0.2c-1.1,0-2.1,0.1-3.4,0.4
				c-2.7,0.6-5.1,1.6-8,3.3c-1.2,0.7-2.3,1.5-3.3,2.3c-1.1,0.8-2.2,1.9-3.1,3c-1.7,2-3,4.4-3.8,7.1c-1.6,5.1-1.2,10.6,1.1,15.3
				c0.7,1.3,1.4,2.5,2.3,3.6l0.5,0.6l0.7,0.7l0.4,0.4c0.8,0.7,1.5,1.2,2.2,1.6c2.4,1.5,5.2,2.5,8.7,3.2c2.8,0.5,5.7,0.8,8.9,0.8
				c2.2,0,4.7-0.1,7.4-0.4c5.2-0.5,10.5-1.7,15.4-3.4c4.7-1.6,9.3-3.7,13.8-6.3c4.3-2.5,8.4-5.1,12.3-7.7c3.8-2.5,7.4-4.8,11.2-7
				c2-1.2,3.9-2.2,5.9-3.1c1.7-0.8,3.6-1.6,6.1-2.4c4.4-1.5,8.8-2.5,13.2-3c2.1-0.3,4-0.4,5.8-0.4c2.7,0,5.2,0.3,7.3,0.9
				c2.1,0.6,3.9,1.5,5.2,2.7c1.3,1.1,2.2,2.7,2.9,4.6l3.1-0.6C728.7,342.7,727.7,340.3,726.1,338.4z M605.8,357.2
				c-0.2-0.2-0.3-0.5-0.4-0.7c-1.4-2.6-1.8-5.9-1-9c0.4-1.5,1.1-2.9,2-4.2c0.5-0.7,1-1.2,1.6-1.7c0.7-0.6,1.4-1.2,2.2-1.8
				c1.6-1.1,3.4-2,4.9-2.4c0.5-0.2,1.1-0.2,1.5-0.2l0.2-0.1c0,0,0.1,0.2,0.2,0.4l0.1,0.1l-0.1,0c0,0.2,0,0.3,0,0.5
				c0,0.6,0,1.4-0.2,2.2c-0.3,1.5-0.9,3.2-1.9,5.2c-1.5,3.1-3.8,6.3-7,9.8C607.2,356,606.5,356.7,605.8,357.2z"/>
			<path fill="#C31C2A" d="M550,321.4c2.4,0,4.3-2.1,4.3-4.7c0-2.6-1.9-4.6-4.3-4.6c-2.3,0-4.2,2.1-4.2,4.6
				C545.8,319.3,547.7,321.4,550,321.4z"/>
			<path fill="#C31C2A" d="M600.2,214.7l-10.2,16c12.6,6.4,20.6,19.8,19.7,35.2c-0.3,5.6-1.8,10.9-4.2,15.7
				c-10.5-3-19.7-3.5-28.2-2.5c-12.5-24.7-7.4-63.1-7.4-63.1s0,0-1.7,0.6c-5.3,34.2-2.4,55.1-0.4,64.2c-4.4,1-8.8,2.4-13.2,3.8
				c-7.8,2.6-14.5,2-19.7,0.4c-2.8-5.6-4.2-12.1-3.7-19c1-15.4,10.7-28.8,24.1-35.2l-8.2-16c-19.1,9.6-32.9,28.9-34.3,51.2
				c-1.5,23.5,11.3,43.7,31,52.7c-0.1-0.6-0.2-1.2-0.2-1.8c0-3.9,3-7,6.6-7c3.7,0,6.6,3.1,6.6,7c0,2.2-0.9,4.1-2.4,5.4
				c1.7,0.4,3.5,0.7,5.3,0.9c0,0-0.1-0.1-0.1-0.1l0-2.9l1.8-2.4l2.8-0.8c4.2,1.7,8.4,2.2,11.7,2.4c0.2,0,0.3,0,0.5,0
				c0.3-1.8,0.6-3.6,1-5.2c1.6-6.6,4.1-11.8,7.8-16.1c2.3-2.7,4.9-4.9,7.6-6.5c2.7-1.7,5.8-3,9.2-4c4.1-1.1,8.5-1.7,13-1.7
				c2,0,4,0.1,6,0.3l1.6,1.7c3.3-6.8,5.3-14.3,5.8-22.1C629.5,243.6,618.1,224.3,600.2,214.7z"/>
		</g>
		<g>
			<path fill="#C31C2A" d="M703.2,342.6c6.9,0,12.3,5.4,12.3,12.1c0,6.9-5.4,12.2-12.4,12.2c-6.9,0-12.4-5.3-12.4-12.2
				C690.7,348,696.2,342.6,703.2,342.6L703.2,342.6z M703,345c-5.3,0-9.3,4.3-9.3,9.7c0,5.4,4,9.6,9.4,9.6c5.3,0.1,9.2-4.3,9.2-9.6
				C712.4,349.4,708.5,345,703,345L703,345z M701.2,360.9h-2.8v-12c1.1-0.2,2.7-0.4,4.6-0.4c2.3,0,3.3,0.4,4.2,1
				c0.7,0.5,1.2,1.5,1.2,2.6c0,1.4-1,2.4-2.5,2.9v0.1c1.2,0.4,1.8,1.3,2.2,3c0.4,1.8,0.6,2.6,0.9,2.9h-3c-0.4-0.4-0.6-1.5-1-2.9
				c-0.2-1.3-1-1.9-2.5-1.9h-1.3V360.9z M701.3,354.1h1.3c1.5,0,2.8-0.5,2.8-1.8c0-1.1-0.8-1.8-2.6-1.8c-0.7,0-1.3,0.1-1.5,0.2
				V354.1z"/>
		</g>
	</g>
	<g>
		<path fill="#006725" d="M122.1,419.5l10.8,28.9h-6.6l-2.2-6.4h-10.8l-2.3,6.4h-6.4l10.9-28.9H122.1z M122.5,437.2l-3.6-10.6h-0.1
			l-3.8,10.6H122.5z"/>
		<path fill="#006725" d="M140.9,419.5l12,19.4h0.1v-19.4h5.9v28.9h-6.3l-12-19.3h-0.1v19.3h-5.9v-28.9H140.9z"/>
		<path fill="#006725" d="M161.5,424.8v-5.3h23.6v5.3h-8.6v23.5h-6.3v-23.5H161.5z"/>
		<path fill="#006725" d="M194,419.5v28.9h-6.3v-28.9H194z"/>
		<path fill="#006725" d="M203.6,441.2c0.4,0.7,0.8,1.2,1.4,1.6c0.6,0.4,1.3,0.7,2,0.9c0.8,0.2,1.6,0.3,2.4,0.3c0.6,0,1.2,0,1.8-0.1
			c0.6-0.1,1.3-0.3,1.8-0.5c0.6-0.3,1-0.6,1.4-1.1c0.4-0.5,0.6-1.1,0.6-1.8c0-0.8-0.2-1.4-0.7-1.9c-0.5-0.5-1.2-0.9-2-1.2
			c-0.8-0.3-1.7-0.6-2.7-0.8c-1-0.2-2.1-0.5-3.1-0.8c-1.1-0.3-2.1-0.6-3.2-1c-1-0.4-1.9-0.9-2.7-1.5c-0.8-0.6-1.5-1.4-2-2.3
			c-0.5-0.9-0.7-2.1-0.7-3.4c0-1.5,0.3-2.8,0.9-3.9c0.6-1.1,1.5-2,2.5-2.7c1-0.7,2.2-1.3,3.5-1.6c1.3-0.3,2.6-0.5,3.9-0.5
			c1.5,0,3,0.2,4.3,0.5c1.4,0.3,2.6,0.9,3.7,1.6c1.1,0.8,1.9,1.7,2.6,2.9c0.6,1.2,0.9,2.6,0.9,4.3h-6.1c-0.1-0.9-0.2-1.6-0.5-2.1
			c-0.3-0.6-0.7-1-1.2-1.3c-0.5-0.3-1.1-0.6-1.8-0.7c-0.7-0.1-1.4-0.2-2.2-0.2c-0.5,0-1,0.1-1.5,0.2c-0.5,0.1-1,0.3-1.4,0.6
			c-0.4,0.3-0.8,0.6-1,1c-0.3,0.4-0.4,0.9-0.4,1.5c0,0.6,0.1,1,0.3,1.4c0.2,0.4,0.6,0.7,1.3,1s1.5,0.6,2.6,0.9
			c1.1,0.3,2.6,0.7,4.4,1.1c0.5,0.1,1.3,0.3,2.2,0.6c1,0.3,1.9,0.7,2.8,1.4c0.9,0.6,1.8,1.4,2.4,2.5c0.7,1,1,2.4,1,4
			c0,1.3-0.3,2.5-0.8,3.7c-0.5,1.1-1.3,2.1-2.3,2.9c-1,0.8-2.3,1.5-3.8,1.9c-1.5,0.5-3.2,0.7-5.2,0.7c-1.6,0-3.1-0.2-4.6-0.6
			c-1.5-0.4-2.8-1-4-1.8c-1.1-0.8-2.1-1.9-2.7-3.2c-0.7-1.3-1-2.8-1-4.6h6.1C203.1,439.7,203.2,440.6,203.6,441.2z"/>
		<path fill="#006725" d="M245.7,419.5v5.3h-15.2v6.2h14v4.9h-14v7.1h15.6v5.3h-21.9v-28.9H245.7z"/>
		<path fill="#006725" d="M255.8,419.5l12,19.4h0.1v-19.4h5.9v28.9h-6.3l-12-19.3h-0.1v19.3h-5.9v-28.9H255.8z"/>
		<path fill="#006725" d="M300.3,419.5v5.3H285v6.2h14v4.9h-14v7.1h15.6v5.3h-21.9v-28.9H300.3z"/>
		<path fill="#006725" d="M308.9,441.2c0.4,0.7,0.8,1.2,1.4,1.6c0.6,0.4,1.3,0.7,2,0.9c0.8,0.2,1.6,0.3,2.4,0.3c0.6,0,1.2,0,1.8-0.1
			c0.6-0.1,1.3-0.3,1.8-0.5c0.6-0.3,1-0.6,1.4-1.1c0.4-0.5,0.6-1.1,0.6-1.8c0-0.8-0.2-1.4-0.7-1.9c-0.5-0.5-1.2-0.9-2-1.2
			c-0.8-0.3-1.7-0.6-2.7-0.8s-2.1-0.5-3.1-0.8c-1.1-0.3-2.1-0.6-3.2-1c-1-0.4-1.9-0.9-2.7-1.5c-0.8-0.6-1.5-1.4-2-2.3
			c-0.5-0.9-0.7-2.1-0.7-3.4c0-1.5,0.3-2.8,0.9-3.9c0.6-1.1,1.5-2,2.5-2.7c1-0.7,2.2-1.3,3.5-1.6c1.3-0.3,2.6-0.5,3.9-0.5
			c1.5,0,3,0.2,4.3,0.5c1.4,0.3,2.6,0.9,3.7,1.6c1.1,0.8,1.9,1.7,2.6,2.9c0.6,1.2,0.9,2.6,0.9,4.3h-6.1c-0.1-0.9-0.2-1.6-0.5-2.1
			c-0.3-0.6-0.7-1-1.2-1.3c-0.5-0.3-1.1-0.6-1.8-0.7c-0.7-0.1-1.4-0.2-2.2-0.2c-0.5,0-1,0.1-1.5,0.2c-0.5,0.1-1,0.3-1.4,0.6
			c-0.4,0.3-0.8,0.6-1,1c-0.3,0.4-0.4,0.9-0.4,1.5c0,0.6,0.1,1,0.3,1.4c0.2,0.4,0.6,0.7,1.3,1c0.6,0.3,1.5,0.6,2.6,0.9
			c1.1,0.3,2.6,0.7,4.4,1.1c0.5,0.1,1.3,0.3,2.2,0.6c1,0.3,1.9,0.7,2.8,1.4c0.9,0.6,1.8,1.4,2.4,2.5c0.7,1,1,2.4,1,4
			c0,1.3-0.3,2.5-0.8,3.7c-0.5,1.1-1.3,2.1-2.3,2.9c-1,0.8-2.3,1.5-3.8,1.9c-1.5,0.5-3.2,0.7-5.2,0.7c-1.6,0-3.1-0.2-4.6-0.6
			c-1.5-0.4-2.8-1-4-1.8c-1.1-0.8-2.1-1.9-2.7-3.2c-0.7-1.3-1-2.8-1-4.6h6.1C308.4,439.7,308.5,440.6,308.9,441.2z"/>
		<path fill="#006725" d="M348,427.2c-0.4-0.6-0.8-1.1-1.4-1.6c-0.6-0.5-1.2-0.8-1.9-1.1c-0.7-0.3-1.5-0.4-2.2-0.4
			c-1.4,0-2.6,0.3-3.6,0.8c-1,0.6-1.8,1.3-2.4,2.2c-0.6,0.9-1.1,2-1.4,3.2c-0.3,1.2-0.4,2.4-0.4,3.7c0,1.2,0.1,2.4,0.4,3.5
			c0.3,1.1,0.7,2.2,1.4,3.1c0.6,0.9,1.4,1.6,2.4,2.2c1,0.6,2.2,0.8,3.6,0.8c1.9,0,3.5-0.6,4.5-1.8c1.1-1.2,1.8-2.7,2-4.7h6.1
			c-0.2,1.8-0.6,3.4-1.3,4.9c-0.7,1.5-1.6,2.7-2.7,3.7c-1.1,1-2.4,1.8-3.9,2.3c-1.5,0.5-3.1,0.8-4.9,0.8c-2.2,0-4.2-0.4-6-1.2
			c-1.8-0.8-3.3-1.8-4.5-3.2c-1.2-1.3-2.1-2.9-2.8-4.7c-0.6-1.8-1-3.8-1-5.9c0-2.2,0.3-4.2,1-6c0.6-1.8,1.6-3.5,2.8-4.8
			c1.2-1.4,2.7-2.5,4.5-3.2c1.8-0.8,3.8-1.2,6-1.2c1.6,0,3.1,0.2,4.5,0.7c1.4,0.5,2.7,1.1,3.8,2c1.1,0.9,2,2,2.8,3.3
			c0.7,1.3,1.2,2.8,1.4,4.4h-6.1C348.6,428.5,348.4,427.8,348,427.2z"/>
		<path fill="#006725" d="M380.2,419.5v5.3H365v6.2h14v4.9h-14v7.1h15.6v5.3h-21.9v-28.9H380.2z"/>
		<path fill="#006725" d="M390.3,419.5l12,19.4h0.1v-19.4h5.9v28.9H402L390,429h-0.1v19.3H384v-28.9H390.3z"/>
		<path fill="#006725" d="M410.9,424.8v-5.3h23.6v5.3h-8.6v23.5h-6.3v-23.5H410.9z"/>
		<path fill="#006725" d="M458.6,419.5v5.3h-15.2v6.2h14v4.9h-14v7.1h15.6v5.3H437v-28.9H458.6z"/>
		<path fill="#006725" d="M487.2,419.5l10.8,28.9h-6.6l-2.2-6.4h-10.8l-2.3,6.4h-6.4l10.9-28.9H487.2z M487.6,437.2l-3.6-10.6h-0.1
			l-3.8,10.6H487.6z"/>
		<path fill="#006725" d="M516.8,448.1c-1.4,0.6-2.8,0.9-4.2,0.9c-2.2,0-4.2-0.4-6-1.2c-1.8-0.8-3.3-1.8-4.5-3.2
			c-1.2-1.3-2.1-2.9-2.8-4.7c-0.6-1.8-1-3.8-1-5.9c0-2.2,0.3-4.2,1-6c0.6-1.8,1.6-3.5,2.8-4.8c1.2-1.4,2.7-2.5,4.5-3.2
			c1.8-0.8,3.8-1.2,6-1.2c1.5,0,2.9,0.2,4.3,0.7c1.4,0.4,2.6,1.1,3.8,2c1.1,0.9,2,1.9,2.8,3.2c0.7,1.3,1.2,2.7,1.3,4.4h-6.1
			c-0.4-1.6-1.1-2.8-2.2-3.6c-1.1-0.8-2.4-1.2-3.9-1.2c-1.4,0-2.6,0.3-3.6,0.8c-1,0.6-1.8,1.3-2.4,2.2c-0.6,0.9-1.1,2-1.4,3.2
			c-0.3,1.2-0.4,2.4-0.4,3.7c0,1.2,0.1,2.4,0.4,3.5c0.3,1.1,0.7,2.2,1.4,3.1c0.6,0.9,1.4,1.6,2.4,2.2c1,0.6,2.2,0.8,3.6,0.8
			c2.1,0,3.7-0.5,4.9-1.6c1.1-1.1,1.8-2.6,2-4.6h-6.4v-4.7h12.1v15.6h-4l-0.6-3.3C519.4,446.5,518.1,447.5,516.8,448.1z"/>
		<path fill="#006725" d="M545.1,419.5c1.3,0,2.5,0.2,3.5,0.6c1,0.4,1.9,1,2.7,1.7c0.7,0.7,1.3,1.6,1.7,2.5c0.4,1,0.6,2,0.6,3.1
			c0,1.7-0.4,3.2-1.1,4.4c-0.7,1.2-1.9,2.2-3.5,2.8v0.1c0.8,0.2,1.4,0.5,1.9,1c0.5,0.4,0.9,1,1.3,1.6c0.3,0.6,0.6,1.3,0.7,2
			c0.1,0.7,0.3,1.5,0.3,2.2c0,0.5,0.1,1,0.1,1.6c0,0.6,0.1,1.3,0.1,1.9s0.2,1.3,0.3,1.8c0.1,0.6,0.4,1.1,0.7,1.5h-6.3
			c-0.3-0.9-0.6-2-0.6-3.3s-0.2-2.5-0.4-3.6c-0.2-1.5-0.7-2.6-1.4-3.3c-0.7-0.7-1.8-1-3.4-1h-6.3v11.3h-6.3v-28.9H545.1z
			 M542.8,432.5c1.5,0,2.5-0.3,3.3-1c0.7-0.6,1.1-1.7,1.1-3.2c0-1.4-0.4-2.4-1.1-3.1c-0.7-0.6-1.8-0.9-3.3-0.9h-7v8.1H542.8z"/>
		<path fill="#006725" d="M564.3,419.5v28.9h-6.3v-28.9H564.3z M562.3,409.7l-4.3,7.2h4l6.6-7.2H562.3z"/>
		<path fill="#006725" d="M587.5,427.2c-0.4-0.6-0.8-1.1-1.4-1.6c-0.6-0.5-1.2-0.8-1.9-1.1c-0.7-0.3-1.5-0.4-2.2-0.4
			c-1.4,0-2.6,0.3-3.6,0.8c-1,0.6-1.8,1.3-2.4,2.2c-0.6,0.9-1.1,2-1.4,3.2c-0.3,1.2-0.4,2.4-0.4,3.7c0,1.2,0.1,2.4,0.4,3.5
			c0.3,1.1,0.7,2.2,1.4,3.1c0.6,0.9,1.4,1.6,2.4,2.2c1,0.6,2.2,0.8,3.6,0.8c1.9,0,3.5-0.6,4.5-1.8c1.1-1.2,1.8-2.7,2-4.7h6.1
			c-0.2,1.8-0.6,3.4-1.3,4.9c-0.7,1.5-1.6,2.7-2.7,3.7c-1.1,1-2.4,1.8-3.9,2.3c-1.5,0.5-3.1,0.8-4.9,0.8c-2.2,0-4.2-0.4-6-1.2
			c-1.8-0.8-3.3-1.8-4.5-3.2c-1.2-1.3-2.1-2.9-2.8-4.7c-0.6-1.8-1-3.8-1-5.9c0-2.2,0.3-4.2,1-6c0.6-1.8,1.6-3.5,2.8-4.8
			c1.2-1.4,2.7-2.5,4.5-3.2c1.8-0.8,3.8-1.2,6-1.2c1.6,0,3.1,0.2,4.5,0.7c1.4,0.5,2.7,1.1,3.8,2c1.1,0.9,2,2,2.8,3.3
			c0.7,1.3,1.2,2.8,1.4,4.4h-6.1C588.2,428.5,587.9,427.8,587.5,427.2z"/>
		<path fill="#006725" d="M597.9,428c0.6-1.8,1.6-3.5,2.8-4.8s2.7-2.5,4.5-3.2c1.8-0.8,3.8-1.2,6-1.2c2.2,0,4.2,0.4,6,1.2
			c1.7,0.8,3.2,1.9,4.4,3.2c1.2,1.4,2.1,3,2.8,4.8c0.6,1.8,1,3.8,1,6c0,2.1-0.3,4.1-1,5.9c-0.6,1.8-1.6,3.4-2.8,4.7
			c-1.2,1.3-2.7,2.4-4.4,3.2c-1.8,0.8-3.7,1.2-6,1.2c-2.2,0-4.2-0.4-6-1.2c-1.8-0.8-3.3-1.8-4.5-3.2c-1.2-1.3-2.1-2.9-2.8-4.7
			c-0.6-1.8-1-3.8-1-5.9C596.9,431.9,597.2,429.9,597.9,428z M603.7,437.6c0.3,1.1,0.7,2.2,1.4,3.1c0.6,0.9,1.4,1.6,2.4,2.2
			c1,0.6,2.2,0.8,3.6,0.8c1.4,0,2.6-0.3,3.6-0.8c1-0.6,1.8-1.3,2.4-2.2c0.6-0.9,1.1-1.9,1.4-3.1c0.3-1.1,0.4-2.3,0.4-3.5
			c0-1.3-0.1-2.5-0.4-3.7c-0.3-1.2-0.7-2.2-1.4-3.2c-0.6-0.9-1.4-1.7-2.4-2.2c-1-0.6-2.2-0.8-3.6-0.8c-1.4,0-2.6,0.3-3.6,0.8
			c-1,0.6-1.8,1.3-2.4,2.2c-0.6,0.9-1.1,2-1.4,3.2c-0.3,1.2-0.4,2.4-0.4,3.7C603.3,435.2,603.4,436.4,603.7,437.6z"/>
		<path fill="#006725" d="M635.1,419.5V443h14.1v5.3h-20.4v-28.9H635.1z"/>
		<path fill="#006725" d="M666.3,419.5l10.8,28.9h-6.6l-2.2-6.4h-10.8l-2.3,6.4h-6.4l10.9-28.9H666.3z M666.7,437.2l-3.6-10.6H663
			l-3.8,10.6H666.7z"/>
	</g>
</g>
</svg>
