<svg height="24pt" viewBox="0 0 511.99829 511" width="24pt" xmlns="http://www.w3.org/2000/svg"><path d="m60.109375 90.753906c-4.527344-2.226562-9.84375-2.050781-14.152344.453125-4.351562 2.503907-7.148437 7.015625-7.46875 12.027344-3.691406 57.265625 7.308594 114.957031 31.804688 166.828125l117.878906 88.582031 2.542969-153.976562c-32.863282-48.535157-78.027344-87.925781-130.605469-113.914063zm0 0" fill="#5bc980"/><path d="m473.464844 103.234375c-.320313-5.011719-3.121094-9.523437-7.472656-12.027344-4.363282-2.503906-9.683594-2.679687-14.148438-.453125-52.578125 25.988282-97.742188 65.378906-130.601562 113.914063l-8.953126 148.691406 128.523438-81.523437c25.109375-52.355469 36.390625-110.648438 32.652344-168.601563zm0 0" fill="#00ab5e"/><path d="m511.742188 245.71875c-25.800782 128.113281-123.753907 232.320312-250.667969 263.824219l-5.097657-.300781-6-.597657c-124.808593-32.707031-224.21875-136.3125-249.722656-262.925781-.898437-4.800781.601563-9.898438 4.199219-13.5 3.601563-3.601562 8.703125-5.101562 13.503906-4.199219 65.703125 13.199219 128.210938 45.304688 175.613281 92.707031l62.40625 2.097657 61.503907 1.800781c48.007812-49.503906 108.757812-83.105469 176.5625-96.605469 4.800781-.902343 9.902343.597657 13.5 4.199219 3.601562 3.601562 5.101562 8.699219 4.199219 13.5zm0 0" fill="#7fe881"/><path d="m511.742188 245.71875c-25.800782 128.113281-123.753907 232.320312-250.667969 263.824219l-5.097657-.300781v-186.417969l61.503907 1.800781c48.007812-49.503906 108.757812-83.105469 176.5625-96.605469 4.800781-.902343 9.902343.597657 13.5 4.199219 3.601562 3.601562 5.101562 8.699219 4.199219 13.5zm0 0" fill="#5bc980"/><path d="m267.976562 6.199219c-3-3.601563-7.5-5.699219-12-5.699219-4.503906 0-9 2.097656-12.003906 5.699219-110.109375 146.710937-110.109375 353.328125 0 500.042969 2.703125 3.898437 7.203125 6 12.003906 6 4.796876 0 9.300782-2.101563 12-6 110.109376-146.714844 110.109376-353.332032 0-500.042969zm0 0" fill="#b1efaf"/><path d="m267.976562 506.242188c-2.699218 3.898437-7.203124 6-12 6v-511.742188c4.5 0 9 2.097656 12 5.699219 110.109376 146.710937 110.109376 353.328125 0 500.042969zm0 0" fill="#7fe881"/></svg>