<svg id="Capa_1" enable-background="new 0 0 512 512" height="24" viewBox="0 0 512 512" width="24" xmlns="http://www.w3.org/2000/svg">
    <g>
        <g>
            <path d="m196 171h-6.076v30h6.076c24.813 0 45 20.187 45 45l15 10 10-25.75-10-29.198c-13.695-18.234-35.492-30.052-60-30.052z" fill="#78e462"/>
        </g>
        <g>
            <path d="m315.963 171c-24.486 0-46.266 11.798-59.963 30.005v54.995l14.963-10c0-24.813 20.187-45 45-45h6.076v-30z" fill="#6aca57"/>
        </g>
        <path d="m256 478.651h-15v-379.729h15l10 169.578z" fill="#6aca57"/>
        <path d="m256 98.922h15v379.729h-15z" fill="#5eb04c"/>
        <path d="m256 98.922c0-33.137-26.863-60-60-60h-72.078v-38.922h-30v48.574c0 33.137 26.863 60 60 60h102.078l10-3.74z" fill="#78e462"/>
        <path d="m266 321.375-10 4.277h-72.078c-33.137 0-60-26.863-60-60v-9.652h72.078c33.137 0 60 26.863 60 60z" fill="#78e462"/>
        <path d="m256 325.652h72.078c33.137 0 60-26.863 60-60v-9.652h-72.078c-33.137 0-60 26.863-60 60z" fill="#6aca57"/>
        <path d="m418.078 0h-30v38.922h-72.078c-33.137 0-60 26.863-60 60v9.652h102.078c33.137 0 60-26.863 60-60z" fill="#6aca57"/>
        <path d="m219.519 433.099-.158-.158-.158-.158c-20.104-20.104-52.7-20.104-72.805 0l-.158.158-.158.158c-20.104 20.104-52.7 20.104-72.805 0l-.158-.158-.158-.158c-20.104-20.104-52.7-20.104-72.805 0l-.156.158v79.059h256l20-33.5-20-30.325c-13.201.021-26.409-5.004-36.481-15.076z" fill="#9d5025"/>
        <path d="m512 433.099-.316-.316c-20.104-20.104-52.7-20.104-72.805 0l-.158.158-.158.158c-20.104 20.104-52.7 20.104-72.805 0l-.158-.158-.158-.158c-20.104-20.104-52.7-20.104-72.805 0l-.158.158-.158.158c-10.032 10.032-23.175 15.056-36.323 15.076v63.825h256v-78.901z" fill="#713b1c"/>
    </g>
</svg>
