<?xml version="1.0"?>
<svg xmlns="http://www.w3.org/2000/svg" id="Capa_1" enable-background="new 0 0 512 512" height="24px" viewBox="0 0 512 512" width="24px" class=""><g><g><path d="m70.708 221.791c0-27.82 7.636-54.39 21.703-77.306-15.15-7.292-35.446-8.027-52.995 5.622-25.05 19.482-39.416 48.829-39.416 80.516v128.485c0 31.687 14.366 61.034 39.416 80.517 17.55 13.65 37.846 12.914 52.995 5.622-14.067-22.917-21.703-49.487-21.703-77.307z" data-original="#000000" class="active-path" data-old_color="#000000" fill="#7BAC8A"/><path d="m275.845 38.251h-39.69l-10.227 58.766c12.35 6.717 22.53 15.918 30.073 26.883 7.543-10.965 17.722-20.166 30.072-26.883z" data-original="#000000" class="active-path" data-old_color="#000000" fill="#7BAC8A"/><path d="m208.186 121.641c-20.383-9.54-44.081-6.882-61.847 6.936-28.999 22.554-45.63 56.529-45.63 93.214v146.149c0 36.685 16.632 70.66 45.63 93.214 17.767 13.818 41.465 16.475 61.848 6.936 19.78-9.258 32.031-27.707 32.772-49.351.027-.805.042-1.62.042-2.437v-242.873c0-.817-.014-1.632-.042-2.442-.742-21.639-12.994-40.088-32.773-49.346z" data-original="#000000" class="active-path" data-old_color="#000000" fill="#7BAC8A"/><path d="m472.584 150.106c-17.55-13.649-37.846-12.914-52.995-5.622 14.067 22.917 21.703 49.486 21.703 77.307v146.149c0 27.82-7.636 54.39-21.703 77.306 15.15 7.292 35.446 8.027 52.995-5.622 25.05-19.482 39.416-48.829 39.416-80.516v-128.485c0-31.687-14.366-61.034-39.416-80.517z" data-original="#000000" class="active-path" data-old_color="#000000" fill="#7BAC8A"/><path d="m365.662 128.577c-10.698-8.321-23.55-12.595-36.532-12.595-8.576 0-17.207 1.864-25.315 5.66-19.78 9.258-32.031 27.707-32.773 49.351-.027.805-.042 1.62-.042 2.437v242.872c0 .817.014 1.632.042 2.442.742 21.639 12.993 40.088 32.772 49.346 20.382 9.539 44.081 6.882 61.848-6.936 28.999-22.554 45.63-56.529 45.63-93.214v-146.149c0-36.685-16.632-70.66-45.63-93.214z" data-original="#000000" class="active-path" data-old_color="#000000" fill="#7BAC8A"/></g></g> </svg>
