<svg height="24pt" viewBox="-14 0 512 512.0001" width="24pt" xmlns="http://www.w3.org/2000/svg"><path d="m416.304688 443.570312-105.621094-18.625c-4.523438-.796874-6.855469-5.875-4.503906-9.828124 4.539062-7.636719 7.65625-16.03125 9.199218-24.78125l14.945313-84.761719c1.542969-8.75 1.484375-17.707031-.167969-26.433594-.855469-4.515625 3.066406-8.492187 7.59375-7.695313l105.621094 18.625c4.523437.796876 6.851562 5.875 4.503906 9.828126-4.539062 7.636718-7.65625 16.03125-9.199219 24.78125l-14.945312 84.761718c-1.542969 8.75-1.488281 17.707032.167969 26.4375.859374 4.511719-3.066407 8.488282-7.59375 7.691406zm0 0" fill="#b4de87"/><path d="m365.660156 276.367188-27.910156-4.921876c-4.523438-.796874-8.449219 3.179688-7.59375 7.695313 1.652344 8.726563 1.710938 17.683594.167969 26.433594l-14.945313 84.761719c-1.542968 8.75-4.660156 17.144531-9.199218 24.78125-2.351563 3.953124-.023438 9.03125 4.503906 9.828124l86.21875 15.203126c-22.109375-52.195313-33.53125-99.816407-31.242188-163.78125zm0 0" fill="#92d18a"/><path d="m443.371094 290.070312-105.621094-18.621093c-4.523438-.800781-6.851562-5.878907-4.503906-9.828125 4.539062-7.636719 7.65625-16.03125 9.199218-24.78125l14.945313-84.761719c1.542969-8.75 1.488281-17.707031-.167969-26.4375-.855468-4.511719 3.066406-8.488281 7.59375-7.691406l105.621094 18.625c4.527344.796875 6.855469 5.875 4.503906 9.824219-4.539062 7.636718-7.65625 16.035156-9.199218 24.785156l-14.945313 84.761718c-1.542969 8.75-1.484375 17.707032.167969 26.433594.855468 4.515625-3.066406 8.488282-7.59375 7.691406zm0 0" fill="#8ec15d"/><path d="m393.695312 123.042969-28.878906-5.09375c-4.527344-.796875-8.449218 3.179687-7.59375 7.691406 1.652344 8.730469 1.710938 17.6875.167969 26.4375l-14.945313 84.761719c-1.542968 8.75-4.660156 17.144531-9.203124 24.78125-2.347657 3.949218-.019532 9.027344 4.507812 9.828125l54.914062 9.683593c-12.78125-35.550781-7.25-114.089843 1.03125-158.089843zm0 0" fill="#57b33b"/><path d="m478.03125 128.882812c-1.652344-8.730468-1.710938-17.6875-.167969-26.4375l5.710938-32.386718-100.761719-62.148438-13.300781 75.433594c-1.542969 8.746094-4.660157 17.144531-9.203125 24.78125-2.347656 3.949219-.019532 9.027344 4.507812 9.824219l105.621094 18.625c4.523438.796875 8.449219-3.175781 7.59375-7.691407zm0 0" fill="#b4de87"/><path d="m412.425781 26.175781-29.613281-18.265625-13.300781 75.433594c-1.542969 8.746094-4.660157 17.144531-9.203125 24.78125-2.347656 3.949219-.019532 9.027344 4.507812 9.824219l45.101563 7.953125c-13.527344-29.917969-5.511719-69.828125 2.507812-99.726563zm0 0" fill="#92d18a"/><path d="m376.628906 469.203125-105.621094 18.625c-4.523437.796875-8.449218-3.179687-7.59375-7.691406 1.65625-8.730469 1.714844-17.6875.171876-26.4375l-14.949219-84.761719c-1.542969-8.746094-4.660157-17.144531-9.199219-24.78125-2.347656-3.949219-.019531-9.027344 4.507812-9.824219l105.621094-18.625c4.523438-.800781 8.449219 3.175781 7.59375 7.691407-1.65625 8.730468-1.714844 17.683593-.171875 26.433593l14.949219 84.761719c1.542969 8.75 4.660156 17.148438 9.199219 24.785156 2.347656 3.949219.019531 9.027344-4.507813 9.824219zm0 0" fill="#8ec15d"/><path d="m281.425781 327.722656-37.484375 6.609375c-4.523437.796875-6.851562 5.875-4.503906 9.824219 4.539062 7.636719 7.65625 16.035156 9.199219 24.785156l14.945312 84.761719c1.542969 8.746094 1.488281 17.703125-.167969 26.433594-.855468 4.515625 3.070313 8.492187 7.59375 7.691406l61.308594-10.808594c-35.425781-28.042969-48.984375-100.792969-50.890625-149.296875zm0 0" fill="#57b33b"/><path d="m349.5625 315.707031-105.621094 18.625c-4.523437.796875-8.449218-3.179687-7.59375-7.691406 1.65625-8.730469 1.714844-17.6875.171875-26.4375l-14.949219-84.761719c-1.542968-8.75-4.660156-17.144531-9.199218-24.78125-2.347656-3.949218-.019532-9.027344 4.507812-9.828125l105.621094-18.621093c4.523438-.800782 8.449219 3.175781 7.59375 7.691406-1.65625 8.726562-1.710938 17.683594-.167969 26.433594l14.945313 84.761718c1.542968 8.75 4.660156 17.144532 9.199218 24.785156 2.347657 3.949219.019532 9.027344-4.507812 9.824219zm0 0" fill="#b4de87"/><path d="m254.359375 174.226562-37.480469 6.609376c-4.527344.796874-6.855468 5.875-4.507812 9.824218 4.539062 7.636719 7.65625 16.035156 9.199218 24.78125l14.945313 84.765625c1.542969 8.746094 1.488281 17.703125-.167969 26.433594-.855468 4.511719 3.070313 8.488281 7.59375 7.691406l61.308594-10.808593c-35.425781-28.046876-48.984375-100.792969-50.890625-149.296876zm0 0" fill="#92d18a"/><path d="m327.003906 152.382812c-4.539062-7.636718-7.65625-16.03125-9.199218-24.78125l-12.964844-73.519531-100.761719 62.144531 5.371094 30.480469c1.542969 8.75 1.488281 17.703125-.167969 26.433594-.855469 4.515625 3.070312 8.492187 7.59375 7.691406l105.621094-18.621093c4.527344-.800782 6.855468-5.875 4.507812-9.828126zm0 0" fill="#8ec15d"/><path d="m204.078125 116.230469 5.375 30.476562c1.542969 8.75 1.484375 17.707031-.171875 26.433594-.855469 4.515625 3.070312 8.492187 7.597656 7.695313l61.304688-10.8125c-19.351563-15.316407-32.167969-43.984376-40.132813-74.746094zm0 0" fill="#57b33b"/><path d="m169.984375 267.050781c-14.929687 0-29.042969 6.824219-38.3125 18.527344l-33.421875 42.191406c-32.496094 41.027344-60.019531 85.757813-81.996094 133.253907l-15.035156 32.492187c-3.992188 8.625 2.308594 18.484375 11.816406 18.484375h313.894532c9.507812 0 15.808593-9.859375 11.816406-18.484375l-15.03125-32.492187c-21.980469-47.496094-49.503906-92.226563-82-133.253907l-33.421875-42.191406c-9.269531-11.703125-23.382813-18.527344-38.308594-18.527344zm0 0" fill="#f8eed1"/><path d="m144 274.53125c-4.652344 2.921875-8.835938 6.636719-12.328125 11.046875l-33.421875 42.191406c-32.496094 41.027344-60.023438 85.757813-82 133.253907l-15.03125 32.492187c-3.992188 8.625 2.308594 18.484375 11.816406 18.484375h248.101563c-135.023438-47.933594-148.839844-176.703125-117.136719-237.46875zm0 0" fill="#edd8a4"/><path d="m483.574219 70.058594c-2.292969 13-26.707031 9.625-54.53125-7.535156-27.824219-17.164063-48.523438-41.613282-46.230469-54.613282 2.289062-13 26.707031-9.625 54.53125 7.535156 27.824219 17.164063 48.523438 41.613282 46.230469 54.613282zm0 0" fill="#f8eed1"/><path d="m204.078125 116.230469c2.292969 12.996093 26.707031 9.625 54.53125-7.539063 27.824219-17.160156 48.523437-41.609375 46.230469-54.609375-2.289063-13-26.707032-9.625-54.53125 7.535157-27.824219 17.164062-48.523438 41.613281-46.230469 54.613281zm0 0" fill="#f8eed1"/><path d="m71.304688 478.136719c0 4.105469-3.324219 7.429687-7.429688 7.429687s-7.433594-3.324218-7.433594-7.429687 3.328125-7.433594 7.433594-7.433594 7.429688 3.328125 7.429688 7.433594zm0 0" fill="#f8eed1"/><path d="m99.304688 409.199219c0 4.105469-3.324219 7.433593-7.429688 7.433593s-7.433594-3.328124-7.433594-7.433593 3.328125-7.429688 7.433594-7.429688 7.429688 3.324219 7.429688 7.429688zm0 0" fill="#f8eed1"/><path d="m130.570312 454.90625c0 4.101562-3.328124 7.429688-7.433593 7.429688s-7.433594-3.328126-7.433594-7.429688c0-4.105469 3.328125-7.433594 7.433594-7.433594s7.433593 3.328125 7.433593 7.433594zm0 0" fill="#f8eed1"/><g fill="#edd8a4"><path d="m243.539062 462.335938c0 4.105468-3.328124 7.433593-7.433593 7.433593s-7.429688-3.328125-7.429688-7.433593c0-4.101563 3.324219-7.429688 7.429688-7.429688s7.433593 3.328125 7.433593 7.429688zm0 0"/><path d="m169.980469 326.109375c0 4.105469-3.324219 7.433594-7.429688 7.433594s-7.433593-3.328125-7.433593-7.433594c0-4.101563 3.328124-7.429687 7.433593-7.429687s7.429688 3.328124 7.429688 7.429687zm0 0"/><path d="m208.210938 371.195312c0 4.105469-3.328126 7.433594-7.433594 7.433594-4.101563 0-7.429688-3.328125-7.429688-7.433594 0-4.105468 3.328125-7.429687 7.429688-7.429687 4.105468 0 7.433594 3.324219 7.433594 7.429687zm0 0"/><path d="m270.417969 63.1875c-1.191407-2.0625-5.039063-2.074219-8.59375-.019531-3.554688 2.050781-5.46875 5.390625-4.277344 7.453125s5.039063 2.074218 8.59375.023437c3.554687-2.054687 5.46875-5.390625 4.277344-7.457031zm0 0"/><path d="m234.234375 100.296875c-1.195313-2.0625-5.042969-2.074219-8.59375-.019531-3.554687 2.050781-5.472656 5.386718-4.28125 7.453125 1.191406 2.0625 5.039063 2.074219 8.59375.019531 3.554687-2.050781 5.472656-5.386719 4.28125-7.453125zm0 0"/><path d="m404.460938 9.464844c-1.195313 2.066406.722656 5.402344 4.277343 7.453125 3.554688 2.054687 7.402344 2.042969 8.59375-.019531 1.191407-2.066407-.722656-5.402344-4.277343-7.453126-3.554688-2.054687-7.402344-2.042968-8.59375.019532zm0 0"/><path d="m460.253906 56.117188c-1.191406 2.0625.722656 5.398437 4.277344 7.453124 3.554688 2.050782 7.402344 2.042969 8.59375-.023437 1.195312-2.0625-.722656-5.402344-4.277344-7.453125-3.554687-2.050781-7.402344-2.042969-8.59375.023438zm0 0"/><path d="m422.34375 41.75c-1.191406 2.066406.722656 5.402344 4.277344 7.453125 3.554687 2.054687 7.402344 2.042969 8.59375-.019531 1.191406-2.066406-.722656-5.402344-4.277344-7.453125-3.554688-2.054688-7.402344-2.042969-8.59375.019531zm0 0"/></g></svg>