<svg height="24" viewBox="0 0 128 128" width="24" xmlns="http://www.w3.org/2000/svg">
    <g>
        <g fill="#c7e554">
            <path d="m97.56 23.218c-1.567 7.782-9.046 12.841-9.046 12.841s-4.938-7.559-3.371-15.342 9.047-12.842 9.047-12.842 4.938 7.56 3.37 15.343z"/>
            <path d="m103.5 29.812c-1.567 7.783-9.046 12.841-9.046 12.841s-4.938-7.559-3.371-15.342 9.047-12.842 9.047-12.842 4.938 7.56 3.37 15.343z"/>
            <path d="m77.114 24.5c-1.568 7.782 3.37 15.342 3.37 15.342s7.479-5.061 9.047-12.842-3.371-15.344-3.371-15.344-7.479 5.059-9.046 12.844z"/>
        </g>
        <path d="m103.13 33.936a21.1 21.1 0 0 0 -7.806.249c.043-.178.1-.35.134-.531 1.568-7.783-3.37-15.343-3.37-15.343s-7.479 5.059-9.047 12.842c-.036.181-.052.361-.082.542a21.089 21.089 0 0 0 -7.1-3.252c-2.629 6.876.2 14.066 5.92 18.269l-5.01 24.876c-2.72-6.243-6.7-6-6.7-6a13.393 13.393 0 0 0 4.952 14.669l-7.949 39.47 8.828 1.773 4.952-24.584a13.392 13.392 0 0 0 10.239-11.609s-3.574-1.76-8.5 2.944l8.009-39.763c6.9-1.659 12.293-7.194 12.53-14.552z" fill="#aac348"/>
        <g>
            <g fill="#c7e554">
                <path d="m30.44 23.218c1.567 7.782 9.046 12.841 9.046 12.841s4.938-7.559 3.371-15.342-9.047-12.842-9.047-12.842-4.938 7.56-3.37 15.343z"/>
                <path d="m24.5 29.812c1.567 7.783 9.046 12.841 9.046 12.841s4.938-7.559 3.371-15.342-9.047-12.842-9.047-12.842-4.938 7.56-3.37 15.343z"/>
                <path d="m50.886 24.5c1.568 7.782-3.37 15.342-3.37 15.342s-7.479-5.061-9.047-12.842 3.371-15.344 3.371-15.344 7.479 5.059 9.046 12.844z"/>
            </g>
            <path d="m32.541 33.654c1.568 7.783 9.047 12.846 9.047 12.846s4.938-7.56 3.371-15.343-9.047-12.842-9.047-12.842-4.938 7.556-3.371 15.339z" fill="#aac348"/>
            <path d="m45.407 88.251-8.007-39.763c-6.9-1.659-12.292-7.194-12.53-14.552 6.469-1.211 14.173 2.144 14.646 2.365l.021.006.018-.014c.35-.387 6.155-6.462 12.588-7.85 2.629 6.876-.2 14.066-5.92 18.269l5.01 24.876c2.72-6.243 6.7-6 6.7-6a13.393 13.393 0 0 1 -4.952 14.669l7.949 39.47-8.83 1.773-4.948-24.584a13.392 13.392 0 0 1 -10.243-11.609s3.574-1.76 8.498 2.944z" fill="#aac348"/>
        </g>
        <path d="m70.333 20.875c0 7.939-6.333 14.375-6.333 14.375s-6.333-6.436-6.333-14.375 6.333-14.375 6.333-14.375 6.333 6.436 6.333 14.375z" fill="#aac348"/>
        <path d="m77.458 26.167c0 7.939-6.333 14.375-6.333 14.375s-6.333-6.436-6.333-14.375 6.333-14.375 6.333-14.375 6.333 6.436 6.333 14.375z" fill="#aac348"/>
        <path d="m50.542 26.167c0 7.939 6.333 14.375 6.333 14.375s6.333-6.436 6.333-14.375-6.333-14.375-6.333-14.375-6.333 6.436-6.333 14.375z" fill="#aac348"/>
        <path d="m70.333 31.521c0 7.939-6.333 14.379-6.333 14.379s-6.333-6.436-6.333-14.375 6.333-14.379 6.333-14.379 6.333 6.436 6.333 14.375z" fill="#c7e554"/>
        <path d="m68.5 87.583v-40.561c6.44-2.99 10.63-9.48 9.41-16.74-6.58.09-13.47 4.9-13.89 5.21l-.02.008-.02-.011c-.42-.31-7.31-5.12-13.89-5.21-1.22 7.26 2.97 13.75 9.41 16.74v25.381c-3.9-5.584-7.75-4.564-7.75-4.564a13.394 13.394 0 0 0 7.75 13.4v40.264h9v-25.078a13.393 13.393 0 0 0 7.75-13.4s-3.85-1.022-7.75 4.561z" fill="#c7e554"/>
    </g>
</svg>
