<svg id="Capa_1" enable-background="new 0 0 512 512" height="24" viewBox="0 0 512 512" width="24" xmlns="http://www.w3.org/2000/svg">
    <g>
        <g>
            <g>
                <path d="m46.042 302.615c-24.846 24.845-40.816 55.813-44.97 87.199-3.648 27.562 2.075 52.729 16.185 72.308 29.053-22.745 49.017-8.524 80.127-39.633 17.128-17.128 20.514-30.877 23.894-44.625l9.488-77.178-9.488-40.882c-27.214 6.21-53.555 21.131-75.236 42.811z" fill="#c8885e"/>
            </g>
            <g>
                <path d="m97.384 422.489c-31.109 31.109-51.074 16.889-80.127 39.633 2.718 3.772 5.742 7.339 9.076 10.673 17.235 17.235 40.627 26.334 67.015 26.334 5.213 0 10.544-.355 15.966-1.073 3.999-.529 7.99-1.253 11.964-2.159l19.174-57.4-19.174-60.632c-3.38 13.747-6.766 27.497-23.894 44.624z" fill="#a97450"/>
            </g>
            <path d="m225.299 293.578c-2.718-3.771-5.742-7.339-9.076-10.672-20.639-20.64-50.109-29.614-82.981-25.261-3.999.529-7.99 1.253-11.964 2.159v118.06c3.383-13.76 6.76-27.519 23.903-44.663 31.105-31.104 51.069-16.884 80.118-39.623z" fill="#a97450"/>
            <path d="m225.299 293.578c-29.049 22.739-49.013 8.519-80.117 39.624-17.144 17.144-20.52 30.902-23.903 44.663v118.032c27.214-6.21 53.555-21.131 75.236-42.811 24.846-24.845 40.816-55.813 44.97-87.199 3.646-27.562-2.076-52.73-16.186-72.309z" fill="#885142"/>
        </g>
        <g>
            <g>
                <path d="m315.486 302.615c-24.846 24.845-40.816 55.813-44.97 87.199-3.648 27.562 2.075 52.729 16.185 72.308 29.053-22.745 49.017-8.524 80.127-39.633 17.128-17.128 20.514-30.877 23.894-44.625l9.488-77.178-9.488-40.882c-27.214 6.21-53.556 21.131-75.236 42.811z" fill="#c8885e"/>
            </g>
            <g>
                <path d="m366.828 422.489c-31.109 31.109-51.074 16.889-80.127 39.633 2.718 3.772 5.742 7.339 9.076 10.673 17.235 17.235 40.627 26.334 67.015 26.334 5.213 0 10.544-.355 15.966-1.073 3.999-.529 7.99-1.253 11.964-2.159l19.174-57.4-19.174-60.632c-3.38 13.747-6.767 27.497-23.894 44.624z" fill="#a97450"/>
            </g>
            <path d="m494.742 293.578c-2.718-3.771-5.742-7.339-9.076-10.672-20.639-20.64-50.109-29.614-82.981-25.261-3.999.529-7.99 1.253-11.964 2.159v118.06c3.383-13.76 6.76-27.519 23.903-44.663 31.106-31.104 51.07-16.884 80.118-39.623z" fill="#a97450"/>
            <path d="m494.742 293.578c-29.049 22.739-49.013 8.519-80.117 39.624-17.144 17.144-20.52 30.902-23.903 44.663v118.032c27.214-6.21 53.555-21.131 75.236-42.811 24.846-24.845 40.816-55.813 44.97-87.199 3.647-27.562-2.076-52.73-16.186-72.309z" fill="#885142"/>
        </g>
        <g>
            <g>
                <path d="m231.692 58.914c-24.846 24.845-40.816 55.813-44.97 87.199-3.648 27.562 2.075 52.729 16.185 72.308 29.053-22.745 49.017-8.524 80.127-39.633 17.128-17.128 20.514-30.877 23.894-44.625l9.488-77.178-9.488-40.882c-27.214 6.211-53.555 21.131-75.236 42.811z" fill="#c8885e"/>
            </g>
            <g>
                <path d="m283.034 178.788c-31.109 31.109-51.074 16.889-80.127 39.633 2.718 3.772 5.742 7.339 9.076 10.673 17.235 17.235 40.627 26.334 67.015 26.334 5.213 0 10.544-.355 15.966-1.073 3.999-.529 7.99-1.253 11.964-2.159l19.174-57.4-19.174-60.632c-3.38 13.747-6.766 27.497-23.894 44.624z" fill="#a97450"/>
            </g>
            <path d="m410.949 49.877c-2.718-3.771-5.742-7.339-9.076-10.672-20.639-20.64-50.109-29.614-82.981-25.261-3.999.529-7.99 1.253-11.964 2.159v118.06c3.383-13.76 6.76-27.519 23.903-44.663 31.105-31.104 51.069-16.884 80.118-39.623z" fill="#a97450"/>
            <path d="m410.949 49.877c-29.049 22.739-49.013 8.519-80.117 39.624-17.144 17.144-20.52 30.902-23.903 44.663v118.032c27.214-6.21 53.555-21.131 75.236-42.811 24.846-24.845 40.816-55.813 44.97-87.199 3.646-27.562-2.076-52.73-16.186-72.309z" fill="#885142"/>
        </g>
    </g>
</svg>
