<svg id="icons" enable-background="new 0 0 64 64" height="24" viewBox="0 0 64 64" width="24" xmlns="http://www.w3.org/2000/svg"><path d="m23 6.002c-.553 0-1-.447-1-1v-1.002c0-.553.447-1 1-1s1 .447 1 1v1.002c0 .553-.447 1-1 1z" fill="#e29f33"/><path d="m60 39c0 10.49-8.5 19-19 19-10.49 0-19-8.51-19-19h9c0 5.521 4.479 10 10 10 5.52 0 10-4.479 10-10z" fill="#ffd2a6"/><path d="m40.76 39h10.24c0 5.521-4.48 10-10 10-5.521 0-10-4.479-10-10z" fill="#f7c292"/><path d="m41 58c10.5 0 19-8.51 19-19h3c0 12.15-9.85 22-22 22-8.98 0-16.7-5.379-20.12-13.1-1.21-2.72-1.88-5.73-1.88-8.9h3c0 10.49 8.51 19 19 19z" fill="#ffce54"/><path d="m45 26c0 4.861-1.57 9.361-4.24 13h-9.76-9-3c0 3.17.67 6.18 1.88 8.9-11.151-1.07-19.88-10.47-19.88-21.9 0-12.15 9.85-22 22-22 12.16 0 22 9.85 22 22z" fill="#f6bb42"/><path d="m23 4c-.675 0-1.342.035-2.001.096 11.219 1.011 19.997 10.429 19.997 21.904 0 4.861-1.57 9.361-4.24 13h4.004c2.67-3.639 4.24-8.139 4.24-13 0-12.15-9.84-22-22-22z" fill="#edab37"/><g fill="#ffd2a6"><path d="m37.029 42.998c-.553 0-1.005-.447-1.005-1s.442-1 .994-1h.011c.552 0 1 .447 1 1s-.448 1-1 1z"/><path d="m41.033 42.998c-.553 0-1.005-.447-1.005-1s.442-1 .994-1h.011c.552 0 1 .447 1 1s-.448 1-1 1z"/><path d="m45.037 42.998c-.553 0-1.005-.447-1.005-1s.442-1 .994-1h.011c.552 0 1 .447 1 1s-.448 1-1 1z"/><path d="m39.031 46c-.553 0-1.005-.447-1.005-1s.442-1 .994-1h.011c.552 0 1 .447 1 1s-.448 1-1 1z"/><path d="m43.035 46c-.553 0-1.005-.447-1.005-1s.442-1 .994-1h.011c.552 0 1 .447 1 1s-.448 1-1 1z"/></g></svg>