<svg id="Capa_1" enable-background="new 0 0 497 497" height="24" viewBox="0 0 497 497" width="24" xmlns="http://www.w3.org/2000/svg">
    <g>
        <g>
            <g>
                <path d="m298.849 197.684c0-70.766-39.75-131.199-95.765-155.184-10.145-4.344-18.408-11.984-24.134-21.419-6.051-9.972-17.009-16.635-29.526-16.635-12.517 0-23.475 6.663-29.526 16.635-5.725 9.435-13.988 17.075-24.134 21.419-56.014 23.985-95.764 84.418-95.764 155.184 0 70.596 39.56 130.908 95.361 155.01 10.278 4.44 18.626 12.226 24.309 21.873 6 10.185 17.077 17.019 29.754 17.019 12.677 0 23.754-6.834 29.754-17.019 5.683-9.646 14.031-17.433 24.309-21.873 55.802-24.102 95.362-84.414 95.362-155.01z" fill="#ab7b64"/>
            </g>
        </g>
        <g>
            <g>
                <path d="m203.084 42.5c-10.145-4.344-18.408-11.984-24.134-21.419-6.051-9.972-17.009-16.635-29.526-16.635-5.361 0-10.432 1.23-14.958 3.411 6.041 2.911 11.109 7.523 14.568 13.224 5.725 9.435 13.988 17.075 24.134 21.419 56.015 23.985 95.765 84.418 95.765 155.184 0 70.596-39.56 130.908-95.361 155.01-10.278 4.44-18.626 12.226-24.309 21.873-3.462 5.877-8.621 10.627-14.797 13.604 4.526 2.182 9.596 3.416 14.958 3.416 12.677 0 23.754-6.835 29.754-17.019 5.683-9.646 14.031-17.433 24.309-21.873 55.802-24.102 95.361-84.414 95.361-155.01.001-70.767-39.749-131.2-95.764-155.185z" fill="#9a6a53"/>
            </g>
        </g>
        <g>
            <g>
                <path d="m199.93 299.096c-.331 0-.663-.022-.992-.066-9.876-1.317-18.877-6.712-24.695-14.801l-22.323-31.037c-2.418-3.363-1.653-8.05 1.71-10.468 3.362-2.419 8.048-1.654 10.468 1.709l22.323 31.037c3.316 4.611 8.394 7.731 13.993 8.617l5.224-.079c4.179-.064 7.549 3.245 7.612 7.387s-3.245 7.55-7.386 7.612l-5.821.087c-.038.002-.075.002-.113.002z" fill="#9a6a53"/>
            </g>
        </g>
        <g>
            <g>
                <path d="m238.299 212.319c-2.592 0-5.113-1.345-6.502-3.751l-17.977-31.14c-4.208-7.35-5.554-15.934-3.802-24.193l4.857-22.898c.86-4.052 4.843-6.64 8.893-5.78 4.052.859 6.64 4.841 5.781 8.893l-4.857 22.898c-.986 4.648-.229 9.48 2.133 13.604l17.963 31.117c2.071 3.587.842 8.174-2.746 10.245-1.181.681-2.47 1.005-3.743 1.005z" fill="#9a6a53"/>
            </g>
        </g>
        <g fill="#9a6a53">
            <path d="m203.084 42.5c-.141-.061-.279-.128-.42-.19l-21.72 19.535c-9.811 8.824-15.616 21.45-15.929 34.641l-.042 1.794c-.098 4.141 3.18 7.577 7.32 7.675.061.001.121.002.181.002 4.06 0 7.398-3.242 7.495-7.323l.042-1.794c.215-9.079 4.211-17.77 10.964-23.843l26.156-23.525c-4.553-2.579-9.238-4.913-14.047-6.972z"/>
            <path d="m111.97 155.422-35.73-10.91c-10.823-3.305-19.911-11.016-24.932-21.157-.021-.043-.043-.087-.066-.13l-16.605-31.956c-3.397 4.529-6.583 9.26-9.537 14.178l12.8 24.633c6.854 13.792 19.228 24.28 33.96 28.778l35.73 10.91c.73.223 1.467.329 2.193.329 3.212 0 6.184-2.08 7.17-5.312 1.21-3.961-1.021-8.153-4.983-9.363z"/>
            <path d="m78.95 281.205-34.155-5.578c-8.744-1.427-17.709-.172-25.688 3.437 2.283 4.514 4.749 8.897 7.388 13.137 4.996-2.002 10.503-2.647 15.883-1.769l34.155 5.577c4.086.669 7.943-2.105 8.61-6.193.668-4.089-2.105-7.944-6.193-8.611z"/>
        </g>
        <g>
            <g>
                <path d="m497 298.652c0-70.766-39.75-131.199-95.765-155.184-10.145-4.344-18.408-11.984-24.134-21.419-6.051-9.972-17.009-16.635-29.526-16.635-12.517 0-23.475 6.663-29.526 16.635-5.725 9.435-13.988 17.075-24.134 21.419-56.015 23.985-95.765 84.418-95.765 155.184 0 70.596 39.559 130.908 95.361 155.01 10.278 4.439 18.626 12.226 24.309 21.873 6 10.185 17.077 17.019 29.754 17.019 12.677 0 23.754-6.835 29.754-17.019 5.683-9.647 14.031-17.434 24.309-21.873 55.803-24.102 95.363-84.414 95.363-155.01z" fill="#c39f8e"/>
            </g>
        </g>
        <g>
            <g>
                <ellipse cx="347.576" cy="298.652" fill="#ab7b64" rx="116.87" ry="130.016"/>
            </g>
        </g>
        <g>
            <g>
                <path d="m347.576 168.636c-5.068 0-10.06.36-14.958 1.056 57.482 8.17 101.913 62.792 101.913 128.96s-44.431 120.791-101.913 128.96c4.898.696 9.89 1.056 14.958 1.056 64.546 0 116.871-58.21 116.871-130.016s-52.326-130.016-116.871-130.016z" fill="#9a6a53"/>
            </g>
        </g>
        <g>
            <g>
                <path d="m375.136 319.775c0-9.261-4.627-17.438-11.691-22.358 5.1-5.126 8.253-12.19 8.253-19.992 0-11.501-6.854-21.39-16.696-25.833.023-.464.038-.931.038-1.401 0-15.041-12.193-27.233-27.233-27.233-14.696 0-26.666 11.642-27.208 26.206-14.674 1.076-26.247 13.313-26.247 28.261 0 7.802 3.153 14.866 8.253 19.992-7.064 4.92-11.691 13.096-11.691 22.358 0 14.492 11.321 26.336 25.602 27.18 1.704 13.402 13.141 23.767 27.006 23.767 13.894 0 25.35-10.408 27.017-23.851 13.802-1.327 24.597-12.946 24.597-27.096z" fill="#f7e5c1"/>
            </g>
        </g>
        <g>
            <g>
                <path d="m346.994 346.871c1.667 13.443 13.123 23.851 27.017 23.851 13.865 0 25.302-10.364 27.006-23.767 14.28-.845 25.602-12.688 25.602-27.18 0-9.261-4.627-17.438-11.691-22.358 5.1-5.126 8.253-12.19 8.253-19.992 0-14.948-11.573-27.185-26.247-28.261-.541-14.564-12.512-26.206-27.207-26.206-15.041 0-27.233 12.193-27.233 27.233 0 .47.014.937.038 1.401-9.842 4.443-16.696 14.332-16.696 25.833 0 7.802 3.153 14.866 8.253 19.992-7.064 4.92-11.691 13.096-11.691 22.358-.001 14.15 10.794 25.769 24.596 27.096z" fill="#edc472"/>
            </g>
        </g>
        <g>
            <g>
                <path d="m346.994 346.871c1.667 13.443 13.123 23.851 27.017 23.851 13.865 0 25.302-10.364 27.006-23.767 14.28-.845 25.602-12.688 25.602-27.18 0-9.261-4.627-17.438-11.691-22.358 5.1-5.126 8.253-12.19 8.253-19.992 0-14.948-11.573-27.185-26.247-28.261-.541-14.564-12.512-26.206-27.207-26.206-15.041 0-27.233 12.193-27.233 27.233 0 .47.014.937.038 1.401-9.842 4.443-16.696 14.332-16.696 25.833 0 7.802 3.153 14.866 8.253 19.992-7.064 4.92-11.691 13.096-11.691 22.358-.001 14.15 10.794 25.769 24.596 27.096z" fill="#f3d69e"/>
            </g>
        </g>
        <g>
            <g>
                <path d="m414.928 297.417c5.1-5.126 8.253-12.19 8.253-19.992 0-14.948-11.573-27.185-26.247-28.261-.541-14.564-12.512-26.206-27.207-26.206-5.525 0-10.662 1.65-14.955 4.477 5.39 3.552 9.442 8.968 11.241 15.331 1.028 3.635 3.776 6.483 7.382 7.611 11.514 3.602 19.871 14.346 19.871 27.048 0 4.876-1.232 9.464-3.401 13.471-2.048 3.784-1.896 8.446.807 11.793 3.772 4.671 6.031 10.613 6.031 17.085 0 12.45-8.355 22.944-19.763 26.191-3.345.952-6.038 3.443-7.212 6.717-2.007 5.595-5.793 10.341-10.675 13.559 4.293 2.829 9.43 4.481 14.957 4.481 13.865 0 25.302-10.364 27.006-23.767 14.28-.845 25.602-12.688 25.602-27.18.001-9.261-4.626-17.438-11.69-22.358z" fill="#efcb83"/>
            </g>
        </g>
    </g>
</svg>
