<?xml version="1.0" encoding="iso-8859-1"?>
<!-- Generator: Adobe Illustrator 19.0.0, SVG Export Plug-In . SVG Version: 6.00 Build 0)  -->
<svg width="24pt" height="24pt" version="1.1" id="Capa_1" xmlns="http://www.w3.org/2000/svg" xmlns:xlink="http://www.w3.org/1999/xlink" x="0px" y="0px"
	 viewBox="0 0 512 512" style="enable-background:new 0 0 512 512;" xml:space="preserve">
<path style="fill:#0CA656;" d="M507.601,191.418c-0.015-0.015-0.029-0.029-0.044-0.044c-34.797-34.767-91.655-34.1-117.683-31.461
	L336.5,202.729l16.892,72.936c40.574-5.47,78.853-29.76,100.996-46.432c19.532-14.722,28.227-20.28,31.981-16.584
	c5.865,5.865,15.368,5.865,21.233,0C513.466,206.784,513.466,197.283,507.601,191.418z"/>
<path style="fill:#10BB67;" d="M318.802,4.399c-5.865-5.865-15.368-5.865-21.234,0c-5.865,5.865-5.865,15.368,0,21.233
	c3.696,3.695-1.862,12.45-16.584,31.981c-16.672,22.142-39.182,60.421-44.651,100.996l74.96,47.055l40.794-83.539
	C354.711,96.068,353.598,39.194,318.802,4.399z"/>
<path style="fill:#32D736;" d="M473.061,60.261l-21.323,21.022c-2.704,3.002-6.606,4.504-10.51,4.504s-7.808-1.502-10.512-4.504
	c-6.006-5.706-6.006-15.316,0-21.022l21.022-21.323c6.006-6.005,15.617-6.005,21.323,0
	C479.066,44.645,479.066,54.255,473.061,60.261z"/>
<path style="fill:#10BB67;" d="M473.061,60.261l-21.323,21.022c-2.704,3.002-6.606,4.504-10.51,4.504s-7.808-1.502-10.512-4.504
	l42.344-42.344C479.066,44.645,479.066,54.255,473.061,60.261z"/>
<path style="fill:#32D736;" d="M456.244,70.771c0,3.904-1.202,94.297-113.517,161.566l-63.064-63.064
	C346.931,56.958,437.324,55.755,441.228,55.755s7.806,1.503,10.51,4.506C454.741,62.965,456.244,66.867,456.244,70.771z"/>
<path style="fill:#10BB67;" d="M456.244,70.771c0,3.904-1.202,94.297-113.517,161.566l-31.532-31.532L451.738,60.26
	C454.741,62.965,456.244,66.867,456.244,70.771z"/>
<path style="fill:#FEDB41;" d="M324.408,187.592c-64.266-64.565-169.073-64.565-233.641,0l-42.342,42.344
	c-64.567,64.565-64.567,169.373,0,233.639c64.266,64.567,169.073,64.567,233.639,0l42.344-42.342
	C388.974,356.665,388.974,251.857,324.408,187.592z"/>
<path style="fill:#FCBF29;" d="M324.408,187.592c64.565,64.266,64.565,169.073,0,233.641l-42.344,42.342
	c-64.565,64.567-169.373,64.567-233.639,0L324.408,187.592z"/>
<g>
	<path style="fill:#FEA832;" d="M194.674,272.278c-8.3,0-15.015-6.716-15.015-15.015v-15.015h-15.015
		c-8.3,0-15.015-6.716-15.015-15.015s6.716-15.015,15.015-15.015h30.031c8.299,0,15.015,6.716,15.015,15.015v30.031
		C209.69,265.563,202.974,272.278,194.674,272.278z"/>
	<path style="fill:#FEA832;" d="M209.69,317.325v30.031c0,8.41-6.606,15.015-15.015,15.015s-15.015-6.606-15.015-15.015V332.34
		h-15.015c-8.41,0-15.015-6.606-15.015-15.015s6.606-15.015,15.015-15.015h30.031c4.204,0,7.808,1.802,10.811,4.204
		C207.888,309.517,209.69,313.12,209.69,317.325z"/>
</g>
<path style="fill:#FE9923;" d="M194.674,452.463c-8.3,0-15.015-6.716-15.015-15.015v-15.015h-15.015
	c-8.3,0-15.015-6.716-15.015-15.015s6.716-15.015,15.015-15.015h30.031c8.299,0,15.015,6.716,15.015,15.015v30.031
	C209.69,445.747,202.974,452.463,194.674,452.463z"/>
<g>
	<path style="fill:#FEA832;" d="M104.582,362.371c-8.3,0-15.015-6.716-15.015-15.015V332.34H74.551
		c-8.3,0-15.015-6.716-15.015-15.015s6.716-15.015,15.015-15.015h30.031c8.3,0,15.015,6.716,15.015,15.015v30.031
		C119.597,355.655,112.882,362.371,104.582,362.371z"/>
	<path style="fill:#FEA832;" d="M119.597,407.417v30.031c0,8.41-6.606,15.015-15.015,15.015s-15.015-6.606-15.015-15.015v-15.015
		H74.551c-8.41,0-15.015-6.606-15.015-15.015s6.606-15.015,15.015-15.015h30.031c4.204,0,7.808,1.802,10.811,4.204
		C117.796,399.609,119.597,403.213,119.597,407.417z"/>
</g>
<g>
	<path style="fill:#FE9923;" d="M115.393,396.606c2.403,3.002,4.204,6.606,4.204,10.811v30.031c0,8.41-6.606,15.015-15.015,15.015
		s-15.015-6.606-15.015-15.015v-15.015L115.393,396.606z"/>
	<path style="fill:#FE9923;" d="M205.485,306.514c2.403,3.002,4.204,6.606,4.204,10.811v30.031c0,8.41-6.606,15.015-15.015,15.015
		s-15.015-6.606-15.015-15.015V332.34L205.485,306.514z"/>
	<path style="fill:#FE9923;" d="M284.767,362.371c-8.299,0-15.015-6.716-15.015-15.015V332.34h-15.015
		c-8.3,0-15.015-6.716-15.015-15.015s6.716-15.015,15.015-15.015h30.031c8.299,0,15.015,6.716,15.015,15.015v30.031
		C299.782,355.655,293.066,362.371,284.767,362.371z"/>
</g>
<path style="fill:#FEA832;" d="M299.782,227.232v30.031c0,8.41-6.606,15.015-15.015,15.015c-8.41,0-15.015-6.606-15.015-15.015
	v-15.015h-15.015c-8.41,0-15.015-6.606-15.015-15.015s6.606-15.015,15.015-15.015h30.031c4.204,0,7.808,1.802,10.811,4.204
	C297.98,219.424,299.782,223.028,299.782,227.232z"/>
<path style="fill:#FE9923;" d="M299.782,227.232v30.031c0,8.41-6.606,15.015-15.015,15.015c-8.41,0-15.015-6.606-15.015-15.015
	v-15.015l25.826-25.826C297.98,219.424,299.782,223.028,299.782,227.232z"/>
<g>
</g>
<g>
</g>
<g>
</g>
<g>
</g>
<g>
</g>
<g>
</g>
<g>
</g>
<g>
</g>
<g>
</g>
<g>
</g>
<g>
</g>
<g>
</g>
<g>
</g>
<g>
</g>
<g>
</g>
</svg>
