<svg id="Capa_1" enable-background="new 0 0 512 512" height="30" viewBox="0 0 512 512" width="30" xmlns="http://www.w3.org/2000/svg" xmlns:xlink="http://www.w3.org/1999/xlink"><linearGradient id="SVGID_1_" gradientUnits="userSpaceOnUse" x1="256.992" x2="256.992" y1="512" y2="285"><stop offset="0" stop-color="#ffe59a"/><stop offset="1" stop-color="#ffffd5"/></linearGradient><linearGradient id="SVGID_2_" gradientUnits="userSpaceOnUse" x1="256" x2="256" y1="450" y2="0"><stop offset="0" stop-color="#fd5900"/><stop offset="1" stop-color="#ffde00"/></linearGradient><g id="Flower_3_"><g><g><path d="m256.992 285c-8.291 0-15 6.709-15 15v197c0 8.291 6.709 15 15 15s15-6.709 15-15v-197c0-8.291-6.709-15-15-15z" fill="url(#SVGID_1_)"/></g></g><g><g><path d="m376 330h-30c-38.39 0-71.686 20.94-90 51.78-18.314-30.84-51.61-51.78-90-51.78h-30c-8.291 0-15 6.709-15 15 0 57.891 47.109 105 105 105h60c57.891 0 105-47.109 105-105 0-8.291-6.709-15-15-15zm-172.324-54.888c13.359 11.279 27.568 23.276 42.51 36.226 2.813 2.446 6.299 3.662 9.814 3.662 3.516 0 7.002-1.216 9.814-3.662 14.941-12.949 29.15-24.932 42.51-36.211 24.697-20.845 46.025-38.848 64.248-56.265 32.637-31.201 62.842-66.68 62.842-114.624 0-58.447-42.685-104.238-97.207-104.238-42.715 0-68.203 26.982-82.207 50.054-14.004-23.072-39.492-50.054-82.207-50.054-54.521 0-97.207 45.791-97.207 104.238 0 63.604 50.566 106.289 127.09 170.874z" fill="url(#SVGID_2_)"/></g></g></g></svg>