<?xml version="1.0" encoding="UTF-8" standalone="no"?> <svg width="48" height="48" viewBox="0 0 48 48" fill="none" xmlns="http://www.w3.org/2000/svg">
<path d="M44.5 18.214C43.3459 24.7635 40.2044 30.7993 35.5018 35.5018C30.7993 40.2044 24.7635 43.3459 18.214 44.5C14.4437 45.1717 10.5843 45.1717 6.814 44.5C5.98899 44.354 5.22872 43.9581 4.63601 43.366C4.04331 42.7738 3.64676 42.0139 3.5 41.189C2.58075 36.0365 2.91997 30.7381 4.4888 25.7449C6.05762 20.7517 8.80959 16.2114 12.5105 12.5105C16.2114 8.8096 20.7517 6.05763 25.7449 4.4888C30.7381 2.91998 36.0365 2.58076 41.189 3.50001C42.0136 3.64631 42.7733 4.04232 43.3655 4.6345C43.9577 5.22667 44.3537 5.98643 44.5 6.81101C45.172 10.5823 45.172 14.4427 44.5 18.214Z" fill="#C6512B"/>
<path d="M44.5 6.81101C44.3148 5.76956 43.7321 4.84085 42.875 4.22101C42.969 6.85958 42.7829 9.50067 42.32 12.1C41.0073 19.6343 37.3922 26.5766 31.972 31.972C26.5766 37.3922 19.6343 41.0073 12.1 42.32C9.5015 42.7814 6.86143 42.9661 4.224 42.871C4.8424 43.729 5.77002 44.3131 6.811 44.5C10.5813 45.1717 14.4407 45.1717 18.211 44.5C24.7611 43.3465 30.7975 40.2052 35.5006 35.5026C40.2038 30.8 43.3458 24.7639 44.5 18.214C45.172 14.4427 45.172 10.5823 44.5 6.81101V6.81101Z" fill="#AD4023"/>
<path d="M44.6 17.54V17.55C44.58 17.77 44.54 17.99 44.5 18.21C44.42 18.68 44.32 19.14 44.22 19.61L43.52 19.23C37.2816 15.8416 32.1584 10.7184 28.77 4.47999L28.39 3.77999C28.86 3.67999 29.32 3.57999 29.79 3.49999C30.01 3.45999 30.23 3.41999 30.45 3.39999H30.46L30.52 3.51999C33.7311 9.42114 38.5789 14.2688 44.48 17.48L44.6 17.54Z" fill="#EAEFF0"/>
<path d="M41.5 15.634C41.314 16.308 41.123 16.981 40.9 17.646C41.752 18.205 42.621 18.74 43.522 19.23L44.222 19.61C44.322 19.14 44.422 18.68 44.502 18.21C44.542 17.99 44.582 17.77 44.602 17.55V17.54L44.482 17.48C43.449 16.918 42.464 16.291 41.5 15.634Z" fill="#CDD3D3"/>
<path d="M19.61 44.22C19.14 44.32 18.68 44.42 18.21 44.5C17.99 44.54 17.77 44.58 17.55 44.6L17.48 44.48C14.2719 38.5766 9.42339 33.7282 3.52 30.52L3.4 30.45C3.42 30.23 3.46 30.01 3.5 29.79C3.58 29.32 3.68 28.86 3.78 28.39L4.48 28.77C10.7184 32.1584 15.8416 37.2816 19.23 43.52L19.61 44.22Z" fill="#EAEFF0"/>
<path d="M19.23 43.52C18.74 42.62 18.205 41.75 17.646 40.898C16.982 41.124 16.309 41.314 15.635 41.498C16.3001 42.4602 16.9158 43.4554 17.48 44.48L17.55 44.6C17.77 44.58 17.99 44.54 18.21 44.5C18.68 44.42 19.14 44.32 19.61 44.22L19.23 43.52Z" fill="#CDD3D3"/>
<path d="M31.071 18.343L32.207 17.207C32.3892 17.0184 32.49 16.7658 32.4877 16.5036C32.4854 16.2414 32.3802 15.9906 32.1948 15.8052C32.0094 15.6198 31.7586 15.5146 31.4964 15.5123C31.2342 15.51 30.9816 15.6108 30.793 15.793L29.657 16.929L28.243 15.515C28.0544 15.3328 27.8018 15.232 27.5396 15.2343C27.2774 15.2366 27.0266 15.3418 26.8412 15.5272C26.6558 15.7126 26.5506 15.9634 26.5483 16.2256C26.546 16.4878 26.6468 16.7404 26.829 16.929L28.243 18.343L26.828 19.758L25.414 18.343C25.2254 18.1608 24.9728 18.06 24.7106 18.0623C24.4484 18.0646 24.1976 18.1698 24.0122 18.3552C23.8268 18.5406 23.7216 18.7914 23.7193 19.0536C23.717 19.3158 23.8178 19.5684 24 19.757L25.414 21.172L24 22.586L22.586 21.171C22.4938 21.0755 22.3834 20.9993 22.2614 20.9469C22.1394 20.8945 22.0082 20.8669 21.8754 20.8657C21.7426 20.8646 21.6109 20.8899 21.488 20.9402C21.3651 20.9905 21.2535 21.0647 21.1596 21.1586C21.0657 21.2525 20.9915 21.3641 20.9412 21.487C20.8909 21.6099 20.8656 21.7416 20.8667 21.8744C20.8679 22.0072 20.8955 22.1384 20.9479 22.2604C21.0003 22.3824 21.0765 22.4927 21.172 22.585L22.586 24L21.172 25.414L19.757 24C19.5684 23.8178 19.3158 23.717 19.0536 23.7193C18.7914 23.7216 18.5406 23.8268 18.3552 24.0122C18.1698 24.1976 18.0646 24.4484 18.0623 24.7106C18.06 24.9728 18.1608 25.2254 18.343 25.414L19.758 26.828L18.343 28.243L16.929 26.828C16.7404 26.6458 16.4878 26.545 16.2256 26.5473C15.9634 26.5496 15.7126 26.6548 15.5272 26.8402C15.3418 27.0256 15.2366 27.2764 15.2343 27.5386C15.232 27.8008 15.3328 28.0534 15.515 28.242L16.929 29.657L15.793 30.793C15.6975 30.8852 15.6213 30.9956 15.5689 31.1176C15.5165 31.2396 15.4889 31.3708 15.4877 31.5036C15.4866 31.6364 15.5119 31.7681 15.5622 31.8909C15.6125 32.0138 15.6867 32.1255 15.7806 32.2194C15.8745 32.3133 15.9861 32.3875 16.109 32.4378C16.2319 32.4881 16.3636 32.5134 16.4964 32.5122C16.6292 32.5111 16.7604 32.4835 16.8824 32.4311C17.0044 32.3787 17.1148 32.3025 17.207 32.207L18.343 31.071L19.757 32.485C19.9456 32.6672 20.1982 32.7679 20.4604 32.7657C20.7226 32.7634 20.9734 32.6582 21.1588 32.4728C21.3442 32.2874 21.4494 32.0366 21.4517 31.7744C21.454 31.5122 21.3532 31.2596 21.171 31.071L19.757 29.657L21.172 28.242L22.586 29.656C22.7746 29.8382 23.0272 29.9389 23.2894 29.9367C23.5516 29.9344 23.8024 29.8292 23.9878 29.6438C24.1732 29.4584 24.2784 29.2076 24.2807 28.9454C24.283 28.6832 24.1822 28.4306 24 28.242L22.586 26.828L24 25.414L25.415 26.828C25.5072 26.9235 25.6176 26.9997 25.7396 27.0521C25.8616 27.1045 25.9928 27.1321 26.1256 27.1332C26.2584 27.1344 26.3901 27.1091 26.513 27.0588C26.6359 27.0085 26.7475 26.9343 26.8414 26.8404C26.9353 26.7465 27.0095 26.6348 27.0598 26.5119C27.1101 26.3891 27.1354 26.2574 27.1342 26.1246C27.1331 25.9918 27.1055 25.8606 27.0531 25.7386C27.0007 25.6166 26.9245 25.5062 26.829 25.414L25.414 24L26.828 22.586L28.243 24C28.4316 24.1822 28.6842 24.2829 28.9464 24.2807C29.2086 24.2784 29.4594 24.1732 29.6448 23.9878C29.8302 23.8024 29.9354 23.5516 29.9377 23.2894C29.94 23.0272 29.8392 22.7746 29.657 22.586L28.242 21.172L29.657 19.757L31.071 21.171C31.2596 21.3532 31.5122 21.4539 31.7744 21.4517C32.0366 21.4494 32.2874 21.3442 32.4728 21.1588C32.6582 20.9734 32.7634 20.7226 32.7657 20.4604C32.768 20.1982 32.6672 19.9456 32.485 19.757L31.071 18.343Z" fill="#EAEFF0"/>
</svg>
