<svg id="Capa_1" enable-background="new 0 0 512.05 512.05" height="30" viewBox="0 0 512.05 512.05" width="30" xmlns="http://www.w3.org/2000/svg"><g><g><g><g><g><g><circle cx="255.982" cy="327.188" fill="#31a7fb" r="177.361"/><path d="m381.393 452.604c-39.293 39.293-92.438 56.295-143.712 51.014 39.103-4.04 77.137-21.042 107.109-51.014 69.266-69.266 69.266-181.566 0-250.832-29.973-29.973-68.006-46.974-107.109-51.004 51.274-5.29 104.419 11.711 143.712 51.004 69.266 69.266 69.266 181.566 0 250.832z" fill="#1c96f9"/><path d="m130.568 201.774c69.267-69.267 181.567-69.26 250.827 0 15.172 15.172 27.019 32.411 35.546 50.804l-73.06-6.921c-3.595-.34-7.098 1.281-9.157 4.246l-17.968 25.766c-1.047 1.514-2.498 2.71-4.182 3.446l-45.723 20.091c-2.724 1.196-5.845 1.118-8.506-.212l-22.355-11.174c-3.284-1.642-5.4-4.947-5.52-8.619l-.375-11.174c-.134-4.097 2.236-7.855 5.994-9.504l12.137-5.315c5.548-2.42 7.692-9.178 4.55-14.359l-10.735-17.713c-2.951-4.862-9.341-6.298-14.076-3.163l-38.582 25.519c-2.838 1.875-4.522 5.06-4.48 8.457l.481 43.748c.057 5.18-3.843 9.547-8.995 10.07l-65.403 6.68c-3.262.333-6.475-.955-8.612-3.446l-19.1-22.299c7.275-31.123 23.035-60.669 47.294-84.928z" fill="#27e19d"/><path d="m344.79 201.773c-29.963-29.963-67.996-46.964-107.089-51.004 51.274-5.28 104.409 11.721 143.692 51.004 15.171 15.171 27.022 32.413 35.553 50.804l-38.353-3.63c-8.361-17.032-19.632-33.003-33.803-47.174z" fill="#26d192"/><path d="m330.045 338.109 14.906-14.906c1.436-1.436 3.274-2.401 5.271-2.767l81.782-15.003c6.436 52.336-10.432 106.99-50.61 147.169-22.742 22.742-50.115 38.013-79.079 45.82l-20.09-55.829c-.973-2.705-.54-5.717 1.158-8.038l17.764-21.125c2.516-2.993 6.545-4.246 10.315-3.208l24.155 6.647c3.3.908 6.835.067 9.372-2.23l12.631-11.435c3.338-3.022 4.247-7.902 2.22-11.923l-11.551-22.92c-.631-1.251-1.517-2.356-2.602-3.243l-14.901-12.185c-4.584-3.749-4.929-10.637-.741-14.824z" fill="#27e19d"/><path d="m381.393 452.604c-22.742 22.742-50.114 38.013-79.077 45.814l-4.38-12.161c16.922-8.351 32.783-19.572 46.854-33.653 38.493-38.493 55.595-90.278 51.294-140.582l35.923-6.59c6.431 52.334-10.43 106.989-50.614 147.172z" fill="#26d192"/></g></g></g></g></g><g><path d="m352.785 113.961c-29.979 17.222-67.151 12.69-96.277-8.41-.006-.01-.006-.01-.006-.01-3.555-35.789 11.25-70.194 41.229-87.415 29.979-17.222 67.157-12.68 96.292 8.415 0 0 0 0 .006.01 3.546 35.794-11.265 70.189-41.244 87.41z" fill="#23f1a8"/><path d="m352.783 113.959c-29.979 17.222-67.149 12.693-96.276-8.409-.005-.009-.005-.009-.005-.009-.463-4.644-.61-9.254-.466-13.817 26.947 14.549 58.485 16.034 84.575 1.046s40.694-42.98 41.71-73.592c4.014 2.175 7.923 4.624 11.701 7.363 0 0 0 0 .005.009 3.547 35.796-11.266 70.187-41.244 87.409z" fill="#26d192"/></g><g><path d="m159.179 113.961c29.979 17.222 67.151 12.69 96.277-8.41.006-.01.006-.01.006-.01 3.555-35.789-11.25-70.194-41.229-87.415-29.979-17.222-67.157-12.68-96.292 8.415 0 0 0 0-.006.01-3.545 35.794 11.265 70.189 41.244 87.41z" fill="#23f1a8"/><path d="m255.462 105.544s0 0-.01.01c-5.3 3.84-10.861 7.131-16.601 9.841 1.01-33.133-13.751-64.126-41.704-80.187-24.522-14.091-53.865-13.611-79.677-1.43.07-2.4.23-4.81.47-7.231 0-.01 0-.01 0-.01 29.133-21.092 66.316-25.632 96.288-8.411 29.983 17.222 44.785 51.625 41.234 87.418z" fill="#26d192"/></g><path d="m306.642 194.15c-10.133-9.652-29.018-16.144-50.66-16.144s-40.527 6.492-50.66 16.144z" fill="#27e19d"/><path d="m145.469 360.856 16.347-7.197c3.385-1.491 7.317-.991 10.222 1.299l12.453 9.818c1.764 1.391 3.945 2.147 6.192 2.147h36.919c4.221 0 7.987 2.65 9.413 6.622l5.418 15.093c.87 2.423.772 5.088-.274 7.441l-15.621 35.148c-2.082 4.684-7.368 7.036-12.241 5.446l-46.762-15.259c-4.043-1.319-6.81-5.051-6.896-9.303l-.354-17.341c-.092-4.484-3.157-8.359-7.5-9.48l-5.653-1.459c-4.304-1.111-7.358-4.928-7.497-9.371l-.129-4.137c-.13-4.078 2.23-7.823 5.963-9.467z" fill="#27e19d"/><g><path d="m399.727 210.937c-2.608-3.217-7.333-3.711-10.549-1.103-3.218 2.608-3.712 7.332-1.104 10.549 6.062 7.478 11.389 15.322 15.99 23.441l-59.477-5.634c-6.283-.589-12.426 2.254-16.015 7.422l-17.985 25.792c-.256.37-.607.661-1.03.845l-45.721 20.09c-.686.302-1.465.283-2.138-.054l-22.354-11.173c-.819-.41-1.348-1.236-1.378-2.163l-.375-11.169c-.034-1.034.56-1.972 1.507-2.387l12.127-5.31c4.628-2.02 8.157-5.938 9.684-10.751 1.526-4.814.899-10.053-1.719-14.369l-10.738-17.717c-2.497-4.115-6.458-6.959-11.151-8.01-4.682-1.049-9.472-.167-13.473 2.482l-38.579 25.517c-4.986 3.295-7.919 8.83-7.846 14.797l.481 43.748c.015 1.309-.954 2.395-2.256 2.527l-17.519 1.79c-4.121.421-7.12 4.103-6.699 8.223.395 3.862 3.652 6.738 7.452 6.738.255 0 .512-.013.771-.04l17.515-1.789c9.07-.921 15.836-8.494 15.736-17.614l-.482-43.758c-.01-.851.407-1.638 1.119-2.108l38.585-25.521c.77-.509 1.531-.439 1.919-.354.39.087 1.118.354 1.602 1.151l10.737 17.716c.514.847.375 1.653.247 2.058-.129.404-.479 1.142-1.394 1.541l-12.142 5.317c-6.601 2.896-10.713 9.419-10.477 16.623l.375 11.168c.21 6.428 3.912 12.207 9.662 15.083l22.354 11.173c4.672 2.336 10.094 2.471 14.879.371l45.709-20.085c2.964-1.295 5.505-3.389 7.329-6.028l17.978-25.779c.513-.737 1.396-1.143 2.289-1.056l68.784 6.516c5.591 12.826 9.506 26.158 11.759 39.689l-74.848 13.731c-3.509.644-6.697 2.317-9.223 4.841l-14.905 14.905c-3.491 3.492-5.353 8.323-5.105 13.254.246 4.932 2.58 9.553 6.402 12.679l14.901 12.185c.273.223.493.497.652.813l11.55 22.919c.507 1.005.278 2.233-.556 2.988l-12.632 11.436c-.64.58-1.519.785-2.348.559l-24.154-6.648c-6.574-1.81-13.656.393-18.046 5.612l-17.765 21.125c-.109.13-.214.264-.314.401-3.172 4.339-3.979 9.948-2.159 15.003l17.276 48.007c-11.844 2.578-24.05 3.909-36.461 3.909-45.371 0-88.027-17.669-120.109-49.751-39.125-39.124-55.129-92.742-48.028-143.731l8.838 10.318c3.348 3.9 8.217 6.113 13.293 6.113.589 0 1.181-.03 1.772-.09l12.426-1.269c2.014-.206 3.857-1.216 5.115-2.801 1.257-1.586 1.82-3.612 1.562-5.619l-.07-.568c-.528-4.108-4.286-7.011-8.397-6.48-.941.122-1.821.413-2.609.839l-9.548.975c-.821.083-1.622-.243-2.155-.864l-16.531-19.3c7.293-28.505 22.063-55.474 44.333-77.745 31.275-31.275 71.613-48.023 112.609-49.846v13.533c-19.969 1.31-37.679 7.806-48.333 17.955-2.999 2.857-3.114 7.604-.258 10.604 2.858 3 7.604 3.115 10.604.258 9.114-8.682 26.543-14.075 45.487-14.075s36.373 5.393 45.487 14.075c1.452 1.383 3.313 2.069 5.172 2.069 1.98 0 3.958-.78 5.432-2.327 2.856-2.999 2.741-7.747-.258-10.604-10.655-10.149-28.363-16.645-48.333-17.955v-13.536c35.542 1.578 70.81 14.391 100.341 38.717 3.198 2.633 7.923 2.177 10.558-1.021 2.634-3.197 2.177-7.924-1.021-10.558-31.18-25.684-69.7-40.27-109.878-41.879v-23.626c4.252 2.362 8.631 4.435 13.11 6.19 3.854 1.511 8.209-.391 9.719-4.249 1.511-3.857-.392-8.208-4.248-9.718-3.78-1.48-7.479-3.227-11.078-5.213l19.788-11.367 42.445 19.666c-6.03 1.735-12.319 2.689-18.828 2.833-4.141.091-7.424 3.523-7.332 7.664.09 4.084 3.43 7.334 7.495 7.334.056 0 .112 0 .169-.002 14.99-.332 29.054-4.212 41.8-11.535 31.717-18.221 48.949-54.49 44.971-94.653-.104-1.05-.435-2.076-.958-2.992-.529-.926-1.249-1.728-2.113-2.354-32.697-23.674-72.709-27.062-104.426-8.843-17.415 10.004-30.448 25.457-38.013 44-7.565-18.543-20.598-33.996-38.012-44-31.717-18.219-71.73-14.831-104.427 8.844-.864.625-1.59 1.438-2.119 2.364-.523.916-.848 1.932-.952 2.982-3.979 40.163 13.254 76.432 44.971 94.653h.001c13.553 7.786 28.615 11.626 43.977 11.626 16.517 0 33.376-4.454 49.063-13.211v23.61c-.314.013-.627.018-.94.032-46.156 2.095-89.581 21.254-122.276 53.949-72.077 72.078-72.077 189.356 0 261.433 34.916 34.916 81.339 54.145 130.717 54.145s95.801-19.229 130.717-54.145c32.516-32.516 51.664-75.696 53.918-121.588 2.233-45.565-12.288-90.092-40.894-125.38zm-95.873-187.619c6.907-3.627 14.267-6.043 21.854-7.291l-4.1 43.463-22.378 12.855zm75.694 2.889-42.009 24.133 3.326-35.26c13.007.486 26.244 4.231 38.683 11.127zm-2.4 52.029-32.137-14.89 42.013-24.135c-.307 14.219-3.742 27.542-9.876 39.025zm-25.763 27.819-44.682-20.702 22.378-12.855 39.611 18.353c-4.899 5.924-10.694 11.065-17.307 15.204zm-63.692-71.122-4.392 46.564-19.798 11.373c.493-22.985 9.175-43.618 24.19-57.937zm-39.231 57.937-19.798-11.373-4.392-46.565c15.014 14.319 23.697 34.952 24.19 57.938zm-123.523-53.659 42.014 24.135-32.137 14.89c-6.135-11.483-9.569-24.806-9.877-39.025zm7.478-13.004c12.438-6.896 25.676-10.64 38.683-11.126l3.325 35.259zm57.938 33.283-4.099-43.462c7.587 1.247 14.947 3.663 21.853 7.29l4.625 49.028zm-47.084 31.361 39.612-18.353 22.378 12.855-44.683 20.703c-6.612-4.14-12.407-9.281-17.307-15.205zm35.482 23.316 42.439-19.663 19.803 11.376c-20.104 11.156-42.304 14.048-62.242 8.287zm197.339 333.131c-19.662 19.662-43.299 33.899-69.095 41.984l-17.715-49.229c-.114-.317-.083-.666.081-.956l17.524-20.839c.628-.748 1.644-1.064 2.585-.805l24.155 6.648c5.803 1.596 11.934.138 16.395-3.902l12.631-11.435c5.821-5.269 7.419-13.846 3.885-20.859l-11.551-22.92c-1.111-2.204-2.643-4.113-4.551-5.674l-14.901-12.185c-.75-.613-.896-1.401-.917-1.816-.021-.416.046-1.214.731-1.899l14.904-14.904c.362-.362.819-.602 1.322-.694l73.951-13.566c3.651 47.834-13.059 96.676-49.434 133.051z"/><path d="m132.007 370.557.13 4.135c.241 7.725 5.636 14.468 13.119 16.399l5.653 1.459c1.081.279 1.852 1.253 1.875 2.371l.354 17.341c.151 7.432 5.001 13.974 12.068 16.28l46.761 15.259c1.812.591 3.651.874 5.462.874 6.744 0 13.078-3.919 15.96-10.403l15.621-35.147c1.838-4.135 2.009-8.759.479-13.022l-5.417-15.092c-2.488-6.931-9.107-11.588-16.473-11.588h-36.918c-.56 0-1.11-.191-1.549-.537l-12.453-9.819c-5.096-4.016-11.948-4.886-17.887-2.272l-16.348 7.197c-6.563 2.891-10.661 9.393-10.437 16.565zm16.484-2.836 16.349-7.198c.847-.374 1.828-.249 2.555.325l12.453 9.819c3.074 2.422 6.922 3.756 10.835 3.756h36.918c1.053 0 1.999.666 2.354 1.656l5.417 15.09c.219.61.194 1.271-.068 1.863l-15.621 35.147c-.522 1.176-1.841 1.762-3.062 1.362l-46.761-15.259c-1.011-.33-1.703-1.265-1.726-2.327l-.354-17.34c-.158-7.815-5.555-14.637-13.123-16.59l-5.653-1.459c-1.069-.276-1.84-1.239-1.875-2.344l-.13-4.135c-.031-1.024.554-1.953 1.492-2.366z"/></g></g></svg>